<svg version="1.1" xmlns="http://www.w3.org/2000/svg" xmlns:xlink="http://www.w3.org/1999/xlink" x="0px" y="0px" width="100px" height="100px" viewBox="0 0 100 100" enable-background="new 0 0 100 100" xml:space="preserve"><circle fill="#1c437a" cx="51" cy="52" r="41.5"/><linearGradient id="SVGID_1_" gradientUnits="userSpaceOnUse" x1="49.9995" y1="8.5" x2="49.9995" y2="91.5005"><stop  offset="0" style="stop-color:#1b6bd9"/><stop  offset="1" style="stop-color:#2257a5"/></linearGradient><circle fill="url(#SVGID_1_)" cx="50" cy="50" r="41.5"/><g><path fill="#FFFFFF" d="M61.475,28.887c1.088-0.638,1.451-2.038,0.813-3.126c-0.638-1.088-2.038-1.452-3.126-0.814L17.05,45.152c-1.088,0.639-1.453,2.039-0.813,3.126c0.638,1.089,2.039,1.454,3.126,0.815L61.475,28.887z"/><path fill="#FFFFFF" d="M84.033,56.11L82,50.419h-7.014v-2.104h-2.812V46.12H59.579v9.531H41.005v-0.152l-11.101-5.095l34.214-16.417c1.087-0.638,1.45-2.038,0.813-3.126c-0.638-1.088-2.039-1.452-3.126-0.814L19.692,50.252c-1.088,0.638-1.452,2.038-0.813,3.125c0.639,1.088,2.038,1.453,3.126,0.814l2.631-1.263l-0.124,2.721h-0.745c-1.258,0-2.278,1.021-2.278,2.278c0,1.259,1.02,2.278,2.278,2.278h3.831c-0.054,0.264-0.083,0.537-0.083,0.817c0,2.283,1.853,4.135,4.136,4.135c2.284,0,4.136-1.852,4.136-4.135c0-0.28-0.029-0.554-0.083-0.817h0.704c-0.054,0.264-0.082,0.537-0.082,0.817c0,2.283,1.851,4.135,4.135,4.135s4.136-1.852,4.136-4.135c0-0.28-0.029-0.554-0.082-0.817H56.94c-0.054,0.264-0.081,0.537-0.081,0.817c0,2.283,1.851,4.135,4.136,4.135c2.283,0,4.135-1.852,4.135-4.135c0-0.28-0.028-0.554-0.081-0.817h3.073c-0.055,0.264-0.083,0.537-0.083,0.817c0,2.283,1.852,4.135,4.136,4.135s4.136-1.852,4.136-4.135c0-0.28-0.028-0.554-0.082-0.817h1.326c1.257,0,2.277-1.02,2.277-2.278c0-0.4-0.104-0.774-0.284-1.102L84.033,56.11z"/></g></svg>