<svg version="1.1" xmlns="http://www.w3.org/2000/svg" xmlns:xlink="http://www.w3.org/1999/xlink" x="0px" y="0px" width="100px" height="100px" viewBox="0 0 100 100" enable-background="new 0 0 100 100" xml:space="preserve"><circle fill="#1c437a" cx="51" cy="52" r="41.5"/><linearGradient id="SVGID_1_" gradientUnits="userSpaceOnUse" x1="49.9995" y1="8.5" x2="49.9995" y2="91.5005"><stop  offset="0" style="stop-color:#1b6bd9"/><stop  offset="1" style="stop-color:#2257a5"/></linearGradient><circle fill="url(#SVGID_1_)" cx="50" cy="50" r="41.5"/><g> <rect x="-59.3" y="49.005" fill="#010101" width="0.244" height="0.221"/> <polygon fill="#010101" points="-53.738,52.108 -53.746,52.115 -53.746,52.108 "/> <polygon fill="#010101" points="-53.738,52.108 -53.746,52.115 -53.746,52.108 "/> <polygon fill="#FFFFFF" points="75.021,31.9 79.35,29.584 79.151,29.215 79.162,27.941 78.718,25.871 79.77,25.307 81.456,28.458 82.457,27.921 82.957,28.853 81.955,29.388 82.418,30.253 75.985,33.696 76.109,33.93 73.263,35.454 73.139,35.223 68.128,37.902 66.938,35.675 66.709,35.251 66.162,34.231 71.896,31.163 "/> <path fill="#FFFFFF" d="M19.784,65.724l5.825,7.051l11.362-15.499l-0.005-0.003l1.688-0.991l0.531,0.991l0.009-0.005l1.153,1.197 l0.213,4.631l2.192,0.59l1.882-1.008L43.925,61.1l0.033-5.542l0.779,0.308l2.87-1.537l0.176-0.795l-1.069-1.999l0.142-0.077 l0.877,1.636l0.857-0.456l0.195-0.104l0.444-0.237l-0.875-1.639l0.022-0.011l0.416-0.643c4.928,7.504,14.4,7.923,14.4,7.923 l0.492-4.834c0,0-6.985-0.026-10.623-5.382l3.46-1.853l-1.454-2.717l0.215-0.121l1.31,2.448l0.833,0.252l1.195-0.641l8.996-6.283 l-0.031-0.061l0.12-0.605l-1.965-3.672l-0.521-0.139l-0.024-0.048l-8.438,4.515l-0.423-0.264l-4.712,2.524l-0.361,1.164 l-14.498,7.761l-0.087,1.863l-0.601,0.324l0.211,1.473l0.218,0.412h-0.001l0.001,0.004l-1.503,0.861l-0.008-0.016l-3.752,2.94 l-1.927,0.16L19.784,65.724z M43.291,53.666l0.871,0.11l0.849,0.694l0.83,0.137l0.094-0.313l-0.815-0.123l-0.782-0.688l0.372-0.625 l-0.106-0.195l1.845-0.991l0.999,1.868l-0.152,0.684l-2.47,1.322l-0.67-0.267L43.291,53.666z"/> </g></svg>