<svg version="1.1" xmlns="http://www.w3.org/2000/svg" xmlns:xlink="http://www.w3.org/1999/xlink" x="0px" y="0px" width="100px" height="100px" viewBox="0 0 100 100" enable-background="new 0 0 100 100" xml:space="preserve"><circle fill="#1c437a" cx="51" cy="52" r="41.5"/><linearGradient id="SVGID_1_" gradientUnits="userSpaceOnUse" x1="49.9995" y1="8.5" x2="49.9995" y2="91.5005"><stop  offset="0" style="stop-color:#1b6bd9"/><stop  offset="1" style="stop-color:#2257a5"/></linearGradient><circle fill="url(#SVGID_1_)" cx="50" cy="50" r="41.5"/><g> <path fill="#FFFFFF" d="M77,28.616c0,0-3.494-0.602-8.312,4.216l2.047,2.048l2.047,2.048C77.602,32.109,77,28.616,77,28.616z"/> <rect x="66.852" y="35.294" transform="matrix(-0.7071 -0.7071 0.7071 -0.7071 93.6993 110.5516)" fill="#FFFFFF" width="5.791" height="1.149"/> <rect x="55.555" y="32.517" transform="matrix(-0.7071 -0.7071 0.7071 -0.7071 66.4361 121.8455)" fill="#FFFFFF" width="5.793" height="29.296"/> <polygon fill="#FFFFFF" points="50.699,49.857 44.354,50.82 41.85,53.324 44.541,56.016 "/> <polygon fill="#FFFFFF" points="52.252,63.726 54.756,61.221 55.719,54.878 49.561,61.034 "/> <path fill="#FFFFFF" d="M43.111,74.338c-0.506,0-1,0.053-1.477,0.147c-0.398-1.239-1.313-2.243-2.492-2.763 c0.081-0.126,0.155-0.26,0.237-0.385c4.217-6.469,10.181-11.057,10.181-11.057l-2.029-2.029l-0.207-0.207l-2.029-2.029 c0,0-4.18,5.434-10.186,9.596c-2.187,1.516-4.615,2.863-7.173,3.718c0,0-5.405-3.964-9.29,1.838c0,0-1.195-0.986-2.696-1.287 c6.409,11.898,18.974,19.991,33.432,20.009c0.779-0.4,1.293-1.074,1.293-1.846c0-0.771-0.51-1.451-1.29-1.854 c0.827-1.214,1.312-2.683,1.312-4.263C50.699,77.735,47.301,74.338,43.111,74.338z"/> </g></svg>