<svg version="1.1" xmlns="http://www.w3.org/2000/svg" xmlns:xlink="http://www.w3.org/1999/xlink" x="0px" y="0px" width="100px" height="100px" viewBox="0 0 100 100" enable-background="new 0 0 100 100" xml:space="preserve"><circle fill="#1c437a" cx="51" cy="52" r="41.5"/><linearGradient id="SVGID_1_" gradientUnits="userSpaceOnUse" x1="49.9995" y1="8.5" x2="49.9995" y2="91.5005"><stop  offset="0" style="stop-color:#1b6bd9"/><stop  offset="1" style="stop-color:#2257a5"/></linearGradient><circle fill="url(#SVGID_1_)" cx="50" cy="50" r="41.5"/><g><path fill="#FFFFFF" d="M73.385,48.382l-7.983-0.904l-0.793,0.962H64.22c-0.928-2.03-2.977-3.367-5.233-3.367c-1.941,0-3.722,0.992-4.774,2.563l-0.756-1.516l-36.669-4.16l0.743-6.532l39.952,4.532l0.053-0.488l-1.346-0.153l0.289-2.552l1.346,0.154l0.09-0.795l-2.346-0.265l0.373-3.31l3.154,0.361l0.098-0.858l3.922,0.441l-0.098,0.86l1.077,0.125l-0.077,0.661l1.848,0.212l-0.152,1.358l-1.422-0.159l-0.26,2.29l1.421,0.16l-0.153,1.363l-1.425-0.164l-0.164,1.462l10.42,1.186L73.385,48.382z"/><path fill="#FFFFFF" d="M38.573,66.764l14.782-10.826h-0.248v-2.324h1.602c-0.211-0.322-0.385-0.67-0.52-1.043H51.44v-3.483h2.748c0.713-1.96,2.591-3.366,4.798-3.366c2.21,0,4.087,1.406,4.798,3.366h2.75v3.483h-2.75c-0.135,0.373-0.307,0.719-0.519,1.043h1.602v2.324l16.179,12.219h2.167v1.281h-3.405l-18-11.939l-6.805,16.117h-2.44V72.34h1.2l3.75-15.887L39.812,68.041h-3.406v-1.277H38.573z"/></g></svg>