<svg version="1.1" xmlns="http://www.w3.org/2000/svg" xmlns:xlink="http://www.w3.org/1999/xlink" x="0px" y="0px" width="100px" height="100px" viewBox="0 0 100 100" enable-background="new 0 0 100 100" xml:space="preserve"><circle fill="#1c437a" cx="51" cy="52" r="41.5"/><linearGradient id="SVGID_1_" gradientUnits="userSpaceOnUse" x1="49.9995" y1="8.5" x2="49.9995" y2="91.5005"><stop  offset="0" style="stop-color:#1b6bd9"/><stop  offset="1" style="stop-color:#2257a5"/></linearGradient><circle fill="url(#SVGID_1_)" cx="50" cy="50" r="41.5"/><g> <rect x="-59.3" y="49.005" fill="#010101" width="0.244" height="0.221"/> <polygon fill="#010101" points="-53.738,52.108 -53.746,52.115 -53.746,52.108 "/> <polygon fill="#010101" points="-53.738,52.108 -53.746,52.115 -53.746,52.108 "/> <path fill="#FFFFFF" d="M50.97,18.948h0.048v0.112h-0.001c0.578,1.421,1.604,4.576,1.604,7.408c0,2.83,0.174,3.277,0.174,3.896 s2.058,12.398,2.058,12.398l1.548,3.982v0.669l14.297,13.089h0.015c-0.003-1.48,0.37,5.29,0.37,5.29 c-0.097,0.064-0.275,0.011-0.366-0.02l-0.019,0.011c0,0.005,0,0.01,0,0.01l-0.019-0.015l-13.897-3.557v2.111l7.509,7.568 c0,0-0.63,1.126-0.965,1.552c-0.334,0.426-0.74,1.116-0.892,1.127c-0.152,0.01-22.963,0.011-23.116,0s-0.559-0.699-0.892-1.126 c-0.335-0.426-0.964-1.552-0.964-1.552l7.507-7.569v-2.11L31.07,65.78l-0.017,0.014c0,0,0-0.004,0-0.009l-0.019-0.01 c-0.091,0.028-0.269,0.083-0.366,0.019c0,0,0.372-6.771,0.37-5.29h0.015L45.35,47.415v-0.67l1.547-3.982c0,0,2.06-11.78,2.06-12.398 s0.172-1.066,0.172-3.896c0-2.832,1.025-5.987,1.604-7.408v-0.113h0.049"/> </g></svg>