<svg version="1.1" xmlns="http://www.w3.org/2000/svg" xmlns:xlink="http://www.w3.org/1999/xlink" x="0px" y="0px" width="100px" height="100px" viewBox="0 0 100 100" enable-background="new 0 0 100 100" xml:space="preserve"><circle fill="#1c437a" cx="51" cy="52" r="41.5"/><linearGradient id="SVGID_1_" gradientUnits="userSpaceOnUse" x1="49.9995" y1="8.5" x2="49.9995" y2="91.5005"><stop  offset="0" style="stop-color:#1b6bd9"/><stop  offset="1" style="stop-color:#2257a5"/></linearGradient><circle fill="url(#SVGID_1_)" cx="50" cy="50" r="41.5"/><g><path fill="#FFFFFF" d="M68.435,34.655c1.012-1.75,0.411-3.989-1.339-5c-1.751-1.011-3.99-0.411-5.001,1.34c-0.75,1.3-0.611,2.867,0.226,4.002l-9.235,15.996c-0.404,0.7-0.164,1.596,0.536,2c0.23,0.133,0.481,0.196,0.73,0.196c0.506,0,0.997-0.263,1.27-0.732l9.234-15.996C66.258,36.618,67.685,35.955,68.435,34.655z"/><path fill="#FFFFFF" d="M58.271,56.181l15.996-9.235c1.136,0.836,2.703,0.975,4.002,0.224c1.751-1.01,2.351-3.248,1.34-5c-1.011-1.75-3.249-2.35-5-1.339c-1.299,0.75-1.962,2.178-1.806,3.578l-15.996,9.236c-0.7,0.404-0.94,1.299-0.536,2c0.271,0.469,0.763,0.732,1.27,0.732C57.789,56.377,58.041,56.313,58.271,56.181z"/><path fill="#FFFFFF" d="M80.529,55.604c-1.499,0-2.788,0.904-3.354,2.196H58.705c-0.808,0-1.464,0.655-1.464,1.464s0.656,1.465,1.464,1.465h18.471c0.565,1.292,1.854,2.195,3.354,2.195c2.021,0.001,3.661-1.638,3.661-3.659C84.19,57.243,82.552,55.604,80.529,55.604z"/><path fill="#FFFFFF" d="M41.294,57.801H22.823c-0.565-1.292-1.854-2.196-3.354-2.196c-2.021,0-3.66,1.639-3.66,3.661c0,2.021,1.639,3.659,3.661,3.66c1.5,0,2.788-0.904,3.354-2.196h18.47c0.809,0,1.464-0.656,1.464-1.465S42.103,57.801,41.294,57.801z"/><path fill="#FFFFFF" d="M43.192,53.645l-15.997-9.236c0.157-1.401-0.507-2.828-1.806-3.578c-1.75-1.011-3.989-0.411-5,1.339c-1.01,1.751-0.41,3.989,1.34,5c1.299,0.751,2.867,0.612,4.002-0.224l15.996,9.235c0.231,0.133,0.482,0.196,0.731,0.196c0.505,0,0.998-0.264,1.269-0.732C44.132,54.943,43.893,54.049,43.192,53.645z"/><path fill="#FFFFFF" d="M37.679,34.998c0.836-1.135,0.976-2.703,0.225-4.002c-1.011-1.751-3.249-2.351-5-1.34c-1.75,1.011-2.35,3.249-1.339,5c0.75,1.299,2.176,1.963,3.578,1.806l9.236,15.996c0.271,0.47,0.763,0.733,1.27,0.733c0.248,0,0.5-0.064,0.73-0.196c0.7-0.405,0.94-1.301,0.536-2.001L37.679,34.998z"/><path fill="#FFFFFF" d="M53.66,28.735c0-2.021-1.639-3.661-3.66-3.661s-3.661,1.639-3.661,3.661c0,1.5,0.904,2.789,2.197,3.354v18.47c0,0.809,0.655,1.465,1.464,1.465c0.808,0,1.464-0.656,1.464-1.465v-18.47C52.756,31.523,53.66,30.235,53.66,28.735z"/></g></svg>