<svg version="1.1" xmlns="http://www.w3.org/2000/svg" xmlns:xlink="http://www.w3.org/1999/xlink" x="0px" y="0px" width="100px" height="100px" viewBox="0 0 100 100" enable-background="new 0 0 100 100" xml:space="preserve"><circle fill="#1c437a" cx="51" cy="52" r="41.5"/><linearGradient id="SVGID_1_" gradientUnits="userSpaceOnUse" x1="49.9995" y1="8.5" x2="49.9995" y2="91.5005"><stop  offset="0" style="stop-color:#1b6bd9"/><stop  offset="1" style="stop-color:#2257a5"/></linearGradient><circle fill="url(#SVGID_1_)" cx="50" cy="50" r="41.5"/><g> <path fill="#FFFFFF" d="M61.082,47.179H31.729c-4.722,0-8.562,3.841-8.562,8.563c0,4.719,3.84,8.56,8.562,8.56h29.354 c4.723,0,8.563-3.841,8.563-8.56C69.645,51.02,65.805,47.179,61.082,47.179z M31.729,59.409c-2.028,0-3.669-1.642-3.669-3.667 c0-2.028,1.641-3.671,3.669-3.671s3.669,1.643,3.669,3.671C35.397,57.768,33.757,59.409,31.729,59.409z M41.513,59.409 c-2.028,0-3.669-1.642-3.669-3.667c0-2.028,1.641-3.671,3.669-3.671s3.669,1.643,3.669,3.671 C45.183,57.768,43.542,59.409,41.513,59.409z M51.298,59.409c-2.028,0-3.669-1.642-3.669-3.667c0-2.028,1.641-3.671,3.669-3.671 s3.671,1.643,3.671,3.671C54.969,57.768,53.326,59.409,51.298,59.409z M61.082,59.409c-2.028,0-3.667-1.642-3.667-3.667 c0-2.028,1.639-3.671,3.667-3.671s3.671,1.643,3.671,3.671C64.753,57.768,63.11,59.409,61.082,59.409z"/> <rect x="59.86" y="37.393" fill="#FFFFFF" width="17.123" height="4.893"/> <polygon fill="#FFFFFF" points="54.969,44.732 57.415,42.286 57.415,37.393 54.969,34.947 37.844,34.947 35.397,37.393 35.397,42.286 37.844,44.732 "/> </g></svg>