<svg version="1.1" xmlns="http://www.w3.org/2000/svg" xmlns:xlink="http://www.w3.org/1999/xlink" x="0px" y="0px" width="100px" height="100px" viewBox="0 0 100 100" enable-background="new 0 0 100 100" xml:space="preserve"><circle fill="#1c437a" cx="51" cy="52" r="41.5"/><linearGradient id="SVGID_1_" gradientUnits="userSpaceOnUse" x1="49.9995" y1="8.5" x2="49.9995" y2="91.5005"><stop  offset="0" style="stop-color:#1b6bd9"/><stop  offset="1" style="stop-color:#2257a5"/></linearGradient><circle fill="url(#SVGID_1_)" cx="50" cy="50" r="41.5"/><g> <path fill="#FFFFFF" d="M74.544,36.852c-0.391-4.3-0.957-9.115-3.829-11.034c-2.872-1.919-5.631-0.113-6.701,0.959 c-0.309,0.308-0.534,0.616-0.71,0.917c-0.245-0.129-0.446-0.206-0.564-0.196c-0.812,0.062-1.056,1.28-1.056,1.28 s-0.505-0.312-0.879,0.135c-0.375,0.446,0.197,0.672-0.303,1.269c-0.499,0.595-2.686,2.299-4.185,4.086 c-0.749,0.893-1.076,1.284-2.576,3.071c-1.499,1.788-2.627,1.93-4.816,2.12c-2.188,0.189-3.795,1.809-4.295,2.404 c-0.5,0.596-15.113,18.033-16.12,19.219c-1.401,1.649-1.276,2.731-0.088,3.732c0.307,0.259,8.586,7.236,8.893,7.495 c1.189,1.002,2.024,1.057,3.654-0.727c1.049-1.148,15.62-18.622,16.12-19.219c0.501-0.596,1.815-2.461,1.626-4.655 c-0.189-2.194-0.243-3.333,1.257-5.12c1.499-1.788,1.827-2.179,2.576-3.071c1.498-1.787,2.797-4.239,3.297-4.834 s0.82-0.07,1.194-0.516c0.375-0.446-0.019-0.891-0.019-0.891s1.155-0.45,1.078-1.262c-0.016-0.153-0.181-0.407-0.444-0.718 c0.401-0.365,0.773-0.575,1.146-0.202c0.958,0.959-1.435,6.237-1.914,12.954c-0.367,5.154-2.394,11.036-0.479,11.036 c1.974,0,1.914,0.479,1.914,1.438s2.394,1.919,3.829,0.959c1.437-0.959,3.351-0.881,3.351-2.398 C75.5,52.205,75.021,42.129,74.544,36.852z"/> </g></svg>