<svg version="1.1" xmlns="http://www.w3.org/2000/svg" xmlns:xlink="http://www.w3.org/1999/xlink" x="0px" y="0px" width="100px" height="100px" viewBox="0 0 100 100" enable-background="new 0 0 100 100" xml:space="preserve"><circle fill="#1c437a" cx="51" cy="52" r="41.5"/><linearGradient id="SVGID_1_" gradientUnits="userSpaceOnUse" x1="49.9995" y1="8.5" x2="49.9995" y2="91.5005"><stop  offset="0" style="stop-color:#1b6bd9"/><stop  offset="1" style="stop-color:#2257a5"/></linearGradient><circle fill="url(#SVGID_1_)" cx="50" cy="50" r="41.5"/><g> <path fill="#FFFFFF" d="M60.23,25.703c-0.197-0.2-0.469-0.324-0.771-0.324c-0.223,0-0.427,0.068-0.6,0.181l-7.857,5.334 l0.001-4.562c-0.001-0.555-0.45-1.003-1.003-1.003s-1.001,0.448-1.002,1.003v8.669c0,0.345-0.278,0.624-0.624,0.624 c-0.344,0-0.622-0.278-0.622-0.624V30.65c0-0.433-0.247-0.764-0.593-1.001l-6.02-4.089c-0.172-0.112-0.376-0.18-0.598-0.18 c-0.303,0-0.576,0.125-0.773,0.324c-0.193,0.194-0.312,0.465-0.312,0.762v10.64c0,1.687,0.863,3.171,2.168,4.035l4.604,3.128 l-3.477,3.6c-0.006,0.007-0.013,0.011-0.019,0.017c-0.191,0.196-0.311,0.463-0.313,0.759c0,0-0.002,6.878-0.002,6.88 c0,0.345,0.277,0.623,0.62,0.629h13.92c0.343-0.006,0.62-0.284,0.62-0.629c0-0.002-0.002-6.88-0.002-6.88 c-0.001-0.296-0.121-0.563-0.313-0.759c-0.006-0.005-0.013-0.01-0.019-0.017l-3.477-3.6l4.604-3.128 c1.306-0.863,2.168-2.348,2.168-4.035l0.001-10.64C60.543,26.169,60.424,25.899,60.23,25.703z"/> <path fill="#FFFFFF" d="M56.862,57.593H43.137c-0.345,0-0.625,0.279-0.625,0.625c0,0.003,0.002,0.007,0.002,0.011l-0.002,0.003 c0.491,5.852,2.994,11.129,6.814,15.135c0.165,0.186,0.406,0.304,0.673,0.304s0.508-0.118,0.673-0.304 c3.82-4.006,6.322-9.282,6.814-15.135l-0.002-0.002c0-0.004,0.002-0.008,0.002-0.012C57.487,57.872,57.208,57.593,56.862,57.593z" /> </g></svg>