<svg version="1.1" xmlns="http://www.w3.org/2000/svg" xmlns:xlink="http://www.w3.org/1999/xlink" x="0px" y="0px" width="100px" height="100px" viewBox="0 0 100 100" enable-background="new 0 0 100 100" xml:space="preserve"><circle fill="#1c437a" cx="51" cy="52" r="41.5"/><linearGradient id="SVGID_1_" gradientUnits="userSpaceOnUse" x1="49.9995" y1="8.5" x2="49.9995" y2="91.5005"><stop  offset="0" style="stop-color:#1b6bd9"/><stop  offset="1" style="stop-color:#2257a5"/></linearGradient><circle fill="url(#SVGID_1_)" cx="50" cy="50" r="41.5"/><g> <path fill="#FFFFFF" d="M75.651,66.259H65.561c0.015-2.438-1.138-7.188-0.549-10.713c0.291-1.742,1.431-3.742,2.152-5.382 c0.817-1.862,2.137-3.959,2.153-5.383c0.005-0.732-1.611-1.818-3.901-2.98v-7.76c0-1.821-1.48-3.3-3.301-3.3h-1.129v-2.808 c0-1.82-1.48-3.3-3.301-3.3h-3.321v-4.345h-8.847v4.345h-3.321c-1.82,0-3.3,1.479-3.3,3.3v2.809h-1.128 c-1.821,0-3.302,1.479-3.302,3.3V41.8c-2.288,1.163-3.906,2.249-3.899,2.98c0.015,1.424,1.334,3.521,2.152,5.383 c0.721,1.64,1.861,3.64,2.152,5.382c0.589,3.524-0.563,8.275-0.549,10.713h-9.974c-0.674,0-1.221,0.546-1.221,1.222 c0,0.677,0.547,1.223,1.221,1.223h12.1c3.789,1.698,12.025,4.368,13.493,4.604c1.468-0.235,9.705-2.905,13.494-4.604H75.65 c0.676,0,1.222-0.546,1.222-1.223C76.872,66.805,76.327,66.259,75.651,66.259z M41.339,27.932c0-0.472,0.384-0.856,0.856-0.856 h15.49c0.473,0,0.856,0.384,0.856,0.856v2.809H41.339V27.932z M36.909,34.04c0-0.473,0.384-0.856,0.858-0.856h24.347 c0.474,0,0.858,0.383,0.858,0.856v6.597c-5.354-2.4-12.266-4.748-13.032-4.738c-0.766-0.01-7.678,2.339-13.032,4.739V34.04z"/> <path fill="#FFFFFF" d="M63.338,79.463H36.662c-0.675,0-1.221-0.547-1.221-1.222c0-0.676,0.546-1.224,1.221-1.224h26.676 c0.675,0,1.222,0.548,1.222,1.224C64.56,78.916,64.013,79.463,63.338,79.463z"/> </g></svg>