<svg version="1.1" xmlns="http://www.w3.org/2000/svg" xmlns:xlink="http://www.w3.org/1999/xlink" x="0px" y="0px" width="100px" height="100px" viewBox="0 0 100 100" enable-background="new 0 0 100 100" xml:space="preserve"><circle fill="#1c437a" cx="51" cy="52" r="41.5"/><linearGradient id="SVGID_1_" gradientUnits="userSpaceOnUse" x1="49.9995" y1="8.5" x2="49.9995" y2="91.5005"><stop  offset="0" style="stop-color:#1b6bd9"/><stop  offset="1" style="stop-color:#2257a5"/></linearGradient><circle fill="url(#SVGID_1_)" cx="50" cy="50" r="41.5"/><g><circle fill="#FFFFFF" cx="41.329" cy="60.205" r="3.243"/><circle fill="#FFFFFF" cx="62.976" cy="60.205" r="3.243"/> <path fill="#FFFFFF" d="M27.047,49.971h2.286v17.066c0,2.12,1.345,3.914,3.216,4.619v2.467c0,1.844,1.501,3.35,3.351,3.35h3.145c1.846,0,3.35-1.504,3.35-3.35v-2.137h18.092v2.137c0,1.844,1.501,3.35,3.35,3.35h3.145c1.847,0,3.351-1.504,3.351-3.35v-2.467c1.874-0.705,3.216-2.499,3.216-4.619V49.971h2.288c0.971,0,1.753-0.785,1.753-1.755V35.981c0-0.97-0.782-1.754-1.753-1.754h-2.288v-5.165c0-3.608-2.936-6.542-6.541-6.542H35.877c-3.608,0-6.542,2.936-6.542,6.542v5.165h-2.288c-0.968,0-1.754,0.784-1.754,1.754v12.238C25.292,49.186,26.079,49.971,27.047,49.971z M38.887,73.967h-2.829v-1.98h2.829V73.967z M66.819,73.967H63.99v-1.98h2.829V73.967z M53.906,26.027h13.095c1.675,0,3.035,1.362,3.035,3.035v6.917V48.06h-16.13V26.027z M32.839,35.981v-6.919c0-1.673,1.36-3.035,3.035-3.035h14.523V48.06H32.839V35.981z M32.839,51.566h37.194v15.471c0,0.794-0.646,1.442-1.437,1.442H34.281c-0.794,0-1.439-0.648-1.439-1.442V51.566H32.839z"/> </g></svg>