<svg version="1.1" xmlns="http://www.w3.org/2000/svg" xmlns:xlink="http://www.w3.org/1999/xlink" x="0px" y="0px" width="100px" height="100px" viewBox="0 0 100 100" enable-background="new 0 0 100 100" xml:space="preserve"><circle fill="#1c437a" cx="51" cy="52" r="41.5"/><linearGradient id="SVGID_1_" gradientUnits="userSpaceOnUse" x1="49.9995" y1="8.5" x2="49.9995" y2="91.5005"><stop  offset="0" style="stop-color:#1b6bd9"/><stop  offset="1" style="stop-color:#2257a5"/></linearGradient><circle fill="url(#SVGID_1_)" cx="50" cy="50" r="41.5"/><g> <circle fill="#FFFFFF" cx="63.449" cy="61.391" r="4.523"/> <path fill="#FFFFFF" d="M60.435,41.79v-4.523v-1.508c0-1.666-1.351-3.016-3.016-3.016H28.77c-1.665,0-3.016,1.35-3.016,3.016 v16.585c0,1.666,1.351,3.017,3.016,3.017h3.016v0.037c1.263-0.957,2.82-1.546,4.523-1.546c4.157,0,7.539,3.383,7.539,7.539h12.063 c0-3.082,1.865-5.733,4.523-6.9V41.79z"/> <path fill="#FFFFFF" d="M72.337,44.487c-0.745-1.49-2.699-2.698-4.364-2.698h-6.03v12.214c0.486-0.099,0.992-0.152,1.507-0.152 c4.158,0,7.539,3.383,7.539,7.539c1.666,0,3.017-1.35,3.017-3.016v-4.523v-6.031L72.337,44.487z M71.859,49.329h-6.901v-6.031 h3.015c0.834,0,1.811,0.604,2.182,1.349l1.705,3.411V49.329L71.859,49.329z"/> <circle fill="#FFFFFF" cx="36.309" cy="61.391" r="4.523"/> </g></svg>