<svg version="1.1" xmlns="http://www.w3.org/2000/svg" xmlns:xlink="http://www.w3.org/1999/xlink" x="0px" y="0px" width="100px" height="100px" viewBox="0 0 100 100" enable-background="new 0 0 100 100" xml:space="preserve"><circle fill="#1c437a" cx="51" cy="52" r="41.5"/><linearGradient id="SVGID_1_" gradientUnits="userSpaceOnUse" x1="49.9995" y1="8.5" x2="49.9995" y2="91.5005"><stop  offset="0" style="stop-color:#1b6bd9"/><stop  offset="1" style="stop-color:#2257a5"/></linearGradient><circle fill="url(#SVGID_1_)" cx="50" cy="50" r="41.5"/><g> <path fill="#FFFFFF" d="M72.44,70.019L52.26,33.593c-0.438-0.789-1.271-1.281-2.178-1.283c-0.902,0-1.735,0.489-2.173,1.276 L27.563,70.011c-0.429,0.768-0.418,1.716,0.026,2.473c0.444,0.759,1.267,1.23,2.147,1.23h8.248c1.373,0,2.489-1.117,2.489-2.49 c0-1.372-1.117-2.489-2.489-2.489H33.98l16.094-28.813l15.965,28.813h-3.831c-1.372,0-2.489,1.117-2.489,2.49 s1.117,2.489,2.489,2.489h8.057c0.875,0,1.697-0.469,2.146-1.227C72.854,71.729,72.866,70.784,72.44,70.019z"/> <path fill="#FFFFFF" d="M45.205,30.775c0.438,0.797,1.274,1.292,2.184,1.292c0.416,0,0.831-0.106,1.198-0.308 c1.203-0.661,1.645-2.177,0.984-3.381l-1.92-3.494c-0.438-0.796-1.274-1.291-2.183-1.291c-0.416,0-0.83,0.106-1.198,0.308 c-0.583,0.321-1.007,0.849-1.192,1.487c-0.186,0.639-0.112,1.311,0.208,1.894L45.205,30.775z"/> <path fill="#FFFFFF" d="M50.001,62.523c-4.742,0-8.601,3.858-8.601,8.601c0,1.373,1.117,2.489,2.49,2.489 c1.373,0,2.489-1.116,2.489-2.489c0-1.997,1.624-3.621,3.621-3.621c1.996,0,3.621,1.624,3.621,3.621 c0,1.373,1.116,2.489,2.489,2.489c1.372,0,2.489-1.116,2.49-2.489C58.602,66.382,54.743,62.523,50.001,62.523z"/> <path fill="#FFFFFF" d="M52.298,31.759c0.366,0.202,0.78,0.309,1.197,0.309c0.908,0,1.745-0.495,2.185-1.292l1.919-3.493 c0.661-1.204,0.219-2.72-0.983-3.381c-0.366-0.202-0.781-0.31-1.199-0.31c-0.908,0-1.744,0.496-2.183,1.292l-1.919,3.493 c-0.32,0.583-0.394,1.256-0.208,1.895C51.292,30.911,51.716,31.439,52.298,31.759z"/> </g></svg>
