<svg version="1.1" xmlns="http://www.w3.org/2000/svg" xmlns:xlink="http://www.w3.org/1999/xlink" x="0px" y="0px" width="100px" height="100px" viewBox="0 0 100 100" enable-background="new 0 0 100 100" xml:space="preserve"><circle fill="#1c437a" cx="51" cy="52" r="41.5"/><linearGradient id="SVGID_1_" gradientUnits="userSpaceOnUse" x1="49.9995" y1="8.5" x2="49.9995" y2="91.5005"><stop  offset="0" style="stop-color:#1b6bd9"/><stop  offset="1" style="stop-color:#2257a5"/></linearGradient><circle fill="url(#SVGID_1_)" cx="50" cy="50" r="41.5"/><g> <path fill="#FFFFFF" d="M55.211,37.09c-7.295-4.742-11.871-4.184-13.73-3.593v-1.224c0-0.527-0.428-0.956-0.957-0.956 s-0.956,0.428-0.956,0.956v50.455c0,0.528,0.427,0.956,0.956,0.956s0.957-0.428,0.957-0.956V56.127 c1.859-0.593,6.435-1.151,13.73,3.592c9.792,6.363,17.135,0,17.135,0V37.09C72.344,37.09,65.003,43.454,55.211,37.09z"/> </g></svg>