<?xml version="1.0" encoding="utf-8"?>
<svg viewBox="0 0 50 50" xmlns="http://www.w3.org/2000/svg">
  <circle cx="42.118" cy="42.09" r="41.5" style="fill: rgba(0, 90, 187, 0.5);" transform="matrix(0.596876, 0, 0, 0.598408, -0.006575, -0.146619)"/>
  <g transform="matrix(1, 0, 0, 1, -24.033169, -13.347909)">
    <g transform="matrix(1, 0, 0, 1, 108.917595, -37.019585)">
      <g transform="matrix(1, 0, 0, 1, -95.812309, 24.233559)">
        <g transform="matrix(1, 0, 0, 1, -9.872931, 7.404699)">
          <g transform="matrix(1, 0, 0, 1, 15.931321, 12.565549)">
            <path fill="#FFFFFF" d="M 39.861 10.52 C 39.861 10.52 35.499 13.515 35.499 23.496 L 39.861 23.496 L 44.225 23.496 C 44.226 13.515 39.861 10.52 39.861 10.52 Z" style="" transform="matrix(0.837061, 0.547109, -0.547109, 0.837061, 15.800296, -19.037603)"/>
            <rect x="25.604" y="21.392" fill="#FFFFFF" width="8.726" height="1.684" style="" transform="matrix(0.837061, 0.547109, -0.547109, 0.837061, 22.272627, -10.851871)"/>
            <rect x="25.604" y="24.177" fill="#FFFFFF" width="8.726" height="25.99" style="" transform="matrix(0.837061, 0.547109, -0.547109, 0.837061, 22.272627, -10.851871)"/>
            <polygon fill="#FFFFFF" points="18.197 33.075 12.465 40.645 12.465 45.832 18.197 45.832" style="" transform="matrix(0.837061, 0.547109, -0.547109, 0.837061, 24.083385, -1.959227)"/>
            <polygon fill="#FFFFFF" points="26.213 42.061 31.946 49.631 31.946 54.818 26.213 54.818" style="" transform="matrix(0.837061, 0.547109, -0.547109, 0.837061, 31.239871, -8.01699)"/>
          </g>
        </g>
      </g>
    </g>
  </g>
</svg>