<?xml version="1.0" encoding="utf-8"?>
<svg viewBox="0 0 50 50" xmlns="http://www.w3.org/2000/svg">
  <circle cx="42.118" cy="42.09" r="41.5" style="fill: rgba(179, 36, 41, 0.51);" transform="matrix(0.596876, 0, 0, 0.598408, -0.006575, -0.146619)"/>
  <g transform="matrix(0.691234, 0, 0, 0.698059, -9.624619, -8.975335)" style=""/>
  <g transform="matrix(1, 0, 0, 1, 17.910539, -31.330046)">
    <g transform="matrix(1, 0, 0, 1, 21.834737, 37.828335)">
      <g transform="matrix(1, 0, 0, 1, -57.857472, -23.44613)">
        <path fill="#FFFFFF" d="M 52.905 20.925 C 52.905 20.925 48.543 23.92 48.543 33.901 L 52.905 33.901 L 57.269 33.901 C 57.27 23.92 52.905 20.925 52.905 20.925 Z" style="" transform="matrix(0.837061, 0.547109, -0.547109, 0.837061, 23.61834, -24.478718)"/>
        <rect x="25.604" y="21.392" fill="#FFFFFF" width="8.726" height="1.684" style="" transform="matrix(0.837061, 0.547109, -0.547109, 0.837061, 35.316315, -0.447223)"/>
        <rect x="25.604" y="24.177" fill="#FFFFFF" width="8.726" height="25.99" style="" transform="matrix(0.837061, 0.547109, -0.547109, 0.837061, 35.316315, -0.447223)"/>
        <polygon fill="#FFFFFF" points="31.241 43.48 25.509 51.05 25.509 56.237 31.241 56.237" style="" transform="matrix(0.837061, 0.547109, -0.547109, 0.837061, 31.901428, -7.400342)"/>
        <polygon fill="#FFFFFF" points="39.257 52.466 44.99 60.036 44.99 65.223 39.257 65.223" style="" transform="matrix(0.837061, 0.547109, -0.547109, 0.837061, 39.057914, -13.458105)"/>
      </g>
    </g>
  </g>
</svg>