<svg version="1.1" xmlns="http://www.w3.org/2000/svg" xmlns:xlink="http://www.w3.org/1999/xlink" x="0px" y="0px" width="100px" height="100px" viewBox="0 0 100 100" enable-background="new 0 0 100 100" xml:space="preserve"><circle fill="#1c437a" cx="51" cy="52" r="41.5"/><linearGradient id="SVGID_1_" gradientUnits="userSpaceOnUse" x1="49.9995" y1="8.5" x2="49.9995" y2="91.5005"><stop  offset="0" style="stop-color:#1b6bd9"/><stop  offset="1" style="stop-color:#2257a5"/></linearGradient><circle fill="url(#SVGID_1_)" cx="50" cy="50" r="41.5"/><g> <path fill="#FFFFFF" d="M71.299,48.304l-11.1-17.574c1.294-0.555,2.682-0.925,4.255-0.925c5.826,0,10.544,4.717,10.544,10.544 C74.904,43.587,73.518,46.362,71.299,48.304z M57.425,50.617l-4.07,2.498l-0.925,0.555l-0.925,0.555l-3.608,2.22l-0.925,0.556 l-0.925,0.555L29.306,68.283l-1.942-3.33c0-0.186,0-0.37-0.092-0.463c-0.092-0.185-0.277-0.277-0.462-0.369l-1.85-3.146 L52.43,43.772l0.37-0.185l1.388,2.127l1.201,1.943L57.425,50.617L57.425,50.617z M51.597,91.406H47.99v-32.65l3.606-2.22V91.406z M58.813,49.322l-4.811-7.399c-0.093-0.462-0.093-0.925-0.093-1.48c0-3.607,1.851-6.844,4.717-8.787l11.285,17.759 c-1.573,0.925-3.423,1.572-5.457,1.572C62.326,50.894,60.384,50.339,58.813,49.322z"/> </g></svg>