<svg version="1.1" xmlns="http://www.w3.org/2000/svg" xmlns:xlink="http://www.w3.org/1999/xlink" x="0px" y="0px" width="100px" height="100px" viewBox="0 0 100 100" enable-background="new 0 0 100 100" xml:space="preserve"><circle fill="#1c437a" cx="51" cy="52" r="41.5"/><linearGradient id="SVGID_1_" gradientUnits="userSpaceOnUse" x1="49.9995" y1="8.5" x2="49.9995" y2="91.5005"><stop  offset="0" style="stop-color:#1b6bd9"/><stop  offset="1" style="stop-color:#2257a5"/></linearGradient><circle fill="url(#SVGID_1_)" cx="50" cy="50" r="41.5"/><g> <path fill="#FFFFFF" d="M42.363,58.43c-0.874,0-1.583,0.71-1.583,1.583v3.609c0,0.873,0.709,1.583,1.583,1.583 s1.583-0.709,1.583-1.583v-3.609C43.945,59.14,43.236,58.43,42.363,58.43z"/> <path fill="#FFFFFF" d="M58.352,51.025c0.874,0,1.582-0.708,1.582-1.583v-3.607c0-0.874-0.708-1.583-1.582-1.583 c-0.875,0-1.583,0.709-1.583,1.583v3.607C56.769,50.316,57.477,51.025,58.352,51.025z"/> <path fill="#FFFFFF" d="M65.665,65.205c0.874,0,1.583-0.709,1.583-1.583v-3.609c0-0.873-0.709-1.583-1.583-1.583 s-1.583,0.71-1.583,1.583v3.609C64.082,64.495,64.791,65.205,65.665,65.205z"/> <path fill="#FFFFFF" d="M65.665,51.025c0.874,0,1.583-0.708,1.583-1.583v-3.607c0-0.874-0.709-1.583-1.583-1.583 s-1.583,0.709-1.583,1.583v3.607C64.082,50.316,64.791,51.025,65.665,51.025z"/> <path fill="#FFFFFF" d="M72.633,36.682H53.172c-1.806-5.92-7.308-10.229-13.82-10.229c-7.98,0-14.45,6.469-14.45,14.45 c0,6.019,3.68,11.174,8.911,13.348v18.144c0,0.873,0.709,1.583,1.583,1.583h14.059h6.49h16.689c0.874,0,1.583-0.709,1.583-1.583 V38.265C74.216,37.39,73.507,36.682,72.633,36.682z M33.812,49.65c-0.683,0.029-1.38-0.204-1.929-0.702l-0.019-0.019 c-1.071-0.975-1.098-2.651-0.103-3.704l2.05-2.165l1.579-1.667L33.812,39.9l-2.527-2.393c-1.051-0.996-1.096-2.653-0.102-3.703 l0.018-0.021c0.995-1.049,2.653-1.095,3.703-0.101l3.167,3l0.939,0.889l0.842-0.889l3.046-3.217 c0.995-1.051,2.652-1.096,3.703-0.102l0.019,0.019c0.925,0.876,1.069,2.263,0.413,3.3c-0.089,0.141-0.191,0.276-0.311,0.402 l-2.616,2.764l-1.272,1.344l3.833,3.628c1.051,0.996,1.096,2.654,0.101,3.703l-0.018,0.021c-0.995,1.049-2.653,1.095-3.703,0.1 l-3.833-3.628l-2.238,2.364l-1.39,1.468C35.102,49.36,34.463,49.624,33.812,49.65z M58.566,70.45h-8.97V59.556h8.97V70.45z M71.051,70.811h-9.318V57.973c0-0.873-0.709-1.583-1.583-1.583H48.013c-0.874,0-1.583,0.71-1.583,1.583v12.838h-9.453V55.143 c0.774,0.128,1.563,0.212,2.374,0.212c7.981,0,14.45-6.47,14.45-14.452c0-0.356-0.027-0.705-0.053-1.054h0.75 c0.003,0,0.006-0.001,0.008-0.001h16.544V70.811z"/> </g></svg>