<svg version="1.1" xmlns="http://www.w3.org/2000/svg" xmlns:xlink="http://www.w3.org/1999/xlink" x="0px" y="0px" width="100px" height="100px" viewBox="0 0 100 100" enable-background="new 0 0 100 100" xml:space="preserve"><circle fill="#1c437a" cx="51" cy="52" r="41.5"/><linearGradient id="SVGID_1_" gradientUnits="userSpaceOnUse" x1="49.9995" y1="8.5" x2="49.9995" y2="91.5005"><stop  offset="0" style="stop-color:#1b6bd9"/><stop  offset="1" style="stop-color:#2257a5"/></linearGradient><circle fill="url(#SVGID_1_)" cx="50" cy="50" r="41.5"/><g> <path fill="#FFFFFF" d="M62.922,56.979c4.845,0,8.784-3.871,8.784-8.629c0-2.377-0.997-4.639-2.749-6.265 c0.27-0.938,0.407-1.92,0.407-2.925c0-6.024-4.991-10.925-11.126-10.925c-0.724,0-1.455,0.084-2.232,0.255 c-1.949-1.6-4.468-2.478-7.127-2.478c-2.49,0-4.892,0.791-6.79,2.231c-0.081-0.005-0.164-0.009-0.248-0.009 c-6.135,0-11.126,4.901-11.126,10.925c0,0.993,0.137,1.975,0.408,2.925c-1.753,1.63-2.75,3.892-2.75,6.265 c0,4.758,3.94,8.629,8.784,8.629c1.445,0,2.843-0.343,4.099-0.997v19.942c0,2.21-1.839,4.01-4.099,4.01 c-0.969,0-1.757,0.777-1.757,1.732c0,0.956,0.788,1.734,1.757,1.734c4.198,0,7.613-3.355,7.613-7.477v-23.78 c0-0.762-0.516-1.446-1.243-1.66c-0.725-0.227-1.548,0.063-1.976,0.696c-0.979,1.452-2.622,2.319-4.394,2.319 c-2.906,0-5.27-2.313-5.27-5.157c0-1.696,0.856-3.285,2.29-4.25c0.683-0.459,0.949-1.341,0.632-2.1 c-0.384-0.912-0.58-1.869-0.58-2.844c0-4.11,3.415-7.455,7.613-7.455c0.062,0,0.121,0.009,0.18,0.016l0.484,0.061l0.102,0.003 c0.461,0,0.876-0.154,1.197-0.44c1.366-1.201,3.168-1.862,5.073-1.862c2.057,0,4.027,0.783,5.406,2.149 c0.453,0.449,1.177,0.618,1.75,0.439c0.841-0.248,1.542-0.363,2.207-0.363c4.197,0,7.612,3.345,7.612,7.456 c0,0.978-0.195,1.935-0.584,2.847c-0.315,0.75-0.048,1.633,0.637,2.099c1.434,0.967,2.29,2.556,2.29,4.251 c0,2.846-2.364,5.16-5.271,5.16c-1.771,0-3.414-0.867-4.397-2.326c-0.427-0.617-1.234-0.909-1.964-0.692 c-0.748,0.225-1.251,0.894-1.251,1.663v23.772c0,4.121,3.415,7.477,7.612,7.477c0.968,0,1.754-0.778,1.754-1.734 c0-0.955-0.787-1.732-1.757-1.732c-2.259,0-4.098-1.8-4.098-4.01V55.98C60.081,56.637,61.48,56.979,62.922,56.979z"/> <path fill="#FFFFFF" d="M52.385,74.774c-0.647,0-1.172-0.521-1.172-1.151v-18.38c0-0.632,0.524-1.147,1.172-1.147 c0.646,0,1.171,0.518,1.171,1.147v18.38C53.556,74.258,53.031,74.774,52.385,74.774z"/> <path fill="#FFFFFF" d="M37.159,40.309c-0.646,0-1.171-0.518-1.171-1.147c0-3.169,2.628-5.743,5.855-5.743 c0.646,0,1.171,0.517,1.171,1.147c0,0.632-0.525,1.151-1.171,1.151c-1.938,0-3.514,1.545-3.514,3.445 C38.33,39.791,37.806,40.309,37.159,40.309z"/> <path fill="#FFFFFF" d="M62.925,51.799c-0.642,0-1.171-0.519-1.171-1.151s0.529-1.148,1.171-1.148s1.171-0.517,1.171-1.149 c0-0.633,0.53-1.149,1.172-1.149s1.171,0.518,1.171,1.149C66.438,50.252,64.862,51.799,62.925,51.799z"/> </g></svg>