<svg version="1.1" xmlns="http://www.w3.org/2000/svg" xmlns:xlink="http://www.w3.org/1999/xlink" x="0px" y="0px" width="100px" height="100px" viewBox="0 0 100 100" enable-background="new 0 0 100 100" xml:space="preserve"><circle fill="#1c437a" cx="51" cy="52" r="41.5"/><linearGradient id="SVGID_1_" gradientUnits="userSpaceOnUse" x1="49.9995" y1="8.5" x2="49.9995" y2="91.5005"><stop  offset="0" style="stop-color:#1b6bd9"/><stop  offset="1" style="stop-color:#2257a5"/></linearGradient><circle fill="url(#SVGID_1_)" cx="50" cy="50" r="41.5"/><g> <path fill="#FFFFFF" d="M68.621,43.951c-8.432-1.103-11.11,3.58-11.11,4.96s-3.042-13.893,5.991-17.506 c-8.732,1.204-14.353,6.223-14.353,11.342c0-9.636,1.205-18.268,7.728-22.483c-16.159,1.205-40.651,49.384-12.948,53.6 c29.967,4.561,20.778-21.254,20.778-21.254S63.603,46.586,68.621,43.951z M46.614,70.354c-15.453-2.381-14.03-19.188-1.792-24.416 c-1.494,4.425-2.849,9.382,1.969,13.106c0-2.854,3.259-7.456,8.13-8.129c-2.408,4.817-1.443,10.047-0.729,10.335 c1.634,0.655,3.439,1.559,8.209-4.581C64.255,66.572,57.581,72.043,46.614,70.354z"/> </g></svg>