<svg version="1.1" xmlns="http://www.w3.org/2000/svg" xmlns:xlink="http://www.w3.org/1999/xlink" x="0px" y="0px" width="100px" height="100px" viewBox="0 0 100 100" enable-background="new 0 0 100 100" xml:space="preserve"><circle fill="#1c437a" cx="51" cy="52" r="41.5"/><linearGradient id="SVGID_1_" gradientUnits="userSpaceOnUse" x1="49.9995" y1="8.5" x2="49.9995" y2="91.5005"><stop  offset="0" style="stop-color:#1b6bd9"/><stop  offset="1" style="stop-color:#2257a5"/></linearGradient><circle fill="url(#SVGID_1_)" cx="50" cy="50" r="41.5"/><g> <path fill="#FFFFFF" d="M51.797,37.341v-7.414h-3.38v7.414c-5.5,0.454-10.07,3.207-11.95,9.403 c-0.598,1.967-0.924,4.097-0.924,6.322c0,1.271,0.107,2.513,0.31,3.709c0.857,5.057,3.434,8.907,6.937,11.107v5.381H38.2 c-0.834,0-1.511,0.678-1.511,1.511c0,0.835,0.677,1.511,1.511,1.511h23.816c0.835,0,1.512-0.676,1.512-1.511 c0-0.833-0.677-1.511-1.512-1.511h-3.928v-5.836c3.179-2.271,5.498-5.969,6.287-10.735c0.193-1.171,0.296-2.385,0.296-3.626 c0-2.225-0.326-4.355-0.923-6.322C61.867,40.547,57.298,37.795,51.797,37.341z M38.839,55.4c-4.122-3.571,0-11.403,0-11.403h9.942 V55.4H38.839z M56.401,73.264H44.473v-4.492c1.735,0.772,3.634,1.193,5.633,1.193c2.256,0,4.389-0.526,6.295-1.504V73.264z M61.373,55.4H51.43V43.997h9.943C61.373,43.997,65.496,51.829,61.373,55.4z"/> <rect x="15.625" y="29.927" fill="#FFFFFF" width="32.025" height="2.983"/> <rect x="52.563" y="29.927" fill="#FFFFFF" width="31.937" height="2.983"/> </g></svg>