<svg version="1.1" xmlns="http://www.w3.org/2000/svg" xmlns:xlink="http://www.w3.org/1999/xlink" x="0px" y="0px" width="100px" height="100px" viewBox="0 0 100 100" enable-background="new 0 0 100 100" xml:space="preserve"><circle fill="#1c437a" cx="51" cy="52" r="41.5"/><linearGradient id="SVGID_1_" gradientUnits="userSpaceOnUse" x1="49.9995" y1="8.5" x2="49.9995" y2="91.5005"><stop  offset="0" style="stop-color:#1b6bd9"/><stop  offset="1" style="stop-color:#2257a5"/></linearGradient><circle fill="url(#SVGID_1_)" cx="50" cy="50" r="41.5"/><g>	<path fill="#FFFFFF" d="M83.812,39.833c0.931,0,1.685-0.754,1.685-1.685c0-0.93-0.754-1.685-1.685-1.685H63.442v-1.378h20.369		c0.931,0,1.685-0.754,1.685-1.685s-0.754-1.685-1.685-1.685H63.442v-0.613c0-1.353-1.098-2.45-2.45-2.45h-5.36		c-1.354,0-2.45,1.097-2.45,2.45V33.4H35.722c-0.338,0-0.613,0.274-0.613,0.613v6.738c0,0.339,0.274,0.613,0.613,0.613h17.459v3.675		c0,1.354,1.097,2.451,2.45,2.451h5.36c1.353,0,2.45-1.098,2.45-2.451v-0.306h20.369c0.931,0,1.685-0.755,1.685-1.685		c0-0.931-0.754-1.685-1.685-1.685H63.442v-1.532H83.812z"/>	<path fill="#FFFFFF" d="M27.995,40.598h4.358c0.338,0,0.613-0.274,0.613-0.612v-5.973c0-0.338-0.274-0.613-0.613-0.613h-4.358		c-0.338,0-0.613,0.274-0.613,0.613v5.973C27.382,40.324,27.656,40.598,27.995,40.598z"/>	<path fill="#FFFFFF" d="M37.79,31.715c0.973,0,1.761-0.789,1.761-1.761v-0.919c0-0.973-0.789-1.761-1.761-1.761		s-1.761,0.789-1.761,1.761v0.919C36.028,30.927,36.817,31.715,37.79,31.715z"/>	<path fill="#FFFFFF" d="M48.625,31.715h0.076c0.867,0,1.57-0.703,1.57-1.57s-0.703-1.57-1.57-1.57h-0.076		c-0.867,0-1.57,0.703-1.57,1.57S47.758,31.715,48.625,31.715z"/>	<path fill="#FFFFFF" d="M59.741,71.076L48.127,49.634h1.837c1.015,0,1.838-0.822,1.838-1.838v-2.909		c0-1.016-0.823-1.838-1.838-1.838H38.249c-1.015,0-1.838,0.822-1.838,1.838v2.909c0,1.016,0.823,1.838,1.838,1.838h3.174		L29.81,71.075h-0.667c-0.973,0-1.761,0.788-1.761,1.761c0,0.974,0.789,1.762,1.761,1.762h4.824c0.973,0,1.761-0.788,1.761-1.762		c0-0.965-0.777-1.746-1.74-1.759l8.548-15.782v18.384h-0.459c-0.973,0-1.761,0.788-1.761,1.761c0,0.974,0.789,1.762,1.761,1.762		h4.824c0.973,0,1.761-0.788,1.761-1.762c0-0.973-0.788-1.761-1.761-1.761h-0.689V53.817l9.347,17.258h-0.655		c-0.973,0-1.762,0.788-1.762,1.761c0,0.974,0.789,1.762,1.762,1.762h4.824c0.973,0,1.761-0.788,1.761-1.762		C61.489,71.868,60.708,71.084,59.741,71.076z"/></g></svg>