<svg version="1.1" xmlns="http://www.w3.org/2000/svg" xmlns:xlink="http://www.w3.org/1999/xlink" x="0px" y="0px" width="100px" height="100px" viewBox="0 0 100 100" enable-background="new 0 0 100 100" xml:space="preserve"><circle fill="#1c437a" cx="51" cy="52" r="41.5"/><linearGradient id="SVGID_1_" gradientUnits="userSpaceOnUse" x1="49.9995" y1="8.5" x2="49.9995" y2="91.5005"><stop  offset="0" style="stop-color:#1b6bd9"/><stop  offset="1" style="stop-color:#2257a5"/></linearGradient><circle fill="url(#SVGID_1_)" cx="50" cy="50" r="41.5"/><g> <path fill="#FFFFFF" d="M72.72,41.684c1.11-1.289,1.787-2.962,1.787-4.792c0-0.069-0.014-0.134-0.021-0.202 c0.008-0.068,0.021-0.137,0.021-0.208c0-4.056-3.298-7.356-7.356-7.356c-0.061,0-0.117,0.014-0.179,0.018 c-0.061-0.004-0.116-0.018-0.179-0.018c-4.056,0-7.356,3.3-7.356,7.356c0,0.07,0.015,0.137,0.021,0.204 c-0.008,0.069-0.021,0.134-0.021,0.206c0,1.956,0.771,3.729,2.019,5.047c-0.507,0.242-0.994,0.522-1.461,0.827 c-1.195-4.196-5.053-7.279-9.626-7.279c-0.083,0-0.163,0.018-0.244,0.024c-0.082-0.006-0.159-0.024-0.243-0.024 c-4.557,0-8.405,3.063-9.613,7.236c-0.62-0.399-1.271-0.751-1.957-1.04c1.11-1.289,1.787-2.962,1.787-4.792 c0-0.069-0.015-0.134-0.021-0.203c0.007-0.068,0.021-0.137,0.021-0.208c0-4.056-3.301-7.356-7.356-7.356 c-0.063,0-0.119,0.015-0.179,0.018c-0.061-0.004-0.118-0.018-0.178-0.018c-4.056,0-7.356,3.301-7.356,7.356 c0,0.07,0.015,0.137,0.02,0.204c-0.007,0.069-0.02,0.134-0.02,0.206c0,1.955,0.771,3.729,2.018,5.047 c-4.326,2.072-7.321,6.494-7.321,11.599c0,1.309,1.062,2.37,2.371,2.37c1.309,0,2.37-1.061,2.37-2.37 c0-4.475,3.642-8.116,8.118-8.116c0.129,0,0.253-0.017,0.375-0.038c0.124,0.02,0.265,0.038,0.394,0.038 c4.477,0,8.135,3.641,8.135,8.116c0,0.002,0,0.004,0,0.006c-4.664,3.023-8.821,8.693-8.821,15.179c0,1.781,1.438,3.226,3.218,3.226 c1.782,0,3.223-1.444,3.223-3.226c0-6.093,4.956-11.05,11.049-11.05c0.176,0,0.343-0.025,0.51-0.053 c0.168,0.027,0.338,0.053,0.513,0.053c6.093,0,11.051,4.957,11.051,11.05c0,1.781,1.443,3.226,3.225,3.226 c1.783,0,3.226-1.444,3.226-3.226c0-6.878-3.994-12.837-9.779-15.694c0.266-4.237,3.79-7.606,8.093-7.606 c0.129,0,0.252-0.015,0.375-0.038c0.124,0.021,0.248,0.038,0.376,0.038c4.479,0,8.119,3.643,8.119,8.116 c0,1.31,1.061,2.37,2.37,2.37c1.308,0,2.369-1.061,2.369-2.37C80.604,48.212,77.347,43.631,72.72,41.684z M35.356,36.891 c0,1.443-1.174,2.619-2.616,2.619c-0.062,0-0.119,0.013-0.179,0.016c-0.061-0.003-0.118-0.016-0.178-0.016 c-1.443,0-2.617-1.176-2.617-2.619c0-0.069-0.016-0.135-0.021-0.204c0.006-0.068,0.021-0.136,0.021-0.207 c0-1.443,1.173-2.617,2.617-2.617c0.061,0,0.118-0.014,0.178-0.017c0.06,0.004,0.117,0.017,0.179,0.017 c1.443,0,2.617,1.174,2.617,2.617c0,0.07,0.016,0.136,0.021,0.202C35.373,36.753,35.356,36.819,35.356,36.891z M53.929,46.06 c0,1.965-1.597,3.564-3.562,3.564c-0.083,0-0.162,0.018-0.244,0.023c-0.082-0.005-0.16-0.023-0.245-0.023 c-1.963,0-3.562-1.6-3.562-3.564c0-0.094-0.019-0.183-0.027-0.276c0.008-0.095,0.029-0.186,0.029-0.281 c0-1.964,1.597-3.563,3.562-3.563c0.083,0,0.161-0.017,0.243-0.024c0.082,0.007,0.161,0.024,0.244,0.024 c1.965,0,3.563,1.599,3.563,3.563c0,0.095,0.021,0.181,0.027,0.276C53.95,45.872,53.929,45.962,53.929,46.06z M69.768,36.891 c0,1.443-1.174,2.619-2.617,2.619c-0.061,0-0.118,0.013-0.18,0.016c-0.06-0.003-0.116-0.016-0.178-0.016 c-1.442,0-2.617-1.176-2.617-2.619c0-0.069-0.014-0.135-0.02-0.204c0.006-0.068,0.021-0.136,0.021-0.207 c0-1.443,1.174-2.617,2.616-2.617c0.062,0,0.118-0.014,0.178-0.017c0.062,0.004,0.119,0.017,0.18,0.017 c1.443,0,2.617,1.174,2.617,2.617c0,0.07,0.016,0.136,0.021,0.202C69.782,36.753,69.768,36.819,69.768,36.891z"/> </g></svg>