<svg version="1.1" xmlns="http://www.w3.org/2000/svg" xmlns:xlink="http://www.w3.org/1999/xlink" x="0px" y="0px" width="100px" height="100px" viewBox="0 0 100 100" enable-background="new 0 0 100 100" xml:space="preserve"><circle fill="#1c437a" cx="51" cy="52" r="41.5"/><linearGradient id="SVGID_1_" gradientUnits="userSpaceOnUse" x1="49.9995" y1="8.5" x2="49.9995" y2="91.5005"><stop  offset="0" style="stop-color:#1b6bd9"/><stop  offset="1" style="stop-color:#2257a5"/></linearGradient><circle fill="url(#SVGID_1_)" cx="50" cy="50" r="41.5"/><g><path fill="#FFFFFF" d="M85.463,42.587c-0.487,0-0.882,0.396-0.882,0.881v1.119c-0.184-0.244-0.474-0.405-0.803-0.405h-0.152c-0.557,0-1.008,0.451-1.008,1.007v0.914l-0.661-0.002H79.27l-17.977,0.009H47v-3.444h4v-1.326H39.501v0.003c-0.502-1.171-1.667-1.996-3.019-1.996H23.766c-1.807,0-3.282,1.473-3.282,3.281v4.496h-1.779l-1.981-1.984h-1.697c-1.829,2.887-1.829,5.795,0,8.681h1.697l1.981-1.982h1.779v1.541c0,1.809,1.475,3.283,3.282,3.283h8.465v4.096c0,1.477,1.19,2.667,2.666,2.667c1.477,0,2.666-1.19,2.666-2.667v-4.272c1.278-0.438,2.203-1.65,2.203-3.106V52.83h2.291v1.979c0,1.322,1.256,2.402,2.797,2.402h2.666l0.13-0.116v6.574c0,1.477,1.189,2.665,2.666,2.665s2.666-1.188,2.666-2.665V57.63l0.066-4.8h8.27l21.303,0.011v0.744c0,0.557,0.451,1.008,1.008,1.008h0.152c0.329,0,0.619-0.16,0.803-0.404v1.453c0,0.487,0.395,0.883,0.882,0.883c0.486,0,0.881-0.396,0.881-0.883V43.469C86.344,42.983,85.949,42.587,85.463,42.587zM39.765,46.111v-3.444h5.318v3.444h-2.063H39.765z M47.541,56.285h-2.666c-1.036,0-1.872-0.659-1.872-1.477V52.83h0.018h2.062c-0.048,0.633-0.244,1.263-0.604,1.803c0.242,0.111,0.507,0.221,0.772,0.332c0.064,0.023,0.109,0.043,0.176,0.043c0.087,0,0.133-0.043,0.197-0.088c0.678-0.546,1.16-1.283,1.425-2.09h0.493V56.285z"/></g></svg>