<svg version="1.1" xmlns="http://www.w3.org/2000/svg" xmlns:xlink="http://www.w3.org/1999/xlink" x="0px" y="0px" width="100px" height="100px" viewBox="0 0 100 100" enable-background="new 0 0 100 100" xml:space="preserve"><circle fill="#801615" cx="51" cy="52" r="41.5"/><linearGradient id="SVGID_1_" gradientUnits="userSpaceOnUse" x1="49.9995" y1="8.5" x2="49.9995" y2="91.5005"><stop  offset="0" style="stop-color:#d65431"/><stop  offset="1" style="stop-color:#b51c1c"/></linearGradient><circle fill="url(#SVGID_1_)" cx="50" cy="50" r="41.5"/><g> <path fill="#FFFFFF" d="M50.5,28.807l-7.897,22.114L23.648,38.285l6.318,20.534c1.448,4.705,3.159,4.738,6.318,4.738h6.318v-3.159 h15.795v3.159h6.319c3.158,0,4.759-1.359,6.318-4.738l6.317-20.534L58.397,50.921L50.5,28.807z"/> <path fill="#FFFFFF" d="M45.762,63.557v3.16c-7,0-12.636,2.113-12.636,4.739c0,2.625,5.636,4.737,12.636,4.737h9.478 c7,0,12.636-2.113,12.636-4.737c0-2.627-5.636-4.739-12.636-4.739v-3.16H45.762z"/> </g></svg>