<svg version="1.1" xmlns="http://www.w3.org/2000/svg" xmlns:xlink="http://www.w3.org/1999/xlink" x="0px" y="0px" width="100px" height="100px" viewBox="0 0 100 100" enable-background="new 0 0 100 100" xml:space="preserve"><circle fill="#1c437a" cx="51" cy="52" r="41.5"/><linearGradient id="SVGID_1_" gradientUnits="userSpaceOnUse" x1="49.9995" y1="8.5" x2="49.9995" y2="91.5005"><stop  offset="0" style="stop-color:#1b6bd9"/><stop  offset="1" style="stop-color:#2257a5"/></linearGradient><circle fill="url(#SVGID_1_)" cx="50" cy="50" r="41.5"/><g> <path fill="#FFFFFF" d="M50.002,28.258c-14.21,0-23.209,8.519-23.209,18.962c0.134,4.257,1.249,8.429,3.259,12.184h5.828c0,0,4.135,0,5.173,12.346h4.271v-1.667c0-0.681,0.553-1.234,1.235-1.234c0.682,0,1.234,0.554,1.234,1.234v1.667h4.581v-1.667c0-0.681,0.553-1.234,1.234-1.234c0.681,0,1.235,0.554,1.235,1.234v1.667h4.097c1.038-12.346,5.174-12.346,5.174-12.346h5.827c2.01-3.755,3.125-7.927,3.259-12.184C73.212,36.764,64.212,28.258,50.002,28.258z M39.941,51.713c-2.769,0-5.012-2.242-5.012-5.011s2.244-5.012,5.012-5.012c2.768,0,5.012,2.244,5.012,5.012S42.709,51.713,39.941,51.713L39.941,51.713z M53.015,59.775c-0.63,1.001-5.309,0.938-6.049,0c-0.742-0.938,2-6.963,3.024-6.963C51.016,52.813,53.707,58.787,53.015,59.775z M60.25,51.713c-2.771,0-5.013-2.242-5.013-5.011s2.242-5.012,5.013-5.012c2.767,0,5.012,2.244,5.012,5.012S63.017,51.713,60.25,51.713L60.25,51.713z"/></g></svg>