<svg version="1.1" xmlns="http://www.w3.org/2000/svg" xmlns:xlink="http://www.w3.org/1999/xlink" x="0px" y="0px" width="100px" height="100px" viewBox="0 0 100 100" enable-background="new 0 0 100 100" xml:space="preserve"><circle fill="#1c437a" cx="51" cy="52" r="41.5"/><linearGradient id="SVGID_1_" gradientUnits="userSpaceOnUse" x1="49.9995" y1="8.5" x2="49.9995" y2="91.5005"><stop  offset="0" style="stop-color:#1b6bd9"/><stop  offset="1" style="stop-color:#2257a5"/></linearGradient><circle fill="url(#SVGID_1_)" cx="50" cy="50" r="41.5"/><g> <path fill="#FFFFFF" d="M49.979,21.125c-15.856,0-28.75,12.899-28.75,28.75c0,15.856,12.894,28.75,28.75,28.75 c15.852,0,28.75-12.894,28.75-28.75C78.729,34.024,65.83,21.125,49.979,21.125z M49.979,25.094c6.295,0,12.051,2.361,16.427,6.247 l-6.117,6.122c-0.189,0.193-0.318,0.421-0.383,0.669c-2.684-2.272-6.146-3.642-9.927-3.642s-7.243,1.369-9.927,3.642 c-0.064-0.248-0.193-0.477-0.387-0.669l-6.117-6.122C37.923,27.456,43.683,25.094,49.979,25.094z M49.979,61.787 c-6.568,0-11.912-5.343-11.912-11.912s5.344-11.912,11.912-11.912s11.912,5.343,11.912,11.912S56.547,61.787,49.979,61.787z M25.197,49.875c0-6.295,2.361-12.051,6.246-16.426l6.118,6.117c0.194,0.193,0.427,0.323,0.675,0.382 c-2.272,2.684-3.642,6.147-3.642,9.927s1.369,7.243,3.642,9.927c-0.248,0.064-0.481,0.193-0.675,0.388l-6.118,6.117 C27.56,61.931,25.197,56.17,25.197,49.875z M49.979,74.656c-6.295,0-12.056-2.361-16.432-6.247l6.117-6.117 c0.194-0.193,0.328-0.427,0.387-0.674c2.684,2.272,6.147,3.642,9.927,3.642s7.243-1.369,9.927-3.642 c0.06,0.247,0.188,0.48,0.383,0.674l6.122,6.117C62.034,72.294,56.273,74.656,49.979,74.656z M68.514,66.307l-6.122-6.122 c-0.188-0.193-0.422-0.322-0.665-0.387c2.268-2.68,3.637-6.147,3.637-9.923c0-3.78-1.369-7.243-3.642-9.927 c0.247-0.059,0.48-0.188,0.669-0.382l6.122-6.117c3.885,4.375,6.246,10.131,6.246,16.426C74.76,56.17,72.397,61.931,68.514,66.307z "/> </g></svg>