<svg version="1.1" xmlns="http://www.w3.org/2000/svg" xmlns:xlink="http://www.w3.org/1999/xlink" x="0px" y="0px" width="100px" height="100px" viewBox="0 0 100 100" enable-background="new 0 0 100 100" xml:space="preserve"><circle fill="#1c437a" cx="51" cy="52" r="41.5"/><linearGradient id="SVGID_1_" gradientUnits="userSpaceOnUse" x1="49.9995" y1="8.5" x2="49.9995" y2="91.5005"><stop  offset="0" style="stop-color:#1b6bd9"/><stop  offset="1" style="stop-color:#2257a5"/></linearGradient><circle fill="url(#SVGID_1_)" cx="50" cy="50" r="41.5"/><g><path fill="#FFFFFF" d="M77.049,55.68l-7.9-7.894l3.831-3.831c0.344-0.344,0.513-0.827,0.458-1.311c-0.824-7.301-6.501-12.955-13.806-13.749c-0.479-0.05-0.962,0.117-1.304,0.459l-3.747,3.747l-7.986-7.992c-0.3-0.3-0.707-0.469-1.131-0.469c0,0,0,0,0,0c-0.424,0-0.831,0.168-1.131,0.469l-8.534,8.533c-0.3,0.3-0.469,0.707-0.469,1.131s0.168,0.832,0.469,1.131l7.99,7.989l-3.777,3.777c-0.344,0.344-0.513,0.827-0.458,1.311c0.823,7.303,6.5,12.957,13.806,13.75c0.058,0.006,0.115,0.009,0.173,0.009c0.422,0,0.83-0.167,1.132-0.468l3.806-3.807l7.901,7.895c0.313,0.313,0.722,0.468,1.131,0.468s0.819-0.156,1.132-0.468l8.417-8.417c0.3-0.301,0.468-0.708,0.468-1.132C77.518,56.387,77.35,55.979,77.049,55.68z M39.192,34.774l6.271-6.27l6.855,6.861l-6.268,6.267L39.192,34.774z M52.962,59.447c-5.198-0.875-9.225-4.884-10.123-10.079l4.301-4.301c0.015-0.014,0.032-0.023,0.047-0.038s0.024-0.032,0.038-0.046L60.028,32.18c5.198,0.875,9.224,4.884,10.123,10.078L52.962,59.447z M67.501,62.966l-6.769-6.763l6.154-6.154l6.768,6.763L67.501,62.966z"/><path fill="#FFFFFF" d="M50.31,72.473c1.564,0,3.154-0.181,4.74-0.559c0.86-0.205,1.391-1.067,1.187-1.927s-1.066-1.392-1.927-1.187c-9.267,2.203-18.599-3.538-20.804-12.805c-0.636-2.674-0.622-5.497,0.04-8.166c0.213-0.857-0.31-1.725-1.167-1.938c-0.854-0.213-1.725,0.309-1.938,1.167c-0.785,3.162-0.801,6.507-0.048,9.676C32.628,66.133,41.046,72.473,50.31,72.473z"/><path fill="#FFFFFF" d="M54.393,74.178c-2.76,0.504-5.554,0.49-8.305-0.037c-12.207-2.346-20.23-14.187-17.885-26.394c0.167-0.868-0.402-1.706-1.27-1.873c-0.865-0.166-1.706,0.401-1.873,1.27c-2.678,13.939,6.484,27.461,20.424,30.14c1.608,0.309,3.23,0.463,4.853,0.463c1.546,0,3.093-0.14,4.63-0.42c0.869-0.158,1.445-0.992,1.287-1.861C56.096,74.595,55.253,74.021,54.393,74.178z"/></g></svg>