<svg version="1.1" xmlns="http://www.w3.org/2000/svg" xmlns:xlink="http://www.w3.org/1999/xlink" x="0px" y="0px" width="100px" height="100px" viewBox="0 0 100 100" enable-background="new 0 0 100 100" xml:space="preserve"><circle fill="#1c437a" cx="51" cy="52" r="41.5"/><linearGradient id="SVGID_1_" gradientUnits="userSpaceOnUse" x1="49.9995" y1="8.5" x2="49.9995" y2="91.5005"><stop  offset="0" style="stop-color:#1b6bd9"/><stop  offset="1" style="stop-color:#2257a5"/></linearGradient><circle fill="url(#SVGID_1_)" cx="50" cy="50" r="41.5"/><g> <path fill="#FFFFFF" d="M64.298,71.05h-0.002c-0.007,0-0.755,0.626-1.752,0.678c-0.674,0.046-1.399-0.481-2.165-1.248 c-1.436-1.435-2.989-2.178-4.586-2.082c-2.344,0.146-3.797,1.868-3.984,2.104c-0.002,0.002-0.002-0.016-0.002-0.016 c-0.009,0.01-0.757,0.907-1.754,0.959c-0.676,0.048-1.398-0.342-2.166-1.105c-1.434-1.435-2.988-1.816-4.585-1.722 c-2.342,0.146-3.798,1.649-3.985,2.431c0,0-0.002,0-0.002,0c-0.008,0-0.756,0.626-1.752,0.678c-0.668,0.047-1.4-0.481-2.166-1.248 c-1.434-1.434-2.988-2.176-4.586-2.081c-1.155,0.072-2.087,0.464-2.766,0.943v3.644c0.458,0,0.914-0.193,1.223-0.574 c0.008-0.011,0.756-0.917,1.753-0.969c0.684-0.03,1.4,0.336,2.166,1.102c1.342,1.341,2.777,2.02,4.275,2.02 c0.104,0,0.208,0.097,0.311,0.09c2.342-0.146,3.798-1.262,3.985-2.042c0,0,0.001,0,0.001,0c0.008,0,0.756-1.017,1.753-1.069 c0.676-0.028,1.4,0.286,2.166,1.053c1.341,1.342,2.778,1.994,4.276,1.994c0.104,0,0.208,0.084,0.31,0.079 c2.343-0.147,3.798-1.275,3.985-2.056h0.001c0.008,0,0.756-1.017,1.754-1.068c0.678-0.028,1.398,0.285,2.166,1.053 c1.34,1.342,2.775,1.993,4.273,1.993c0.104,0,0.209,0.085,0.311,0.079c2.343-0.147,3.797-1.274,3.985-2.055 c0.002,0,0.002,0,0.002,0c0.009,0,0.756-1.018,1.753-1.069c0.679-0.028,1.399,0.286,2.165,1.052 c0.361,0.362,0.73,0.622,1.104,0.885v-4.079c-1.117-0.786-2.287-0.854-3.481-0.782C65.942,68.762,64.485,70.268,64.298,71.05z"/> <path fill="#FFFFFF" d="M60.835,32.403c2.156,0,3.904,1.952,3.904,4.294h2.342c0-3.903-2.795-6.636-6.245-6.636L60.835,32.403 L60.835,32.403z"/> <path fill="#FFFFFF" d="M37.561,68.313c0.997-0.051,1.745-0.959,1.753-0.968c0-0.001,0-0.001,0-0.001 c0.188-0.238,1.644-1.996,3.985-2.142c0.382-0.023,0.764,0.001,1.14,0.067v-13.35c0-2.586,2.098-4.293,4.684-4.293h11.712 c6.035,0,10.93-4.894,10.93-10.931s-4.892-10.931-10.93-10.931H43.659c-6.037,0-10.93,4.893-10.93,10.93c0,0.264,0.021,0,0.04,0.78 h-0.04v27.995c0.92,0.313,1.814,0.889,2.666,1.739C36.162,67.978,36.892,68.36,37.561,68.313z M68.642,36.307 c0,4.312-3.494,7.808-7.807,7.808s-7.808-3.496-7.808-7.808c0-4.313,3.495-7.808,7.808-7.808 C65.148,28.499,68.642,31.994,68.642,36.307z"/> </g></svg>