<svg version="1.1" xmlns="http://www.w3.org/2000/svg" xmlns:xlink="http://www.w3.org/1999/xlink" x="0px" y="0px" width="100px" height="100px" viewBox="0 0 100 100" enable-background="new 0 0 100 100" xml:space="preserve"><circle fill="#1c437a" cx="51" cy="52" r="41.5"/><linearGradient id="SVGID_1_" gradientUnits="userSpaceOnUse" x1="49.9995" y1="8.5" x2="49.9995" y2="91.5005"><stop  offset="0" style="stop-color:#1b6bd9"/><stop  offset="1" style="stop-color:#2257a5"/></linearGradient><circle fill="url(#SVGID_1_)" cx="50" cy="50" r="41.5"/><g><path fill="#FFFFFF" d="M26.839,34.492v29.016L50,72.713l23.161-9.205V34.492L50,25.288L26.839,34.492z M65.711,36.235L50,42.48l-15.711-6.245L50,29.991L65.711,36.235z M31.211,39.717l16.603,6.598v20.826l-16.603-6.599V39.717z M52.186,67.139V46.314l16.604-6.597v20.825L52.186,67.139z"/><path fill="#FFFFFF" d="M55.324,35.663v1.21c0,0.157-0.203,0.289-0.456,0.289h-3.494v2.272c0,0.165-0.202,0.289-0.443,0.289h-1.86c-0.241,0-0.444-0.124-0.444-0.289v-2.272h-3.493c-0.253,0-0.456-0.132-0.456-0.289v-1.21c0-0.164,0.203-0.288,0.456-0.288h3.493v-2.28c0-0.157,0.203-0.289,0.444-0.289h1.86c0.241,0,0.443,0.132,0.443,0.289v2.28h3.494C55.121,35.375,55.324,35.499,55.324,35.663z"/></g></svg>