<svg version="1.1" xmlns="http://www.w3.org/2000/svg" xmlns:xlink="http://www.w3.org/1999/xlink" x="0px" y="0px" width="100px" height="100px" viewBox="0 0 100 100" enable-background="new 0 0 100 100" xml:space="preserve"><circle fill="#1c437a" cx="51" cy="52" r="41.5"/><linearGradient id="SVGID_1_" gradientUnits="userSpaceOnUse" x1="49.9995" y1="8.5" x2="49.9995" y2="91.5005"><stop  offset="0" style="stop-color:#1b6bd9"/><stop  offset="1" style="stop-color:#2257a5"/></linearGradient><circle fill="url(#SVGID_1_)" cx="50" cy="50" r="41.5"/><g> <path fill="#FFFFFF" d="M74.667,41.78v-4.892c0-0.605-0.495-1.097-1.1-1.097H32.033c-0.605,0-1.099,0.492-1.099,1.097v4.892 c0,0.487,0.32,0.904,0.761,1.045h-0.103c-0.604,0-1.097,0.493-1.097,1.1v1.428c0,0.604,0.494,1.096,1.097,1.096h0.084 c0.355,0.245,3.887,2.784,3.103,6.925c-0.825,4.354-9.889,14.835-3.625,14.835h10.053c0,0,2.424-8.032,4.761-14.331v0.037h10.96 c0.067,0.006,0.214,0.012,0.411,0.012c0.392,0,0.978-0.026,1.573-0.22c0.296-0.094,0.601-0.235,0.876-0.464 c0.274-0.229,0.51-0.563,0.608-0.969c0.066-0.269,0.256-0.831,0.494-1.478c0.358-0.977,0.831-2.179,1.216-3.131 c0.196-0.492,0.37-0.916,0.491-1.217h10.969c0.604,0,1.098-0.492,1.098-1.096v-1.428c0-0.524-0.369-0.964-0.859-1.071 C74.295,42.742,74.667,42.302,74.667,41.78z M60.371,48.158c-0.281,0.72-0.575,1.48-0.82,2.146 c-0.246,0.669-0.441,1.233-0.538,1.624c-0.026,0.093-0.06,0.146-0.145,0.217c-0.124,0.108-0.384,0.22-0.683,0.279 c-0.296,0.058-11.69,0.061-11.69,0.061c1.292-3.346,2.496-5.92,3.173-6.015c0.05-0.006,0.086-0.016,0.108-0.022h1.207 c-0.141,0.674-0.502,3.159,1.578,4.391c2.419,1.429,0.606-0.826,0.164-1.485c-0.425-0.642-0.802-2.118-0.11-2.906h8.441 C60.863,46.923,60.622,47.524,60.371,48.158z"/> </g></svg>