<?xml version="1.0" encoding="utf-8"?>
<svg viewBox="0 0 50 50" xmlns="http://www.w3.org/2000/svg">
  <circle cx="42.118" cy="42.09" r="41.5" style="fill: rgba(0, 90, 187, 0.5);" transform="matrix(0.596876, 0, 0, 0.598408, -0.006575, -0.146619)"/>
  <g transform="matrix(0.691234, 0, 0, 0.698059, -10.110153, -8.350853)" style="">
    <path fill="#FFFFFF" d="M61.475,28.887c1.088-0.638,1.451-2.038,0.813-3.126c-0.638-1.088-2.038-1.452-3.126-0.814L17.05,45.152c-1.088,0.639-1.453,2.039-0.813,3.126c0.638,1.089,2.039,1.454,3.126,0.815L61.475,28.887z"/>
    <path fill="#FFFFFF" d="M84.033,56.11L82,50.419h-7.014v-2.104h-2.812V46.12H59.579v9.531H41.005v-0.152l-11.101-5.095l34.214-16.417c1.087-0.638,1.45-2.038,0.813-3.126c-0.638-1.088-2.039-1.452-3.126-0.814L19.692,50.252c-1.088,0.638-1.452,2.038-0.813,3.125c0.639,1.088,2.038,1.453,3.126,0.814l2.631-1.263l-0.124,2.721h-0.745c-1.258,0-2.278,1.021-2.278,2.278c0,1.259,1.02,2.278,2.278,2.278h3.831c-0.054,0.264-0.083,0.537-0.083,0.817c0,2.283,1.853,4.135,4.136,4.135c2.284,0,4.136-1.852,4.136-4.135c0-0.28-0.029-0.554-0.083-0.817h0.704c-0.054,0.264-0.082,0.537-0.082,0.817c0,2.283,1.851,4.135,4.135,4.135s4.136-1.852,4.136-4.135c0-0.28-0.029-0.554-0.082-0.817H56.94c-0.054,0.264-0.081,0.537-0.081,0.817c0,2.283,1.851,4.135,4.136,4.135c2.283,0,4.135-1.852,4.135-4.135c0-0.28-0.028-0.554-0.081-0.817h3.073c-0.055,0.264-0.083,0.537-0.083,0.817c0,2.283,1.852,4.135,4.136,4.135s4.136-1.852,4.136-4.135c0-0.28-0.028-0.554-0.082-0.817h1.326c1.257,0,2.277-1.02,2.277-2.278c0-0.4-0.104-0.774-0.284-1.102L84.033,56.11z"/>
  </g>
</svg>
