<?xml version="1.0" encoding="utf-8"?>
<svg viewBox="0 0 50 50" xmlns="http://www.w3.org/2000/svg">
  <circle cx="42.118" cy="42.09" r="41.5" style="fill: rgba(0, 90, 187, 0.5);" transform="matrix(0.596876, 0, 0, 0.598408, -0.006575, -0.146619)"/>
  <g transform="matrix(1, 0, 0, 1, -24.033169, -13.347909)">
    <g transform="matrix(1, 0, 0, 1, 108.917595, -37.019585)">
      <g transform="matrix(1, 0, 0, 1, -95.812309, 24.233559)">
        <path fill="#FFFFFF" d="M 49.786 51.05 L 44.688 50.483 L 44.182 51.087 L 43.934 51.087 C 43.341 49.813 42.033 48.975 40.592 48.975 C 39.353 48.975 38.216 49.597 37.543 50.583 L 37.061 49.631 L 13.646 47.021 L 14.121 42.922 L 39.632 45.766 L 39.666 45.46 L 38.806 45.364 L 38.991 43.763 L 39.85 43.859 L 39.908 43.36 L 38.41 43.194 L 38.648 41.117 L 40.662 41.343 L 40.725 40.805 L 43.229 41.082 L 43.166 41.622 L 43.854 41.7 L 43.805 42.115 L 44.984 42.247 L 44.888 43.1 L 43.98 43 L 43.813 44.437 L 44.721 44.537 L 44.624 45.392 L 43.713 45.29 L 43.609 46.207 L 50.263 46.951 L 49.786 51.05 Z" style=""/>
        <path fill="#FFFFFF" d="M 27.557 62.585 L 36.996 55.792 L 36.837 55.792 L 36.837 54.333 L 37.86 54.333 C 37.725 54.131 37.615 53.913 37.529 53.679 L 35.773 53.679 L 35.773 51.494 L 37.528 51.494 C 37.984 50.264 39.182 49.381 40.592 49.381 C 42.003 49.381 43.201 50.264 43.655 51.494 L 45.412 51.494 L 45.412 53.679 L 43.655 53.679 C 43.569 53.913 43.459 54.131 43.324 54.333 L 44.347 54.333 L 44.347 55.792 L 54.678 63.459 L 56.061 63.459 L 56.061 64.263 L 53.887 64.263 L 42.394 56.771 L 38.048 66.885 L 36.49 66.885 L 36.49 66.084 L 37.257 66.084 L 39.651 56.115 L 28.348 63.387 L 26.173 63.387 L 26.173 62.585 L 27.557 62.585 Z" style=""/>
      </g>
    </g>
  </g>
</svg>