<?xml version="1.0" encoding="utf-8"?>
<svg viewBox="0 0 50 50" xmlns="http://www.w3.org/2000/svg">
  <circle cx="42.118" cy="42.09" r="41.5" style="fill: rgba(179, 36, 41, 0.51);" transform="matrix(0.596876, 0, 0, 0.598408, -0.006575, -0.146619)"/>
  <g transform="matrix(0.691234, 0, 0, 0.698059, -9.624619, -8.975335)" style=""/>
  <g transform="matrix(1, 0, 0, 1, 17.910539, -31.330046)">
    <g transform="matrix(1, 0, 0, 1, 21.834737, 37.828335)">
      <g transform="matrix(1, 0, 0, 1, -57.857472, -23.44613)">
        <path fill="#FFFFFF" d="M 56.448 43.165 L 51.35 42.598 L 50.844 43.202 L 50.596 43.202 C 50.003 41.928 48.695 41.09 47.254 41.09 C 46.015 41.09 44.878 41.712 44.205 42.698 L 43.723 41.746 L 20.308 39.136 L 20.783 35.037 L 46.294 37.881 L 46.328 37.575 L 45.468 37.479 L 45.653 35.878 L 46.512 35.974 L 46.57 35.475 L 45.072 35.309 L 45.31 33.232 L 47.324 33.458 L 47.387 32.92 L 49.891 33.197 L 49.828 33.737 L 50.516 33.815 L 50.467 34.23 L 51.646 34.362 L 51.55 35.215 L 50.642 35.115 L 50.475 36.552 L 51.383 36.652 L 51.286 37.507 L 50.375 37.405 L 50.271 38.322 L 56.925 39.066 L 56.448 43.165 Z" style=""/>
        <path fill="#FFFFFF" d="M 34.219 54.7 L 43.658 47.907 L 43.499 47.907 L 43.499 46.448 L 44.522 46.448 C 44.387 46.246 44.277 46.028 44.191 45.794 L 42.435 45.794 L 42.435 43.609 L 44.19 43.609 C 44.646 42.379 45.844 41.496 47.254 41.496 C 48.665 41.496 49.863 42.379 50.317 43.609 L 52.074 43.609 L 52.074 45.794 L 50.317 45.794 C 50.231 46.028 50.121 46.246 49.986 46.448 L 51.009 46.448 L 51.009 47.907 L 61.34 55.574 L 62.723 55.574 L 62.723 56.378 L 60.549 56.378 L 49.056 48.886 L 44.71 59 L 43.152 59 L 43.152 58.199 L 43.919 58.199 L 46.313 48.23 L 35.01 55.502 L 32.835 55.502 L 32.835 54.7 L 34.219 54.7 Z" style=""/>
      </g>
    </g>
  </g>
</svg>