<?xml version="1.0" encoding="utf-8"?>
<svg viewBox="0 0 50 50" xmlns="http://www.w3.org/2000/svg">
  <circle cx="42.118" cy="42.09" r="41.5" style="fill: rgba(179, 36, 41, 0.51);" transform="matrix(0.596876, 0, 0, 0.598408, -0.006575, -0.146619)"/>
  <g transform="matrix(0.691234, 0, 0, 0.698059, -9.624619, -8.975335)" style=""/>
  <g transform="matrix(1, 0, 0, 1, 17.910539, -31.330046)">
    <path fill="#FFFFFF" d="M 23.605 38.622 C 23.605 38.622 21.447 38.219 18.473 41.441 L 19.736 42.811 L 21.001 44.181 C 23.976 40.958 23.605 38.622 23.605 38.622 Z" style=""/>
    <rect x="43.026" y="22.642" transform="matrix(-0.678361, -0.734729, 0.680522, -0.737072, 33.915306, 93.415459)" fill="#FFFFFF" width="3.727" height="0.737" style=""/>
    <rect x="35.756" y="20.861" transform="matrix(-0.678361, -0.734729, 0.680522, -0.737072, 17.081947, 100.968193)" fill="#FFFFFF" width="3.728" height="18.796" style=""/>
    <polygon fill="#FFFFFF" points="7.366 52.826 3.448 53.471 1.901 55.146 3.564 56.945" style=""/>
    <polygon fill="#FFFFFF" points="8.324 62.101 9.871 60.426 10.465 56.185 6.664 60.301" style=""/>
    <path fill="#FFFFFF" d="M 2.681 69.199 C 2.368 69.199 2.063 69.234 1.768 69.297 C 1.522 68.468 0.958 67.796 0.23 67.449 C 0.28 67.364 0.325 67.275 0.376 67.192 C 2.98 62.865 6.663 59.798 6.663 59.798 L 5.409 58.44 L 5.283 58.302 L 4.029 56.945 C 4.029 56.945 1.447 60.579 -2.261 63.362 C -3.611 64.377 -5.109 65.278 -6.69 65.849 C -6.69 65.849 -10.027 63.198 -12.425 67.078 C -12.425 67.078 -13.163 66.418 -14.09 66.216 C -10.133 74.173 -2.374 79.586 6.552 79.598 C 7.034 79.33 7.35 78.88 7.35 78.363 C 7.35 77.848 7.035 77.393 6.554 77.124 C 7.065 76.312 7.365 75.33 7.365 74.273 C 7.366 71.47 5.267 69.199 2.681 69.199 Z" style=""/>
  </g>
</svg>