<?xml version="1.0" encoding="utf-8"?>
<svg viewBox="0 0 50 50" xmlns="http://www.w3.org/2000/svg">
  <circle cx="42.118" cy="42.09" r="41.5" style="fill: rgba(0, 90, 187, 0.5);" transform="matrix(0.596876, 0, 0, 0.598408, -0.006575, -0.146619)"/>
  <g transform="matrix(1, 0, 0, 1, 61.699541, -37.774884)">
    <rect x="-59.3" y="49.005" fill="#010101" width="0.244" height="0.221"/>
    <polygon fill="#010101" points="-53.738,52.108 -53.746,52.115 -53.746,52.108 "/>
    <polygon fill="#010101" points="-53.738,52.108 -53.746,52.115 -53.746,52.108 "/>
    <polygon fill="#FFFFFF" points="-22.611 52.091 -19.867 50.624 -19.993 50.391 -19.986 49.584 -20.267 48.272 -19.601 47.914 -18.532 49.911 -17.898 49.571 -17.58 50.162 -18.215 50.5 -17.922 51.048 -21.999 53.23 -21.921 53.378 -23.725 54.344 -23.803 54.196 -26.979 55.894 -27.733 54.483 -27.879 54.214 -28.225 53.568 -24.591 51.624" style=""/>
    <path fill="#FFFFFF" d="M -57.62 73.519 L -53.928 77.985 L -46.727 68.167 L -46.73 68.165 L -45.66 67.537 L -45.324 68.165 L -45.318 68.162 L -44.587 68.919 L -44.452 71.854 L -43.062 72.227 L -41.87 71.588 L -42.319 70.589 L -42.298 67.078 L -41.805 67.273 L -39.985 66.3 L -39.874 65.796 L -40.552 64.53 L -40.461 64.482 L -39.905 65.518 L -39.362 65.229 L -39.239 65.163 L -38.957 65.013 L -39.512 63.974 L -39.498 63.967 L -39.235 63.559 C -36.111 68.314 -30.108 68.579 -30.108 68.579 L -29.796 65.518 C -29.796 65.518 -34.223 65.501 -36.528 62.108 L -34.336 60.934 L -35.257 59.213 L -35.121 59.136 L -34.291 60.687 L -33.763 60.846 L -33.005 60.44 L -27.303 56.461 L -27.324 56.421 L -27.247 56.038 L -28.493 53.712 L -28.823 53.624 L -28.838 53.593 L -34.186 56.454 L -34.455 56.286 L -37.441 57.886 L -37.669 58.623 L -46.858 63.539 L -46.914 64.719 L -47.295 64.925 L -47.161 65.858 L -47.023 66.119 L -47.023 66.119 L -47.023 66.121 L -47.975 66.667 L -47.98 66.657 L -50.359 68.518 L -51.58 68.62 L -57.62 73.519 Z M -42.721 65.88 L -42.169 65.95 L -41.631 66.388 L -41.105 66.475 L -41.046 66.277 L -41.562 66.2 L -42.057 65.764 L -41.821 65.367 L -41.889 65.244 L -40.72 64.617 L -40.086 65.8 L -40.183 66.233 L -41.748 67.071 L -42.173 66.901 L -42.721 65.88 Z" style=""/>
  </g>
</svg>