<?xml version="1.0" encoding="utf-8"?>
<svg viewBox="0 0 50 50" xmlns="http://www.w3.org/2000/svg">
  <circle cx="42.118" cy="42.09" r="41.5" style="fill: rgba(179, 36, 41, 0.51);" transform="matrix(0.596876, 0, 0, 0.598408, -0.006575, -0.146619)"/>
  <polygon fill="#FFFFFF" points="38.305 12.881 41.049 11.414 40.923 11.181 40.93 10.374 40.649 9.062 41.315 8.704 42.384 10.701 43.018 10.361 43.336 10.952 42.701 11.29 42.994 11.838 38.917 14.02 38.995 14.168 37.191 15.134 37.113 14.986 33.937 16.684 33.183 15.273 33.037 15.004 32.691 14.358 36.325 12.414" style=""/>
  <path fill="#FFFFFF" d="M 3.296 34.309 L 6.988 38.775 L 14.189 28.957 L 14.186 28.955 L 15.256 28.327 L 15.592 28.955 L 15.598 28.952 L 16.329 29.709 L 16.464 32.644 L 17.854 33.017 L 19.046 32.378 L 18.597 31.379 L 18.618 27.868 L 19.111 28.063 L 20.931 27.09 L 21.042 26.586 L 20.364 25.32 L 20.455 25.272 L 21.011 26.308 L 21.554 26.019 L 21.677 25.953 L 21.959 25.803 L 21.404 24.764 L 21.418 24.757 L 21.681 24.349 C 24.805 29.104 30.808 29.369 30.808 29.369 L 31.12 26.308 C 31.12 26.308 26.693 26.291 24.388 22.898 L 26.58 21.724 L 25.659 20.003 L 25.795 19.926 L 26.625 21.477 L 27.153 21.636 L 27.911 21.23 L 33.613 17.251 L 33.592 17.211 L 33.669 16.828 L 32.423 14.502 L 32.093 14.414 L 32.078 14.383 L 26.73 17.244 L 26.461 17.076 L 23.475 18.676 L 23.247 19.413 L 14.058 24.329 L 14.002 25.509 L 13.621 25.715 L 13.755 26.648 L 13.893 26.909 L 13.893 26.909 L 13.893 26.911 L 12.941 27.457 L 12.936 27.447 L 10.557 29.308 L 9.336 29.41 L 3.296 34.309 Z M 18.195 26.67 L 18.747 26.74 L 19.285 27.178 L 19.811 27.265 L 19.87 27.067 L 19.354 26.99 L 18.859 26.554 L 19.095 26.157 L 19.027 26.034 L 20.196 25.407 L 20.83 26.59 L 20.733 27.023 L 19.168 27.861 L 18.743 27.691 L 18.195 26.67 Z" style=""/>
</svg>