<?xml version="1.0" encoding="utf-8"?>
<svg viewBox="0 0 50 50" xmlns="http://www.w3.org/2000/svg">
  <circle cx="42.118" cy="42.09" r="41.5" style="fill: rgba(0, 90, 187, 0.5);" transform="matrix(0.596876, 0, 0, 0.598408, -0.006575, -0.146619)"/>
  <path fill="#FFFFFF" d="M 41.246 7.537 C 41.246 7.537 39.088 7.134 36.114 10.356 L 37.377 11.726 L 38.642 13.096 C 41.617 9.873 41.246 7.537 41.246 7.537 Z" style=""/>
  <rect x="43.026" y="22.642" transform="matrix(-0.678361, -0.734729, 0.680522, -0.737072, 51.556759, 62.330006)" fill="#FFFFFF" width="3.727" height="0.737" style=""/>
  <rect x="35.756" y="20.861" transform="matrix(-0.678361, -0.734729, 0.680522, -0.737072, 34.723392, 69.882736)" fill="#FFFFFF" width="3.728" height="18.796" style=""/>
  <polygon fill="#FFFFFF" points="25.007 21.741 21.089 22.386 19.542 24.061 21.205 25.86" style=""/>
  <polygon fill="#FFFFFF" points="25.965 31.016 27.512 29.341 28.106 25.1 24.305 29.216" style=""/>
  <path fill="#FFFFFF" d="M 20.322 38.114 C 20.009 38.114 19.704 38.149 19.409 38.212 C 19.163 37.383 18.599 36.711 17.871 36.364 C 17.921 36.279 17.966 36.19 18.017 36.107 C 20.621 31.78 24.304 28.713 24.304 28.713 L 23.05 27.355 L 22.924 27.217 L 21.67 25.86 C 21.67 25.86 19.088 29.494 15.38 32.277 C 14.03 33.292 12.532 34.193 10.951 34.764 C 10.951 34.764 7.614 32.113 5.216 35.993 C 5.216 35.993 4.478 35.333 3.551 35.131 C 7.508 43.088 15.267 48.501 24.193 48.513 C 24.675 48.245 24.991 47.795 24.991 47.278 C 24.991 46.763 24.676 46.308 24.195 46.039 C 24.706 45.227 25.006 44.245 25.006 43.188 C 25.007 40.385 22.908 38.114 20.322 38.114 Z" style=""/>
</svg>