<?xml version="1.0" encoding="utf-8"?>
<svg viewBox="0 0 50 50" xmlns="http://www.w3.org/2000/svg">
  <circle cx="42.118" cy="42.09" r="41.5" style="fill: rgba(0, 90, 187, 0.5);" transform="matrix(0.596876, 0, 0, 0.598408, -0.006575, -0.146619)"/>
  <path fill="#FFFFFF" d="M 25.227 2.38 L 25.266 2.38 L 25.266 2.467 L 25.265 2.467 C 25.738 3.578 26.578 6.044 26.578 8.257 C 26.578 10.469 26.72 10.818 26.72 11.302 C 26.72 11.786 28.405 20.992 28.405 20.992 L 29.672 24.104 L 29.672 24.627 L 41.373 34.857 L 41.385 34.857 C 41.383 33.7 41.688 38.991 41.688 38.991 C 41.609 39.041 41.463 39 41.388 38.976 L 41.373 38.984 C 41.373 38.988 41.373 38.992 41.373 38.992 L 41.357 38.98 L 29.984 36.2 L 29.984 37.85 L 36.129 43.765 C 36.129 43.765 35.614 44.645 35.339 44.978 C 35.066 45.311 34.734 45.85 34.609 45.859 C 34.485 45.867 15.816 45.867 15.69 45.859 C 15.565 45.85 15.233 45.312 14.96 44.979 C 14.686 44.646 14.171 43.766 14.171 43.766 L 20.315 37.85 L 20.315 36.201 L 8.94 38.982 L 8.926 38.993 C 8.926 38.993 8.926 38.99 8.926 38.986 L 8.911 38.978 C 8.836 39 8.69 39.043 8.611 38.993 C 8.611 38.993 8.915 33.701 8.914 34.858 L 8.926 34.858 L 20.627 24.628 L 20.627 24.105 L 21.893 20.993 C 21.893 20.993 23.579 11.786 23.579 11.303 C 23.579 10.82 23.72 10.47 23.72 8.258 C 23.72 6.044 24.559 3.579 25.033 2.468 L 25.033 2.38 L 25.073 2.38" style=""/>
</svg>