<?xml version="1.0" encoding="utf-8"?>
<svg viewBox="0 0 50 50" xmlns="http://www.w3.org/2000/svg">
  <circle cx="42.118" cy="42.09" r="41.5" style="fill: rgba(179, 36, 41, 0.51);" transform="matrix(0.596876, 0, 0, 0.598408, -0.006575, -0.146619)"/>
  <path fill="#FFFFFF" d="M 25.457 2.112 L 25.496 2.112 L 25.496 2.199 L 25.495 2.199 C 25.968 3.31 26.808 5.776 26.808 7.989 C 26.808 10.201 26.95 10.55 26.95 11.034 C 26.95 11.518 28.635 20.724 28.635 20.724 L 29.902 23.836 L 29.902 24.359 L 41.603 34.589 L 41.615 34.589 C 41.613 33.432 41.918 38.723 41.918 38.723 C 41.839 38.773 41.693 38.732 41.618 38.708 L 41.603 38.716 C 41.603 38.72 41.603 38.724 41.603 38.724 L 41.587 38.712 L 30.214 35.932 L 30.214 37.582 L 36.359 43.497 C 36.359 43.497 35.844 44.377 35.569 44.71 C 35.296 45.043 34.964 45.582 34.839 45.591 C 34.715 45.599 16.046 45.599 15.92 45.591 C 15.795 45.582 15.463 45.044 15.19 44.711 C 14.916 44.378 14.401 43.498 14.401 43.498 L 20.545 37.582 L 20.545 35.933 L 9.17 38.714 L 9.156 38.725 C 9.156 38.725 9.156 38.722 9.156 38.718 L 9.141 38.71 C 9.066 38.732 8.92 38.775 8.841 38.725 C 8.841 38.725 9.145 33.433 9.144 34.59 L 9.156 34.59 L 20.857 24.36 L 20.857 23.837 L 22.123 20.725 C 22.123 20.725 23.809 11.518 23.809 11.035 C 23.809 10.552 23.95 10.202 23.95 7.99 C 23.95 5.776 24.789 3.311 25.263 2.2 L 25.263 2.112 L 25.303 2.112" style=""/>
</svg>