<?xml version="1.0" encoding="utf-8"?>
<svg viewBox="0 0 50 50" xmlns="http://www.w3.org/2000/svg">
  <circle cx="42.118" cy="42.09" r="41.5" style="fill: rgba(179, 36, 41, 0.51);" transform="matrix(0.596876, 0, 0, 0.598408, -0.006575, -0.146619)"/>
  <g transform="matrix(0.795686, 0, 0, 0.777874, 51.638268, 8.988765)" style="">
    <path fill="#FFFFFF" d="M -22.962 18.746 L -52.315 18.746 C -57.037 18.746 -60.877 22.587 -60.877 27.309 C -60.877 32.028 -57.037 35.869 -52.315 35.869 L -22.961 35.869 C -18.238 35.869 -14.398 32.028 -14.398 27.309 C -14.399 22.587 -18.239 18.746 -22.962 18.746 Z M -52.315 30.976 C -54.343 30.976 -55.984 29.334 -55.984 27.309 C -55.984 25.281 -54.343 23.638 -52.315 23.638 C -50.287 23.638 -48.646 25.281 -48.646 27.309 C -48.647 29.335 -50.287 30.976 -52.315 30.976 Z M -42.531 30.976 C -44.559 30.976 -46.2 29.334 -46.2 27.309 C -46.2 25.281 -44.559 23.638 -42.531 23.638 C -40.503 23.638 -38.862 25.281 -38.862 27.309 C -38.861 29.335 -40.502 30.976 -42.531 30.976 Z M -32.746 30.976 C -34.774 30.976 -36.415 29.334 -36.415 27.309 C -36.415 25.281 -34.774 23.638 -32.746 23.638 C -30.718 23.638 -29.075 25.281 -29.075 27.309 C -29.075 29.335 -30.718 30.976 -32.746 30.976 Z M -22.962 30.976 C -24.99 30.976 -26.629 29.334 -26.629 27.309 C -26.629 25.281 -24.99 23.638 -22.962 23.638 C -20.934 23.638 -19.291 25.281 -19.291 27.309 C -19.291 29.335 -20.934 30.976 -22.962 30.976 Z"/>
    <rect x="-24.184" y="8.96" fill="#FFFFFF" width="17.123" height="4.893"/>
    <polygon fill="#FFFFFF" points="-29.075 16.299 -26.629 13.853 -26.629 8.96 -29.075 6.514 -46.2 6.514 -48.647 8.96 -48.647 13.853 -46.2 16.299"/>
  </g>
</svg>