<?xml version="1.0" encoding="utf-8"?>
<svg viewBox="0 0 50 50" xmlns="http://www.w3.org/2000/svg">
  <circle cx="42.118" cy="42.09" r="41.5" style="fill: rgba(0, 90, 187, 0.5);" transform="matrix(0.596876, 0, 0, 0.598408, -0.006575, -0.146619)"/>
  <g transform="matrix(0.795686, 0, 0, 0.777874, 20.11562, -3.669734)" style="">
    <path fill="#FFFFFF" d="M 16.461 34.905 L -12.892 34.905 C -17.614 34.905 -21.454 38.746 -21.454 43.468 C -21.454 48.187 -17.614 52.028 -12.892 52.028 L 16.462 52.028 C 21.185 52.028 25.025 48.187 25.025 43.468 C 25.024 38.746 21.184 34.905 16.461 34.905 Z M -12.892 47.135 C -14.92 47.135 -16.561 45.493 -16.561 43.468 C -16.561 41.44 -14.92 39.797 -12.892 39.797 C -10.864 39.797 -9.223 41.44 -9.223 43.468 C -9.224 45.494 -10.864 47.135 -12.892 47.135 Z M -3.108 47.135 C -5.136 47.135 -6.777 45.493 -6.777 43.468 C -6.777 41.44 -5.136 39.797 -3.108 39.797 C -1.08 39.797 0.561 41.44 0.561 43.468 C 0.562 45.494 -1.079 47.135 -3.108 47.135 Z M 6.677 47.135 C 4.649 47.135 3.008 45.493 3.008 43.468 C 3.008 41.44 4.649 39.797 6.677 39.797 C 8.705 39.797 10.348 41.44 10.348 43.468 C 10.348 45.494 8.705 47.135 6.677 47.135 Z M 16.461 47.135 C 14.433 47.135 12.794 45.493 12.794 43.468 C 12.794 41.44 14.433 39.797 16.461 39.797 C 18.489 39.797 20.132 41.44 20.132 43.468 C 20.132 45.494 18.489 47.135 16.461 47.135 Z"/>
    <rect x="15.239" y="25.119" fill="#FFFFFF" width="17.123" height="4.893"/>
    <polygon fill="#FFFFFF" points="10.348 32.458 12.794 30.012 12.794 25.119 10.348 22.673 -6.777 22.673 -9.224 25.119 -9.224 30.012 -6.777 32.458"/>
  </g>
</svg>