<?xml version="1.0" encoding="utf-8"?>
<svg viewBox="0 0 50 50" xmlns="http://www.w3.org/2000/svg">
  <circle cx="42.118" cy="42.09" r="41.5" style="fill: rgba(179, 36, 41, 0.51);" transform="matrix(0.596876, 0, 0, 0.598408, -0.006575, -0.146619)"/>
  <g transform="matrix(0.933293, 0, 0, 0.83867, -0.992731, -6.210501)" style="">
    <path fill="#FFFFFF" d="M 37.823 15.092 C 37.626 14.892 37.354 14.768 37.052 14.768 C 36.829 14.768 36.625 14.836 36.452 14.949 L 28.595 20.283 L 28.596 15.721 C 28.595 15.166 28.146 14.718 27.593 14.718 C 27.04 14.718 26.592 15.166 26.591 15.721 L 26.591 24.39 C 26.591 24.735 26.313 25.014 25.967 25.014 C 25.623 25.014 25.345 24.736 25.345 24.39 L 25.345 20.039 C 25.345 19.606 25.098 19.275 24.752 19.038 L 18.732 14.949 C 18.56 14.837 18.356 14.769 18.134 14.769 C 17.831 14.769 17.558 14.894 17.361 15.093 C 17.168 15.287 17.049 15.558 17.049 15.855 L 17.049 26.495 C 17.049 28.182 17.912 29.666 19.217 30.53 L 23.821 33.658 L 20.344 37.258 C 20.338 37.265 20.331 37.269 20.325 37.275 C 20.134 37.471 20.014 37.738 20.012 38.034 C 20.012 38.034 20.01 44.912 20.01 44.914 C 20.01 45.259 20.287 45.537 20.63 45.543 L 34.55 45.543 C 34.893 45.537 35.17 45.259 35.17 44.914 C 35.17 44.912 35.168 38.034 35.168 38.034 C 35.167 37.738 35.047 37.471 34.855 37.275 C 34.849 37.27 34.842 37.265 34.836 37.258 L 31.359 33.658 L 35.963 30.53 C 37.269 29.667 38.131 28.182 38.131 26.495 L 38.132 15.855 C 38.136 15.558 38.017 15.288 37.823 15.092 Z"/>
    <path fill="#FFFFFF" d="M 34.455 46.982 L 20.73 46.982 C 20.385 46.982 20.105 47.261 20.105 47.607 C 20.105 47.61 20.107 47.614 20.107 47.618 L 20.105 47.621 C 20.596 53.473 23.099 58.75 26.919 62.756 C 27.084 62.942 27.325 63.06 27.592 63.06 C 27.859 63.06 28.1 62.942 28.265 62.756 C 32.085 58.75 34.587 53.474 35.079 47.621 L 35.077 47.619 C 35.077 47.615 35.079 47.611 35.079 47.607 C 35.08 47.261 34.801 46.982 34.455 46.982 Z"/>
  </g>
</svg>