<?xml version="1.0" encoding="utf-8"?>
<svg viewBox="0 0 50 50" xmlns="http://www.w3.org/2000/svg">
  <circle cx="42.118" cy="42.09" r="41.5" style="fill: rgba(0, 90, 187, 0.5);" transform="matrix(0.596876, 0, 0, 0.598408, -0.006575, -0.146619)"/>
  <g transform="matrix(1, 0, 0, 1, -24.033169, -13.347909)">
    <g transform="matrix(1, 0, 0, 1, 108.917595, -37.019585)">
      <g transform="matrix(1, 0, 0, 1, -95.812309, 24.233559)">
        <g transform="matrix(1, 0, 0, 1, -9.872931, 7.404699)">
          <g transform="matrix(1, 0, 0, 1, 15.931321, 12.565549)">
            <g transform="matrix(1, 0, 0, 1, 19.521478, 12.11678)">
              <path fill="#FFFFFF" d="M 29.927 28.254 L 22.112 28.254 C 22.123 26.546 21.23 23.219 21.686 20.75 C 21.912 19.531 22.794 18.13 23.353 16.981 C 23.986 15.677 25.008 14.208 25.02 13.21 C 25.024 12.697 23.772 11.937 21.999 11.123 L 21.999 5.687 C 21.999 4.413 20.852 3.376 19.442 3.376 L 18.568 3.376 L 18.568 1.409 C 18.568 0.135 17.422 -0.902 16.011 -0.902 L 13.439 -0.902 L 13.439 -3.946 L 6.586 -3.946 L 6.586 -0.902 L 4.014 -0.902 C 2.604 -0.902 1.458 0.134 1.458 1.409 L 1.458 3.376 L 0.584 3.376 C -0.826 3.376 -1.973 4.413 -1.973 5.688 L -1.973 11.123 C -3.746 11.937 -4.999 12.697 -4.993 13.209 C -4.982 14.207 -3.96 15.676 -3.327 16.98 C -2.768 18.129 -1.885 19.53 -1.659 20.749 C -1.203 23.218 -2.096 26.545 -2.085 28.253 L -9.81 28.253 C -10.332 28.253 -10.756 28.636 -10.756 29.109 C -10.756 29.584 -10.332 29.967 -9.81 29.967 L -0.438 29.967 C 2.496 31.155 8.876 33.026 10.013 33.191 C 11.15 33.026 17.53 31.156 20.465 29.967 L 29.926 29.967 C 30.449 29.967 30.872 29.584 30.872 29.109 C 30.872 28.637 30.45 28.254 29.927 28.254 Z M 3.35 1.408 C 3.35 1.079 3.647 0.809 4.013 0.809 L 16.011 0.809 C 16.377 0.809 16.674 1.079 16.674 1.408 L 16.674 3.376 L 3.35 3.376 L 3.35 1.408 Z M -0.081 5.687 C -0.081 5.356 0.216 5.087 0.583 5.087 L 19.441 5.087 C 19.809 5.087 20.106 5.356 20.106 5.687 L 20.106 10.308 C 15.959 8.626 10.605 6.982 10.012 6.99 C 9.419 6.982 4.065 8.627 -0.082 10.308 L -0.082 5.687 Z" style=""/>
              <path fill="#FFFFFF" d="M 20.39 37.503 L -0.273 37.503 C -0.795 37.503 -1.218 37.12 -1.218 36.647 C -1.218 36.173 -0.795 35.79 -0.273 35.79 L 20.39 35.79 C 20.913 35.79 21.336 36.173 21.336 36.647 C 21.336 37.12 20.913 37.503 20.39 37.503 Z" style=""/>
            </g>
          </g>
        </g>
      </g>
    </g>
  </g>
</svg>