<?xml version="1.0" encoding="utf-8"?>
<svg viewBox="0 0 50 50" xmlns="http://www.w3.org/2000/svg">
  <circle cx="42.118" cy="42.09" r="41.5" style="fill: rgba(179, 36, 41, 0.51);" transform="matrix(0.596876, 0, 0, 0.598408, -0.006575, -0.146619)"/>
  <g transform="matrix(0.691234, 0, 0, 0.698059, -9.624619, -8.975335)" style=""/>
  <g transform="matrix(1, 0, 0, 1, 17.910539, -31.330046)">
    <g transform="matrix(1, 0, 0, 1, 21.834737, 37.828335)">
      <g transform="matrix(1, 0, 0, 1, -57.857472, -23.44613)">
        <path fill="#FFFFFF" d="M 63.138 51.738 L 55.323 51.738 C 55.334 50.03 54.441 46.703 54.897 44.234 C 55.123 43.015 56.005 41.614 56.564 40.465 C 57.197 39.161 58.219 37.692 58.231 36.694 C 58.235 36.181 56.983 35.421 55.21 34.607 L 55.21 29.171 C 55.21 27.897 54.063 26.86 52.653 26.86 L 51.779 26.86 L 51.779 24.893 C 51.779 23.619 50.633 22.582 49.222 22.582 L 46.65 22.582 L 46.65 19.538 L 39.797 19.538 L 39.797 22.582 L 37.225 22.582 C 35.815 22.582 34.669 23.618 34.669 24.893 L 34.669 26.86 L 33.795 26.86 C 32.385 26.86 31.238 27.897 31.238 29.172 L 31.238 34.607 C 29.465 35.421 28.212 36.181 28.218 36.693 C 28.229 37.691 29.251 39.16 29.884 40.464 C 30.443 41.613 31.326 43.014 31.552 44.233 C 32.008 46.702 31.115 50.029 31.126 51.737 L 23.401 51.737 C 22.879 51.737 22.455 52.12 22.455 52.593 C 22.455 53.068 22.879 53.451 23.401 53.451 L 32.773 53.451 C 35.707 54.639 42.087 56.51 43.224 56.675 C 44.361 56.51 50.741 54.64 53.676 53.451 L 63.137 53.451 C 63.66 53.451 64.083 53.068 64.083 52.593 C 64.083 52.121 63.661 51.738 63.138 51.738 Z M 36.561 24.892 C 36.561 24.563 36.858 24.293 37.224 24.293 L 49.222 24.293 C 49.588 24.293 49.885 24.563 49.885 24.892 L 49.885 26.86 L 36.561 26.86 L 36.561 24.892 Z M 33.13 29.171 C 33.13 28.84 33.427 28.571 33.794 28.571 L 52.652 28.571 C 53.02 28.571 53.317 28.84 53.317 29.171 L 53.317 33.792 C 49.17 32.11 43.816 30.466 43.223 30.474 C 42.63 30.466 37.276 32.111 33.129 33.792 L 33.129 29.171 Z" style=""/>
        <path fill="#FFFFFF" d="M 53.601 60.987 L 32.938 60.987 C 32.416 60.987 31.993 60.604 31.993 60.131 C 31.993 59.657 32.416 59.274 32.938 59.274 L 53.601 59.274 C 54.124 59.274 54.547 59.657 54.547 60.131 C 54.547 60.604 54.124 60.987 53.601 60.987 Z" style=""/>
      </g>
    </g>
  </g>
</svg>