<?xml version="1.0" encoding="utf-8"?>
<svg viewBox="0 0 50 50" xmlns="http://www.w3.org/2000/svg">
  <circle cx="42.118" cy="42.09" r="41.5" style="fill: rgba(179, 36, 41, 0.51);" transform="matrix(0.596876, 0, 0, 0.598408, -0.006575, -0.146619)"/>
  <circle fill="#FFFFFF" cx="41.329" cy="60.205" r="3.243" style="" transform="matrix(0.785264, 0, 0, 0.66792, -15.375327, -7.197345)"/>
  <circle fill="#FFFFFF" cx="62.976" cy="60.205" r="3.243" style="" transform="matrix(0.785264, 0, 0, 0.66792, -15.375327, -7.197345)"/>
  <path fill="#FFFFFF" d="M 5.863 26.18 L 7.659 26.18 L 7.659 37.579 C 7.659 38.995 8.715 40.192 10.184 40.663 L 10.184 42.311 C 10.184 43.542 11.362 44.549 12.816 44.549 L 15.285 44.549 C 16.735 44.549 17.915 43.545 17.915 42.311 L 17.915 40.885 L 32.123 40.885 L 32.123 42.311 C 32.123 43.542 33.301 44.549 34.753 44.549 L 37.223 44.549 C 38.674 44.549 39.854 43.545 39.854 42.311 L 39.854 40.663 C 41.327 40.192 42.379 38.995 42.379 37.579 L 42.379 26.18 L 44.177 26.18 C 44.939 26.18 45.554 25.655 45.554 25.007 L 45.554 16.835 C 45.554 16.187 44.939 15.663 44.177 15.663 L 42.379 15.663 L 42.379 12.214 C 42.379 9.804 40.075 7.844 37.244 7.844 L 12.797 7.844 C 9.965 7.844 7.661 9.805 7.661 12.214 L 7.661 15.663 L 5.863 15.663 C 5.103 15.663 4.486 16.187 4.486 16.835 L 4.486 25.01 C 4.485 25.655 5.103 26.18 5.863 26.18 Z M 15.16 42.207 L 12.939 42.207 L 12.939 40.885 L 15.16 40.885 L 15.16 42.207 Z M 37.095 42.207 L 34.874 42.207 L 34.874 40.885 L 37.095 40.885 L 37.095 42.207 Z M 26.955 10.187 L 37.239 10.187 C 38.554 10.187 39.621 11.096 39.621 12.214 L 39.621 16.834 L 39.621 24.903 L 26.955 24.903 L 26.955 10.187 Z M 10.412 16.835 L 10.412 12.214 C 10.412 11.096 11.48 10.187 12.795 10.187 L 24.199 10.187 L 24.199 24.903 L 10.412 24.903 L 10.412 16.835 Z M 10.412 27.245 L 39.619 27.245 L 39.619 37.579 C 39.619 38.109 39.112 38.541 38.491 38.541 L 11.545 38.541 C 10.92 38.541 10.414 38.109 10.414 37.579 L 10.414 27.245 L 10.412 27.245 Z" style=""/>
</svg>