<?xml version="1.0" encoding="utf-8"?>
<svg viewBox="0 0 50 50" xmlns="http://www.w3.org/2000/svg">
  <circle cx="42.118" cy="42.09" r="41.5" style="fill: rgba(0, 90, 187, 0.5);" transform="matrix(0.596876, 0, 0, 0.598408, -0.006575, -0.146619)"/>
  <g transform="matrix(1, 0, 0, 1, -20.905447, -13.524628)">
    <circle fill="#FFFFFF" cx="41.329" cy="60.205" r="3.243" style="" transform="matrix(0.785264, 0, 0, 0.66792, 5.27533, 5.606764)"/>
    <circle fill="#FFFFFF" cx="62.976" cy="60.205" r="3.243" style="" transform="matrix(0.785264, 0, 0, 0.66792, 5.27533, 5.606764)"/>
    <path fill="#FFFFFF" d="M 26.514 38.984 L 28.31 38.984 L 28.31 50.383 C 28.31 51.799 29.366 52.996 30.835 53.467 L 30.835 55.115 C 30.835 56.346 32.013 57.353 33.467 57.353 L 35.936 57.353 C 37.386 57.353 38.566 56.349 38.566 55.115 L 38.566 53.689 L 52.774 53.689 L 52.774 55.115 C 52.774 56.346 53.952 57.353 55.404 57.353 L 57.874 57.353 C 59.325 57.353 60.505 56.349 60.505 55.115 L 60.505 53.467 C 61.978 52.996 63.03 51.799 63.03 50.383 L 63.03 38.984 L 64.828 38.984 C 65.59 38.984 66.205 38.459 66.205 37.811 L 66.205 29.639 C 66.205 28.991 65.59 28.467 64.828 28.467 L 63.03 28.467 L 63.03 25.018 C 63.03 22.608 60.726 20.648 57.895 20.648 L 33.448 20.648 C 30.616 20.648 28.312 22.609 28.312 25.018 L 28.312 28.467 L 26.514 28.467 C 25.754 28.467 25.137 28.991 25.137 29.639 L 25.137 37.814 C 25.136 38.459 25.754 38.984 26.514 38.984 Z M 35.811 55.011 L 33.59 55.011 L 33.59 53.689 L 35.811 53.689 L 35.811 55.011 Z M 57.746 55.011 L 55.525 55.011 L 55.525 53.689 L 57.746 53.689 L 57.746 55.011 Z M 47.606 22.991 L 57.89 22.991 C 59.205 22.991 60.272 23.9 60.272 25.018 L 60.272 29.638 L 60.272 37.707 L 47.606 37.707 L 47.606 22.991 Z M 31.063 29.639 L 31.063 25.018 C 31.063 23.9 32.131 22.991 33.446 22.991 L 44.85 22.991 L 44.85 37.707 L 31.063 37.707 L 31.063 29.639 Z M 31.063 40.049 L 60.27 40.049 L 60.27 50.383 C 60.27 50.913 59.763 51.345 59.142 51.345 L 32.196 51.345 C 31.571 51.345 31.065 50.913 31.065 50.383 L 31.065 40.049 L 31.063 40.049 Z" style=""/>
  </g>
</svg>