<?xml version="1.0" encoding="utf-8"?>
<svg viewBox="0 0 50 50" xmlns="http://www.w3.org/2000/svg">
  <circle cx="42.118" cy="42.09" r="41.5" style="fill: rgba(179, 36, 41, 0.51);" transform="matrix(0.596876, 0, 0, 0.598408, -0.006575, -0.146619)"/>
  <g transform="matrix(0.691234, 0, 0, 0.698059, -9.624619, -8.975335)" style=""/>
  <g transform="matrix(1, 0, 0, 1, 17.910539, -31.330046)">
    <g transform="matrix(1, 0, 0, 1, 21.834737, 37.828335)">
      <circle fill="#FFFFFF" cx="-0.804" cy="31.212" r="4.523" style="" transform="matrix(0.861652, 0, 0, 0.840679, -2.127556, 4.580742)"/>
      <path fill="#FFFFFF" d="M -5.417 14.341 L -5.417 10.539 L -5.417 9.271 C -5.417 7.871 -6.581 6.736 -8.016 6.736 L -32.701 6.736 C -34.136 6.736 -35.3 7.871 -35.3 9.271 L -35.3 23.214 C -35.3 24.615 -34.136 25.75 -32.701 25.75 L -30.103 25.75 L -30.103 25.781 C -29.014 24.977 -27.673 24.482 -26.205 24.482 C -22.623 24.482 -19.709 27.326 -19.709 30.82 L -9.315 30.82 C -9.315 28.229 -7.708 26 -5.418 25.019 L -5.418 14.341 Z" style=""/>
      <path fill="#FFFFFF" d="M 4.838 16.609 C 4.196 15.356 2.513 14.341 1.078 14.341 L -4.118 14.341 L -4.118 24.609 C -3.699 24.525 -3.263 24.481 -2.819 24.481 C 0.764 24.481 3.677 27.325 3.677 30.819 C 5.112 30.819 6.276 29.684 6.276 28.283 L 6.276 24.481 L 6.276 19.411 L 4.838 16.609 Z M 4.426 20.679 L -1.52 20.679 L -1.52 15.609 L 1.078 15.609 C 1.797 15.609 2.639 16.117 2.958 16.743 L 4.427 19.611 L 4.427 20.679 L 4.426 20.679 Z" style=""/>
      <circle fill="#FFFFFF" cx="-27.944" cy="31.212" r="4.523" style="" transform="matrix(0.861652, 0, 0, 0.840679, -2.127556, 4.580742)"/>
    </g>
  </g>
</svg>