<?xml version="1.0" encoding="utf-8"?>
<svg viewBox="0 0 50 50" xmlns="http://www.w3.org/2000/svg">
  <circle cx="42.118" cy="42.09" r="41.5" style="fill: rgba(0, 90, 187, 0.5);" transform="matrix(0.596876, 0, 0, 0.598408, -0.006575, -0.146619)"/>
  <circle fill="#FFFFFF" cx="-0.804" cy="31.212" r="4.523" style="" transform="matrix(0.861652, 0, 0, 0.840679, 37.457645, 10.52661)"/>
  <path fill="#FFFFFF" d="M 34.168 20.287 L 34.168 16.485 L 34.168 15.217 C 34.168 13.817 33.004 12.682 31.569 12.682 L 6.884 12.682 C 5.449 12.682 4.285 13.817 4.285 15.217 L 4.285 29.16 C 4.285 30.561 5.449 31.696 6.884 31.696 L 9.482 31.696 L 9.482 31.727 C 10.571 30.923 11.912 30.428 13.38 30.428 C 16.962 30.428 19.876 33.272 19.876 36.766 L 30.27 36.766 C 30.27 34.175 31.877 31.946 34.167 30.965 L 34.167 20.287 Z" style=""/>
  <path fill="#FFFFFF" d="M 44.423 22.555 C 43.781 21.302 42.098 20.287 40.663 20.287 L 35.467 20.287 L 35.467 30.555 C 35.886 30.471 36.322 30.427 36.766 30.427 C 40.349 30.427 43.262 33.271 43.262 36.765 C 44.697 36.765 45.861 35.63 45.861 34.229 L 45.861 30.427 L 45.861 25.357 L 44.423 22.555 Z M 44.011 26.625 L 38.065 26.625 L 38.065 21.555 L 40.663 21.555 C 41.382 21.555 42.224 22.063 42.543 22.689 L 44.012 25.557 L 44.012 26.625 L 44.011 26.625 Z" style=""/>
  <circle fill="#FFFFFF" cx="-27.944" cy="31.212" r="4.523" style="" transform="matrix(0.861652, 0, 0, 0.840679, 37.457645, 10.52661)"/>
</svg>