<?xml version="1.0" encoding="utf-8"?>
<svg viewBox="0 0 50 50" xmlns="http://www.w3.org/2000/svg">
  <circle cx="42.118" cy="42.09" r="41.5" style="fill: rgba(0, 90, 187, 0.5);" transform="matrix(0.596876, 0, 0, 0.598408, -0.006575, -0.146619)"/>
  <g transform="matrix(1, 0, 0, 1, -24.033169, -13.347909)">
    <g transform="matrix(1, 0, 0, 1, 108.917595, -37.019585)">
      <g transform="matrix(1, 0, 0, 1, -95.812309, 24.233559)">
        <g transform="matrix(1, 0, 0, 1, -9.872931, 7.404699)">
          <path fill="#FFFFFF" d="M 63.311 56.41 L 47.709 29.605 C 47.37 29.024 46.726 28.662 46.024 28.661 C 45.327 28.661 44.683 29.021 44.345 29.6 L 28.614 56.404 C 28.282 56.969 28.291 57.666 28.634 58.224 C 28.977 58.782 29.613 59.129 30.294 59.129 L 36.671 59.129 C 37.733 59.129 38.595 58.307 38.595 57.296 C 38.595 56.287 37.732 55.465 36.671 55.465 L 33.575 55.465 L 46.019 34.262 L 58.362 55.465 L 55.4 55.465 C 54.339 55.465 53.475 56.287 53.475 57.297 C 53.475 58.308 54.339 59.129 55.4 59.129 L 61.629 59.129 C 62.306 59.129 62.942 58.784 63.289 58.226 C 63.631 57.669 63.641 56.972 63.311 56.41 Z" style=""/>
          <path fill="#FFFFFF" d="M 42.254 27.532 C 42.593 28.118 43.239 28.483 43.943 28.483 C 44.264 28.483 44.585 28.404 44.869 28.255 C 45.799 27.769 46.141 26.654 45.629 25.768 L 44.145 23.197 C 43.806 22.611 43.16 22.247 42.457 22.247 C 42.136 22.247 41.815 22.324 41.531 22.473 C 41.08 22.709 40.752 23.098 40.609 23.567 C 40.465 24.037 40.522 24.532 40.77 24.961 L 42.254 27.532 Z" style=""/>
          <path fill="#FFFFFF" d="M 45.962 50.894 C 42.295 50.894 39.312 53.732 39.312 57.223 C 39.312 58.234 40.175 59.055 41.237 59.055 C 42.299 59.055 43.162 58.234 43.162 57.223 C 43.162 55.754 44.418 54.558 45.962 54.558 C 47.505 54.558 48.76 55.754 48.76 57.223 C 48.76 58.234 49.624 59.055 50.685 59.055 C 51.746 59.055 52.609 58.234 52.61 57.223 C 52.612 53.733 49.628 50.894 45.962 50.894 Z" style=""/>
          <path fill="#FFFFFF" d="M 47.738 28.255 C 48.021 28.404 48.341 28.483 48.663 28.483 C 49.365 28.483 50.013 28.119 50.352 27.532 L 51.836 24.962 C 52.348 24.075 52.005 22.961 51.076 22.474 C 50.794 22.325 50.472 22.246 50.149 22.246 C 49.447 22.246 48.801 22.611 48.461 23.197 L 46.978 25.766 C 46.731 26.196 46.673 26.691 46.818 27.161 C 46.96 27.631 47.288 28.019 47.738 28.255 Z" style=""/>
        </g>
      </g>
    </g>
  </g>
</svg>