<?xml version="1.0" encoding="utf-8"?>
<svg viewBox="0 0 50 50" xmlns="http://www.w3.org/2000/svg">
  <circle cx="42.118" cy="42.09" r="41.5" style="fill: rgba(179, 36, 41, 0.51);" transform="matrix(0.596876, 0, 0, 0.598408, -0.006575, -0.146619)"/>
  <g transform="matrix(0.691234, 0, 0, 0.698059, -9.624619, -8.975335)" style=""/>
  <g transform="matrix(1, 0, 0, 1, 17.910539, -31.330046)">
    <g transform="matrix(1, 0, 0, 1, 21.834737, 37.828335)">
      <g transform="matrix(1, 0, 0, 1, -57.857472, -23.44613)">
        <path fill="#FFFFFF" d="M 60.399 53.794 L 44.797 26.989 C 44.458 26.408 43.814 26.046 43.112 26.045 C 42.415 26.045 41.771 26.405 41.433 26.984 L 25.702 53.788 C 25.37 54.353 25.379 55.05 25.722 55.608 C 26.065 56.166 26.701 56.513 27.382 56.513 L 33.759 56.513 C 34.821 56.513 35.683 55.691 35.683 54.68 C 35.683 53.671 34.82 52.849 33.759 52.849 L 30.663 52.849 L 43.107 31.646 L 55.45 52.849 L 52.488 52.849 C 51.427 52.849 50.563 53.671 50.563 54.681 C 50.563 55.692 51.427 56.513 52.488 56.513 L 58.717 56.513 C 59.394 56.513 60.03 56.168 60.377 55.61 C 60.719 55.053 60.729 54.356 60.399 53.794 Z" style=""/>
        <path fill="#FFFFFF" d="M 39.342 24.916 C 39.681 25.502 40.327 25.867 41.031 25.867 C 41.352 25.867 41.673 25.788 41.957 25.639 C 42.887 25.153 43.229 24.038 42.717 23.152 L 41.233 20.581 C 40.894 19.995 40.248 19.631 39.545 19.631 C 39.224 19.631 38.903 19.708 38.619 19.857 C 38.168 20.093 37.84 20.482 37.697 20.951 C 37.553 21.421 37.61 21.916 37.858 22.345 L 39.342 24.916 Z" style=""/>
        <path fill="#FFFFFF" d="M 43.05 48.278 C 39.383 48.278 36.4 51.116 36.4 54.607 C 36.4 55.618 37.263 56.439 38.325 56.439 C 39.387 56.439 40.25 55.618 40.25 54.607 C 40.25 53.138 41.506 51.942 43.05 51.942 C 44.593 51.942 45.848 53.138 45.848 54.607 C 45.848 55.618 46.712 56.439 47.773 56.439 C 48.834 56.439 49.697 55.618 49.698 54.607 C 49.7 51.117 46.716 48.278 43.05 48.278 Z" style=""/>
        <path fill="#FFFFFF" d="M 44.826 25.639 C 45.109 25.788 45.429 25.867 45.751 25.867 C 46.453 25.867 47.101 25.503 47.44 24.916 L 48.924 22.346 C 49.436 21.459 49.093 20.345 48.164 19.858 C 47.882 19.709 47.56 19.63 47.237 19.63 C 46.535 19.63 45.889 19.995 45.549 20.581 L 44.066 23.15 C 43.819 23.58 43.761 24.075 43.906 24.545 C 44.048 25.015 44.376 25.403 44.826 25.639 Z" style=""/>
      </g>
    </g>
  </g>
</svg>