<?xml version="1.0" encoding="utf-8"?>
<svg viewBox="0 0 50 50" xmlns="http://www.w3.org/2000/svg">
  <circle cx="42.118" cy="42.09" r="41.5" style="fill: rgba(179, 36, 41, 0.51);" transform="matrix(0.596876, 0, 0, 0.598408, -0.006575, -0.146619)"/>
  <g transform="matrix(0.691234, 0, 0, 0.698059, -9.624619, -8.975335)" style=""/>
  <g transform="matrix(1, 0, 0, 1, 17.910539, -31.330046)">
    <g transform="matrix(1, 0, 0, 1, 21.834737, 37.828335)">
      <g transform="matrix(1, 0, 0, 1, -57.857472, -23.44613)">
        <path fill="#FFFFFF" d="M 55.076 34.713 L 47.56 23.028 C 48.435 22.66 49.375 22.414 50.441 22.414 C 54.386 22.414 57.581 25.55 57.581 29.424 C 57.517 31.577 56.578 33.422 55.076 34.713 Z M 45.681 36.251 L 42.925 37.912 L 42.299 38.281 L 41.672 38.65 L 39.23 40.126 L 38.603 40.496 L 37.976 40.865 L 26.641 47.996 L 25.326 45.782 C 25.326 45.66 25.326 45.537 25.264 45.475 C 25.201 45.352 25.076 45.291 24.95 45.23 L 23.698 43.138 L 42.299 31.7 L 42.549 31.577 L 43.489 32.992 L 44.302 34.283 L 45.681 36.251 L 45.681 36.251 Z M 41.735 63.371 L 39.293 63.371 L 39.293 41.663 L 41.734 40.186 L 41.734 63.371 Z M 46.621 35.39 L 43.364 30.471 C 43.301 30.163 43.301 29.855 43.301 29.487 C 43.301 27.089 44.554 24.936 46.495 23.644 L 54.136 35.451 C 53.07 36.067 51.818 36.497 50.441 36.497 C 48.999 36.436 47.685 36.066 46.621 35.39 Z" style=""/>
      </g>
    </g>
  </g>
</svg>