<?xml version="1.0" encoding="utf-8"?>
<svg viewBox="0 0 50 50" xmlns="http://www.w3.org/2000/svg">
  <circle cx="42.118" cy="42.09" r="41.5" style="fill: rgba(0, 90, 187, 0.5);" transform="matrix(0.596876, 0, 0, 0.598408, -0.006575, -0.146619)"/>
  <g transform="matrix(1, 0, 0, 1, -24.033169, -13.347909)">
    <g transform="matrix(1, 0, 0, 1, 108.917595, -37.019585)">
      <path fill="#FFFFFF" d="M -45.533 68.807 L -53.049 57.122 C -52.174 56.754 -51.234 56.508 -50.168 56.508 C -46.223 56.508 -43.028 59.644 -43.028 63.518 C -43.092 65.671 -44.031 67.516 -45.533 68.807 Z M -54.928 70.345 L -57.684 72.006 L -58.31 72.375 L -58.937 72.744 L -61.379 74.22 L -62.006 74.59 L -62.633 74.959 L -73.968 82.09 L -75.283 79.876 C -75.283 79.754 -75.283 79.631 -75.345 79.569 C -75.408 79.446 -75.533 79.385 -75.659 79.324 L -76.911 77.232 L -58.31 65.794 L -58.06 65.671 L -57.12 67.086 L -56.307 68.377 L -54.928 70.345 L -54.928 70.345 Z M -58.874 97.465 L -61.316 97.465 L -61.316 75.757 L -58.875 74.28 L -58.875 97.465 Z M -53.988 69.484 L -57.245 64.565 C -57.308 64.257 -57.308 63.949 -57.308 63.581 C -57.308 61.183 -56.055 59.03 -54.114 57.738 L -46.473 69.545 C -47.539 70.161 -48.791 70.591 -50.168 70.591 C -51.61 70.53 -52.924 70.16 -53.988 69.484 Z" style=""/>
    </g>
  </g>
</svg>