<?xml version="1.0" encoding="utf-8"?>
<svg viewBox="0 0 50 50" xmlns="http://www.w3.org/2000/svg">
  <circle cx="42.118" cy="42.09" r="41.5" style="fill: rgba(179, 36, 41, 0.51);" transform="matrix(0.596876, 0, 0, 0.598408, -0.006575, -0.146619)"/>
  <g transform="matrix(0.804315, 0, 0, 0.780379, 36.891406, -4.908076)" style="">
    <path fill="#FFFFFF" d="M 3.482 34.971 C -4.95 33.868 -7.628 38.551 -7.628 39.931 C -7.628 41.311 -10.67 26.038 -1.637 22.425 C -10.369 23.629 -15.99 28.648 -15.99 33.767 C -15.99 24.131 -14.785 15.499 -8.262 11.284 C -24.421 12.489 -48.913 60.668 -21.21 64.884 C 8.757 69.445 -0.432 43.63 -0.432 43.63 C -0.432 43.63 -1.536 37.606 3.482 34.971 Z M -18.525 61.374 C -33.978 58.993 -32.555 42.186 -20.317 36.958 C -21.811 41.383 -23.166 46.34 -18.348 50.064 C -18.348 47.21 -15.089 42.608 -10.218 41.935 C -12.626 46.752 -11.661 51.982 -10.947 52.27 C -9.313 52.925 -7.508 53.829 -2.738 47.689 C -0.884 57.592 -7.558 63.063 -18.525 61.374 Z"/>
  </g>
</svg>