<?xml version="1.0" encoding="utf-8"?>
<svg viewBox="0 0 50 50" xmlns="http://www.w3.org/2000/svg">
  <circle cx="42.118" cy="42.09" r="41.5" style="fill: rgba(0, 90, 187, 0.5);" transform="matrix(0.596876, 0, 0, 0.598408, -0.006575, -0.146619)"/>
  <g transform="matrix(0.804315, 0, 0, 0.780379, -14.876203, -11.671065)" style="">
    <path fill="#FFFFFF" d="M68.621,43.951c-8.432-1.103-11.11,3.58-11.11,4.96s-3.042-13.893,5.991-17.506 c-8.732,1.204-14.353,6.223-14.353,11.342c0-9.636,1.205-18.268,7.728-22.483c-16.159,1.205-40.651,49.384-12.948,53.6 c29.967,4.561,20.778-21.254,20.778-21.254S63.603,46.586,68.621,43.951z M46.614,70.354c-15.453-2.381-14.03-19.188-1.792-24.416 c-1.494,4.425-2.849,9.382,1.969,13.106c0-2.854,3.259-7.456,8.13-8.129c-2.408,4.817-1.443,10.047-0.729,10.335 c1.634,0.655,3.439,1.559,8.209-4.581C64.255,66.572,57.581,72.043,46.614,70.354z"/>
  </g>
</svg>