<?xml version="1.0" encoding="utf-8"?>
<svg viewBox="0 0 50 50" xmlns="http://www.w3.org/2000/svg">
  <circle cx="42.118" cy="42.09" r="41.5" style="fill: rgba(179, 36, 41, 0.51);" transform="matrix(0.596876, 0, 0, 0.598408, -0.006575, -0.146619)"/>
  <g transform="matrix(0.691234, 0, 0, 0.698059, -9.624619, -8.975335)" style=""/>
  <g transform="matrix(1, 0, 0, 1, 17.910539, -31.330046)">
    <g transform="matrix(1, 0, 0, 1, 21.834737, 37.828335)">
      <path fill="#FFFFFF" d="M 2.161 14.6 C 2.991 13.701 3.498 12.534 3.498 11.258 C 3.498 11.21 3.487 11.165 3.481 11.117 C 3.487 11.07 3.498 11.022 3.498 10.972 C 3.498 8.143 1.032 5.842 -2.003 5.842 C -2.049 5.842 -2.091 5.852 -2.137 5.855 C -2.183 5.852 -2.223 5.842 -2.271 5.842 C -5.303 5.842 -7.771 8.143 -7.771 10.972 C -7.771 11.022 -7.76 11.068 -7.755 11.114 C -7.762 11.163 -7.771 11.208 -7.771 11.258 C -7.771 12.623 -7.195 13.859 -6.261 14.778 C -6.641 14.947 -7.005 15.142 -7.354 15.355 C -8.247 12.428 -11.132 10.278 -14.551 10.278 C -14.614 10.278 -14.673 10.291 -14.734 10.295 C -14.795 10.291 -14.853 10.278 -14.916 10.278 C -18.323 10.278 -21.2 12.414 -22.104 15.325 C -22.567 15.046 -23.054 14.801 -23.567 14.599 C -22.737 13.701 -22.23 12.534 -22.23 11.257 C -22.23 11.209 -22.242 11.165 -22.246 11.116 C -22.241 11.069 -22.23 11.021 -22.23 10.971 C -22.23 8.143 -24.698 5.841 -27.73 5.841 C -27.777 5.841 -27.82 5.851 -27.865 5.853 C -27.91 5.85 -27.953 5.841 -27.997 5.841 C -31.03 5.841 -33.498 8.143 -33.498 10.971 C -33.498 11.02 -33.487 11.066 -33.483 11.113 C -33.488 11.162 -33.498 11.206 -33.498 11.257 C -33.498 12.621 -32.922 13.857 -31.989 14.776 C -35.223 16.221 -37.463 19.306 -37.463 22.865 C -37.463 23.778 -36.669 24.518 -35.69 24.518 C -34.711 24.518 -33.918 23.778 -33.918 22.865 C -33.918 19.745 -31.195 17.206 -27.848 17.206 C -27.752 17.206 -27.658 17.193 -27.567 17.179 C -27.475 17.193 -27.37 17.206 -27.273 17.206 C -23.926 17.206 -21.19 19.745 -21.19 22.865 C -21.19 22.867 -21.19 22.868 -21.19 22.87 C -24.678 24.978 -27.786 28.932 -27.786 33.456 C -27.786 34.697 -26.71 35.705 -25.38 35.705 C -24.048 35.705 -22.97 34.698 -22.97 33.456 C -22.97 29.206 -19.265 25.749 -14.709 25.749 C -14.577 25.749 -14.452 25.732 -14.327 25.712 C -14.201 25.731 -14.074 25.749 -13.944 25.749 C -9.388 25.749 -5.68 29.206 -5.68 33.456 C -5.68 34.697 -4.602 35.705 -3.269 35.705 C -1.935 35.705 -0.857 34.698 -0.857 33.456 C -0.857 28.659 -3.843 24.503 -8.168 22.51 C -7.97 19.556 -5.335 17.207 -2.118 17.207 C -2.021 17.207 -1.929 17.195 -1.837 17.18 C -1.744 17.194 -1.651 17.207 -1.556 17.207 C 1.793 17.207 4.515 19.747 4.515 22.866 C 4.515 23.78 5.308 24.519 6.287 24.519 C 7.265 24.519 8.058 23.779 8.058 22.866 C 8.056 19.152 5.621 15.958 2.161 14.6 Z M -25.777 11.257 C -25.777 12.264 -26.655 13.084 -27.733 13.084 C -27.779 13.084 -27.822 13.093 -27.867 13.095 C -27.913 13.093 -27.955 13.084 -28 13.084 C -29.079 13.084 -29.957 12.264 -29.957 11.257 C -29.957 11.209 -29.969 11.164 -29.972 11.115 C -29.968 11.068 -29.957 11.021 -29.957 10.971 C -29.957 9.965 -29.08 9.146 -28 9.146 C -27.954 9.146 -27.912 9.136 -27.867 9.134 C -27.822 9.137 -27.779 9.146 -27.733 9.146 C -26.654 9.146 -25.776 9.965 -25.776 10.971 C -25.776 11.02 -25.764 11.066 -25.761 11.112 C -25.764 11.162 -25.777 11.207 -25.777 11.257 Z M -11.89 17.652 C -11.89 19.023 -13.083 20.138 -14.553 20.138 C -14.615 20.138 -14.674 20.15 -14.736 20.153 C -14.797 20.15 -14.855 20.138 -14.919 20.138 C -16.386 20.138 -17.581 19.022 -17.581 17.652 C -17.581 17.586 -17.596 17.524 -17.602 17.459 C -17.596 17.393 -17.581 17.33 -17.581 17.263 C -17.581 15.894 -16.386 14.778 -14.917 14.778 C -14.855 14.778 -14.797 14.767 -14.736 14.762 C -14.674 14.767 -14.615 14.778 -14.553 14.778 C -13.083 14.778 -11.889 15.894 -11.889 17.263 C -11.889 17.33 -11.873 17.389 -11.868 17.456 C -11.874 17.521 -11.89 17.583 -11.89 17.652 Z M -0.046 11.257 C -0.046 12.264 -0.924 13.084 -2.003 13.084 C -2.049 13.084 -2.092 13.093 -2.138 13.095 C -2.183 13.093 -2.224 13.084 -2.271 13.084 C -3.349 13.084 -4.228 12.264 -4.228 11.257 C -4.228 11.209 -4.238 11.164 -4.242 11.115 C -4.238 11.068 -4.227 11.021 -4.227 10.971 C -4.227 9.965 -3.349 9.146 -2.271 9.146 C -2.224 9.146 -2.183 9.136 -2.138 9.134 C -2.092 9.137 -2.049 9.146 -2.003 9.146 C -0.924 9.146 -0.046 9.965 -0.046 10.971 C -0.046 11.02 -0.035 11.066 -0.031 11.112 C -0.035 11.162 -0.046 11.207 -0.046 11.257 Z" style=""/>
    </g>
  </g>
</svg>