<?xml version="1.0" encoding="utf-8"?>
<svg viewBox="0 0 50 50" xmlns="http://www.w3.org/2000/svg">
  <circle cx="42.118" cy="42.09" r="41.5" style="fill: rgba(0, 90, 187, 0.5);" transform="matrix(0.596876, 0, 0, 0.598408, -0.006575, -0.146619)"/>
  <g transform="matrix(1, 0, 0, 1, -24.033169, -13.347909)">
    <path fill="#FFFFFF" d="M 65.831 33.407 C 66.661 32.508 67.168 31.341 67.168 30.065 C 67.168 30.017 67.157 29.972 67.151 29.924 C 67.157 29.877 67.168 29.829 67.168 29.779 C 67.168 26.95 64.702 24.649 61.667 24.649 C 61.621 24.649 61.579 24.659 61.533 24.662 C 61.487 24.659 61.447 24.649 61.399 24.649 C 58.367 24.649 55.899 26.95 55.899 29.779 C 55.899 29.829 55.91 29.875 55.915 29.921 C 55.908 29.97 55.899 30.015 55.899 30.065 C 55.899 31.43 56.475 32.666 57.409 33.585 C 57.029 33.754 56.665 33.949 56.316 34.162 C 55.423 31.235 52.538 29.085 49.119 29.085 C 49.056 29.085 48.997 29.098 48.936 29.102 C 48.875 29.098 48.817 29.085 48.754 29.085 C 45.347 29.085 42.47 31.221 41.566 34.132 C 41.103 33.853 40.616 33.608 40.103 33.406 C 40.933 32.508 41.44 31.341 41.44 30.064 C 41.44 30.016 41.428 29.972 41.424 29.923 C 41.429 29.876 41.44 29.828 41.44 29.778 C 41.44 26.95 38.972 24.648 35.94 24.648 C 35.893 24.648 35.85 24.658 35.805 24.66 C 35.76 24.657 35.717 24.648 35.673 24.648 C 32.64 24.648 30.172 26.95 30.172 29.778 C 30.172 29.827 30.183 29.873 30.187 29.92 C 30.182 29.969 30.172 30.013 30.172 30.064 C 30.172 31.428 30.748 32.664 31.681 33.583 C 28.447 35.028 26.207 38.113 26.207 41.672 C 26.207 42.585 27.001 43.325 27.98 43.325 C 28.959 43.325 29.752 42.585 29.752 41.672 C 29.752 38.552 32.475 36.013 35.822 36.013 C 35.918 36.013 36.012 36 36.103 35.986 C 36.195 36 36.3 36.013 36.397 36.013 C 39.744 36.013 42.48 38.552 42.48 41.672 C 42.48 41.674 42.48 41.675 42.48 41.677 C 38.992 43.785 35.884 47.739 35.884 52.263 C 35.884 53.504 36.96 54.512 38.29 54.512 C 39.622 54.512 40.7 53.505 40.7 52.263 C 40.7 48.013 44.405 44.556 48.961 44.556 C 49.093 44.556 49.218 44.539 49.343 44.519 C 49.469 44.538 49.596 44.556 49.726 44.556 C 54.282 44.556 57.99 48.013 57.99 52.263 C 57.99 53.504 59.068 54.512 60.401 54.512 C 61.735 54.512 62.813 53.505 62.813 52.263 C 62.813 47.466 59.827 43.31 55.502 41.317 C 55.7 38.363 58.335 36.014 61.552 36.014 C 61.649 36.014 61.741 36.002 61.833 35.987 C 61.926 36.001 62.019 36.014 62.114 36.014 C 65.463 36.014 68.185 38.554 68.185 41.673 C 68.185 42.587 68.978 43.326 69.957 43.326 C 70.935 43.326 71.728 42.586 71.728 41.673 C 71.726 37.959 69.291 34.765 65.831 33.407 Z M 37.893 30.064 C 37.893 31.071 37.015 31.891 35.937 31.891 C 35.891 31.891 35.848 31.9 35.803 31.902 C 35.757 31.9 35.715 31.891 35.67 31.891 C 34.591 31.891 33.713 31.071 33.713 30.064 C 33.713 30.016 33.701 29.971 33.698 29.922 C 33.702 29.875 33.713 29.828 33.713 29.778 C 33.713 28.772 34.59 27.953 35.67 27.953 C 35.716 27.953 35.758 27.943 35.803 27.941 C 35.848 27.944 35.891 27.953 35.937 27.953 C 37.016 27.953 37.894 28.772 37.894 29.778 C 37.894 29.827 37.906 29.873 37.909 29.919 C 37.906 29.969 37.893 30.014 37.893 30.064 Z M 51.78 36.459 C 51.78 37.83 50.587 38.945 49.117 38.945 C 49.055 38.945 48.996 38.957 48.934 38.96 C 48.873 38.957 48.815 38.945 48.751 38.945 C 47.284 38.945 46.089 37.829 46.089 36.459 C 46.089 36.393 46.074 36.331 46.068 36.266 C 46.074 36.2 46.089 36.137 46.089 36.07 C 46.089 34.701 47.284 33.585 48.753 33.585 C 48.815 33.585 48.873 33.574 48.934 33.569 C 48.996 33.574 49.055 33.585 49.117 33.585 C 50.587 33.585 51.781 34.701 51.781 36.07 C 51.781 36.137 51.797 36.196 51.802 36.263 C 51.796 36.328 51.78 36.39 51.78 36.459 Z M 63.624 30.064 C 63.624 31.071 62.746 31.891 61.667 31.891 C 61.621 31.891 61.578 31.9 61.532 31.902 C 61.487 31.9 61.446 31.891 61.399 31.891 C 60.321 31.891 59.442 31.071 59.442 30.064 C 59.442 30.016 59.432 29.971 59.428 29.922 C 59.432 29.875 59.443 29.828 59.443 29.778 C 59.443 28.772 60.321 27.953 61.399 27.953 C 61.446 27.953 61.487 27.943 61.532 27.941 C 61.578 27.944 61.621 27.953 61.667 27.953 C 62.746 27.953 63.624 28.772 63.624 29.778 C 63.624 29.827 63.635 29.873 63.639 29.919 C 63.635 29.969 63.624 30.014 63.624 30.064 Z" style=""/>
  </g>
</svg>