<?xml version="1.0" encoding="utf-8"?>
<svg viewBox="0 0 50 50" xmlns="http://www.w3.org/2000/svg">
  <circle cx="42.118" cy="42.09" r="41.5" style="fill: rgba(179, 36, 41, 0.51);" transform="matrix(0.596876, 0, 0, 0.598408, -0.006575, -0.146619)"/>
  <g transform="matrix(0.691234, 0, 0, 0.698059, -9.624619, -8.975335)" style=""/>
  <g transform="matrix(1, 0, 0, 1, -232.199578, -9.141494)">
    <path fill="#FFFFFF" d="M 257.648 16.033 L 254.154 32.021 L 249.453 13.6 L 250.599 36.189 L 240.388 19.289 L 246.393 40.28 L 235.284 23.854 L 240.546 40.797 C 241.752 44.679 243.177 44.707 245.808 44.707 L 248.373 43.268 L 254.307 39.582 L 260.089 39.403 L 266.383 43.628 L 269.488 44.707 C 272.118 44.707 273.451 43.585 274.749 40.797 L 280.011 23.854 L 268.203 41.577 L 273.936 18.995 L 263.686 36.727 L 266.421 14.152 L 259.696 32.176 L 257.648 16.033 Z" style=""/>
    <path fill="#FFFFFF" d="M 253.702 44.707 L 253.702 47.314 C 247.872 47.314 243.178 49.057 243.178 51.224 C 243.178 53.39 247.872 55.133 253.702 55.133 L 261.595 55.133 C 267.425 55.133 272.119 53.389 272.119 51.224 C 272.119 49.057 267.425 47.314 261.595 47.314 L 261.595 44.707 L 253.702 44.707 Z" style=""/>
  </g>
</svg>