<?xml version="1.0" encoding="utf-8"?>
<svg viewBox="0 0 50 50" xmlns="http://www.w3.org/2000/svg">
  <circle cx="42.118" cy="42.09" r="41.5" style="fill: rgba(0, 90, 187, 0.5);" transform="matrix(0.596876, 0, 0, 0.598408, -0.006575, -0.146619)"/>
  <path fill="#FFFFFF" d="M 25.217 7.895 L 21.723 23.883 L 17.022 5.462 L 18.168 28.051 L 7.957 11.151 L 13.962 32.142 L 2.853 15.716 L 8.115 32.659 C 9.321 36.541 10.746 36.569 13.377 36.569 L 15.942 35.13 L 21.876 31.444 L 27.658 31.265 L 33.952 35.49 L 37.057 36.569 C 39.687 36.569 41.02 35.447 42.318 32.659 L 47.58 15.716 L 35.772 33.439 L 41.505 10.857 L 31.255 28.589 L 33.99 6.014 L 27.265 24.038 L 25.217 7.895 Z" style=""/>
  <path fill="#FFFFFF" d="M 21.271 36.569 L 21.271 39.176 C 15.441 39.176 10.747 40.919 10.747 43.086 C 10.747 45.252 15.441 46.995 21.271 46.995 L 29.164 46.995 C 34.994 46.995 39.688 45.251 39.688 43.086 C 39.688 40.919 34.994 39.176 29.164 39.176 L 29.164 36.569 L 21.271 36.569 Z" style=""/>
</svg>