<?xml version="1.0" encoding="utf-8"?>
<svg viewBox="0 0 50 50" xmlns="http://www.w3.org/2000/svg">
  <circle cx="42.118" cy="42.09" r="41.5" style="fill: rgba(179, 36, 41, 0.51);" transform="matrix(0.596876, 0, 0, 0.598408, -0.006575, -0.146619)"/>
  <g transform="matrix(0.691234, 0, 0, 0.698059, -9.624619, -8.975335)" style=""/>
  <g transform="matrix(1, 0, 0, 1, 17.910539, -31.330046)">
    <g transform="matrix(1, 0, 0, 1, 21.834737, 37.828335)">
      <g transform="matrix(0.583395, 0, 0, 0.6377, -45.078053, -15.362922)" style="">
        <path fill="#FFFFFF" d="M 78.118 27.778 C 78.118 27.778 75.265 27.286 71.331 31.22 L 73.002 32.892 L 74.674 34.564 C 78.609 30.63 78.118 27.778 78.118 27.778 Z" style=""/>
        <rect x="55.554" y="32.517" transform="matrix(-0.707107, -0.707107, 0.707107, -0.707107, 59.343285, 128.938309)" fill="#FFFFFF" width="5.793" height="29.296"/>
        <path fill="#FFFFFF" d="M 43.111 74.338 C 42.605 74.338 42.111 74.391 41.634 74.485 C 41.236 73.246 40.321 72.242 39.142 71.722 C 39.223 71.596 39.297 71.462 39.379 71.337 C 43.596 64.868 41.216 66.956 41.216 66.956 C 41.216 66.956 40.056 65.778 39.536 65.137 C 37.746 62.929 38.612 64.091 35.109 65.611 C 32.668 66.67 30.494 68.474 27.936 69.329 C 27.936 69.329 22.531 65.365 18.646 71.167 C 18.646 71.167 17.451 70.181 15.95 69.88 C 22.359 81.778 34.924 89.871 49.382 89.889 C 50.161 89.489 50.675 88.815 50.675 88.043 C 50.675 87.272 50.165 86.592 49.385 86.189 C 50.212 84.975 50.697 83.506 50.697 81.926 C 50.699 77.735 47.301 74.338 43.111 74.338 Z"/>
      </g>
      <path fill="#FFFFFF" d="M -5.162 11.547 C -5.233 11.429 -4.602 10.199 -4.768 10.225 C -4.754 9.847 -3.17 8.967 -3.495 8.806 C -3.454 8.767 -2.634 7.778 -2.634 7.778 C -2.634 7.778 -1.508 6.31 -3.98 7.583 C -4.879 8.046 -5.37 8.388 -6.313 8.648 C -6.313 8.648 -6.448 7.435 -8.417 9.211 C -8.417 9.211 -9.429 9.483 -9.888 9.392 C -9.862 11.165 -8.298 14 -7.158 12.928 C -6.854 12.807 -5.361 13.501 -5.572 13.377 C -5.155 13.006 -4.219 13.274 -4.031 12.791 C -3.532 11.509 -4.633 12.408 -5.162 11.547 Z" style="" transform="matrix(0.971267, -0.237993, 0.237993, 0.971267, -2.610367, -1.165747)"/>
      <rect x="9.346" y="9.471" transform="matrix(-0.999989, -0.004739, 0.003966, -0.999992, -0.047479, 31.584892)" fill="#FFFFFF" width="0.974" height="8.533" style=""/>
      <rect x="9.517" y="9.302" transform="matrix(-0.884554, -0.466437, 0.404736, -0.91709, -8.034059, 41.527355)" fill="#FFFFFF" width="0.992" height="8.38" style=""/>
      <rect x="9.567" y="9.254" transform="matrix(-0.849109, 0.528217, -0.463156, -0.889583, 6.801314, 31.106628)" fill="#FFFFFF" width="0.997" height="8.337" style=""/>
    </g>
  </g>
</svg>