<?xml version="1.0" encoding="utf-8"?>
<svg viewBox="0 0 50 50" xmlns="http://www.w3.org/2000/svg">
  <circle cx="42.118" cy="42.09" r="41.5" style="fill: rgba(0, 90, 187, 0.5);" transform="matrix(0.596876, 0, 0, 0.598408, -0.006575, -0.146619)"/>
  <g transform="matrix(0.583395, 0, 0, 0.6377, -5.270675, -9.49537)" style="">
    <path fill="#FFFFFF" d="M 78.118 27.778 C 78.118 27.778 75.265 27.286 71.331 31.22 L 73.002 32.892 L 74.674 34.564 C 78.609 30.63 78.118 27.778 78.118 27.778 Z" style=""/>
    <rect x="55.554" y="32.517" transform="matrix(-0.707107, -0.707107, 0.707107, -0.707107, 59.343285, 128.938309)" fill="#FFFFFF" width="5.793" height="29.296"/>
    <path fill="#FFFFFF" d="M 43.111 74.338 C 42.605 74.338 42.111 74.391 41.634 74.485 C 41.236 73.246 40.321 72.242 39.142 71.722 C 39.223 71.596 39.297 71.462 39.379 71.337 C 43.596 64.868 41.216 66.956 41.216 66.956 C 41.216 66.956 40.056 65.778 39.536 65.137 C 37.746 62.929 38.612 64.091 35.109 65.611 C 32.668 66.67 30.494 68.474 27.936 69.329 C 27.936 69.329 22.531 65.365 18.646 71.167 C 18.646 71.167 17.451 70.181 15.95 69.88 C 22.359 81.778 34.924 89.871 49.382 89.889 C 50.161 89.489 50.675 88.815 50.675 88.043 C 50.675 87.272 50.165 86.592 49.385 86.189 C 50.212 84.975 50.697 83.506 50.697 81.926 C 50.699 77.735 47.301 74.338 43.111 74.338 Z"/>
  </g>
  <path fill="#FFFFFF" d="M 34.645 17.415 C 34.574 17.297 35.205 16.067 35.039 16.093 C 35.053 15.715 36.637 14.835 36.312 14.674 C 36.353 14.635 37.173 13.646 37.173 13.646 C 37.173 13.646 38.299 12.178 35.827 13.451 C 34.928 13.914 34.437 14.256 33.494 14.516 C 33.494 14.516 33.359 13.303 31.39 15.079 C 31.39 15.079 30.378 15.351 29.919 15.26 C 29.945 17.033 31.509 19.868 32.649 18.796 C 32.953 18.675 34.446 19.369 34.235 19.245 C 34.652 18.874 35.588 19.142 35.776 18.659 C 36.275 17.377 35.174 18.276 34.645 17.415 Z" style="" transform="matrix(0.971267, -0.237993, 0.237993, 0.971267, -2.86313, 8.476645)"/>
  <rect x="9.346" y="9.471" transform="matrix(-0.999989, -0.004739, 0.003966, -0.999992, 39.759899, 37.452442)" fill="#FFFFFF" width="0.974" height="8.533" style=""/>
  <rect x="9.517" y="9.302" transform="matrix(-0.884554, -0.466437, 0.404736, -0.91709, 31.773319, 47.394905)" fill="#FFFFFF" width="0.992" height="8.38" style=""/>
  <rect x="9.567" y="9.254" transform="matrix(-0.849109, 0.528217, -0.463156, -0.889583, 46.608692, 36.974182)" fill="#FFFFFF" width="0.997" height="8.337" style=""/>
</svg>