<?xml version="1.0" encoding="utf-8"?>
<svg viewBox="0 0 50 50" xmlns="http://www.w3.org/2000/svg">
  <circle cx="42.118" cy="42.09" r="41.5" style="fill: rgba(0, 90, 187, 0.5);" transform="matrix(0.596876, 0, 0, 0.598408, -0.006575, -0.146619)"/>
  <g transform="matrix(1, 0, 0, 1, -28.927543, -15.483413)">
    <path fill="#FFFFFF" d="M 54.338 23.587 C 43.499 23.587 36.635 29.46 36.635 36.658 C 36.737 39.592 37.588 42.468 39.121 45.057 L 43.566 45.057 C 43.566 45.057 46.72 45.057 47.512 53.567 L 50.77 53.567 L 50.77 52.418 C 50.77 51.948 51.192 51.567 51.712 51.567 C 52.232 51.567 52.653 51.949 52.653 52.418 L 52.653 53.567 L 56.147 53.567 L 56.147 52.418 C 56.147 51.948 56.569 51.567 57.089 51.567 C 57.607 51.567 58.031 51.949 58.031 52.418 L 58.031 53.567 L 61.155 53.567 C 61.947 45.057 65.102 45.057 65.102 45.057 L 69.546 45.057 C 71.079 42.468 71.93 39.592 72.032 36.658 C 72.042 29.45 65.176 23.587 54.338 23.587 Z M 46.664 39.755 C 44.552 39.755 42.84 38.21 42.84 36.301 C 42.84 34.392 44.553 32.846 46.664 32.846 C 48.775 32.846 50.487 34.393 50.487 36.301 C 50.487 38.209 48.775 39.755 46.664 39.755 Z M 56.636 45.313 C 56.155 46.002 52.586 45.959 52.022 45.313 C 51.456 44.666 53.548 40.513 54.329 40.513 C 55.111 40.513 57.164 44.632 56.636 45.313 Z M 62.155 39.755 C 60.041 39.755 58.331 38.21 58.331 36.301 C 58.331 34.392 60.041 32.846 62.155 32.846 C 64.265 32.846 65.977 34.393 65.977 36.301 C 65.977 38.209 64.265 39.755 62.155 39.755 Z" style=""/>
  </g>
</svg>