<?xml version="1.0" encoding="utf-8"?>
<svg viewBox="0 0 50 50" xmlns="http://www.w3.org/2000/svg">
  <circle cx="42.118" cy="42.09" r="41.5" style="fill: rgba(179, 36, 41, 0.51);" transform="matrix(0.596876, 0, 0, 0.598408, -0.006575, -0.146619)"/>
  <g transform="matrix(0.691234, 0, 0, 0.698059, -9.624619, -8.975335)" style=""/>
  <path fill="#FFFFFF" d="M 25.215 6.62 C 14.376 6.62 7.512 12.493 7.512 19.691 C 7.614 22.625 8.465 25.501 9.998 28.09 L 14.443 28.09 C 14.443 28.09 17.597 28.09 18.389 36.6 L 21.647 36.6 L 21.647 35.451 C 21.647 34.981 22.069 34.6 22.589 34.6 C 23.109 34.6 23.53 34.982 23.53 35.451 L 23.53 36.6 L 27.024 36.6 L 27.024 35.451 C 27.024 34.981 27.446 34.6 27.966 34.6 C 28.484 34.6 28.908 34.982 28.908 35.451 L 28.908 36.6 L 32.032 36.6 C 32.824 28.09 35.979 28.09 35.979 28.09 L 40.423 28.09 C 41.956 25.501 42.807 22.625 42.909 19.691 C 42.919 12.483 36.053 6.62 25.215 6.62 Z M 17.541 22.788 C 15.429 22.788 13.717 21.243 13.717 19.334 C 13.717 17.425 15.43 15.879 17.541 15.879 C 19.652 15.879 21.364 17.426 21.364 19.334 C 21.364 21.242 19.652 22.788 17.541 22.788 Z M 27.513 28.346 C 27.032 29.035 23.463 28.992 22.899 28.346 C 22.333 27.699 24.425 23.546 25.206 23.546 C 25.988 23.546 28.041 27.665 27.513 28.346 Z M 33.032 22.788 C 30.918 22.788 29.208 21.243 29.208 19.334 C 29.208 17.425 30.918 15.879 33.032 15.879 C 35.142 15.879 36.854 17.426 36.854 19.334 C 36.854 21.242 35.142 22.788 33.032 22.788 Z" style=""/>
</svg>