<?xml version="1.0" encoding="utf-8"?>
<svg viewBox="0 0 50 50" xmlns="http://www.w3.org/2000/svg">
  <circle cx="42.118" cy="42.09" r="41.5" style="fill: rgba(179, 36, 41, 0.51);" transform="matrix(0.596876, 0, 0, 0.598408, -0.006575, -0.146619)"/>
  <g transform="matrix(0.729343, 0, 0, 0.750479, -11.546146, -12.241104)" style="">
    <path fill="#FFFFFF" d="M41.186,47.966c0.296-2.593,1.704-4.889,3.704-6.296c0.444-0.296,0.592-0.815,0.296-1.259l-9.407-15.703 c-0.296-0.444-0.814-0.593-1.259-0.297c-7.852,4.963-13.185,13.629-13.481,23.556c0,0.518,0.371,0.888,0.889,0.888h18.295 C40.741,48.854,41.111,48.483,41.186,47.966z"/>
    <path fill="#FFFFFF" d="M54.666,57.447c-0.296-0.445-0.814-0.594-1.333-0.371c-1.037,0.445-2.148,0.666-3.333,0.666 c-1.333,0-2.667-0.295-3.778-0.814c-0.444-0.223-1.037-0.074-1.259,0.371l-9.186,15.703c-0.222,0.443-0.074,1.037,0.371,1.26 c4.148,2.295,8.889,3.555,13.926,3.555c4.963,0,9.629-1.26,13.703-3.48c0.444-0.223,0.593-0.816,0.296-1.26L54.666,57.447z"/>
    <path fill="#FFFFFF" d="M65.333,24.336c-0.445-0.296-1.037-0.148-1.26,0.297l-9.629,15.555c-0.297,0.444-0.074,0.963,0.297,1.259 c2.222,1.408,3.777,3.778,4.073,6.593c0.074,0.519,0.444,0.889,0.963,0.889h18.296c0.519,0,0.889-0.445,0.889-0.889 C78.666,37.966,73.259,29.299,65.333,24.336z"/>
    <path fill="#FFFFFF" d="M50,54.188c2.889,0,5.259-2.371,5.259-5.259c0-2.889-2.37-5.26-5.259-5.26s-5.259,2.371-5.259,5.26 C44.741,51.816,47.111,54.188,50,54.188z M50,45.966c1.63,0,2.889,1.259,2.889,2.888c0,1.63-1.259,2.888-2.889,2.888 s-2.889-1.258-2.889-2.888C47.111,47.225,48.37,45.966,50,45.966z"/>
  </g>
</svg>