<?xml version="1.0" encoding="utf-8"?>
<svg viewBox="0 0 50 50" xmlns="http://www.w3.org/2000/svg">
  <circle cx="42.118" cy="42.09" r="41.5" style="fill: rgba(0, 90, 187, 0.5);" transform="matrix(0.596876, 0, 0, 0.598408, -0.006575, -0.146619)"/>
  <g transform="matrix(1, 0, 0, 1, 42.794418, -4.992161)">
    <path fill="#FFFFFF" d="M 3.494 32.875 L -2.954 26.403 L 0.173 23.261 C 0.454 22.979 0.592 22.583 0.547 22.187 C -0.126 16.2 -4.76 11.565 -10.723 10.914 C -11.114 10.873 -11.508 11.009 -11.787 11.29 L -14.846 14.362 L -21.365 7.809 C -21.61 7.563 -21.942 7.425 -22.288 7.425 C -22.288 7.425 -22.288 7.425 -22.288 7.425 C -22.634 7.425 -22.966 7.563 -23.211 7.809 L -30.177 14.806 C -30.422 15.052 -30.56 15.385 -30.56 15.733 C -30.56 16.081 -30.423 16.415 -30.177 16.66 L -23.655 23.211 L -26.738 26.307 C -27.019 26.589 -27.157 26.986 -27.112 27.382 C -26.44 33.37 -21.806 38.006 -15.843 38.656 C -15.795 38.661 -15.749 38.664 -15.701 38.664 C -15.357 38.664 -15.024 38.527 -14.777 38.28 L -11.671 35.158 L -5.221 41.632 C -4.966 41.888 -4.632 42.015 -4.298 42.015 C -3.964 42.015 -3.629 41.887 -3.374 41.632 L 3.497 34.73 C 3.742 34.484 3.879 34.15 3.879 33.802 C 3.877 33.455 3.74 33.12 3.494 32.875 Z M -27.408 15.734 L -22.289 10.593 L -16.693 16.218 L -21.81 21.357 L -27.408 15.734 Z M -16.168 35.964 C -20.411 35.246 -23.698 31.959 -24.431 27.7 L -20.92 24.173 C -20.908 24.162 -20.894 24.154 -20.882 24.142 C -20.869 24.13 -20.862 24.116 -20.851 24.104 L -10.4 13.607 C -6.157 14.324 -2.87 17.611 -2.136 21.87 L -16.168 35.964 Z M -4.3 38.849 L -9.825 33.304 L -4.802 28.258 L 0.723 33.803 L -4.3 38.849 Z" style=""/>
    <path fill="#FFFFFF" d="M -18.332 46.644 C -17.056 46.644 -15.758 46.495 -14.463 46.185 C -13.761 46.017 -13.328 45.311 -13.494 44.605 C -13.661 43.9 -14.364 43.464 -15.067 43.632 C -22.632 45.438 -30.249 40.731 -32.049 33.133 C -32.568 30.941 -32.557 28.626 -32.016 26.438 C -31.843 25.735 -32.27 25.023 -32.969 24.849 C -33.666 24.674 -34.377 25.102 -34.551 25.806 C -35.192 28.398 -35.205 31.141 -34.59 33.739 C -32.766 41.446 -25.894 46.644 -18.332 46.644 Z" style=""/>
    <path fill="#FFFFFF" d="M -14.999 48.042 C -17.252 48.455 -19.533 48.443 -21.779 48.011 C -31.743 46.088 -38.292 36.379 -36.378 26.371 C -36.242 25.659 -36.706 24.972 -37.415 24.835 C -38.121 24.699 -38.807 25.164 -38.943 25.876 C -41.129 37.305 -33.651 48.392 -22.272 50.588 C -20.959 50.842 -19.635 50.968 -18.31 50.968 C -17.048 50.968 -15.785 50.853 -14.531 50.624 C -13.822 50.494 -13.351 49.81 -13.48 49.098 C -13.609 48.384 -14.297 47.913 -14.999 48.042 Z" style=""/>
  </g>
</svg>