<?xml version="1.0" encoding="utf-8"?>
<svg viewBox="0 0 50 50" xmlns="http://www.w3.org/2000/svg">
  <circle cx="42.118" cy="42.09" r="41.5" style="fill: rgba(179, 36, 41, 0.51);" transform="matrix(0.596876, 0, 0, 0.598408, -0.006575, -0.146619)"/>
  <g style="" transform="matrix(0.923219, 0, 0, 0.90004, 1.610297, 4.777548)">
    <g transform="matrix(0.753651, 0, 0, 0.766895, -12.659541, -13.111559)" style="">
      <g transform="matrix(1.024808, 0, 0, 1.007109, -1.001783, -0.326082)" style="">
        <path d="M 49.979 21.125 C 34.123 21.125 21.229 34.024 21.229 49.875 C 21.229 65.731 34.123 78.625 49.979 78.625 C 65.831 78.625 78.729 65.731 78.729 49.875 C 78.729 34.024 65.83 21.125 49.979 21.125 Z M 49.979 25.094 C 56.274 25.094 62.03 27.455 66.406 31.341 L 60.289 37.463 C 60.1 37.656 59.971 37.884 59.906 38.132 C 57.222 35.86 53.76 34.49 49.979 34.49 C 46.198 34.49 42.736 35.859 40.052 38.132 C 39.988 37.884 39.859 37.655 39.665 37.463 L 33.548 31.341 C 37.923 27.456 43.683 25.094 49.979 25.094 Z M 49.979 61.787 C 43.411 61.787 38.067 56.444 38.067 49.875 C 38.067 43.306 43.411 37.963 49.979 37.963 C 56.547 37.963 61.891 43.306 61.891 49.875 C 61.891 56.444 56.547 61.787 49.979 61.787 Z M 25.197 49.875 C 25.197 43.58 27.558 37.824 31.443 33.449 L 37.561 39.566 C 37.755 39.759 37.988 39.889 38.236 39.948 C 35.964 42.632 34.594 46.095 34.594 49.875 C 34.594 53.655 35.963 57.118 38.236 59.802 C 37.988 59.866 37.755 59.995 37.561 60.19 L 31.443 66.307 C 27.56 61.931 25.197 56.17 25.197 49.875 Z M 49.979 74.656 C 43.684 74.656 37.923 72.295 33.547 68.409 L 39.664 62.292 C 39.858 62.099 39.992 61.865 40.051 61.618 C 42.735 63.89 46.198 65.26 49.978 65.26 C 53.758 65.26 57.221 63.891 59.905 61.618 C 59.965 61.865 60.093 62.098 60.288 62.292 L 66.41 68.409 C 62.034 72.294 56.273 74.656 49.979 74.656 Z M 68.514 66.307 L 62.392 60.185 C 62.204 59.992 61.97 59.863 61.727 59.798 C 63.995 57.118 65.364 53.651 65.364 49.875 C 65.364 48.842 65.262 47.834 65.067 46.858 C 64.866 45.853 64.568 44.883 64.181 43.959 C 63.568 42.495 62.735 41.144 61.722 39.948 C 61.969 39.889 62.202 39.76 62.391 39.566 L 68.513 33.449 C 70.611 35.812 72.265 38.578 73.342 41.614 C 73.865 43.085 74.251 44.62 74.488 46.204 C 74.666 47.402 74.759 48.628 74.759 49.875 C 74.76 56.17 72.397 61.931 68.514 66.307 Z" fill="#FFFFFF"/>
      </g>
    </g>
    <g>
      <g>
        <path d="M 25.192 2.947 C 12.946 2.947 2.987 12.909 2.987 25.152 C 2.987 37.398 12.946 47.356 25.192 47.356 C 37.436 47.356 47.397 37.398 47.397 25.152 C 47.397 12.909 37.435 2.947 25.192 2.947 Z M 25.192 6.012 C 30.054 6.012 34.5 7.835 37.88 10.837 L 33.155 15.565 C 33.009 15.714 32.91 15.89 32.859 16.082 C 30.786 14.327 28.113 13.269 25.192 13.269 C 22.272 13.269 19.598 14.326 17.525 16.082 C 17.476 15.89 17.376 15.713 17.226 15.565 L 12.502 10.837 C 15.881 7.836 20.33 6.012 25.192 6.012 Z M 25.192 34.352 C 20.12 34.352 15.992 30.225 15.992 25.152 C 15.992 20.078 20.12 15.951 25.192 15.951 C 30.265 15.951 34.393 20.078 34.393 25.152 C 34.393 30.225 30.265 34.352 25.192 34.352 Z M 6.052 25.152 C 6.052 20.29 7.876 15.844 10.876 12.465 L 15.601 17.189 C 15.751 17.338 15.931 17.439 16.123 17.484 C 14.368 19.557 13.31 22.232 13.31 25.152 C 13.31 28.071 14.367 30.746 16.123 32.819 C 15.931 32.868 15.751 32.968 15.601 33.118 L 10.876 37.843 C 7.877 34.463 6.052 30.013 6.052 25.152 Z M 25.192 44.291 C 20.33 44.291 15.881 42.468 12.501 39.466 L 17.226 34.742 C 17.375 34.593 17.479 34.412 17.524 34.221 C 19.597 35.976 22.272 37.034 25.192 37.034 C 28.111 37.034 30.786 35.977 32.859 34.221 C 32.905 34.412 33.004 34.592 33.154 34.742 L 37.883 39.466 C 34.503 42.467 30.053 44.291 25.192 44.291 Z M 39.508 37.843 L 34.779 33.114 C 34.634 32.965 34.454 32.866 34.266 32.816 C 36.018 30.746 37.075 28.068 37.075 25.152 C 37.075 24.354 36.996 23.575 36.846 22.821 C 36.69 22.045 36.46 21.296 36.161 20.582 C 35.688 19.452 35.044 18.408 34.262 17.484 C 34.453 17.439 34.633 17.339 34.779 17.189 L 39.507 12.465 C 41.127 14.29 42.405 16.426 43.237 18.771 C 43.641 19.907 43.939 21.093 44.122 22.316 C 44.259 23.241 44.331 24.188 44.331 25.152 C 44.332 30.013 42.507 34.463 39.508 37.843 Z" fill="#FFFFFF" transform="matrix(0.732015, 0.681288, -0.681288, 0.732015, 23.88649, -10.422795)"/>
        <path d="M 25.033 2.946 C 12.787 2.946 2.828 12.909 2.828 25.151 C 2.828 37.398 12.787 47.356 25.033 47.356 C 37.276 47.356 47.238 37.398 47.238 25.151 C 47.238 12.909 37.276 2.946 25.033 2.946 Z M 25.033 6.012 C 29.895 6.012 34.341 7.835 37.721 10.837 L 32.996 15.565 C 32.85 15.714 32.751 15.89 32.7 16.082 C 30.627 14.327 27.953 13.269 25.033 13.269 C 22.113 13.269 19.439 14.326 17.366 16.082 C 17.317 15.89 17.217 15.713 17.067 15.565 L 12.343 10.837 C 15.722 7.836 20.171 6.012 25.033 6.012 Z M 25.033 34.352 C 19.96 34.352 15.833 30.225 15.833 25.151 C 15.833 20.078 19.96 15.951 25.033 15.951 C 30.106 15.951 34.233 20.078 34.233 25.151 C 34.233 30.225 30.106 34.352 25.033 34.352 Z M 5.893 25.151 C 5.893 20.289 7.716 15.844 10.717 12.465 L 15.442 17.189 C 15.592 17.338 15.772 17.439 15.964 17.484 C 14.209 19.557 13.151 22.232 13.151 25.151 C 13.151 28.071 14.208 30.745 15.964 32.818 C 15.772 32.868 15.592 32.968 15.442 33.118 L 10.717 37.843 C 7.718 34.463 5.893 30.013 5.893 25.151 Z M 25.033 44.291 C 20.171 44.291 15.722 42.467 12.342 39.466 L 17.067 34.742 C 17.216 34.593 17.32 34.412 17.365 34.221 C 19.438 35.976 22.113 37.034 25.032 37.034 C 27.952 37.034 30.627 35.977 32.7 34.221 C 32.746 34.412 32.845 34.592 32.995 34.742 L 37.724 39.466 C 34.344 42.467 29.894 44.291 25.033 44.291 Z M 39.349 37.843 L 34.62 33.114 C 34.475 32.965 34.294 32.866 34.107 32.815 C 35.858 30.745 36.916 28.068 36.916 25.151 C 36.916 24.354 36.837 23.575 36.686 22.821 C 36.531 22.045 36.301 21.296 36.002 20.582 C 35.529 19.451 34.885 18.408 34.103 17.484 C 34.294 17.439 34.474 17.339 34.62 17.189 L 39.348 12.465 C 40.968 14.29 42.246 16.426 43.078 18.771 C 43.482 19.907 43.78 21.093 43.963 22.316 C 44.1 23.241 44.172 24.188 44.172 25.151 C 44.173 30.013 42.348 34.463 39.349 37.843 Z" fill="#FFFFFF" transform="matrix(0.968612, 0.248578, -0.248578, 0.968612, 7.037723, -5.43321)"/>
        <path d="M 25.033 3.026 C 12.787 3.026 2.828 12.989 2.828 25.231 C 2.828 37.478 12.787 47.436 25.033 47.436 C 37.276 47.436 47.238 37.478 47.238 25.231 C 47.238 12.989 37.276 3.026 25.033 3.026 Z M 25.033 6.092 C 29.895 6.092 34.341 7.915 37.721 10.917 L 32.996 15.645 C 32.85 15.794 32.751 15.97 32.7 16.162 C 30.627 14.407 27.953 13.349 25.033 13.349 C 22.113 13.349 19.439 14.406 17.366 16.162 C 17.317 15.97 17.217 15.793 17.067 15.645 L 12.343 10.917 C 15.722 7.916 20.171 6.092 25.033 6.092 Z M 25.033 34.432 C 19.96 34.432 15.833 30.305 15.833 25.231 C 15.833 20.158 19.96 16.031 25.033 16.031 C 30.106 16.031 34.233 20.158 34.233 25.231 C 34.233 30.305 30.106 34.432 25.033 34.432 Z M 5.893 25.231 C 5.893 20.369 7.716 15.924 10.717 12.545 L 15.442 17.269 C 15.592 17.418 15.772 17.519 15.964 17.564 C 14.209 19.637 13.151 22.312 13.151 25.231 C 13.151 28.151 14.208 30.825 15.964 32.898 C 15.772 32.948 15.592 33.048 15.442 33.198 L 10.717 37.923 C 7.718 34.543 5.893 30.093 5.893 25.231 Z M 25.033 44.371 C 20.171 44.371 15.722 42.547 12.342 39.546 L 17.067 34.822 C 17.216 34.673 17.32 34.492 17.365 34.301 C 19.438 36.056 22.113 37.114 25.032 37.114 C 27.952 37.114 30.627 36.057 32.7 34.301 C 32.746 34.492 32.845 34.672 32.995 34.822 L 37.724 39.546 C 34.344 42.547 29.894 44.371 25.033 44.371 Z M 39.349 37.923 L 34.62 33.194 C 34.475 33.045 34.294 32.946 34.107 32.895 C 35.858 30.825 36.916 28.148 36.916 25.231 C 36.916 24.434 36.837 23.655 36.686 22.901 C 36.531 22.125 36.301 21.376 36.002 20.662 C 35.529 19.531 34.885 18.488 34.103 17.564 C 34.294 17.519 34.474 17.419 34.62 17.269 L 39.348 12.545 C 40.968 14.37 42.246 16.506 43.078 18.851 C 43.482 19.987 43.78 21.173 43.963 22.396 C 44.1 23.321 44.172 24.268 44.172 25.231 C 44.173 30.093 42.348 34.543 39.349 37.923 Z" fill="#FFFFFF" transform="matrix(0.877712, 0.479189, -0.479189, 0.877712, 15.151653, -8.910081)"/>
        <path d="M 25.033 2.867 C 12.787 2.867 2.828 12.83 2.828 25.072 C 2.828 37.319 12.787 47.277 25.033 47.277 C 37.276 47.277 47.238 37.319 47.238 25.072 C 47.238 12.83 37.276 2.867 25.033 2.867 Z M 25.033 5.933 C 29.895 5.933 34.341 7.756 37.721 10.758 L 32.996 15.486 C 32.85 15.635 32.751 15.811 32.7 16.003 C 30.627 14.248 27.953 13.19 25.033 13.19 C 22.113 13.19 19.439 14.247 17.366 16.003 C 17.317 15.811 17.217 15.634 17.067 15.486 L 12.343 10.758 C 15.722 7.757 20.171 5.933 25.033 5.933 Z M 25.033 34.273 C 19.96 34.273 15.833 30.146 15.833 25.072 C 15.833 19.999 19.96 15.872 25.033 15.872 C 30.106 15.872 34.233 19.999 34.233 25.072 C 34.233 30.146 30.106 34.273 25.033 34.273 Z M 5.893 25.072 C 5.893 20.21 7.716 15.765 10.717 12.386 L 15.442 17.11 C 15.592 17.259 15.772 17.36 15.964 17.405 C 14.209 19.478 13.151 22.153 13.151 25.072 C 13.151 27.992 14.208 30.666 15.964 32.739 C 15.772 32.789 15.592 32.889 15.442 33.039 L 10.717 37.764 C 7.718 34.384 5.893 29.934 5.893 25.072 Z M 25.033 44.212 C 20.171 44.212 15.722 42.388 12.342 39.387 L 17.067 34.663 C 17.216 34.514 17.32 34.333 17.365 34.142 C 19.438 35.897 22.113 36.955 25.032 36.955 C 27.952 36.955 30.627 35.898 32.7 34.142 C 32.746 34.333 32.845 34.513 32.995 34.663 L 37.724 39.387 C 34.344 42.388 29.894 44.212 25.033 44.212 Z M 39.349 37.764 L 34.62 33.035 C 34.475 32.886 34.294 32.787 34.107 32.736 C 35.858 30.666 36.916 27.989 36.916 25.072 C 36.916 24.275 36.837 23.496 36.686 22.742 C 36.531 21.966 36.301 21.217 36.002 20.503 C 35.529 19.372 34.885 18.329 34.103 17.405 C 34.294 17.36 34.474 17.26 34.62 17.11 L 39.348 12.386 C 40.968 14.211 42.246 16.347 43.078 18.692 C 43.482 19.828 43.78 21.014 43.963 22.237 C 44.1 23.162 44.172 24.109 44.172 25.072 C 44.173 29.934 42.348 34.384 39.349 37.764 Z" fill="#FFFFFF" transform="matrix(0.521962, 0.852969, -0.852969, 0.521962, 33.352364, -9.366996)"/>
        <path d="M 25.113 3.105 C 12.867 3.105 2.908 13.068 2.908 25.31 C 2.908 37.557 12.867 47.515 25.113 47.515 C 37.356 47.515 47.318 37.557 47.318 25.31 C 47.318 13.068 37.356 3.105 25.113 3.105 Z M 25.113 6.171 C 29.975 6.171 34.421 7.994 37.801 10.996 L 33.076 15.724 C 32.93 15.873 32.831 16.049 32.78 16.241 C 30.707 14.486 28.033 13.428 25.113 13.428 C 22.193 13.428 19.519 14.485 17.446 16.241 C 17.397 16.049 17.297 15.872 17.147 15.724 L 12.423 10.996 C 15.802 7.995 20.251 6.171 25.113 6.171 Z M 25.113 34.511 C 20.04 34.511 15.913 30.384 15.913 25.31 C 15.913 20.237 20.04 16.11 25.113 16.11 C 30.186 16.11 34.313 20.237 34.313 25.31 C 34.313 30.384 30.186 34.511 25.113 34.511 Z M 5.973 25.31 C 5.973 20.448 7.796 16.003 10.797 12.624 L 15.522 17.348 C 15.672 17.497 15.852 17.598 16.044 17.643 C 14.289 19.716 13.231 22.391 13.231 25.31 C 13.231 28.23 14.288 30.904 16.044 32.977 C 15.852 33.027 15.672 33.127 15.522 33.277 L 10.797 38.002 C 7.798 34.622 5.973 30.172 5.973 25.31 Z M 25.113 44.45 C 20.251 44.45 15.802 42.626 12.422 39.625 L 17.147 34.901 C 17.296 34.752 17.4 34.571 17.445 34.38 C 19.518 36.135 22.193 37.193 25.112 37.193 C 28.032 37.193 30.707 36.136 32.78 34.38 C 32.826 34.571 32.925 34.751 33.075 34.901 L 37.804 39.625 C 34.424 42.626 29.974 44.45 25.113 44.45 Z M 39.429 38.002 L 34.7 33.273 C 34.555 33.124 34.374 33.025 34.187 32.974 C 35.938 30.904 36.996 28.227 36.996 25.31 C 36.996 24.513 36.917 23.734 36.766 22.98 C 36.611 22.204 36.381 21.455 36.082 20.741 C 35.609 19.61 34.965 18.567 34.183 17.643 C 34.374 17.598 34.554 17.498 34.7 17.348 L 39.428 12.624 C 41.048 14.449 42.326 16.585 43.158 18.93 C 43.562 20.066 43.86 21.252 44.043 22.475 C 44.18 23.4 44.252 24.347 44.252 25.31 C 44.253 30.172 42.428 34.622 39.429 38.002 Z" fill="#FFFFFF" transform="matrix(0.281169, 0.959658, -0.959658, 0.281169, 42.340954, -5.906285)"/>
      </g>
      <path d="M 28.027 -3.311 C 21.25 -3.311 26.36 4.663 26.36 13.651 C 26.36 22.645 21.25 29.297 28.027 29.297 C 34.804 29.297 29.557 23.031 29.557 14.038 C 29.557 5.05 34.804 -3.311 28.027 -3.311 Z M 28.025 27.155 C 27.448 27.091 26.926 26.51 26.96 25.775 C 26.994 25.043 27.437 24.277 28.087 24.375 C 28.737 24.474 29.146 25.06 29.122 25.845 C 29.098 26.632 28.604 27.222 28.025 27.155 Z" fill="#FFFFFF" style="" transform="matrix(0.968612, 0.25498, -0.242337, 0.968612, 4.027656, -6.732454)"/>
    </g>
  </g>
</svg>