<?xml version="1.0" encoding="utf-8"?>
<svg viewBox="0 0 50 50" xmlns="http://www.w3.org/2000/svg" xmlns:bx="https://boxy-svg.com">
  <circle cx="42.118" cy="42.09" r="41.5" style="fill: rgba(0, 90, 187, 0.5);" transform="matrix(0.596876, 0, 0, 0.598408, -0.006575, -0.146619)"/>
  <g transform="matrix(0.730633, 0, 0, 0.728925, -14.27299, -8.841711)" style="">
    <path fill="#FFFFFF" d="M26.839,34.492v29.016L50,72.713l23.161-9.205V34.492L50,25.288L26.839,34.492z M65.711,36.235L50,42.48l-15.711-6.245L50,29.991L65.711,36.235z M31.211,39.717l16.603,6.598v20.826l-16.603-6.599V39.717z M52.186,67.139V46.314l16.604-6.597v20.825L52.186,67.139z"/>
  </g>
  <g transform="matrix(0.598841, 0, 0, 0.862066, 41.133713, -11.132334)" style="">
    <path fill="#FFFFFF" d="M -11.196 47.069 L -11.867 48.107 C -11.952 48.241 -12.262 48.355 -12.558 48.355 L -16.631 48.355 L -17.886 50.303 C -17.977 50.445 -18.281 50.551 -18.563 50.551 L -20.731 50.551 C -21.012 50.551 -21.181 50.445 -21.089 50.303 L -19.833 48.355 L -23.905 48.355 C -24.2 48.355 -24.363 48.241 -24.278 48.107 L -23.608 47.069 C -23.516 46.928 -23.212 46.822 -22.916 46.822 L -18.845 46.822 L -17.583 44.866 C -17.497 44.731 -17.186 44.618 -16.905 44.618 L -14.737 44.618 C -14.456 44.618 -14.293 44.731 -14.379 44.866 L -15.642 46.822 L -11.569 46.822 C -11.274 46.822 -11.105 46.928 -11.196 47.069 Z" style="" transform="matrix(0.923788, -0.265988, 0.551213, 0.923788, -27.630718, -0.920756)" bx:origin="0.545 0.529"/>
  </g>
  <path fill="#FFFFFF" d="M 9.844 9.633 L 9.972 14.793 L 12.871 14.695 L 23.695 11.601 L 35.602 15.452 L 36.814 33.51 L 43.688 30.784 L 43.688 9.633 L 26.766 2.924 L 9.844 9.633 Z M 38.245 10.904 L 31.438 13.915 L 26.384 12.651 L 19.766 12.2 L 15.287 10.904 L 26.766 6.352 L 38.245 10.904 Z M 13.038 13.442 L 13.266 12.732 L 13.165 12.647 L 13.038 13.442 Z M 36.703 30.125 L 36.066 15.455 L 40.495 13.442 L 40.495 28.622 L 36.703 30.125 Z"/>
</svg>