<?xml version="1.0" encoding="utf-8"?>
<svg viewBox="0 0 50 50" xmlns="http://www.w3.org/2000/svg">
  <circle cx="42.118" cy="42.09" r="41.5" style="fill: rgba(179, 36, 41, 0.51);" transform="matrix(0.596876, 0, 0, 0.598408, -0.006575, -0.146619)"/>
  <g transform="matrix(0.927479, 0, 0, 0.785219, -25.841169, -16.529438)" style="">
    <path fill="#FFFFFF" d="M 77.708 42.378 L 77.708 37.486 C 77.708 36.881 77.213 36.389 76.608 36.389 L 35.074 36.389 C 34.469 36.389 33.975 36.881 33.975 37.486 L 33.975 42.378 C 33.975 42.865 34.295 43.282 34.736 43.423 L 34.633 43.423 C 34.029 43.423 33.536 43.916 33.536 44.523 L 33.536 45.951 C 33.536 46.555 34.03 47.047 34.633 47.047 L 34.717 47.047 C 35.072 47.292 38.604 49.831 37.82 53.972 C 36.995 58.326 27.931 68.807 34.195 68.807 L 44.248 68.807 C 44.248 68.807 46.672 60.775 49.009 54.476 L 49.009 54.513 L 59.969 54.513 C 60.036 54.519 60.183 54.525 60.38 54.525 C 60.772 54.525 61.358 54.499 61.953 54.305 C 62.249 54.211 62.554 54.07 62.829 53.841 C 63.103 53.612 63.339 53.278 63.437 52.872 C 63.503 52.603 63.693 52.041 63.931 51.394 C 64.289 50.417 64.762 49.215 65.147 48.263 C 65.343 47.771 65.517 47.347 65.638 47.046 L 76.607 47.046 C 77.211 47.046 77.705 46.554 77.705 45.95 L 77.705 44.522 C 77.705 43.998 77.336 43.558 76.846 43.451 C 77.336 43.34 77.708 42.9 77.708 42.378 Z M 63.412 48.756 C 63.131 49.476 62.837 50.236 62.592 50.902 C 62.346 51.571 62.151 52.135 62.054 52.526 C 62.028 52.619 61.994 52.672 61.909 52.743 C 61.785 52.851 61.525 52.963 61.226 53.022 C 60.93 53.08 49.536 53.083 49.536 53.083 C 50.828 49.737 52.032 47.163 52.709 47.068 C 52.759 47.062 52.795 47.052 52.817 47.046 L 54.024 47.046 C 53.883 47.72 53.522 50.205 55.602 51.437 C 58.021 52.866 56.208 50.611 55.766 49.952 C 55.341 49.31 54.964 47.834 55.656 47.046 L 64.097 47.046 C 63.904 47.521 63.663 48.122 63.412 48.756 Z" transform="matrix(0.920314, -0.423251, 0.361539, 0.920314, -14.645067, 27.408831)"/>
  </g>
</svg>