<?xml version="1.0" encoding="utf-8"?>
<svg viewBox="0 0 800 500" xmlns="http://www.w3.org/2000/svg">
  <defs>
    <radialGradient gradientUnits="userSpaceOnUse" cx="400" cy="250" r="400" id="gradient-1" gradientTransform="matrix(0.555844, 0.431466, -0.613182, 0.789942, 330.957899, -120.071922)">
      <stop offset="0" style="stop-color: rgba(165, 206, 255, 1)"/>
      <stop offset="1" style="stop-color: rgb(36, 86, 146);"/>
    </radialGradient>
  </defs>
  <rect x="0" y="0" width="800" height="500" style="fill-rule: evenodd; paint-order: fill; fill: url(#gradient-1);"/>
  <g transform="matrix(0.214058, 0, 0, 0.212934, 18.300495, 0.991266)" style=""/>
  <g transform="matrix(0.214058, 0, 0, 0.212934, 18.300495, 0.991266)" style=""/>
  <g transform="matrix(0.214058, 0, 0, 0.212934, 18.300495, 0.991266)" style=""/>
  <g transform="matrix(0.214058, 0, 0, 0.212934, 18.300495, 0.991266)" style=""/>
  <g transform="matrix(0.214058, 0, 0, 0.212934, 18.300495, 0.991266)" style=""/>
  <g transform="matrix(0.214058, 0, 0, 0.212934, 18.300495, 0.991266)" style=""/>
  <g transform="matrix(0.214058, 0, 0, 0.212934, 18.300495, 0.991266)" style=""/>
  <g transform="matrix(0.214058, 0, 0, 0.212934, 18.300495, 0.991266)" style=""/>
  <g transform="matrix(0.214058, 0, 0, 0.212934, 18.300495, 0.991266)" style=""/>
  <g transform="matrix(0.214058, 0, 0, 0.212934, 18.300495, 0.991266)" style=""/>
  <g transform="matrix(0.214058, 0, 0, 0.212934, 18.300495, 0.991266)" style=""/>
  <g transform="matrix(0.214058, 0, 0, 0.212934, 18.300495, 0.991266)" style=""/>
  <g transform="matrix(0.214058, 0, 0, 0.212934, 18.300495, 0.991266)" style=""/>
  <g transform="matrix(0.214058, 0, 0, 0.212934, 18.300495, 0.991266)" style=""/>
  <g transform="matrix(0.214058, 0, 0, 0.212934, 18.300495, 0.991266)" style=""/>
  <g transform="matrix(0.442667, 0, 0, 0.442667, 46.915539, 8.138019)"/>
  <g transform="matrix(0.442667, 0, 0, 0.442667, 89.732666, 30.735949)"/>
  <g transform="matrix(0.442667, 0, 0, 0.442667, 36.211246, 90.204178)"/>
  <g transform="matrix(0.642257, 0, 0, 0.642257, 722.231812, 172.371948)"/>
  <g transform="matrix(0.937132, 0, 0, 0.94414, 159.221817, 9.906676)" style="">
    <g>
      <g>
        <g>
          <ellipse class="st0" cx="296.5" cy="215.3" rx="211.3" ry="211.3" transform="matrix(0.8871 -0.4616 0.4616 0.8871 -65.9149 161.1992)" style="fill: rgb(122, 210, 250);"/>
        </g>
      </g>
      <g>
        <g>
          <path class="st1" d="M397.9,400.7c102.3-55.9,140-184.4,84-286.7c-22.3-40.7-56.1-71.3-95.2-89.7c14.7,14.4,27.7,31.2,38.1,50.2      c55.9,102.3,18.3,230.8-84,286.7c-61.6,33.6-132.5,33.4-191.5,5.6C214,429.8,314.5,446.2,397.9,400.7z" style="fill: rgb(75, 195, 247);"/>
        </g>
      </g>
      <g>
        <g>
          <path class="st2" d="M206.3,406.3c-14.7-14.4-27.7-31.2-38.1-50.2c-55.9-102.3-18.3-230.8,84-286.7      c61.6-33.6,132.5-33.4,191.5-5.6C379,0.8,278.5-15.6,195.2,30c-102.3,55.9-140,184.4-84,286.7      C133.5,357.4,167.3,387.9,206.3,406.3z" style="fill: rgb(165, 225, 251);"/>
        </g>
      </g>
      <g>
        <g>
          <path class="st3" d="M307.3,229.3c-14.1,15.9-13.3,43.3,2.3,58.5c7,7,16.6,11.2,23.7,18.5c7.2,7.2,11.2,19.4,5.3,27.3      c-6.6,8.1-19.7,6.5-29.3,2.3c-9.6-4.2-19.5-10.1-29.9-8.4c-13.8,2.3-21.6,19.2-18.1,32.8c3.4,13.4,15,23.4,27.8,29.7      c12.4,6.2,26.1,9.6,39,14.7c8.1,3.4,16.4,8.2,21,15.3c6.6-1.8,13.3-3.8,19.9-6.2c41.2-15.1,74.8-41.5,98.5-74.6      c-5.8-5.9-13.6-10.8-20.3-14.7c-10.1-6.4-21.4-11.2-32.8-14.5c-8.6-2.2-17.2-3.9-25.1-8.2c-15.9-8.7-24.4-29.4-18.8-46.8      c1.5-5.5,4.6-10.9,4-16.6c-0.6-5.7-4.4-10.5-9.1-14.2C348.8,210.8,321.6,213,307.3,229.3z" style="fill: rgb(123, 222, 158);"/>
        </g>
      </g>
      <g>
        <g>
          <path class="st4" d="M349.2,420c6.6-1.8,13.3-3.8,19.9-6.2c41.2-15.1,74.8-41.5,98.5-74.6c-5.8-5.9-13.6-10.8-20.2-14.6      c-10.1-6.4-21.4-11.2-32.8-14.5c-3.3-0.8-6.5-1.6-9.7-2.5c-17,21.4-38.5,39.9-64,53.8c-20.1,11-41.1,18.3-62.4,22.3      c3.3,2.5,7,4.6,10.7,6.5c12.4,6.2,26.1,9.6,39,14.7C336.4,408.2,344.6,413,349.2,420z" style="fill: rgb(81, 210, 127);"/>
        </g>
      </g>
      <g>
        <g>
          <path class="st3" d="M367.1,16.2c-0.5,2.7-1.2,5.5-2.3,8.1c-4.1,9.9-12.3,17.4-20.3,24.6c-7.9,7.1-16.2,14.7-20,24.7      c-3.8,10-1.7,23.1,7.5,28.7c15.5,9.2,36.5-8.7,52.8-0.9c5.8,12.5-11.5,28-4.3,39.8c4.3,7.1,14.5,7.3,22.7,5.9      c8.2-1.5,17.6-3.4,24.1,1.8c6.9,5.3,6.8,15.9,3.9,24.1c-3,8.2-8.3,15.6-9.9,24.2c-2.8,14.3,5.4,29.5,17.7,37.3      c12.3,7.9,27.9,9.5,42.4,7.3c8-1.2,16.6-3.1,25.3-5.8c0.2-1.3,0.3-2.6,0.4-4C514.8,134.5,455.1,47.3,367.1,16.2z" style="fill: rgb(123, 222, 158);"/>
        </g>
      </g>
      <g>
        <g>
          <path class="st4" d="M481.5,241.8c8-1.3,16.6-3.1,25.3-5.8c0.2-1.3,0.3-2.7,0.4-4c5.2-65.3-20-126.1-63.6-168.4c0,0,0,0-0.1,0      c-10.8-5.1-22-9.2-33.4-12.3c5.4,7.4,10.4,15.1,14.8,23.3c28.2,51.5,32.6,109.5,17,161.7C453.7,242.7,468.1,243.9,481.5,241.8z" style="fill: rgb(81, 210, 127);"/>
        </g>
      </g>
      <g>
        <g>
          <path class="st3" d="M263,6.8C184.7,19.3,117.8,75.7,94.2,154.5c2.7-0.7,5.4-1.4,8.1-1.7c20.3-3,42,6.9,52.9,24.4      c2.4,3.8,4.4,8,7.2,11.6c8.1,10.3,23.5,14.2,35.4,8.9c12-5.4,19.5-19.3,17.2-32.2c-1.5-9.1-7.1-16.8-11.2-25      c-4-8.2-6.3-18.5-1.4-26.2c4.5-7.1,13.9-9.8,22.3-9.5c8.4,0.4,16.6,3.1,25,4.2c8.4,1,17.7,0,23.8-5.9c6.5-6.3,7.5-16.6,5.3-25.4      c-2.1-8.7-6.8-16.7-10.2-25.1c-4.7-11.5-6.8-24-6.5-36.4C262.3,12.9,262.6,9.8,263,6.8z" style="fill: rgb(123, 222, 158);"/>
        </g>
      </g>
      <g>
        <g>
          <path class="st5" d="M156.4,179.1c17.3-45.2,50.1-84.7,95.9-109.7c6.5-3.5,13-6.7,19.7-9.4c-1.1-2.5-2.3-4.9-3.3-7.5      c-4.7-11.5-6.7-24-6.4-36.4c0.1-3.1,0.3-6.3,0.8-9.3c-78.3,12.6-145.2,69-168.8,147.8c2.7-0.7,5.4-1.4,8.1-1.7      c20.3-3,42,7,52.9,24.4C155.6,177.8,156,178.4,156.4,179.1z" style="fill: rgb(167, 234, 191);"/>
        </g>
      </g>
    </g>
    <g>
      <g>
        <g>
          <path class="st6" d="M116.7,407.1l-50.1,84.4c-10.2,17.1-32.9,21.7-48.9,9.8c-9-6.6-13.6-16.8-13.6-27c0-8.1,2.9-16.2,8.8-22.7      l66.2-72.4L116.7,407.1z" style="fill: rgb(209, 150, 108);"/>
        </g>
        <g>
          <path class="st7" d="M116.7,407.1l-50.1,84.4c-10.2,17.1-32.9,21.7-48.9,9.8c-8-5.8-12.5-14.5-13.4-23.5      c0.8,0.7,1.7,1.5,2.6,2.1c16,11.9,38.7,7.3,48.9-9.8l44.6-75.1L116.7,407.1z" style="fill: rgb(202, 123, 70);"/>
        </g>
        <g>
          <g>
            <path class="st8" d="M93.4,333.5L70,365c-2.7,3.7-1.9,8.8,1.7,11.5l48.9,36.3c3.7,2.7,8.8,1.9,11.5-1.7l23.3-31.5L93.4,333.5z" style="fill: rgb(211, 216, 217);"/>
          </g>
        </g>
        <g>
          <g>
            <path class="st9" d="M88.8,388.8l-0.2-0.1c-3.7-2.7-4.4-7.9-1.7-11.6l23.1-31.2l-16.8-12.4L70,365c-2.7,3.7-1.9,8.9,1.7,11.6       l16.9,12.5C88.7,389,88.8,388.9,88.8,388.8z" style="fill: rgb(237, 237, 237);"/>
          </g>
        </g>
        <g>
          <g>
            <path class="st10" d="M102.9,398.8l0.2,0.1c3.5,2.9,8.7,2.4,11.6-1.1l24.8-29.9l16.1,13.3l-25,30.2c-2.9,3.5-8.2,4-11.6,1.1       l-16.2-13.4C102.8,399,102.8,398.9,102.9,398.8z" style="fill: rgb(168, 177, 179);"/>
          </g>
        </g>
        <g>
          <path class="st11" d="M261.7,171.1c-54.4-40.4-131.2-29-171.5,25.5C49.9,251,61.3,327.8,115.7,368.2      c54.4,40.3,131.2,28.9,171.5-25.5C327.6,288.2,316.1,211.5,261.7,171.1z M262.5,324.4c-30.2,40.7-87.8,49.2-128.5,19.1      c-40.7-30.2-49.3-87.8-19.1-128.5c30.2-40.7,87.9-49.2,128.5-19.1C284.1,226,292.7,283.6,262.5,324.4z" style="fill: rgb(251, 138, 138);"/>
          <g>
            <path class="st12" d="M485.4,112.1C428.3,7.7,297.7-30.6,193.3,26.4C127.3,62.5,86.4,128.6,81.7,202       c-27.2,43-25.4,97.4,1.8,138.1l-16.7,22.5c-4,5.4-2.9,13.1,2.5,17.1l2.3,1.7L10,449c-14.8,16.2-12.9,42,5.4,55.5       c17.8,13.3,43.3,8.2,54.7-11l46.7-78.7l1.5,1.1c5.4,4,13.1,2.9,17.1-2.5l16.8-22.6c8.9,2.7,18,4.4,27.1,5       c64.3,41.7,148.4,47.7,220.5,8.4c50.4-27.6,87.1-73.1,103.3-128.3C519.2,220.7,513,162.5,485.4,112.1z M197.1,33.5       c19.5-10.6,40.1-18,61.3-22c-1.1,13.7,1,28.9,6.5,42.5c3.4,8.5,8,16.3,10,24.6c4.2,17.4-4.9,28.9-24.7,26.4       c-8.2-1-16.5-3.8-25.3-4.2c-24.1-1.1-37.2,17.8-24,42.7c-21.9-2.1-44.6,1.6-65.3,11.1c-10.9-5.4-22.9-7.6-35.5-5.5       C116.8,99.6,151,58.7,197.1,33.5z M97.4,157.9c9.1-2.2,18.5-2.4,29.1,1.4c-13.5,7.6-25.5,17.6-35.5,29.9       C92.3,178.7,94.4,168.2,97.4,157.9z M63.2,489.5c-8.9,15-29,19.2-43.1,8.7C5.6,487.4,4.4,467,15.9,454.4l62.2-68.2l32.1,23.8       L63.2,489.5z M129,408.7c-1.4,1.9-4.1,2.3-6,0.9l-48.9-36.3c-1.9-1.4-2.3-4.1-0.9-6l15.2-20.5c7,9.1,15.3,17.3,24.9,24.5       c9.7,7.2,20.1,12.8,30.9,16.8L129,408.7z M118.1,364.9c-52.5-39-63.6-113.4-24.7-166c39-52.7,113.2-63.7,166-24.6c0,0,0,0,0,0       c25.4,18.9,42,46.5,46.7,77.8c4.7,31.3-3.2,62.6-22.1,88.1C245.1,392.8,170.6,403.9,118.1,364.9z M312.7,295.6       c2,1.5,4.1,3,6.2,4.4c4.2,2.9,8.3,5.6,11.7,9.1c5.9,5.9,9.4,16.1,5,22c-6.4,7.9-20,3.4-29.2-0.9c-1.7-0.8-3.4-1.6-5.2-2.3       C306.5,317.6,310.3,306.7,312.7,295.6z M195.3,396c23.9-1.3,47.3-9.3,67.2-23.5c5.2,8.2,13.7,15.5,24.9,21.1       c20.1,10.1,42,12.4,54.4,23.9C291.5,428.8,239.3,420.6,195.3,396z M395.9,397.2c-14.6,8-29.8,14-45.2,18.1       C337.8,399.2,312,397,291,386.4c-6.4-3.2-16.3-9.4-22.1-18.8c7.9-6.5,15.2-14,21.5-22.6c2.5-3.3,4.7-6.7,6.8-10.2       c1.9,0.8,3.8,1.6,5.7,2.5c13.3,6.2,29.6,9.9,38.9-1.4c7.5-9.9,2.7-24.2-5.6-32.5c-3.9-4-8.5-7.1-12.9-10.1       c-3.3-2.2-6.3-4.4-9.1-6.9c1.5-11.6,1.5-23.5-0.3-35.4c-0.9-6.3-2.3-12.5-4.2-18.5c0.2-0.2,0.3-0.4,0.5-0.6       c12.8-14.6,37.6-16.8,52.9-4.7c9.6,7.6,8.4,13.2,5.5,21.3c-9.2,25.7,1.9,47.4,19,56.7c16.5,9,31.2,5.8,57.7,22.6       c6,3.5,12,7.4,17,11.8C444.8,363.1,422.3,382.7,395.9,397.2z M495.4,273.6c-6.3,21.6-16,41.6-28.4,59.6       c-5.4-4.6-11.6-8.6-17.5-12.1c-27.2-17.3-43.2-14.8-58-22.8c-13.7-7.5-23.1-25.5-15.3-47c3.9-10.9,4.6-20.3-8-30.3       c-17.5-13.8-45.2-12.1-61.3,3.1c-8.5-22.2-23.1-41.6-42.7-56.1v0c-16.1-11.9-34.3-19.7-53.4-23c-1.1-2.1-2.3-4.1-3.3-6.2       c-9.3-19.2-0.4-30.6,17.1-29.9c7.9,0.4,16.3,3.1,24.7,4.2c25.7,3.2,38.9-13.7,33.5-36.2c-2.3-9.2-7-17.3-10.3-25.7       c-5-12.3-7.2-26.8-5.8-40.8c32.4-4.7,64.3-1.9,95.8,8.7c-3.1,11.2-11.7,19.1-20.5,27c-7.5,6.7-16.8,15-21.1,26.3       c-5.2,13.7-3.4,44.7,39,33.9c24.7-6.3,25-2.3,18.8,13.6c-10.2,26,4.2,35,25.3,31.4c0.5,0.1,33.8-7.7,23.5,20.6       c-3,8-8.3,15.5-10.1,24.8c-3,15.2,5,32.3,19.5,41.4c9.1,5.8,20.4,8.8,32.8,8.8c4,0,8.2-0.3,12.4-1c6.8-1,13.5-2.5,20-4.3       C500.7,252.3,498.5,263,495.4,273.6z M480.8,237.9c-15.2,2.3-29.3,0-39.7-6.7c-11.8-7.5-18.3-21.1-16-33.2       c1.5-7.9,6.6-15.2,9.7-23.6c14.6-40.5-32-31.1-32.4-31.2c-19.2,3.3-23.1-3.8-16.5-20.6c10.5-26.9-0.2-31.4-28.2-24.2       c-29.8,7.6-35-9.2-29.6-23.3c3.6-9.5,12.1-17.1,18.9-23.2C357,43,366.3,34.3,370,21.6c46.3,17.5,84.4,50.5,108.4,94.3       c19.8,36.3,28.2,76.7,24.7,117C495.8,235,488.4,236.7,480.8,237.9z" style="fill: rgb(51, 51, 51);"/>
            <path class="st12" d="M265.7,326.7c15.2-20.5,21.5-45.8,17.8-71.2c-3.8-25.4-17.2-47.7-37.7-62.9       c-42.5-31.5-102.6-22.6-134.1,19.9c-15.2,20.5-21.5,45.8-17.8,71.2c3.8,25.4,17.2,47.7,37.7,62.9       C174,378,234.2,369.3,265.7,326.7z M136.4,340.2c-18.8-14-31.1-34.4-34.6-57.7c-3.5-23.2,2.3-46.4,16.3-65.2       c28.9-38.9,84-47.1,122.9-18.2c18.8,14,31.1,34.4,34.6,57.7c3.5,23.2-2.3,46.4-16.3,65.2C230.4,360.9,175.4,369.1,136.4,340.2z       " style="fill: rgb(51, 51, 51);"/>
          </g>
        </g>
        <path style="fill: rgb(176, 175, 178);" d="M 365.129 300.39 C 344.461 284.737 344.461 253.426 365.129 237.772 L 376.498 229.161 C 370.14 209.401 370.236 209.696 363.878 189.936 L 349.671 189.719 C 323.843 189.326 305.621 163.994 313.232 139.058 L 317.419 125.344 C 300.777 113.131 301.027 113.315 284.384 101.101 L 272.765 109.361 C 251.639 124.378 222.156 114.702 213.804 90.011 L 209.21 76.43 C 188.639 76.43 188.947 76.43 168.378 76.43 L 163.784 90.011 C 155.43 114.702 125.949 124.378 104.823 109.361 L 93.204 101.101 C 76.562 113.315 76.811 113.131 60.169 125.345 L 64.358 139.059 C 71.968 163.995 53.746 189.326 27.918 189.719 L 13.709 189.936 C 7.353 209.696 7.449 209.401 1.092 229.161 L 12.46 237.772 C 33.127 253.425 33.127 284.736 12.46 300.39 L 1.09 309.001 C 7.447 328.762 7.351 328.465 13.707 348.226 L 27.914 348.443 C 53.744 348.836 71.966 374.168 64.355 399.103 L 60.168 412.819 C 76.811 425.031 76.561 424.848 93.202 437.06 L 104.822 428.801 C 125.948 413.785 155.429 423.46 163.782 448.151 L 168.376 461.733 C 188.945 461.733 188.638 461.733 209.208 461.733 L 213.801 448.152 C 222.155 423.461 251.637 413.785 272.763 428.802 L 284.382 437.061 C 301.025 424.849 300.774 425.033 317.416 412.819 L 313.23 399.103 C 305.619 374.169 323.839 348.838 349.67 348.445 L 363.876 348.228 C 370.233 328.468 370.138 328.764 376.494 309.002 L 365.129 300.39 Z M 189.609 363.645 C 137.257 364.095 94.728 321.138 95.173 268.259 C 95.605 216.914 137.147 174.954 187.979 174.517 C 240.331 174.068 282.86 217.024 282.414 269.904 C 281.982 321.248 240.44 363.209 189.609 363.645 Z" transform="matrix(0.955502, -0.292793, 0.297189, 0.955502, -71.56718, 67.251104)"/>
        <g transform="matrix(0.711884, -0.218142, 0.223647, 0.719057, -50.703461, 140.847397)" style="">
          <path style="fill: rgb(100, 100, 103);" d="M324.286,51.155c-15.509-4.509-28.913-16.126-34.716-33.108L283.404,0c-14.954,0-21.69,0-29.107,0 l6.166,18.047C269.759,45.255,298.554,58.719,324.286,51.155z"/>
          <path style="fill: rgb(100, 100, 103);" d="M114.187,43.761c13.679,9.627,29.965,11.597,44.421,7.395c-5.299-1.558-10.472-3.986-15.314-7.395 l-15.596-10.976c-6.197,4.503-10.646,7.735-14.322,10.405L114.187,43.761z"/>
          <path style="fill: rgb(100, 100, 103);" d="M492.681,214.395l15.258-11.442c-8.532-26.258-8.404-25.865-16.936-52.123l-19.069-0.288 c-34.668-0.523-59.126-34.185-48.91-67.318l5.62-18.225c-22.337-16.229-22.002-15.985-44.339-32.214l-14.786,10.405 c9.571,6.954,13.878,10.083,30.017,21.808l-5.62,18.225c-10.216,33.134,14.241,66.795,48.91,67.318l19.069,0.288 c8.532,26.258,8.404,25.865,16.936,52.123l-15.258,11.442c-27.74,20.801-27.74,62.41,0,83.21l15.258,11.442 c-8.532,26.258-8.404,25.865-16.936,52.123l-19.069,0.288c-34.668,0.523-59.126,34.185-48.91,67.318l5.62,18.225 c-16.139,11.726-20.446,14.855-30.017,21.808l14.786,10.405c22.337-16.229,22.002-15.985,44.339-32.214l-5.62-18.225 c-10.216-33.134,14.241-66.795,48.91-67.318l19.069-0.288c8.532-26.258,8.404-25.865,16.936-52.123l-15.258-11.442 C464.941,276.805,464.941,235.196,492.681,214.395z"/>
          <path style="fill: rgb(100, 100, 103);" d="M114.187,468.24l-0.811,0.57c3.675,2.671,8.124,5.903,14.322,10.405l15.596-10.976 c4.842-3.407,10.015-5.836,15.314-7.395C144.151,456.642,127.866,458.613,114.187,468.24z"/>
          <path style="fill: rgb(100, 100, 103);" d="M260.463,493.953L254.296,512c7.417,0,14.153,0,29.107,0l6.166-18.047 c5.802-16.981,19.207-28.598,34.716-33.108C298.554,453.281,269.759,466.746,260.463,493.953z"/>
        </g>
        <path style="fill: rgb(140, 140, 145);" d="M 188.793 144.382 C 120.611 144.382 65.338 200.211 65.338 269.081 C 65.338 337.951 120.611 393.78 188.793 393.78 C 256.977 393.78 312.248 337.951 312.248 269.081 C 312.248 200.211 256.976 144.382 188.793 144.382 Z M 189.609 363.645 C 137.257 364.095 94.728 321.138 95.173 268.259 C 95.605 216.914 137.147 174.954 187.979 174.517 C 240.331 174.068 282.86 217.024 282.414 269.904 C 281.982 321.248 240.44 363.209 189.609 363.645 Z" transform="matrix(0.955502, -0.292793, 0.297189, 0.955502, -71.567075, 67.250788)"/>
        <g transform="matrix(0.711884, -0.218142, 0.223647, 0.719057, -50.703461, 140.847397)" style=""/>
        <g transform="matrix(0.711884, -0.218142, 0.223647, 0.719057, -50.703461, 140.847397)" style=""/>
        <g transform="matrix(0.711884, -0.218142, 0.223647, 0.719057, -50.703461, 140.847397)" style=""/>
        <g transform="matrix(0.711884, -0.218142, 0.223647, 0.719057, -50.703461, 140.847397)" style=""/>
        <g transform="matrix(0.711884, -0.218142, 0.223647, 0.719057, -50.703461, 140.847397)" style=""/>
        <g transform="matrix(0.711884, -0.218142, 0.223647, 0.719057, -50.703461, 140.847397)" style=""/>
        <g transform="matrix(0.711884, -0.218142, 0.223647, 0.719057, -50.703461, 140.847397)" style=""/>
        <g transform="matrix(0.711884, -0.218142, 0.223647, 0.719057, -50.703461, 140.847397)" style=""/>
        <g transform="matrix(0.711884, -0.218142, 0.223647, 0.719057, -50.703461, 140.847397)" style=""/>
        <g transform="matrix(0.711884, -0.218142, 0.223647, 0.719057, -50.703461, 140.847397)" style=""/>
        <g transform="matrix(0.711884, -0.218142, 0.223647, 0.719057, -50.703461, 140.847397)" style=""/>
        <g transform="matrix(0.711884, -0.218142, 0.223647, 0.719057, -50.703461, 140.847397)" style=""/>
        <g transform="matrix(0.711884, -0.218142, 0.223647, 0.719057, -50.703461, 140.847397)" style=""/>
        <g transform="matrix(0.711884, -0.218142, 0.223647, 0.719057, -50.703461, 140.847397)" style=""/>
        <g transform="matrix(0.711884, -0.218142, 0.223647, 0.719057, -50.703461, 140.847397)" style=""/>
      </g>
      <g>
        <ellipse class="st0" cx="188.7" cy="269.6" rx="91.9" ry="91.9" transform="matrix(0.651 -0.759 0.759 0.651 -138.8157 237.3232)" style="fill: rgba(122, 209, 250, 0);"/>
      </g>
      <g class="st13" style="opacity: 0.4;">
        <g>
          <path class="st14" d="M258.7,210.1l-57.3,150.5c-12.8,1.8-26.1,0.9-38.7-2.9l65.2-171.2c5.4,2.5,10.6,5.6,15.6,9.3      C249.1,200.1,254.2,204.9,258.7,210.1z" style="fill: rgb(255, 255, 255);"/>
        </g>
        <g>
          <path class="st14" d="M209.5,180.1l-64.8,170.1c-3.6-2-7.2-4.3-10.6-6.8c-40.7-30.2-49.3-87.8-19.1-128.5      C137.3,184.7,174.9,172.2,209.5,180.1z" style="fill: rgb(255, 255, 255);"/>
        </g>
      </g>
      <g>
        <path class="st12" d="M131.6,346.7L131.6,346.7c-42.5-31.5-51.4-91.7-19.9-134.1c31.5-42.4,91.5-51.5,134.1-19.9     c20.5,15.2,33.9,37.6,37.7,62.9s-2.5,50.6-17.8,71.2C234.2,369.2,174.1,378.2,131.6,346.7z M136.4,340.2     c38.9,28.9,94,20.7,122.9-18.3c14-18.8,19.7-42,16.3-65.2c-3.5-23.2-15.7-43.7-34.6-57.7c-38.9-28.9-94-20.7-122.9,18.3     C89.2,256.2,97.4,311.4,136.4,340.2L136.4,340.2z" style="fill: rgb(51, 51, 51);"/>
      </g>
    </g>
  </g>
</svg>