<svg xmlns="http://www.w3.org/2000/svg" viewBox="0 0 1200 630" role="img" aria-labelledby="title desc">
<title id="title">Autoridad de dominio</title>
<desc id="desc">Ilustración editorial naranja de una web central conectada mediante enlaces a otras webs, representando autoridad, confianza y backlinks.</desc>
<defs>
  <linearGradient id="bg" x1="0" y1="0" x2="1" y2="1"><stop stop-color="#fffaf5"/><stop offset="1" stop-color="#fff1e6"/></linearGradient>
  <linearGradient id="orange" x1="0" x2="1"><stop stop-color="#ff9a3d"/><stop offset="1" stop-color="#f36f21"/></linearGradient>
  <linearGradient id="peach" x1="0" x2="1"><stop stop-color="#ffe4cf"/><stop offset="1" stop-color="#ffd2af"/></linearGradient>
  <filter id="shadow" x="-20%" y="-20%" width="140%" height="160%"><feDropShadow dx="0" dy="10" stdDeviation="12" flood-color="#4a2b17" flood-opacity=".14"/></filter>
  <marker id="arrow" markerWidth="10" markerHeight="10" refX="8" refY="5" orient="auto"><path d="M0 0L10 5L0 10Z" fill="#f47b25"/></marker>
</defs>
<rect width="1200" height="630" fill="url(#bg)"/>
<path d="M0 125C160 40 260 175 405 125S650 30 810 105s255 70 390-20v235c-135 72-290 45-415-15S500 255 350 330 120 420 0 355Z" fill="#fff0e4"/>
<circle cx="1070" cy="180" r="105" fill="#ffe8d5" opacity=".75"/>
<circle cx="165" cy="510" r="125" fill="#fff0e1" opacity=".8"/>
<g fill="#ffc799" opacity=".75">
  <circle cx="72" cy="70" r="4"/><circle cx="92" cy="70" r="4"/><circle cx="112" cy="70" r="4"/><circle cx="132" cy="70" r="4"/>
  <circle cx="72" cy="90" r="4"/><circle cx="92" cy="90" r="4"/><circle cx="112" cy="90" r="4"/><circle cx="132" cy="90" r="4"/>
  <circle cx="1065" cy="525" r="4"/><circle cx="1085" cy="525" r="4"/><circle cx="1105" cy="525" r="4"/><circle cx="1125" cy="525" r="4"/>
  <circle cx="1065" cy="545" r="4"/><circle cx="1085" cy="545" r="4"/><circle cx="1105" cy="545" r="4"/><circle cx="1125" cy="545" r="4"/>
</g>

<!-- network connectors -->
<g fill="none" stroke="#f47b25" stroke-width="4" stroke-linecap="round" opacity=".95" marker-end="url(#arrow)">
  <path d="M300 170C390 180 405 235 465 265"/>
  <path d="M900 170C820 185 805 230 745 265"/>
  <path d="M280 410C380 400 420 360 475 345"/>
  <path d="M920 410C820 400 785 365 730 345"/>
</g>
<g fill="none" stroke="#f5a15f" stroke-width="3" stroke-dasharray="8 10">
  <path d="M145 315C155 185 255 105 390 90"/>
  <path d="M1055 315C1048 185 945 105 810 90"/>
  <path d="M165 485C305 565 440 555 515 500"/>
  <path d="M1035 485C900 565 760 555 685 500"/>
</g>
<g fill="#f47b25"><circle cx="145" cy="315" r="9"/><circle cx="1055" cy="315" r="9"/><circle cx="390" cy="90" r="9"/><circle cx="810" cy="90" r="9"/><circle cx="165" cy="485" r="9"/><circle cx="1035" cy="485" r="9"/></g>

<!-- main browser -->
<g filter="url(#shadow)">
  <rect x="385" y="175" width="430" height="300" rx="18" fill="#fff"/>
  <path d="M403 175h394a18 18 0 0 1 18 18v27H385v-27a18 18 0 0 1 18-18Z" fill="#233b4b"/>
  <circle cx="410" cy="198" r="7" fill="#ff685f"/><circle cx="433" cy="198" r="7" fill="#ffc34b"/><circle cx="456" cy="198" r="7" fill="#46ce8b"/>
  <rect x="420" y="248" width="145" height="15" rx="8" fill="#485e6c"/>
  <rect x="420" y="277" width="180" height="10" rx="5" fill="#aab9c2"/>
  <rect x="420" y="297" width="150" height="10" rx="5" fill="#d0d9de"/>
  <rect x="420" y="326" width="92" height="34" rx="9" fill="url(#orange)"/>
  <rect x="618" y="245" width="160" height="125" rx="12" fill="url(#peach)"/>
  <circle cx="745" cy="273" r="16" fill="#fff5ea"/>
  <path d="M618 350l48-52 35 31 29-34 48 55Z" fill="#f58834"/>
  <path d="M618 360l61-49 48 49Z" fill="#ef6b1e" opacity=".85"/>
  <g>
    <rect x="420" y="392" width="100" height="58" rx="10" fill="#fff8f1" stroke="#f4dfcf"/>
    <rect x="535" y="392" width="100" height="58" rx="10" fill="#fff8f1" stroke="#f4dfcf"/>
    <rect x="650" y="392" width="128" height="58" rx="10" fill="#fff8f1" stroke="#f4dfcf"/>
    <path d="M447 429h44M455 416h8v13h-8zm13-9h8v22h-8zm13-6h8v28h-8z" stroke="#f47b25" stroke-width="5" stroke-linecap="round"/>
    <path d="M569 408l8 10 13-16" fill="none" stroke="#f47b25" stroke-width="6" stroke-linecap="round" stroke-linejoin="round"/>
    <path d="M698 407l7 12 14 2-10 10 3 14-14-7-13 7 2-14-10-10 14-2Z" fill="#f47b25"/>
  </g>
</g>

<!-- crown authority -->
<g filter="url(#shadow)">
  <circle cx="600" cy="130" r="54" fill="#fff"/>
  <circle cx="600" cy="130" r="43" fill="#fff4e7"/>
  <path d="M572 139l5-29 18 17 10-28 13 28 18-17-6 29Z" fill="url(#orange)"/>
  <rect x="574" y="140" width="54" height="8" rx="4" fill="#ef6b1e"/>
</g>
<g stroke="#f47b25" stroke-width="4" stroke-linecap="round">
  <path d="M600 58v-18"/><path d="M548 77l-13-13"/><path d="M652 77l13-13"/>
</g>

<!-- surrounding site cards -->
<g filter="url(#shadow)">
  <g transform="translate(78 135)">
    <rect width="245" height="135" rx="16" fill="#fff"/><path d="M16 0h213a16 16 0 0 1 16 16v20H0V16A16 16 0 0 1 16 0Z" fill="#233b4b"/>
    <circle cx="22" cy="18" r="5" fill="#ff685f"/><circle cx="39" cy="18" r="5" fill="#ffc34b"/><circle cx="56" cy="18" r="5" fill="#46ce8b"/>
    <rect x="20" y="55" width="84" height="10" rx="5" fill="#899da9"/><rect x="20" y="76" width="110" height="8" rx="4" fill="#c5d0d6"/><rect x="20" y="95" width="58" height="23" rx="7" fill="#f47b25"/>
    <rect x="150" y="52" width="72" height="58" rx="8" fill="#ffe0c6"/><path d="M150 105l25-25 18 15 12-14 17 24Z" fill="#f68a37"/>
  </g>
  <g transform="translate(877 135)">
    <rect width="245" height="135" rx="16" fill="#fff"/><path d="M16 0h213a16 16 0 0 1 16 16v20H0V16A16 16 0 0 1 16 0Z" fill="#233b4b"/>
    <circle cx="22" cy="18" r="5" fill="#ff685f"/><circle cx="39" cy="18" r="5" fill="#ffc34b"/><circle cx="56" cy="18" r="5" fill="#46ce8b"/>
    <rect x="20" y="55" width="84" height="10" rx="5" fill="#899da9"/><rect x="20" y="76" width="110" height="8" rx="4" fill="#c5d0d6"/><rect x="20" y="95" width="58" height="23" rx="7" fill="#f47b25"/>
    <rect x="150" y="52" width="72" height="58" rx="8" fill="#ffe0c6"/><path d="M150 105l25-25 18 15 12-14 17 24Z" fill="#f68a37"/>
  </g>
  <g transform="translate(105 370)">
    <rect width="215" height="125" rx="16" fill="#fff"/><path d="M16 0h183a16 16 0 0 1 16 16v19H0V16A16 16 0 0 1 16 0Z" fill="#233b4b"/>
    <rect x="20" y="56" width="82" height="9" rx="5" fill="#899da9"/><rect x="20" y="77" width="105" height="8" rx="4" fill="#c5d0d6"/><rect x="140" y="52" width="55" height="49" rx="7" fill="#ffe0c6"/>
  </g>
  <g transform="translate(880 370)">
    <rect width="215" height="125" rx="16" fill="#fff"/><path d="M16 0h183a16 16 0 0 1 16 16v19H0V16A16 16 0 0 1 16 0Z" fill="#233b4b"/>
    <rect x="20" y="56" width="82" height="9" rx="5" fill="#899da9"/><rect x="20" y="77" width="105" height="8" rx="4" fill="#c5d0d6"/><rect x="140" y="52" width="55" height="49" rx="7" fill="#ffe0c6"/>
  </g>
</g>

<!-- backlink tokens -->
<g filter="url(#shadow)" fill="#fff">
  <circle cx="350" cy="220" r="30"/><circle cx="850" cy="220" r="30"/><circle cx="345" cy="395" r="30"/><circle cx="855" cy="395" r="30"/>
</g>
<g fill="none" stroke="#f47b25" stroke-width="7" stroke-linecap="round">
  <path d="M337 220a10 10 0 0 1 10-10h11m5 20h-11a10 10 0 0 1-10-10"/><path d="M837 220a10 10 0 0 1 10-10h11m5 20h-11a10 10 0 0 1-10-10"/>
  <path d="M332 395a10 10 0 0 1 10-10h11m5 20h-11a10 10 0 0 1-10-10"/><path d="M842 395a10 10 0 0 1 10-10h11m5 20h-11a10 10 0 0 1-10-10"/>
</g>

<!-- trust and star -->
<g filter="url(#shadow)">
  <circle cx="170" cy="315" r="39" fill="#fff"/><path d="M170 289l25 9v18c0 18-11 29-25 36-14-7-25-18-25-36v-18Z" fill="#f47b25"/><path d="M158 318l9 9 17-20" fill="none" stroke="#fff" stroke-width="6" stroke-linecap="round" stroke-linejoin="round"/>
  <circle cx="1030" cy="315" r="39" fill="#fff"/><path d="M1030 288l9 18 20 3-15 14 4 20-18-10-18 10 4-20-15-14 20-3Z" fill="#f47b25"/>
</g>
</svg>