<svg height="512pt" viewBox="0 0 512 512" width="512pt" xmlns="http://www.w3.org/2000/svg"><path d="m151 135h-30v-75h-45v-30h75zm0 0" fill="#3e5959"/><path d="m391 135h-30v-105h75v30h-45zm0 0" fill="#293939"/><path d="m241 75h30v60h-30zm0 0" fill="#3e5959"/><path d="m256 75h15v60h-15zm0 0" fill="#293939"/><path d="m241 376h30v60h-30zm0 0" fill="#3e5959"/><path d="m256 376h15v60h-15zm0 0" fill="#293939"/><path d="m151 482h-75v-31h45v-75h30zm0 0" fill="#3e5959"/><path d="m436 482h-75v-106h30v75h45zm0 0" fill="#293939"/><path d="m421 180v211h-330v-211l30-30h270zm0 0" fill="#deecf1"/><path d="m421 180v211h-165v-241h135zm0 0" fill="#c5d3dd"/><path d="m331 120h90v60h-90l-30-30zm0 0" fill="#00c0f1"/><path d="m91 120h240v60h-240zm0 0" fill="#537983"/><path d="m256 120h75v60h-75zm0 0" fill="#3e5959"/><path d="m91 90h-91v-90h91zm0 0" fill="#25d9f8"/><path d="m211 0v90h90v-90zm0 0" fill="#25d9f8"/><path d="m512 90h-91v-90h91zm0 0" fill="#00c0f1"/><path d="m512 512h-91v-91h91zm0 0" fill="#00c0f1"/><path d="m211 421v91h90v-91zm0 0" fill="#25d9f8"/><path d="m91 512h-91v-91h91zm0 0" fill="#25d9f8"/><path d="m151 241h150v30h-150zm0 0" fill="#c5d3dd"/><path d="m331 241h30v30h-30zm0 0" fill="#9facba"/><path d="m151 301h150v30h-150zm0 0" fill="#c5d3dd"/><path d="m331 301h30v30h-30zm0 0" fill="#9facba"/><path d="m256 0h45v90h-45zm0 0" fill="#00c0f1"/><path d="m256 421h45v91h-45zm0 0" fill="#00c0f1"/><g fill="#9facba"><path d="m256 241h45v30h-45zm0 0"/><path d="m256 301h45v30h-45zm0 0"/></g></svg>