<?xml version="1.0" encoding="utf-8"?>
<svg viewBox="0 101 479 385" xmlns="http://www.w3.org/2000/svg">
  <path id="rect1305" style="stroke-linejoin: round; stroke-linecap: round; stroke-width: 18.803; fill: rgba(255, 255, 255, 0.54); stroke: rgb(255, 255, 255);" d="M 195.781 351.029 L 263.198 349.237 C 263.198 349.237 229.147 425.916 285.128 458.667 C 218.898 438.766 292.845 492.514 232.462 464.938 C 233.671 457.413 220.946 445.349 169.507 463.684 C 231.244 408.248 195.781 351.029 195.781 351.029 Z"/>
  <path id="path2035" style="stroke-linejoin: round; stroke-linecap: round; stroke-width: 18.803; fill: rgba(255, 255, 255, 0.54); stroke: rgb(255, 255, 255);" d="M 246.211 114.472 C 210.648 114.472 179.237 126.989 160.088 146.11 C 104.16 148.019 59.56 180.728 59.56 220.865 C 59.561 244.261 74.724 265.15 98.436 278.893 C 101.227 318.804 157.149 350.693 225.675 350.693 C 295.982 350.693 353.039 317.124 353.039 275.763 C 353.039 275.56 353.001 275.36 352.996 275.157 C 373.16 266.262 385.905 253.454 385.905 239.163 C 385.905 224.247 372.069 210.905 350.336 201.981 C 351.327 197.89 351.86 193.696 351.86 189.401 C 351.86 148.039 304.533 114.471 246.213 114.471 L 246.211 114.472 Z"/>
</svg>