<?xml version="1.0" encoding="utf-8"?>
<svg viewBox="0 101 479 385" xmlns="http://www.w3.org/2000/svg">
  <defs>
    <pattern id="pattern-0" x="0" y="0" width="20" height="20" patternUnits="userSpaceOnUse" viewBox="0 0 100 100">
      <path d="M 0 0 L 50 0 L 50 100 L 0 100 Z" style="fill: black;"/>
    </pattern>
    <radialGradient id="gradient-5" gradientUnits="userSpaceOnUse" cx="308.83" cy="660.998" r="24.641" gradientTransform="matrix(2.252867, 2.250611, -1.945645, 1.535543, 886.407609, -1085.688202)" spreadMethod="pad">
      <stop offset="0" style="stop-color: rgb(255, 255, 255);"/>
      <stop offset="1" style="stop-color: rgba(255, 255, 255, 0);"/>
    </radialGradient>
    <radialGradient id="gradient-6" gradientUnits="userSpaceOnUse" cx="386.121" cy="682.812" r="48.886" spreadMethod="pad" gradientTransform="matrix(0.87352, 1.220386, -2.134921, 1.2048, 1495.936186, -614.724396)">
      <stop offset="0" style="stop-color: rgb(255, 255, 255);"/>
      <stop offset="1" style="stop-color: rgba(255, 255, 255, 0);"/>
    </radialGradient>
    <radialGradient id="gradient-7" gradientUnits="userSpaceOnUse" cx="423.227" cy="634.935" r="24.641" spreadMethod="pad" gradientTransform="matrix(-1.414069, -1.194564, 2.38121, -2.222351, -471.870187, 2575.390444)">
      <stop offset="0" style="stop-color: rgb(255, 255, 255);"/>
      <stop offset="1" style="stop-color: rgba(255, 255, 255, 0);"/>
    </radialGradient>
  </defs>
  <g transform="matrix(20.252144, 0, 0, 22.808277, 263.138916, 93.506813)" style="">
    <g id="text2987" style="fill:#cf5e01" transform="matrix(0.15337, 0, 0, 0.15337, -59.641232, -89.833527)"/>
  </g>
  <g>
    <g transform="matrix(-20.252144, 0, 0, -22.808277, 217.633682, 592.096313)" style="">
      <g id="g-1" style="fill:#cf5e01" transform="matrix(0.15337, 0, 0, 0.15337, -59.641232, -89.833527)">
        <g>
          <path d="M 355.997 673.306 C 354.946 681.68 356.111 693.574 360.835 701.743 C 365.049 710.348 377.267 723.697 388.889 723.456 C 400.153 723.696 411.465 710.673 416.536 701.382 C 422.016 691.342 422.736 679.069 422.108 670.144 C 422.141 662.32 426.817 657.41 437.677 657.873 C 429.943 652.294 422.187 651.59 415.975 654.046 C 417.549 647.832 421.324 644.485 429.059 641.138 C 419.134 640.023 412.922 641.138 407.676 644.961 C 408.277 638.907 406.111 633.889 400.552 631.097 C 399.888 637.078 397.405 641.138 390.992 645.869 C 388.111 637.373 384.895 632.91 377.281 629.981 C 378.813 634.444 378.667 637.791 377.225 642.962 C 372.592 637.791 367.069 636.465 360.187 636.013 C 364.824 640.023 366.739 643.655 365.484 648.948 C 360.145 645.6 352.391 644.486 346.175 646.716 C 352.372 648.948 357.638 653.411 357.071 658.771 C 349.243 654.949 343.026 657.238 339.905 661.22 C 346.956 660.103 356.042 665.069 355.997 673.306 Z" style="stroke-width: 25; stroke: rgb(0, 0, 0); stroke-opacity: 0; paint-order: fill markers; fill: url(#gradient-6);" transform="matrix(-0.999993, 0.003356, -0.004257, -0.999993, 780.460197, 1352.130507)"/>
          <path id="path2992" d="M 348.158 666.98 C 354.843 663.113 355.645 653.94 353.328 648.784 C 349.049 638.852 334.787 634.378 313.484 639.306 C 304.481 641.505 303.412 651.892 307.512 655.379 C 307.601 655.455 307.869 655.532 308.314 655.455 C 311.255 654.243 319.635 650.83 322.219 650.452 C 332.024 649.087 336.213 655.304 333.361 659.398 C 327.923 667.208 318.475 663.72 319.723 678.201 C 326.052 681.841 337.995 679.338 338.263 676.306 C 338.798 670.012 342.72 670.24 348.158 666.98 M 319.545 686.693 C 320.704 691.318 320.689 693.168 324.056 694.225 C 327.622 695.343 332.675 695.456 336.481 693.517 C 339.493 691.981 339.715 687.357 336.569 684.115 C 335.08 682.58 317.94 679.49 319.544 686.693" style="paint-order: markers; fill: url(#gradient-5);" transform="matrix(-1, 0, 0, -1, 659.726496, 1332.319583)"/>
          <path id="path-1" d="M 451.524 648.653 C 458.209 644.786 459.011 635.613 456.694 630.457 C 452.415 620.525 438.153 616.051 416.85 620.979 C 407.847 623.178 406.778 633.565 410.878 637.052 C 410.967 637.128 411.235 637.205 411.68 637.128 C 414.621 635.916 423.001 632.503 425.585 632.125 C 435.39 630.76 439.579 636.977 436.727 641.071 C 431.289 648.881 421.841 645.393 423.089 659.874 C 429.418 663.514 441.361 661.011 441.629 657.979 C 442.164 651.685 446.086 651.913 451.524 648.653 M 422.911 668.366 C 424.07 672.991 424.055 674.841 427.422 675.898 C 430.988 677.016 436.041 677.129 439.847 675.19 C 442.859 673.654 443.081 669.03 439.935 665.788 C 438.446 664.253 421.306 661.163 422.91 668.366" style="fill: url(#gradient-7); paint-order: fill markers;"/>
        </g>
      </g>
    </g>
  </g>
</svg>