<?xml version="1.0" standalone="no"?>
<!DOCTYPE svg PUBLIC "-//W3C//DTD SVG 20010904//EN"
 "http://www.w3.org/TR/2001/REC-SVG-20010904/DTD/svg10.dtd">
<svg version="1.0" xmlns="http://www.w3.org/2000/svg"
 width="700.000000pt" height="700.000000pt" viewBox="0 0 700.000000 700.000000"
 preserveAspectRatio="xMidYMid meet">
<metadata>
Created by potrace 1.11, written by Peter Selinger 2001-2013
</metadata>
<g transform="translate(0.000000,700.000000) scale(0.100000,-0.100000)"
fill="#000000" stroke="none">
<path d="M3397 6995 c-1 -2 -35 -5 -76 -9 -254 -21 -472 -82 -681 -189 -74
-38 -337 -178 -585 -312 -247 -133 -499 -268 -560 -300 -60 -32 -137 -72 -170
-90 -33 -18 -100 -54 -150 -80 -464 -245 -605 -348 -798 -585 -186 -229 -339
-578 -365 -832 -4 -40 -6 -579 -5 -1198 l2 -1125 45 -116 c95 -246 166 -383
279 -534 69 -92 267 -293 347 -352 50 -36 286 -183 295 -183 2 0 34 -17 72
-38 37 -22 124 -68 193 -104 251 -132 399 -210 515 -275 50 -28 128 -71 175
-96 47 -25 202 -108 345 -184 475 -254 573 -297 765 -338 41 -9 84 -18 95 -21
118 -26 444 -39 565 -22 30 4 75 9 100 12 25 2 70 9 100 15 30 7 68 14 83 17
81 14 261 86 436 174 205 104 225 115 696 367 160 86 324 174 365 196 41 22
114 62 163 88 48 27 89 49 90 49 3 0 289 159 412 229 162 92 308 207 415 327
154 171 312 439 380 642 36 108 38 125 47 297 10 186 9 2025 0 2190 -7 112
-13 146 -46 245 -110 328 -297 600 -556 811 -74 59 -275 199 -288 199 -3 0
-35 18 -72 41 -37 22 -183 102 -324 176 -141 74 -292 154 -336 178 -44 23
-120 64 -170 90 -171 90 -260 138 -330 178 -158 92 -527 280 -623 318 -109 43
-207 76 -287 94 -65 16 -172 35 -220 41 -55 6 -332 13 -338 9z m218 -409 c258
-18 327 -41 730 -247 232 -118 260 -133 555 -292 113 -60 291 -156 395 -212
105 -56 235 -126 290 -156 542 -287 698 -423 872 -759 27 -52 53 -106 57 -120
5 -14 9 -27 10 -30 18 -51 34 -154 44 -275 9 -131 9 -1946 -1 -2050 -19 -204
-137 -466 -295 -653 -56 -67 -66 -78 -138 -142 -80 -72 -218 -157 -474 -292
-58 -31 -130 -69 -160 -85 -65 -36 -167 -90 -305 -163 -55 -29 -104 -56 -110
-60 -5 -4 -68 -38 -140 -75 -71 -37 -134 -71 -140 -75 -5 -4 -55 -31 -110 -60
-55 -29 -122 -65 -150 -80 -267 -146 -375 -200 -500 -249 -258 -102 -489 -126
-805 -85 -171 23 -413 134 -1120 517 -30 16 -239 129 -465 250 -645 346 -658
353 -740 420 -192 158 -341 377 -433 638 -52 146 -51 137 -52 1284 0 803 2
948 14 1045 30 232 181 516 385 721 131 131 138 136 571 367 47 25 139 74 205
110 66 35 154 83 195 105 41 22 102 54 135 72 33 18 164 87 290 155 127 67
255 136 285 153 223 122 484 246 555 265 139 36 363 70 430 66 17 -1 71 -5
120 -8z"/>
<path d="M3375 5934 c-138 -21 -211 -56 -373 -179 -129 -98 -288 -254 -402
-394 -19 -24 -40 -48 -45 -55 -20 -21 -171 -231 -207 -286 -74 -114 -128 -200
-128 -204 0 -2 -17 -33 -38 -67 -70 -115 -219 -404 -307 -594 -301 -648 -614
-1607 -663 -2030 -10 -91 3 -122 72 -163 154 -93 478 -83 564 18 25 30 62 119
150 370 142 404 280 786 324 900 108 276 185 466 260 638 87 200 276 585 290
590 4 2 8 8 8 13 0 5 23 46 50 90 28 44 50 83 50 85 0 18 161 224 227 289 176
176 319 202 490 88 285 -189 633 -837 1010 -1878 69 -192 169 -474 183 -515 4
-14 40 -115 78 -225 142 -407 164 -454 219 -480 92 -44 284 -43 428 1 73 23
134 55 156 82 31 40 22 149 -31 362 -11 47 -23 96 -26 110 -10 50 -96 338
-144 485 -179 550 -433 1149 -664 1564 -25 46 -46 85 -46 86 0 9 -158 267
-220 360 -315 471 -685 829 -946 914 -101 34 -208 42 -319 25z"/>
</g>
</svg>
