<?xml version="1.0" encoding="utf-8"?>
<svg viewBox="-301.086 0 800.092 500" xmlns="http://www.w3.org/2000/svg">
  <g transform="matrix(0.4426666292358738, 0, 0, 0.4426666292358738, 128.49979409519307, 197.35219958722624)"/>
  <g transform="matrix(0.4426666292358736, 0, 0, 0.4426666292358736, 52.380461041031154, 58.196543847586355)"/>
  <g transform="matrix(0.4426666292358738, 0, 0, 0.4426666292358738, 171.31691893815918, 219.95012658768056)"/>
  <g transform="matrix(0.44266662923587374, 0, 0, 0.44266662923587374, 182.02120014890076, -20.301518364518216)"/>
  <g transform="matrix(0.4426666292358738, 0, 0, 0.4426666292358738, 46.433638146174715, 95.06684579569608)"/>
  <g transform="matrix(0.44266662923587363, 0, 0, 0.44266662923587363, 117.79551288445157, 279.4183555362447)"/>
  <g transform="matrix(0.21408562421483066, 0, 0, 0.21408562421483066, 871.908407416883, 97.5013264182779)"/>
  <g transform="matrix(0.4426666292358737, 0, 0, 0.4426666292358737, 117.79551288445155, 112.90731448026528)"/>
  <g transform="matrix(0.6422568726444919, 0, 0, 0.6422568726444919, 85.73842071686624, 86.79704520753634)"/>
  <g transform="matrix(0.6422568726444919, 0, 0, 0.6422568726444919, -143.80894302459103, 321.1018672648787)"/>
  <g transform="matrix(0.33909455302282754, 0, 0, 0.33909455302282754, 279.405392842632, 111.5387898264971)"/>
  <g transform="matrix(1, 0, 0, 1, 95.255139, -36.838341)"/>
  <path d="M -81.931 168.583 L -43.29 125.18 L 43.142 196.592 L 46.583 6.471 L 241.052 143.856 L 110.259 252.096 L 234.824 352.117 L 47.701 494.464 L 45.985 305.955 L -37.027 374.108 L -83.069 341.672 L 20.421 252.107 L -81.93 168.582 Z M 150.072 355.934 L 109.118 324.088 L 111.961 386.722 L 150.071 355.934 Z M 150.072 146.047 L 109.118 113.622 L 111.961 176.813 L 150.071 146.046 Z" fill="#000000" style=""/>
  <path d="M -225.039 166.566 L -209.869 148.61 L -175.936 178.154 L -174.585 99.5 L -98.237 156.337 L -149.586 201.116 L -100.682 242.495 L -174.146 301.384 L -174.82 223.397 L -207.41 251.593 L -225.486 238.174 L -184.856 201.12 L -225.039 166.566 Z M -133.956 244.074 L -150.034 230.899 L -148.918 256.811 L -133.956 244.074 Z M -133.956 157.243 L -150.034 143.829 L -148.918 169.971 L -133.956 157.243 Z" style="fill: rgb(232, 16, 134); opacity: 0.42;" transform="matrix(0.705306, -0.708903, 0.708903, 0.705306, -189.793508, -55.675047)"/>
  <path d="M 301.181 234.184 L 316.351 216.228 L 350.284 245.772 L 351.635 167.118 L 427.983 223.955 L 376.634 268.734 L 425.538 310.113 L 352.074 369.002 L 351.4 291.015 L 318.81 319.211 L 300.734 305.792 L 341.364 268.738 L 301.181 234.184 Z M 392.264 311.692 L 376.186 298.517 L 377.302 324.429 L 392.264 311.692 Z M 392.264 224.861 L 376.186 211.447 L 377.302 237.589 L 392.264 224.861 Z" style="fill: rgb(27, 157, 177); opacity: 0.2;" transform="matrix(0.036876, 0.99932, -0.99932, 0.036876, 618.800194, -105.935602)"/>
  <path d="M 256.196 401.808 L 267.146 389.804 L 291.641 409.554 L 292.616 356.973 L 347.728 394.97 L 310.662 424.905 L 345.963 452.567 L 292.933 491.935 L 292.446 439.8 L 268.921 458.649 L 255.873 449.678 L 285.202 424.907 L 256.196 401.808 Z M 321.944 453.623 L 310.338 444.815 L 311.144 462.138 L 321.944 453.623 Z M 321.944 395.575 L 310.338 386.608 L 311.144 404.084 L 321.944 395.575 Z" style="opacity: 0.65; fill: rgb(252, 10, 10);" transform="matrix(0.875437, 0.483332, -0.483332, 0.875437, 242.745531, -92.998656)"/>
  <path d="M 286.446 58.919 L 293.999 49.733 L 310.893 64.846 L 311.566 24.609 L 349.577 53.686 L 324.012 76.593 L 348.36 97.761 L 311.784 127.887 L 311.448 87.991 L 295.223 102.415 L 286.224 95.551 L 306.452 76.595 L 286.446 58.919 Z M 331.793 98.569 L 323.789 91.829 L 324.345 105.085 L 331.793 98.569 Z M 331.793 54.149 L 323.789 47.287 L 324.345 60.66 L 331.793 54.149 Z" style="fill: rgb(242, 138, 20); opacity: 0.62;" transform="matrix(0.826193, -0.563387, 0.563387, 0.826193, 12.296169, 192.353461)"/>
  <path d="M -234.146 407.321 L -222.07 419.325 L -195.056 399.575 L -193.981 452.156 L -133.201 414.159 L -174.079 384.224 L -135.147 356.562 L -193.631 317.194 L -194.168 369.329 L -220.113 350.48 L -234.502 359.451 L -202.157 384.222 L -234.146 407.321 Z M -161.637 355.506 L -174.436 364.314 L -173.547 346.991 L -161.637 355.506 Z M -161.637 413.554 L -174.436 422.521 L -173.547 405.045 L -161.637 413.554 Z" style="fill: rgb(11, 243, 62); opacity: 0.54;" transform="matrix(-0.649041, -0.760754, 0.760754, -0.649041, -595.821541, 494.479006)"/>
  <path d="M -120.638 52.939 L -113.085 43.753 L -96.191 58.866 L -95.518 18.629 L -57.507 47.706 L -83.072 70.613 L -58.724 91.781 L -95.3 121.907 L -95.636 82.011 L -111.861 96.435 L -120.86 89.571 L -100.632 70.615 L -120.638 52.939 Z M -75.291 92.589 L -83.295 85.849 L -82.739 99.105 L -75.291 92.589 Z M -75.291 48.169 L -83.295 41.307 L -82.739 54.68 L -75.291 48.169 Z" style="fill: rgb(15, 94, 220); opacity: 0.27;" transform="matrix(0.752635, 0.658438, -0.658438, 0.752635, 24.206244, 76.103612)"/>
  <path d="M 393.017 161.544 L 401.006 171.218 L 418.877 155.301 L 419.589 197.677 L 459.797 167.055 L 432.755 142.93 L 458.51 120.637 L 419.82 88.91 L 419.465 130.926 L 402.302 115.736 L 392.781 122.965 L 414.179 142.928 L 393.017 161.544 Z M 440.986 119.786 L 432.518 126.885 L 433.106 112.924 L 440.986 119.786 Z M 440.986 166.567 L 432.518 173.794 L 433.106 159.71 L 440.986 166.567 Z" style="fill: rgb(187, 93, 192); opacity: 0.33;" transform="matrix(-0.036876, -0.99932, 0.99932, -0.036876, 298.812789, 574.576654)"/>
</svg>