<?xml version="1.0" encoding="utf-8"?>
<svg viewBox="0 37.721 800.16 499.999" xmlns="http://www.w3.org/2000/svg">
  <rect x="129.12" y="64.98" width="575.446" height="352.123" style="fill: rgb(187, 209, 227);"/>
  <g transform="matrix(0.027414, 0, 0, -0.024987, 243.365021, 403.940277)" fill="#000000" stroke="none" style="">
    <g style="opacity: 0.33;">
      <path d="M 6085 12793 C 5305 12748 4664 12608 4000 12340 C 2828 11866 1827 11058 1108 10005 C 563 9207 202 8277 65 7316 C 17 6978 6 6797 6 6395 C 6 5999 17 5828 66 5490 C 328 3644 1384 2003 2958 997 C 3836 436 4801 112 5880 18 C 6098 -1 6701 2 6925 23 C 7363 65 7757 139 8140 250 C 9848 744 11273 1934 12070 3530 C 12294 3980 12419 4316 12565 4870 C 12710 5418 12754 5758 12754 6330 C 12755 6745 12732 7028 12664 7435 C 12438 8798 11806 10017 10828 10975 C 10054 11735 9150 12261 8105 12560 C 7557 12717 7361 12750 6715 12790 C 6578 12799 6207 12801 6085 12793 Z M 6607 12750 L 6670 12750 L 6619 12654 C 6568 12559 6567 12558 6557 12429 C 6551 12353 6551 12295 6556 12290 C 6566 12280 6732 12229 6737 12234 C 6739 12236 6748 12276 6757 12323 C 6773 12404 6777 12413 6821 12456 L 6868 12502 L 7187 12360 C 7362 12281 7552 12194 7610 12165 L 7715 12113 L 7978 12134 L 8240 12156 L 8313 12228 C 8353 12268 8388 12300 8392 12300 C 8395 12300 8566 12219 8772 12120 L 9145 11940 L 9313 11940 L 9482 11940 L 9578 11883 C 9874 11710 10218 11463 10500 11221 C 10613 11124 10822 10928 10817 10924 C 10815 10922 10738 10949 10644 10984 C 10236 11136 9962 11270 9827 11382 L 9779 11422 L 9408 11451 L 9036 11481 L 8953 11398 C 8907 11353 8870 11309 8870 11300 C 8871 11292 8888 11245 8909 11195 L 8947 11105 L 9018 11102 C 9058 11100 9090 11096 9091 11092 C 9091 11088 9097 11029 9104 10960 C 9111 10891 9116 10834 9116 10833 C 9115 10832 9061 10863 8996 10902 C 8903 10957 8876 10970 8869 10959 C 8864 10951 8828 10887 8788 10817 C 8725 10705 8713 10690 8695 10695 C 8684 10699 8648 10704 8615 10707 C 8582 10709 8546 10715 8535 10720 C 8524 10725 8504 10730 8490 10732 C 8472 10734 8460 10746 8447 10773 C 8427 10814 8420 10815 8339 10800 C 8303 10793 8276 10780 8255 10760 L 8225 10731 L 8180 10765 C 8137 10798 8131 10800 8052 10800 C 7963 10800 7968 10803 7946 10733 C 7940 10714 7944 10711 7990 10705 L 8040 10698 L 7995 10642 C 7954 10589 7952 10584 7965 10563 C 7986 10532 7985 10530 7942 10530 C 7893 10530 7771 10561 7686 10595 C 7612 10625 7532 10629 7480 10607 C 7438 10590 7377 10531 7246 10382 L 7147 10268 L 7226 10189 L 7305 10110 L 7362 10110 C 7394 10110 7454 10100 7495 10088 C 7559 10069 7571 10062 7579 10038 C 7590 10006 7603 10005 7783 10017 L 7881 10023 L 7998 10116 C 8121 10215 8121 10215 8281 10242 C 8346 10253 8347 10253 8454 10210 C 8552 10171 8566 10168 8618 10174 C 8772 10192 8793 10193 8786 10182 C 8776 10166 8807 10100 8866 10010 C 8893 9969 8938 9880 8966 9814 C 8995 9747 9041 9659 9068 9617 C 9113 9551 9120 9534 9127 9469 C 9135 9398 9136 9395 9160 9397 C 9174 9399 9240 9395 9308 9389 C 9376 9383 9433 9380 9436 9383 C 9439 9385 9424 9414 9404 9446 C 9377 9490 9349 9517 9294 9554 C 9233 9596 9219 9611 9204 9649 C 9195 9674 9156 9775 9118 9873 C 9079 9971 9050 10053 9052 10054 C 9053 10056 9075 10065 9100 10074 C 9152 10094 9151 10095 9200 10000 C 9216 9970 9251 9911 9279 9871 C 9328 9797 9331 9795 9447 9736 L 9565 9675 L 9570 9589 C 9578 9459 9594 9439 9740 9385 L 9855 9343 L 9940 9388 C 10061 9452 10062 9453 10089 9503 L 10114 9548 L 10072 9604 L 10029 9660 L 10138 9660 L 10248 9660 L 10333 9567 C 10416 9477 10421 9473 10564 9402 C 10682 9344 10710 9326 10706 9312 C 10704 9303 10699 9268 10695 9236 L 10688 9177 L 10776 9089 L 10864 9000 L 10830 8965 C 10811 8946 10793 8930 10788 8930 C 10765 8930 10386 9107 10273 9171 L 10141 9245 L 9918 9233 C 9795 9226 9676 9218 9654 9215 L 9613 9209 L 9617 9117 C 9619 9066 9623 9015 9625 9004 C 9628 8989 9681 8949 9793 8876 C 9925 8790 9990 8756 10133 8696 C 10287 8632 10580 8475 10596 8449 C 10599 8444 10596 8394 10590 8338 C 10579 8244 10573 8226 10526 8138 C 10498 8084 10472 8040 10467 8040 C 10463 8040 10424 8064 10380 8093 C 10325 8130 10246 8203 10118 8336 L 9935 8525 L 9884 8526 C 9835 8526 9829 8529 9677 8649 L 9520 8771 L 9448 8768 L 9376 8765 L 9355 8680 L 9334 8595 L 9299 8598 C 9235 8604 9230 8608 9229 8653 C 9229 8676 9226 8703 9222 8712 C 9218 8721 9087 8824 8930 8940 C 8773 9056 8646 9154 8647 9156 C 8647 9159 8677 9194 8713 9234 C 8776 9304 8781 9308 8859 9330 C 8904 9342 8940 9356 8940 9360 C 8940 9363 8919 9398 8892 9436 L 8845 9505 L 8791 9508 C 8742 9511 8726 9519 8619 9593 L 8500 9674 L 8385 9646 L 8270 9618 L 8198 9676 C 8159 9709 8092 9764 8051 9798 L 7975 9862 L 7878 9856 C 7731 9848 7588 9870 7455 9920 L 7345 9962 L 7210 9950 L 7075 9938 L 6930 9836 L 6785 9734 L 6650 9711 C 6527 9691 6509 9685 6445 9645 C 6407 9621 6341 9592 6300 9580 C 6230 9560 6223 9555 6185 9504 L 6145 9449 L 6019 9455 L 5894 9461 L 5759 9340 C 5673 9262 5623 9209 5618 9192 C 5614 9177 5595 9093 5574 9004 L 5537 8844 L 5405 8704 C 5277 8569 5273 8563 5257 8498 C 5247 8459 5240 8391 5240 8336 C 5240 8245 5242 8235 5290 8115 C 5354 7954 5436 7790 5618 7457 L 5765 7190 L 5822 7155 C 5876 7123 5889 7120 5988 7114 L 6095 7107 L 6233 6998 C 6330 6923 6380 6890 6398 6890 C 6413 6890 6515 6883 6625 6875 C 6735 6867 6830 6860 6835 6860 C 6841 6860 6861 6835 6880 6804 L 6914 6748 L 6966 6755 L 7018 6761 L 7110 6654 L 7203 6548 L 7244 6553 C 7267 6556 7303 6562 7326 6565 L 7366 6572 L 7392 6393 L 7417 6215 L 7354 6126 C 7319 6077 7257 6008 7217 5973 L 7143 5909 L 7172 5742 C 7187 5649 7211 5440 7224 5272 C 7249 4970 7249 4970 7229 4900 C 7191 4763 7191 4763 7060 4676 L 6941 4597 L 6798 4171 L 6656 3745 L 6700 3528 L 6744 3311 L 6716 3124 L 6688 2936 L 6600 2821 L 6512 2705 L 6505 2591 C 6500 2514 6490 2454 6475 2409 L 6452 2342 L 6540 2316 L 6628 2290 L 6728 2335 L 6827 2380 L 6951 2380 L 7075 2380 L 7283 2313 L 7492 2246 L 7623 2312 C 7696 2349 7853 2437 7972 2508 L 8189 2637 L 8296 2648 C 8355 2655 8407 2665 8411 2671 C 8414 2677 8423 2755 8431 2843 L 8444 3004 L 8501 3070 L 8559 3137 L 8657 3149 C 8814 3169 8820 3171 8919 3254 L 9011 3330 L 9089 3330 L 9167 3330 L 9446 3580 C 9760 3862 9734 3825 9765 4030 C 9774 4088 9791 4183 9804 4242 C 9827 4348 9828 4350 9935 4508 L 10042 4667 L 10109 4674 C 10145 4677 10192 4680 10214 4680 C 10238 4680 10295 4699 10369 4731 C 10467 4775 10519 4808 10710 4948 L 10936 5113 L 11010 5239 C 11143 5466 11190 5548 11190 5557 C 11190 5562 11156 5578 11115 5593 L 11040 5619 L 11002 5579 L 10965 5539 L 10872 5614 C 10755 5709 10761 5705 10752 5679 C 10746 5665 10740 5700 10732 5790 C 10724 5878 10723 5928 10730 5940 C 10753 5984 10742 6014 10677 6082 C 10604 6157 10564 6233 10495 6420 C 10452 6536 10448 6557 10434 6711 C 10422 6849 10422 6888 10433 6941 C 10441 6984 10444 7040 10439 7110 C 10433 7219 10437 7554 10446 7626 L 10451 7667 L 10526 7650 C 10567 7640 10604 7629 10607 7626 C 10611 7622 10603 7517 10589 7392 L 10564 7165 L 10612 7061 L 10660 6958 L 10660 6781 C 10660 6513 10678 6386 10740 6202 L 10792 6050 L 10913 5897 C 10979 5814 11034 5743 11036 5742 C 11037 5740 11063 5757 11093 5779 C 11146 5820 11147 5820 11236 5820 L 11325 5821 L 11610 6136 L 11895 6451 L 11912 6533 C 11921 6578 11929 6622 11930 6631 C 11930 6649 11869 6736 11727 6920 C 11623 7054 11617 7057 11534 6997 C 11504 6976 11476 6961 11472 6964 C 11469 6968 11461 7011 11454 7061 C 11444 7136 11434 7164 11398 7228 C 11362 7291 11350 7304 11333 7302 C 11318 7300 11305 7308 11294 7325 C 11280 7346 11279 7365 11284 7438 C 11288 7486 11297 7552 11303 7584 C 11315 7643 11315 7644 11378 7678 C 11413 7697 11442 7711 11444 7709 C 11454 7695 11554 7410 11572 7341 L 11595 7257 L 11730 7141 C 11804 7077 11937 6956 12025 6871 L 12184 6717 L 12228 6576 C 12253 6499 12287 6365 12304 6280 L 12336 6125 L 12405 6098 L 12475 6072 L 12472 5873 C 12470 5764 12457 5500 12444 5286 C 12430 5072 12420 4896 12422 4895 C 12424 4894 12444 4883 12468 4871 C 12491 4859 12510 4845 12510 4840 C 12510 4809 12402 4447 12344 4284 C 12101 3597 11756 2978 11303 2412 C 10364 1240 9034 438 7565 156 C 7166 80 6815 48 6375 48 C 5915 48 5558 82 5144 165 L 4982 197 L 4887 296 C 4835 351 4782 408 4769 423 C 4744 452 4729 457 3335 892 L 3075 973 L 2905 1085 C 2178 1563 1567 2175 1087 2906 L 981 3067 L 929 3435 C 878 3802 877 3803 840 3869 C 819 3905 790 3978 774 4029 L 746 4123 L 763 4259 C 775 4358 784 4398 796 4405 C 804 4411 839 4433 873 4455 L 934 4495 L 932 4550 C 931 4580 927 4655 924 4715 L 919 4825 L 1024 4902 L 1130 4980 L 1130 5087 L 1130 5195 L 1371 5510 C 1503 5683 1615 5829 1620 5834 C 1626 5840 1666 5832 1722 5815 L 1815 5788 L 1854 5832 C 1879 5859 1995 6063 2155 6360 L 2416 6844 L 2560 6873 L 2704 6902 L 2745 6948 C 2825 7039 2822 7032 2810 7105 C 2801 7158 2782 7205 2712 7335 L 2625 7497 L 2505 7572 L 2385 7647 L 2382 7832 L 2380 8016 L 2202 8111 L 2025 8205 L 2027 8449 L 2030 8693 L 2070 8767 L 2111 8841 L 2071 8907 C 2033 8970 2025 8977 1923 9034 L 1815 9095 L 1791 9200 L 1767 9305 L 1784 9487 C 1794 9587 1798 9675 1793 9683 C 1781 9703 1569 9980 1566 9980 C 1564 9980 1494 9953 1411 9920 C 1263 9862 1256 9860 1164 9860 C 1112 9860 1070 9862 1070 9865 C 1070 9876 1211 10080 1312 10215 C 1644 10660 2055 11080 2489 11418 C 2674 11562 2663 11557 2790 11559 C 2875 11561 2941 11554 3080 11529 L 3261 11497 L 3298 11533 C 3320 11554 3345 11595 3358 11630 C 3376 11676 3401 11711 3459 11772 L 3536 11853 L 3619 11858 C 3691 11862 3710 11867 3758 11896 C 3824 11936 3950 11986 4017 11999 C 4044 12005 4198 12019 4360 12031 L 4655 12052 L 4686 12082 C 4703 12098 4739 12138 4766 12171 C 4814 12229 4816 12230 4865 12230 C 4934 12229 5059 12212 5092 12199 C 5107 12193 5121 12177 5125 12162 C 5128 12148 5141 12123 5152 12107 C 5168 12085 5171 12068 5168 12030 C 5163 11986 5165 11982 5180 11990 C 5190 11995 5242 12046 5295 12102 C 5382 12195 5400 12221 5479 12370 L 5567 12535 L 5636 12542 C 5674 12546 5739 12552 5781 12555 L 5857 12561 L 5903 12643 L 5950 12725 L 5907 12731 L 5865 12737 L 5915 12740 C 6123 12752 6314 12757 6420 12754 C 6489 12752 6573 12750 6607 12750 Z M 223 7247 C 260 7098 310 6871 334 6744 L 378 6513 L 370 6294 L 362 6075 L 456 5904 C 508 5811 550 5729 550 5722 C 550 5716 529 5637 504 5548 L 458 5385 L 447 5085 L 437 4784 L 498 4610 C 562 4429 585 4326 654 3914 L 686 3722 L 746 3624 C 791 3550 820 3484 866 3348 C 900 3249 924 3172 919 3177 C 905 3192 782 3417 712 3557 C 366 4249 157 4977 75 5775 C 32 6191 38 6757 90 7175 C 113 7353 141 7520 149 7520 C 152 7520 186 7397 223 7247 Z" style="opacity: 0.97; stroke-opacity: 0.2; fill: rgb(54, 52, 58);"/>
      <path d="M 8225 11360 L 8235 11230 L 8150 11133 C 8091 11066 8055 11015 8037 10971 C 8022 10936 8011 10906 8013 10904 C 8017 10899 8474 10921 8479 10926 C 8486 10932 8440 11078 8400 11180 C 8379 11232 8357 11311 8350 11355 C 8343 11399 8334 11441 8330 11449 C 8323 11462 8252 11489 8225 11490 C 8218 11490 8218 11448 8225 11360 Z" style="stroke-opacity: 0.2; fill: rgb(54, 52, 58);"/>
      <path d="M 9968 3259 L 9831 3149 L 9668 3138 L 9505 3127 L 9418 3061 C 9333 2997 9330 2993 9300 2915 C 9270 2838 9264 2831 9164 2742 C 9058 2647 9026 2630 8958 2630 C 8916 2630 8913 2625 8936 2592 C 8951 2571 8949 2567 8891 2502 L 8830 2435 L 8830 2353 C 8830 2270 8830 2270 8856 2270 C 8889 2270 9191 2300 9206 2305 C 9212 2307 9345 2451 9501 2625 C 9657 2800 9803 2963 9825 2987 C 9862 3028 9871 3032 9935 3042 C 10004 3053 10006 3053 10088 3134 C 10133 3178 10170 3219 10170 3225 C 10170 3242 10119 3370 10112 3370 C 10108 3369 10043 3320 9968 3259 Z" style="stroke-opacity: 0.2; fill: rgb(54, 52, 58);"/>
    </g>
  </g>
  <g transform="matrix(0.4426666292358738, 0, 0, 0.4426666292358738, 128.49979409519307, 197.35219958722624)"/>
  <g transform="matrix(0.4426666292358736, 0, 0, 0.4426666292358736, 52.380461041031154, 58.196543847586355)"/>
  <g transform="matrix(0.4426666292358738, 0, 0, 0.4426666292358738, 171.31691893815918, 219.95012658768056)"/>
  <g transform="matrix(0.44266662923587374, 0, 0, 0.44266662923587374, 182.02120014890076, -20.301518364518216)"/>
  <g transform="matrix(0.4426666292358738, 0, 0, 0.4426666292358738, 46.433638146174715, 95.06684579569608)"/>
  <g transform="matrix(0.44266662923587363, 0, 0, 0.44266662923587363, 117.79551288445157, 279.4183555362447)"/>
  <g transform="matrix(0.21408562421483066, 0, 0, 0.21408562421483066, 871.908407416883, 97.5013264182779)"/>
  <g transform="matrix(0.4426666292358737, 0, 0, 0.4426666292358737, 117.79551288445155, 112.90731448026528)"/>
  <g transform="matrix(0.6422568726444919, 0, 0, 0.6422568726444919, 85.73842071686624, 86.79704520753634)"/>
  <g transform="matrix(0.6422568726444919, 0, 0, 0.6422568726444919, -143.80894302459103, 321.1018672648787)"/>
  <g transform="matrix(0.050464, -0.000213, -0.000193, -0.043448, 146.669052, 422.344727)" fill="#000000" stroke="none" style="">
    <path d="M -462.266 8478.987 C -501.442 8455.181 -535.214 8419.472 -562.232 8371.86 L -602.759 8300.442 L -606.811 4132.909 C -610.865 -458.668 -616.268 -101.578 -528.459 -201.267 C -437.95 -302.441 -655.444 -295.003 2063.902 -295.003 C 4248.294 -295.003 4523.876 -297.978 4523.876 -317.32 C 4523.876 -339.638 4418.507 -1815.609 4413.103 -1887.027 L 4409.05 -1924.224 L 3494.496 -1931.663 C 2396.221 -1940.59 2504.292 -1915.296 2504.292 -2163.771 L 2504.292 -2324.462 L 2550.223 -2358.682 L 2596.153 -2392.904 L 5330.359 -2392.904 C 8310.426 -2392.904 8141.564 -2397.367 8171.284 -2311.071 C 8190.197 -2257.507 8188.846 -2061.108 8169.934 -2014.984 C 8134.81 -1933.15 8126.705 -1931.663 7191.887 -1931.663 C 6384.054 -1931.663 6334.071 -1930.175 6334.071 -1904.881 C 6334.071 -1891.49 6309.755 -1547.792 6280.036 -1143.09 C 6250.316 -738.389 6226 -381.299 6226 -350.054 L 6226 -295.003 L 8681.921 -295.003 C 11027.07 -295.003 11139.194 -293.515 11190.528 -266.733 C 11268.879 -228.048 11326.968 -147.703 11345.881 -53.967 C 11356.688 4.061 11359.39 1105.086 11356.688 4161.178 C 11352.635 7982.038 11351.284 8300.442 11329.67 8342.103 C 11302.652 8398.642 11244.563 8458.156 11187.826 8489.403 C 11148.65 8511.72 10658.277 8513.208 5370.886 8513.208 L -402.826 8513.208 L -462.266 8478.987 Z M 11055.438 4109.103 L 11055.438 129.042 L 5372.236 124.578 L -312.317 121.603 L -312.317 4109.103 L -312.317 8096.603 L 5372.236 8093.628 L 11055.438 8089.165 L 11055.438 4109.103 Z" style="fill: rgb(39, 32, 45);"/>
    <circle style="fill: rgb(91, 205, 46);" transform="matrix(29.176287, -0.14316, -0.126175, -32.970428, -14570.022461, 15142.441406)" cx="506" cy="460" r="4.242640687119285"/>
    <circle style="fill: rgb(215, 193, 25);" transform="matrix(29.176296, -0.14316, -0.126175, -32.97044, -14193.586914, 15144.208984)" cx="506" cy="460" r="4.242640687119285"/>
    <circle style="fill: rgb(207, 19, 19);" transform="matrix(29.176296, -0.14316, -0.126175, -32.97044, -13807.083008, 15142.3125)" cx="506" cy="460" r="4.242640687119285"/>
  </g>
</svg>