<?xml version="1.0" encoding="utf-8"?>
<svg viewBox="0 0 500 500" xmlns="http://www.w3.org/2000/svg">
  <g transform="matrix(0.15265, 0, 0, -0.144105, -15.38501, 502.29892)" fill="#000000" stroke="none" style="">
    <g>
      <path d="M 1610 3474 C 1508 3459 1415 3431 1357 3397 C 1334 3384 1288 3358 1255 3340 C 1222 3322 1137 3273 1067 3233 C 996 3192 917 3147 892 3133 C 866 3119 796 3079 735 3045 C 675 3010 609 2973 590 2963 C 426 2870 371 2826 288 2722 C 214 2629 147 2491 120 2378 C 100 2295 100 2267 103 1718 L 105 1145 L 133 1067 C 187 913 256 801 365 695 C 422 639 472 604 620 520 C 722 462 821 407 840 397 C 859 386 885 372 897 364 C 909 357 934 342 952 332 C 970 321 1071 265 1175 205 C 1386 86 1423 67 1511 45 C 1705 -5 1937 13 2095 90 C 2128 106 2243 169 2350 230 C 2457 291 2657 405 2793 482 C 2968 582 3060 641 3104 681 C 3212 781 3318 954 3357 1097 C 3373 1159 3375 1214 3375 1755 C 3375 2303 3374 2349 3356 2405 C 3305 2570 3235 2686 3120 2800 C 3051 2868 2937 2943 2745 3046 C 2734 3052 2671 3087 2605 3125 C 2539 3162 2460 3207 2430 3223 C 2400 3240 2363 3261 2348 3272 C 2334 3282 2320 3290 2317 3290 C 2315 3290 2261 3319 2199 3355 C 2001 3469 1822 3505 1610 3474 Z M 1852 3275 C 1939 3264 2008 3232 2273 3082 C 2417 3000 2623 2883 2730 2822 C 2977 2682 3036 2628 3118 2464 C 3179 2344 3180 2322 3180 1736 C 3179 1212 3178 1204 3156 1135 C 3108 988 3033 876 2928 797 C 2910 783 2852 747 2800 718 C 2691 655 2249 404 2207 381 C 2191 372 2171 360 2162 355 C 1962 235 1830 201 1644 223 C 1541 235 1482 262 1172 438 C 1009 531 857 618 835 630 C 813 642 761 672 720 695 C 679 719 626 749 604 762 C 482 830 378 969 324 1135 C 302 1204 301 1212 301 1740 C 300 2249 301 2279 320 2348 C 365 2509 479 2668 598 2736 C 624 2750 665 2774 690 2788 C 715 2802 897 2905 1095 3018 C 1293 3131 1473 3231 1495 3240 C 1530 3255 1612 3272 1700 3283 C 1728 3287 1782 3284 1852 3275 Z" style="fill: rgb(83, 123, 123);"/>
      <path d="M 667.679 1022.638 C 632.669 1097.62 993.815 2551.444 1577.05 2921.643 C 1664.959 2977.443 1799.083 2975.16 1886.784 2919.013 C 2466.866 2547.635 2842.019 1116.209 2809.525 1034.066 C 2781.748 963.846 2539.108 932 2502.289 1002.19 C 2425.187 1149.172 2065.184 2557.706 1736.452 2551.626 C 1424.197 2545.851 1046.799 1165.194 976.096 1012.272 C 940.23 931.255 708.069 936.136 667.679 1022.638 Z" style="fill: rgb(83, 123, 123);"/>
    </g>
  </g>
</svg>