<?xml version="1.0" encoding="utf-8"?>
<svg viewBox="-300 0 800 500" xmlns="http://www.w3.org/2000/svg">
  <defs>
    <linearGradient gradientUnits="userSpaceOnUse" x1="100" y1="0" x2="100" y2="500" id="gradient-0" spreadMethod="repeat" gradientTransform="matrix(0.00181, -0.999999, 1.612016, 0.002917, -304.639717, 372.548817)">
      <stop offset="0" style="stop-color: rgba(222, 0, 41, 1)"/>
      <stop offset="1" style="stop-color: rgb(255, 122, 122);"/>
    </linearGradient>
  </defs>
  <rect x="-300" y="0.00" width="800" height="500" style="fill-rule: nonzero; fill: url(#gradient-0); paint-order: fill markers;"/>
  <g style="" transform="matrix(1.309768, 0, 0, 1.18785, -404.998749, -59.689724)">
    <g style="" transform="matrix(1.028524, 0, 0, 1.138077, -12.991674, -29.707937)">
      <polygon class="st1" points="128.5,191.5 120,218.2 92,218.5 114.7,234.7 106.5,260.8 128.5,244.8 150.9,260.5 142.3,234.4 &#10;&#9;&#9;&#9;&#9;164.7,217.8 137.2,218.2 &#9;&#9;&#9;" style="fill: rgb(255, 255, 255);"/>
      <polygon class="st1" points="216.6,191.5 208.1,218.2 180.1,218.5 202.8,234.7 194.6,260.8 216.6,244.8 238.9,260.5 230.4,234.4 &#10;&#9;&#9;&#9;&#9;252.8,217.8 225.2,218.2 &#9;&#9;&#9;" style="fill: rgb(255, 255, 255);"/>
      <polygon class="st1" points="305,191.5 296.5,218.2 268.5,218.5 291.2,234.7 283,260.8 305,244.8 327.4,260.5 318.8,234.4 &#10;&#9;&#9;&#9;&#9;341.2,217.8 313.8,218.2 &#9;&#9;&#9;" style="fill: rgb(255, 255, 255);"/>
      <polygon class="st1" points="260.5,252.3 252,279 224,279.3 246.7,295.5 238.5,321.6 260.5,305.6 282.9,321.3 274.4,295.2 &#10;&#9;&#9;&#9;&#9;296.7,278.7 269.2,279 &#9;&#9;&#9;" style="fill: rgb(255, 255, 255);"/>
      <polygon class="st1" points="172.3,252.3 163.8,279 135.8,279.3 158.5,295.5 150.3,321.6 172.3,305.6 194.6,321.3 186.1,295.2 &#10;&#9;&#9;&#9;&#9;208.4,278.7 181,279 &#9;&#9;&#9;" style="fill: rgb(255, 255, 255);"/>
      <polygon class="st1" points="349.1,252.3 340.6,279 312.6,279.3 335.3,295.5 327.1,321.6 349.1,305.6 371.5,321.3 362.9,295.2 &#10;&#9;&#9;&#9;&#9;385.3,278.7 357.9,279 &#9;&#9;&#9;" style="fill: rgb(255, 255, 255);"/>
      <polygon class="st1" points="393.4,191.5 384.8,218.2 356.9,218.5 379.6,234.7 371.4,260.8 393.4,244.8 415.7,260.5 407.2,234.4 &#10;&#9;&#9;&#9;&#9;429.5,217.8 402.1,218.2 &#9;&#9;&#9;" style="fill: rgb(255, 255, 255);"/>
    </g>
  </g>
  <g transform="matrix(0.053572, 0, 0, -0.051087, -33.584301, 608.960876)" fill="#000000" stroke="none" style="">
    <path d="M 5402.306 11878.925 C 4938.399 11826.511 4500.771 11614.839 4172.297 11283.22 C 3990.373 11100.779 3879.197 10943.537 3771.053 10719.77 C 3389.013 9928.52 3550.723 8986.077 4176.34 8365.173 C 4495.717 8047.665 4917.175 7840.025 5358.846 7782.571 C 5492.257 7765.436 5754.025 7762.412 5877.329 7777.532 C 6263.413 7825.914 6634.335 7981.14 6931.478 8220.026 C 7302.401 8519.391 7567.201 8952.814 7661.195 9415.468 C 7782.478 10014.197 7631.885 10638.125 7251.866 11112.875 C 6907.221 11543.274 6402.888 11819.455 5855.094 11878.925 C 5741.897 11892.029 5513.481 11891.021 5402.306 11878.925 Z" style="fill: rgb(255, 255, 255);"/>
    <path d="M 4224.853 7740.237 C 4202.618 7731.165 4136.923 7705.966 4080.324 7683.791 L 3975.213 7644.481 L 3841.802 7511.43 C 3502.21 7175.779 3296.03 6775.618 3193.95 6256.518 C 3168.683 6123.468 3138.362 5869.461 3138.362 5782.777 L 3138.362 5733.387 L 3217.196 5716.251 C 3382.949 5679.965 3527.477 5595.296 3661.899 5455.189 C 3922.657 5184.048 4070.217 4797.999 4103.57 4294.018 L 4109.634 4203.302 L 4015.64 4123.673 C 3964.095 4080.33 3917.603 4041.02 3913.561 4036.988 C 3908.507 4032.956 3910.529 4019.853 3916.593 4007.757 C 3936.806 3969.455 3931.753 3892.85 3906.486 3851.523 C 3862.015 3778.95 3750.84 3752.743 3683.123 3799.109 C 3631.578 3833.38 3603.279 3881.762 3603.279 3934.176 C 3603.279 3994.654 3628.546 4045.052 3673.017 4073.275 C 3723.551 4105.53 3763.979 4112.585 3813.502 4095.45 L 3855.951 4080.33 L 3941.86 4140.808 C 4039.897 4209.349 4034.843 4191.206 4017.662 4375.663 C 3967.127 4920.97 3719.508 5370.521 3373.853 5543.89 C 3245.495 5607.391 3055.486 5629.567 2921.064 5595.296 C 2516.788 5491.476 2204.485 5022.774 2138.791 4419.005 C 2132.727 4364.575 2127.673 4292.002 2127.673 4257.732 L 2128.684 4194.23 L 2205.496 4142.824 C 2276.244 4095.45 2285.341 4091.418 2315.661 4100.49 C 2388.431 4119.641 2475.35 4072.267 2506.681 3995.662 C 2549.13 3888.818 2467.265 3775.926 2346.993 3775.926 C 2229.753 3775.926 2147.887 3916.033 2207.518 4013.805 L 2226.721 4046.06 L 2136.769 4122.665 L 2046.818 4200.278 L 2046.818 4253.7 C 2046.818 4589.351 2170.122 5012.694 2344.971 5276.78 C 2481.414 5483.412 2681.531 5645.694 2859.412 5697.1 L 2924.096 5715.243 L 2930.16 5817.047 C 2974.63 6487.341 3189.907 7047.768 3558.809 7454.984 L 3618.439 7519.494 L 3519.392 7467.08 C 2996.866 7188.882 2527.906 6779.65 2165.069 6283.733 C 1745.633 5710.203 1465.672 4996.567 1371.678 4258.74 L 1352.475 4113.593 L 1418.169 4017.837 C 2053.893 3091.521 3159.587 2508.919 4619.022 2330.51 C 5027.34 2280.112 5692.373 2258.945 6109.788 2283.136 C 7391.342 2357.725 8376.763 2677.249 9141.855 3267.914 C 9368.249 3442.291 9686.616 3778.95 9859.444 4027.917 L 9912 4103.514 L 9905.936 4183.143 C 9888.754 4395.822 9811.942 4742.561 9720.98 5018.742 C 9593.633 5408.823 9438.997 5723.307 9207.55 6069.038 C 8869.98 6572.01 8448.522 6981.242 7929.028 7311.854 C 7803.703 7391.482 7575.287 7518.486 7575.287 7508.406 C 7575.287 7505.382 7607.629 7469.095 7647.046 7426.761 C 7854.237 7205.01 8046.268 6893.55 8166.54 6585.114 C 8203.935 6487.341 8274.684 6251.479 8284.791 6191.001 C 8286.812 6175.881 8302.983 6168.826 8358.571 6157.738 C 8443.469 6141.611 8572.837 6080.125 8639.542 6024.687 C 8741.622 5940.019 8820.456 5815.031 8853.809 5686.012 C 8873.012 5609.407 8873.012 5460.229 8853.809 5383.624 C 8798.221 5163.889 8612.254 4976.408 8393.945 4919.962 C 8309.047 4897.787 8165.529 4896.779 8081.642 4918.954 C 7870.408 4973.384 7696.57 5135.666 7629.864 5341.29 C 7591.458 5460.229 7591.458 5610.415 7629.864 5728.347 C 7689.495 5911.796 7833.013 6060.974 8013.926 6129.515 C 8086.696 6156.73 8084.674 6143.627 8034.14 6321.028 C 7913.868 6738.324 7692.527 7113.285 7383.256 7425.753 C 7222.556 7588.035 6985.045 7776.524 6964.831 7757.372 C 6962.809 7754.348 6661.624 7224.161 6296.765 6578.058 C 5931.907 5931.955 5623.646 5388.664 5612.529 5370.521 L 5592.315 5337.258 L 5006.115 6428.88 C 4683.706 7029.624 4391.616 7573.923 4358.264 7638.433 C 4318.847 7712.014 4289.537 7756.364 4280.441 7756.364 C 4272.355 7755.356 4247.088 7748.301 4224.853 7740.237 Z M 6958.767 4592.375 L 6958.767 4380.703 L 7171.011 4380.703 L 7383.256 4380.703 L 7383.256 4199.27 L 7383.256 4017.837 L 7171.011 4017.837 L 6958.767 4017.837 L 6958.767 3806.165 L 6958.767 3594.493 L 6776.843 3594.493 L 6594.919 3594.493 L 6594.919 3806.165 L 6594.919 4017.837 L 6377.62 4017.837 L 6160.322 4017.837 L 6160.322 4199.27 L 6160.322 4380.703 L 6377.62 4380.703 L 6594.919 4380.703 L 6594.919 4592.375 L 6594.919 4804.047 L 6776.843 4804.047 L 6958.767 4804.047 L 6958.767 4592.375 Z" style="fill: rgb(255, 255, 255);"/>
    <path d="M8140 5981 c-142 -46 -234 -134 -279 -269 -84 -247 95 -517 357 -539 125 -10 237 31 328 121 221 222 127 593 -173 686 -79 24 -160 25 -233 1z" style="fill: rgb(255, 255, 255);"/>
  </g>
</svg>