<?xml version="1.0" encoding="utf-8"?>
<svg viewBox="0 0 800 500" xmlns="http://www.w3.org/2000/svg">
  <rect x="0" y="0" width="800" height="500" style="fill-rule: evenodd; paint-order: fill; fill: rgb(127, 136, 132);"/>
  <g transform="matrix(0.214058, 0, 0, 0.212934, 18.300495, 0.991266)" style=""/>
  <g transform="matrix(0.214058, 0, 0, 0.212934, 18.300495, 0.991266)" style=""/>
  <g transform="matrix(0.214058, 0, 0, 0.212934, 18.300495, 0.991266)" style=""/>
  <g transform="matrix(0.214058, 0, 0, 0.212934, 18.300495, 0.991266)" style=""/>
  <g transform="matrix(0.214058, 0, 0, 0.212934, 18.300495, 0.991266)" style=""/>
  <g transform="matrix(0.214058, 0, 0, 0.212934, 18.300495, 0.991266)" style=""/>
  <g transform="matrix(0.214058, 0, 0, 0.212934, 18.300495, 0.991266)" style=""/>
  <g transform="matrix(0.214058, 0, 0, 0.212934, 18.300495, 0.991266)" style=""/>
  <g transform="matrix(0.214058, 0, 0, 0.212934, 18.300495, 0.991266)" style=""/>
  <g transform="matrix(0.214058, 0, 0, 0.212934, 18.300495, 0.991266)" style=""/>
  <g transform="matrix(0.214058, 0, 0, 0.212934, 18.300495, 0.991266)" style=""/>
  <g transform="matrix(0.214058, 0, 0, 0.212934, 18.300495, 0.991266)" style=""/>
  <g transform="matrix(0.214058, 0, 0, 0.212934, 18.300495, 0.991266)" style=""/>
  <g transform="matrix(0.214058, 0, 0, 0.212934, 18.300495, 0.991266)" style=""/>
  <g transform="matrix(0.214058, 0, 0, 0.212934, 18.300495, 0.991266)" style=""/>
  <g transform="matrix(0.442667, 0, 0, 0.442667, 46.915539, 8.138019)"/>
  <g transform="matrix(0.442667, 0, 0, 0.442667, -29.203798, -131.017639)"/>
  <g transform="matrix(0.442667, 0, 0, 0.442667, 89.732666, 30.735949)"/>
  <g transform="matrix(0.442667, 0, 0, 0.442667, 100.436935, -209.515701)"/>
  <g transform="matrix(0.442667, 0, 0, 0.442667, -35.150623, -94.147339)"/>
  <g transform="matrix(0.442667, 0, 0, 0.442667, 36.211246, 90.204178)"/>
  <g transform="matrix(0.214086, 0, 0, 0.214086, 790.324097, -91.71286)"/>
  <g transform="matrix(0.442667, 0, 0, 0.442667, 36.211246, -76.30687)"/>
  <g transform="matrix(0.642257, 0, 0, 0.642257, 4.154157, -102.417145)"/>
  <g transform="matrix(0.642257, 0, 0, 0.642257, -225.393204, 131.88768)"/>
  <g transform="matrix(0.339095, 0, 0, 0.339095, 197.821136, -77.6754)"/>
  <g transform="matrix(1, 0, 0, 1, 13.670881, -226.052521)"/>
  <g transform="matrix(0.537197, 0, 0, 0.537197, -104.096878, -102.680901)"/>
  <g transform="matrix(0.537197, 0, 0, 0.537197, -116.185684, -136.932526)"/>
  <g transform="matrix(0.543996, 0, 0, 0.543996, -91.701126, -112.440094)"/>
  <g transform="matrix(0.494602, 0, 0, 0.494602, -149.862778, -98.084633)"/>
  <g transform="matrix(1, 0, 0, 1, -242.445786, -187.637558)"/>
  <g transform="matrix(1, 0, 0, 1, -242.445786, -187.637558)"/>
  <g transform="matrix(1, 0, 0, 1, -242.445786, -187.637558)"/>
  <g transform="matrix(1, 0, 0, 1, -242.445786, -187.637558)"/>
  <g transform="matrix(1, 0, 0, 1, -242.445786, -187.637558)"/>
  <g transform="matrix(1, 0, 0, 1, -242.445786, -187.637558)"/>
  <g transform="matrix(1, 0, 0, 1, -242.445786, -187.637558)"/>
  <g transform="matrix(1, 0, 0, 1, -242.445786, -187.637558)"/>
  <g transform="matrix(1, 0, 0, 1, -242.445786, -187.637558)"/>
  <g transform="matrix(1, 0, 0, 1, -242.445786, -187.637558)"/>
  <g transform="matrix(1, 0, 0, 1, -242.445786, -187.637558)"/>
  <g transform="matrix(1, 0, 0, 1, -242.445786, -187.637558)"/>
  <g transform="matrix(1, 0, 0, 1, -242.445786, -187.637558)"/>
  <g transform="matrix(1, 0, 0, 1, -242.445786, -187.637558)"/>
  <g transform="matrix(1, 0, 0, 1, -242.445786, -187.637558)"/>
  <g transform="matrix(1, 0, 0, 1, -703.405884, -126.380798)"/>
  <g transform="matrix(1, 0, 0, 1, -703.405884, -126.380798)"/>
  <g transform="matrix(1, 0, 0, 1, -703.405884, -126.380798)"/>
  <g transform="matrix(1, 0, 0, 1, -703.405884, -126.380798)"/>
  <g transform="matrix(1, 0, 0, 1, -703.405884, -126.380798)"/>
  <g transform="matrix(1, 0, 0, 1, -703.405884, -126.380798)"/>
  <g transform="matrix(1, 0, 0, 1, -703.405884, -126.380798)"/>
  <g transform="matrix(1, 0, 0, 1, -703.405884, -126.380798)"/>
  <g transform="matrix(1, 0, 0, 1, -703.405884, -126.380798)"/>
  <g transform="matrix(1, 0, 0, 1, -703.405884, -126.380798)"/>
  <g transform="matrix(1, 0, 0, 1, -703.405884, -126.380798)"/>
  <g transform="matrix(1, 0, 0, 1, -703.405884, -126.380798)"/>
  <g transform="matrix(1, 0, 0, 1, -703.405884, -126.380798)"/>
  <g transform="matrix(1, 0, 0, 1, -703.405884, -126.380798)"/>
  <g transform="matrix(1, 0, 0, 1, -703.405884, -126.380798)"/>
  <g transform="matrix(0.880422, 0, 0, 0.90168, -219.528839, -169.697372)" style=""/>
  <g transform="matrix(0.880422, 0, 0, 0.90168, -219.528839, -169.697372)" style=""/>
  <g transform="matrix(0.880422, 0, 0, 0.90168, -219.528839, -169.697372)" style=""/>
  <g transform="matrix(0.880422, 0, 0, 0.90168, -219.528839, -169.697372)" style=""/>
  <g transform="matrix(0.880422, 0, 0, 0.90168, -219.528839, -169.697372)" style=""/>
  <g transform="matrix(0.880422, 0, 0, 0.90168, -219.528839, -169.697372)" style=""/>
  <g transform="matrix(0.880422, 0, 0, 0.90168, -219.528839, -169.697372)" style=""/>
  <g transform="matrix(0.880422, 0, 0, 0.90168, -219.528839, -169.697372)" style=""/>
  <g transform="matrix(0.880422, 0, 0, 0.90168, -219.528839, -169.697372)" style=""/>
  <g transform="matrix(0.880422, 0, 0, 0.90168, -219.528839, -169.697372)" style=""/>
  <g transform="matrix(0.880422, 0, 0, 0.90168, -219.528839, -169.697372)" style=""/>
  <g transform="matrix(0.880422, 0, 0, 0.90168, -219.528839, -169.697372)" style=""/>
  <g transform="matrix(0.880422, 0, 0, 0.90168, -219.528839, -169.697372)" style=""/>
  <g transform="matrix(0.880422, 0, 0, 0.90168, -219.528839, -169.697372)" style=""/>
  <g transform="matrix(0.880422, 0, 0, 0.90168, -219.528839, -169.697372)" style=""/>
  <g transform="matrix(1, 0, 0, 1, -545.776855, -178.658173)"/>
  <g transform="matrix(1, 0, 0, 1, -545.776855, -178.658173)"/>
  <g transform="matrix(1, 0, 0, 1, -545.776855, -178.658173)"/>
  <g transform="matrix(1, 0, 0, 1, -545.776855, -178.658173)"/>
  <g transform="matrix(1, 0, 0, 1, -545.776855, -178.658173)"/>
  <g transform="matrix(1, 0, 0, 1, -545.776855, -178.658173)"/>
  <g transform="matrix(1, 0, 0, 1, -545.776855, -178.658173)"/>
  <g transform="matrix(1, 0, 0, 1, -545.776855, -178.658173)"/>
  <g transform="matrix(1, 0, 0, 1, -545.776855, -178.658173)"/>
  <g transform="matrix(1, 0, 0, 1, -545.776855, -178.658173)"/>
  <g transform="matrix(1, 0, 0, 1, -545.776855, -178.658173)"/>
  <g transform="matrix(1, 0, 0, 1, -545.776855, -178.658173)"/>
  <g transform="matrix(1, 0, 0, 1, -545.776855, -178.658173)"/>
  <g transform="matrix(1, 0, 0, 1, -545.776855, -178.658173)"/>
  <g transform="matrix(1, 0, 0, 1, -545.776855, -178.658173)"/>
  <g transform="matrix(1, 0, 0, 1, -583.433289, -88.227539)"/>
  <g transform="matrix(1, 0, 0, 1, -583.433289, -88.227539)"/>
  <g transform="matrix(1, 0, 0, 1, -583.433289, -88.227539)"/>
  <g transform="matrix(1, 0, 0, 1, -583.433289, -88.227539)"/>
  <g transform="matrix(1, 0, 0, 1, -583.433289, -88.227539)"/>
  <g transform="matrix(1, 0, 0, 1, -583.433289, -88.227539)"/>
  <g transform="matrix(1, 0, 0, 1, -583.433289, -88.227539)"/>
  <g transform="matrix(1, 0, 0, 1, -583.433289, -88.227539)"/>
  <g transform="matrix(1, 0, 0, 1, -583.433289, -88.227539)"/>
  <g transform="matrix(1, 0, 0, 1, -583.433289, -88.227539)"/>
  <g transform="matrix(1, 0, 0, 1, -583.433289, -88.227539)"/>
  <g transform="matrix(1, 0, 0, 1, -583.433289, -88.227539)"/>
  <g transform="matrix(1, 0, 0, 1, -583.433289, -88.227539)"/>
  <g transform="matrix(1, 0, 0, 1, -583.433289, -88.227539)"/>
  <g transform="matrix(1, 0, 0, 1, -583.433289, -88.227539)"/>
  <g fill="#838383" transform="matrix(1.045604, 0, 0, 0.893472, -250.648972, -163.360733)" style=""/>
  <g transform="matrix(1.665854, 0, 0, 1.311676, -30.528778, -42.019028)" style=""/>
  <g transform="matrix(0.442667, 0, 0, 0.442667, 994.540546, 48.622276)"/>
  <g transform="matrix(0.442667, 0, 0, 0.442667, 918.421207, -90.533382)"/>
  <g transform="matrix(0.442667, 0, 0, 0.442667, 1037.357669, 71.220207)"/>
  <g transform="matrix(0.442667, 0, 0, 0.442667, 1048.061939, -169.031444)"/>
  <g transform="matrix(0.442667, 0, 0, 0.442667, 912.474384, -53.663078)"/>
  <g transform="matrix(0.442667, 0, 0, 0.442667, 983.836254, 130.688439)"/>
  <g transform="matrix(0.214086, 0, 0, 0.214086, 1737.949131, -51.228599)"/>
  <g transform="matrix(0.442667, 0, 0, 0.442667, 983.836254, -35.822609)"/>
  <g transform="matrix(0.642257, 0, 0, 0.642257, 951.779163, -61.932884)"/>
  <g transform="matrix(0.642257, 0, 0, 0.642257, 722.2318, 172.371941)"/>
  <g transform="matrix(0.339095, 0, 0, 0.339095, 1145.44614, -37.191139)"/>
  <g transform="matrix(1, 0, 0, 1, 961.295887, -185.568268)"/>
  <g transform="matrix(0.537197, 0, 0, 0.537197, 843.528129, -62.19664)"/>
  <g transform="matrix(0.537197, 0, 0, 0.537197, 831.439319, -96.448261)"/>
  <g transform="matrix(0.543996, 0, 0, 0.543996, 855.92388, -71.955833)"/>
  <g transform="matrix(0.494602, 0, 0, 0.494602, 797.762226, -57.600372)"/>
  <g transform="matrix(1, 0, 0, 1, 705.179218, -147.153297)"/>
  <g transform="matrix(1, 0, 0, 1, 705.179218, -147.153297)"/>
  <g transform="matrix(1, 0, 0, 1, 705.179218, -147.153297)"/>
  <g transform="matrix(1, 0, 0, 1, 705.179218, -147.153297)"/>
  <g transform="matrix(1, 0, 0, 1, 705.179218, -147.153297)"/>
  <g transform="matrix(1, 0, 0, 1, 705.179218, -147.153297)"/>
  <g transform="matrix(1, 0, 0, 1, 705.179218, -147.153297)"/>
  <g transform="matrix(1, 0, 0, 1, 705.179218, -147.153297)"/>
  <g transform="matrix(1, 0, 0, 1, 705.179218, -147.153297)"/>
  <g transform="matrix(1, 0, 0, 1, 705.179218, -147.153297)"/>
  <g transform="matrix(1, 0, 0, 1, 705.179218, -147.153297)"/>
  <g transform="matrix(1, 0, 0, 1, 705.179218, -147.153297)"/>
  <g transform="matrix(1, 0, 0, 1, 705.179218, -147.153297)"/>
  <g transform="matrix(1, 0, 0, 1, 705.179218, -147.153297)"/>
  <g transform="matrix(1, 0, 0, 1, 705.179218, -147.153297)"/>
  <g transform="matrix(1.306942, 0, 0, 1.289991, 630.690708, -227.111984)" style=""/>
  <g transform="matrix(1, 0, 0, 1, 630.690708, -207.273991)"/>
  <g transform="matrix(1, 0, 0, 1, 630.690708, -207.273991)"/>
  <g transform="matrix(1, 0, 0, 1, 630.690708, -207.273991)"/>
  <g transform="matrix(1, 0, 0, 1, 630.690708, -207.273991)"/>
  <g transform="matrix(1, 0, 0, 1, 630.690708, -207.273991)"/>
  <g transform="matrix(1, 0, 0, 1, 630.690708, -207.273991)"/>
  <g transform="matrix(1, 0, 0, 1, 630.690708, -207.273991)"/>
  <g transform="matrix(1, 0, 0, 1, 630.690708, -207.273991)"/>
  <g transform="matrix(1, 0, 0, 1, 630.690708, -207.273991)"/>
  <g transform="matrix(1, 0, 0, 1, 630.690708, -207.273991)"/>
  <g transform="matrix(1, 0, 0, 1, 630.690708, -207.273991)"/>
  <g transform="matrix(1, 0, 0, 1, 630.690708, -207.273991)"/>
  <g transform="matrix(1, 0, 0, 1, 630.690708, -207.273991)"/>
  <g transform="matrix(1, 0, 0, 1, 630.690708, -207.273991)"/>
  <g transform="matrix(1, 0, 0, 1, 630.690708, -207.273991)"/>
  <g transform="matrix(1.240838, 0, 0, 1.545789, -3.531851, -441.706757)" style="">
    <g>
      <path d="m44.685 510.18 7.4365 16.041 109.07 50.655 213.59-33.77 60.318-10.975 28.094-35.459 1.6526-40.524-422.23 15.197 2.0657 38.836z" stroke="#000" stroke-width="3.2446" style="fill: rgb(131, 144, 131);"/>
      <path d="m210.92 448.74 266.27 4.2937 33.628-28.59-120.78-4.0463-40.889 5.8074-69.312 2.5628-38.422-7.5258-71.077 3.944z" stroke="#000" stroke-width="3.2446" style="fill: rgb(131, 144, 131);"/>
      <path d="m510.99 424.95-123.34-4.186-36.904 2.093-2.9135-20.93 3.8847-41.86h-63.142l-10.039 38.202 1.3145 30.867-40.043-6.649-70.67 4.556 34.962-51.278 85.913-24.428 63.346-0.36999 121.7 13.286 35.933 60.697z" stroke="#000" stroke-width="3.2446" style="fill: rgb(131, 144, 131);"/>
      <path d="m391.86 421.34-43.263-24.05 0.11781 30.545 43.145-6.4957z" stroke="#000" stroke-width="1.335e-5" style="fill: rgb(131, 144, 131);"/>
      <path d="m279.24 428.37c0-1.85-0.34336-30.339-0.34336-30.339l-39.486 23.68 39.83 6.6598z" stroke="#000" stroke-width="1.335e-5" style="fill: rgb(131, 144, 131);"/>
      <path d="m353.39 359.55-67.247 0.0943-7.8523 34.816 0.28824 35.345 72.186-1.2678-2.6253-31.697c3.8336-27.468 5.2506-37.291 5.2506-37.291z" stroke="#000" stroke-width="1.335e-5" style="fill: rgb(131, 144, 131);"/>
      <path d="m190.31 526.56 7.4365 16.041 114.03 53.188 208.64-36.303 60.318-10.975 28.094-35.459 1.6526-40.524-422.23 15.197 2.0657 38.836z" stroke="#000" stroke-width="1.335e-5" style="fill: rgb(131, 144, 131);"/>
      <path transform="matrix(2.1185 0 0 2.1368 -79.073 141.56)" d="m198.72 192.03a12.871 16.989 0 1 1 -25.742 0 12.871 16.989 0 1 1 25.742 0z" stroke-width="0" style="fill: rgb(131, 144, 131);"/>
      <path transform="matrix(2.1266 0 0 2.1169 -110.35 148.06)" d="m244.54 188.17a10.297 14.158 0 1 1 -20.593 0 10.297 14.158 0 1 1 20.593 0z" stroke-width="0" style="fill: rgb(131, 144, 131);"/>
      <path transform="matrix(2.4966 0 0 2.1283 -223.06 152.14)" d="m271.32 184.05a6.9502 12.099 0 1 1 -13.9 0 6.9502 12.099 0 1 1 13.9 0z" stroke-width="0" style="fill: rgb(131, 144, 131);"/>
      <path transform="matrix(2.3777 0 0 2.0934 -149.49 152.66)" d="m271.32 184.05a6.9502 12.099 0 1 1 -13.9 0 6.9502 12.099 0 1 1 13.9 0z" stroke-width="0" style="fill: rgb(131, 144, 131);"/>
      <path transform="matrix(2.2588 0 0 1.9888 -81.704 167.28)" d="m271.32 184.05a6.9502 12.099 0 1 1 -13.9 0 6.9502 12.099 0 1 1 13.9 0z" stroke-width="0" style="fill: rgb(131, 144, 131);"/>
      <path transform="matrix(1.8427 0 0 1.6748 59.284 223.81)" d="m271.32 184.05a6.9502 12.099 0 1 1 -13.9 0 6.9502 12.099 0 1 1 13.9 0z" stroke="#000" stroke-width="1.7e-7" style="fill: rgb(131, 144, 131);"/>
      <path transform="matrix(1.7238 0 0 1.605 118.67 230.18)" d="m271.32 184.05a6.9502 12.099 0 1 1 -13.9 0 6.9502 12.099 0 1 1 13.9 0z" stroke="#000" stroke-width="2.42e-6" style="fill: rgb(131, 144, 131);"/>
      <path d="m215.46 489.01c-12.279 0.80276-23.849 13.394-23.26 36.091l6.3646 13.717s0.71901 1.8608 29.181 14.503c9.278-4.7961 14.196-18.141 14.196-31.821 0-17.951-11.259-32.49-25.178-32.49-0.43494 0-0.87449-0.028-1.304 0z" stroke="#000" stroke-width="1.335e-5" style="fill: rgb(131, 144, 131);"/>
      <path d="m616.64 477s-3.3051 37.147-3.3051 37.147l-26.24 41.368-277.25 48.617-118.3-53.93-13.634-23.217 0.41315-43.479 11.568 16.041 0.41314 27.016 8.6759 14.847 113.88 52.941 268.68-44.148 25.756-37.147 2.3371-33.77 6.994-2.2855z" stroke="#000" stroke-width="3.2446" style="fill: rgb(131, 144, 131);"/>
      <path d="m140.97 498 2.9213 29.252 14.282 19.133 118.65 54.15 33.315 3.974-118.92-55.169-11.372-20.647-2.0657-44.424-8.1798-9.5516-11.685 9.5516 6.427 13.73h-23.371z" stroke="#000" stroke-width="3.2446" style="fill: rgb(131, 144, 131);"/>
      <path d="m60.925 498-26.351-4.1788 1.7285-32.604 22.527-11.078 83.893 3.6843-18.697 18.506 7.0112-5.3728-75.955 5.9698 5.8427 25.073z" stroke="#000" stroke-width="3.2446" style="fill: rgb(131, 144, 131);"/>
      <path d="m144.84 533.97-9.5832-67.85-83.091-0.34971 14.607 53.728 78.067 14.472z" stroke="#000" stroke-width="3.2446" style="fill: rgb(131, 144, 131);"/>
      <path d="m602.9 509.39-388.16 23.033-44.427-59.396 3.8894-9.338 148.73-16.484 296.96 13.61 2.6793 19.768c-21.936-5.7359-20.927 7.8154-19.672 28.807z" stroke="#000" stroke-width="3.2446" style="paint-order: stroke markers; fill: rgb(131, 144, 131);"/>
      <path d="m170.18 473.82-11.685 10.149 4.5653 12.989-36.608-1.45-3.013-21.986s21.034-23.879 29.798-25.073 167.98-1.194 167.98-1.194l-146.36 16.715-4.6742 9.8501z" stroke="#000" stroke-width="3.2446" style="fill: rgb(131, 144, 131);"/>
      <path d="m171.08 300.23c-1.3984-0.0477-2.833 0.0507-4.2632 0.30748-11.441 2.054-19.019 13.454-16.952 25.469 1.6332 9.4975 8.8136 16.471 17.404 17.987l-0.0501 0.1025 134.62 58.266 0.20062-0.35872c1.7942 0.65764 3.7313 0.86907 5.7177 0.51246 6.3563-1.1411 10.552-7.5808 9.379-14.4-0.53307-3.0999-2.0816-5.7318-4.213-7.5844l0.40124-0.81993-129.15-74.153c-3.602-3.23-8.196-5.1627-13.09-5.3296z" stroke="#000" stroke-width="3.2446" style="fill: rgb(131, 144, 131);"/>
      <g transform="matrix(1.5951 0 0 1.6846 69.643 472.1)" stroke="#000" stroke-width="4.95e-6">
        <path transform="matrix(.7197 0 0 .7003 8.8205 -75.401)" d="m84.947-21.365c0 6.2553-5.3014 11.326-11.841 11.326s-11.841-5.0709-11.841-11.326 5.3014-11.326 11.841-11.326 11.841 5.0709 11.841 11.326z" fill-opacity=".99419" stroke="#000" stroke-width="6.97e-6" style="fill: rgb(131, 144, 131);"/>
      </g>
    </g>
  </g>
</svg>