<svg xmlns="http://www.w3.org/2000/svg" width="1200" height="630" viewBox="0 0 1200 630" role="img" aria-label="Conversor Binario">
<defs><linearGradient id="bg" x1="0" x2="1"><stop stop-color="#effcf3"/><stop offset="1" stop-color="#d9f7e3"/></linearGradient><filter id="s"><feDropShadow dx="0" dy="12" stdDeviation="18" flood-opacity=".12"/></filter></defs>
<rect width="1200" height="630" rx="28" fill="url(#bg)"/><circle cx="150" cy="490" r="150" fill="#b9efcb" opacity=".55"/><circle cx="1000" cy="120" r="160" fill="#b9efcb" opacity=".45"/>
<rect x="265" y="100" width="690" height="430" rx="26" fill="#fff" filter="url(#s)"/><rect x="265" y="100" width="690" height="58" rx="26" fill="#f4fbf6"/><circle cx="305" cy="129" r="9" fill="#ff6b5f"/><circle cx="335" cy="129" r="9" fill="#ffc542"/><circle cx="365" cy="129" r="9" fill="#29c46d"/>
<g font-family="Arial,sans-serif" font-size="18"><rect x="315" y="190" width="130" height="48" rx="10" fill="#18b767"/><text x="352" y="220" fill="#fff" font-weight="700">BIN</text><rect x="455" y="190" width="130" height="48" rx="10" fill="#eef3f5"/><text x="495" y="220" fill="#42525d">DEC</text><rect x="595" y="190" width="130" height="48" rx="10" fill="#eef3f5"/><text x="636" y="220" fill="#42525d">HEX</text></g>
<rect x="315" y="270" width="530" height="95" rx="14" fill="#fbfcfd" stroke="#d7e1e6"/><text x="342" y="322" font-family="monospace" font-size="28" fill="#334954">01001000 01101111 01101100 01100001</text>
<rect x="315" y="395" width="250" height="62" rx="12" fill="#16b864"/><text x="375" y="434" font-family="Arial,sans-serif" font-size="22" font-weight="700" fill="#fff">Convertir →</text><rect x="585" y="395" width="260" height="62" rx="12" fill="#eef3f5"/><text x="651" y="434" font-family="Arial,sans-serif" font-size="22" font-weight="700" fill="#42525d">← Invertir</text>
<g transform="translate(70 180)"><rect x="0" y="40" width="170" height="230" rx="18" fill="#fff" transform="rotate(-8 85 155)" filter="url(#s)"/><text x="30" y="105" font-family="monospace" font-size="34" font-weight="700" fill="#0aa85a">0101</text><text x="30" y="155" font-family="monospace" font-size="34" font-weight="700" fill="#0aa85a">0110</text><text x="30" y="205" font-family="monospace" font-size="34" font-weight="700" fill="#0aa85a">0101</text></g>
<path d="M135 165c35-45 88-59 140-36" fill="none" stroke="#13b663" stroke-width="18" stroke-linecap="round"/><path d="M272 125l-12 52-45-29" fill="#13b663"/>
</svg>