<svg xmlns="http://www.w3.org/2000/svg" width="1200" height="630" viewBox="0 0 1200 630" role="img" aria-label="Analizador SEO de URL">
<defs><linearGradient id="bg" x1="0" x2="1"><stop stop-color="#eaf6ff"/><stop offset="1" stop-color="#cfe9ff"/></linearGradient><filter id="s" x="-20%" y="-20%" width="140%" height="140%"><feDropShadow dx="0" dy="12" stdDeviation="18" flood-opacity=".14"/></filter></defs>
<rect width="1200" height="630" rx="28" fill="url(#bg)"/><circle cx="930" cy="115" r="150" fill="#9fd3ff" opacity=".5"/><circle cx="140" cy="530" r="150" fill="#9fd3ff" opacity=".35"/>
<rect x="250" y="115" width="800" height="390" rx="26" fill="#fff" filter="url(#s)"/><rect x="250" y="115" width="800" height="58" rx="26" fill="#f4f8fb"/><circle cx="290" cy="144" r="9" fill="#ff6b5f"/><circle cx="320" cy="144" r="9" fill="#ffc542"/><circle cx="350" cy="144" r="9" fill="#29c46d"/>
<rect x="315" y="205" width="390" height="54" rx="12" fill="#f4f8fb"/><text x="340" y="240" font-family="Arial,sans-serif" font-size="23" fill="#52616c">https://www.ejemplo.com</text><rect x="720" y="205" width="120" height="54" rx="12" fill="#1678f2"/><text x="748" y="239" font-family="Arial,sans-serif" font-size="20" font-weight="700" fill="#fff">Analizar</text>
<circle cx="885" cy="298" r="64" fill="none" stroke="#dbe7ef" stroke-width="18"/><circle cx="885" cy="298" r="64" fill="none" stroke="#2ac56f" stroke-width="18" stroke-dasharray="326 402" transform="rotate(-90 885 298)"/><text x="852" y="310" font-family="Arial,sans-serif" font-size="40" font-weight="700" fill="#203044">85</text>
<rect x="315" y="300" width="390" height="155" rx="16" fill="#f8fbfd"/><rect x="345" y="333" width="220" height="16" rx="8" fill="#8fa4ff"/><rect x="345" y="367" width="305" height="12" rx="6" fill="#d6e2eb"/><rect x="345" y="396" width="260" height="12" rx="6" fill="#d6e2eb"/><rect x="345" y="425" width="180" height="12" rx="6" fill="#54cd83"/>
<g font-family="Arial,sans-serif" font-size="18" fill="#334954"><circle cx="800" cy="392" r="11" fill="#26c66d"/><text x="822" y="398">Título</text><circle cx="800" cy="425" r="11" fill="#26c66d"/><text x="822" y="431">Meta description</text><circle cx="800" cy="458" r="11" fill="#ffb12c"/><text x="822" y="464">Imágenes</text></g>
<g transform="translate(80 260)"><circle cx="112" cy="112" r="70" fill="none" stroke="#173d70" stroke-width="18"/><rect x="153" y="160" width="34" height="110" rx="17" fill="#173d70" transform="rotate(-45 170 215)"/></g>
</svg>