<?xml version="1.0" encoding="utf-8"?>
<svg viewBox="-301.086 0 800 500" xmlns="http://www.w3.org/2000/svg">
  <defs>
    <linearGradient id="gradient-1" gradientUnits="userSpaceOnUse" x1="98.902" y1="0.013" x2="98.902" y2="500.013" gradientTransform="matrix(0.46747, -0.884009, 0.378227, 0.200009, 52.663353, 87.440646)">
      <stop offset="0" style="stop-color: rgba(165, 206, 255, 1)"/>
      <stop offset="1" style="stop-color: rgba(63, 150, 255, 1)"/>
    </linearGradient>
  </defs>
  <rect x="-301.098" y="0.013" width="800" height="500" style="fill: url(#gradient-1);"/>
  <g transform="matrix(0.4426666292358738, 0, 0, 0.4426666292358738, 128.49979409519307, 197.35219958722624)"/>
  <g transform="matrix(0.4426666292358736, 0, 0, 0.4426666292358736, 52.380461041031154, 58.196543847586355)"/>
  <g transform="matrix(0.4426666292358738, 0, 0, 0.4426666292358738, 171.31691893815918, 219.95012658768056)"/>
  <g transform="matrix(0.44266662923587374, 0, 0, 0.44266662923587374, 182.02120014890076, -20.301518364518216)"/>
  <g transform="matrix(0.4426666292358738, 0, 0, 0.4426666292358738, 46.433638146174715, 95.06684579569608)"/>
  <g transform="matrix(0.44266662923587363, 0, 0, 0.44266662923587363, 117.79551288445157, 279.4183555362447)"/>
  <g transform="matrix(0.21408562421483066, 0, 0, 0.21408562421483066, 871.908407416883, 97.5013264182779)"/>
  <g transform="matrix(0.4426666292358737, 0, 0, 0.4426666292358737, 117.79551288445155, 112.90731448026528)"/>
  <g transform="matrix(0.6422568726444919, 0, 0, 0.6422568726444919, 85.73842071686624, 86.79704520753634)"/>
  <g transform="matrix(0.6422568726444919, 0, 0, 0.6422568726444919, -143.80894302459103, 321.1018672648787)"/>
  <g transform="matrix(0.33909455302282754, 0, 0, 0.33909455302282754, 279.405392842632, 111.5387898264971)"/>
  <g transform="matrix(1, 0, 0, 1, 95.255139, -36.838341)"/>
  <g transform="matrix(0.5371964555705776, 0, 0, 0.5371964555705776, -22.51261549502567, 86.5332904526514)"/>
  <g transform="matrix(0.5371964555705776, 0, 0, 0.5371964555705776, -34.60142462178973, 52.28166459348658)"/>
  <g transform="matrix(0.5439964107043824, 0, 0, 0.5439964107043824, -10.116863949027419, 76.77409558469084)"/>
  <g transform="matrix(0.4946022921629949, 0, 0, 0.4946022921629949, -68.27851723469556, 91.12955642272316)"/>
  <g transform="matrix(1, 0, 0, 1, -160.861526, 1.57663)"/>
  <g transform="matrix(1, 0, 0, 1, -160.861526, 1.57663)"/>
  <g transform="matrix(1, 0, 0, 1, -160.861526, 1.57663)"/>
  <g transform="matrix(1, 0, 0, 1, -160.861526, 1.57663)"/>
  <g transform="matrix(1, 0, 0, 1, -160.861526, 1.57663)"/>
  <g transform="matrix(1, 0, 0, 1, -160.861526, 1.57663)"/>
  <g transform="matrix(1, 0, 0, 1, -160.861526, 1.57663)"/>
  <g transform="matrix(1, 0, 0, 1, -160.861526, 1.57663)"/>
  <g transform="matrix(1, 0, 0, 1, -160.861526, 1.57663)"/>
  <g transform="matrix(1, 0, 0, 1, -160.861526, 1.57663)"/>
  <g transform="matrix(1, 0, 0, 1, -160.861526, 1.57663)"/>
  <g transform="matrix(1, 0, 0, 1, -160.861526, 1.57663)"/>
  <g transform="matrix(1, 0, 0, 1, -160.861526, 1.57663)"/>
  <g transform="matrix(1, 0, 0, 1, -160.861526, 1.57663)"/>
  <g transform="matrix(1, 0, 0, 1, -160.861526, 1.57663)"/>
  <g transform="matrix(0.968429, 0, 0, 0.974153, -134.577164, -3.867457)" style="">
    <path style="fill:#1B3D66;" d="M310.354,501.692c-2.725,0-5.354-1.49-6.681-4.083l-40.933-79.917 c-1.888-3.687-0.431-8.206,3.256-10.095c3.687-1.884,8.206-0.431,10.094,3.257l40.933,79.917c1.888,3.687,0.431,8.206-3.256,10.095 C312.673,501.426,311.505,501.692,310.354,501.692z"/>
    <path style="fill:#1B3D66;" d="M136.384,501.692c-1.151,0-2.319-0.266-3.413-0.826c-3.687-1.889-5.145-6.408-3.256-10.095 l40.933-79.917c1.889-3.688,6.41-5.144,10.094-3.257c3.687,1.889,5.145,6.408,3.256,10.095l-40.933,79.917 C141.737,500.202,139.109,501.692,136.384,501.692z"/>
  </g>
  <path style="fill: rgb(242, 223, 51);" d="M -56.688 390.392 L -56.688 367.007 L 220.168 367.007 L 220.168 390.392 C 220.168 395.531 216.026 399.698 210.917 399.698 L -47.437 399.698 C -52.546 399.698 -56.688 395.531 -56.688 390.392 Z"/>
  <path style="fill: rgb(252, 171, 41);" d="M 196.684 367.007 L 196.684 390.392 C 196.684 395.531 192.542 399.698 187.432 399.698 L 210.917 399.698 C 216.026 399.698 220.168 395.531 220.168 390.392 L 220.168 367.007 L 196.684 367.007 Z"/>
  <path style="fill: rgb(242, 223, 51);" d="M 48.691 38.865 L 48.691 17.197 C 48.691 11.109 53.598 6.173 59.651 6.173 L 103.829 6.173 C 109.882 6.173 114.789 11.109 114.789 17.197 L 114.789 38.864 L 48.691 38.864 L 48.691 38.865 Z"/>
  <path style="fill: rgb(252, 171, 41);" d="M 103.829 6.174 L 80.178 6.174 C 86.231 6.174 91.138 11.11 91.138 17.198 L 91.138 38.865 L 114.789 38.865 L 114.789 17.198 C 114.789 11.109 109.882 6.174 103.829 6.174 Z"/>
  <path style="fill: rgb(235, 238, 242);" d="M 277.511 31.558 L -114.032 31.558 C -125.36 31.558 -134.577 40.829 -134.577 52.225 L -134.577 353.647 C -134.577 365.042 -125.36 374.313 -114.032 374.313 L 277.511 374.313 C 288.839 374.313 298.056 365.042 298.056 353.647 L 298.056 52.225 C 298.057 40.829 288.84 31.558 277.511 31.558 Z"/>
  <path style="fill: rgb(209, 214, 222);" d="M 277.511 31.558 L 253.199 31.558 C 264.528 31.558 273.744 40.829 273.744 52.225 L 273.744 353.647 C 273.744 365.042 264.528 374.313 253.199 374.313 L 277.511 374.313 C 288.839 374.313 298.056 365.042 298.056 353.647 L 298.056 52.225 C 298.057 40.829 288.84 31.558 277.511 31.558 Z"/>
  <g transform="matrix(0.968429, 0, 0, 0.974153, -134.577164, -3.867457)" style="">
    <path style="fill:#1B3D66;" d="M135.335,199.336c-2.612,0-5.149-1.366-6.53-3.8c-2.044-3.603-0.781-8.18,2.822-10.225 l38.408-21.794c3.601-2.044,8.18-0.78,10.224,2.822c2.044,3.603,0.781,8.18-2.822,10.225l-38.408,21.794 C137.861,199.021,136.59,199.336,135.335,199.336z"/>
    <path style="fill:#1B3D66;" d="M242.566,199.336c-1.254,0-2.525-0.314-3.694-0.978l-38.408-21.794 c-3.603-2.045-4.866-6.622-2.822-10.225c2.044-3.604,6.621-4.866,10.224-2.822l38.408,21.794c3.603,2.045,4.866,6.622,2.822,10.225 C247.715,197.97,245.177,199.336,242.566,199.336z"/>
    <path style="fill:#1B3D66;" d="M267.965,193.759c-1.511,0-3.036-0.455-4.358-1.401c-3.368-2.411-4.145-7.096-1.734-10.464 l48.465-67.727c2.411-3.369,7.095-4.146,10.464-1.735c3.368,2.411,4.145,7.096,1.734,10.464l-48.465,67.727 C272.606,192.669,270.303,193.759,267.965,193.759z"/>
  </g>
  <g transform="matrix(0.968429, 0, 0, 0.974153, -134.577164, -3.867457)" style="">
    <path style="fill:#48CFB7;" d="M104.902,274.326v60.273c0,1.657,1.343,3,3,3h24.427c1.657,0,3-1.343,3-3v-60.273 c0-1.657-1.343-3-3-3h-24.427C106.245,271.326,104.902,272.669,104.902,274.326z"/>
    <path style="fill:#48CFB7;" d="M173.738,235.998v98.6c0,1.657,1.343,3,3,3h24.427c1.657,0,3-1.343,3-3v-98.6c0-1.657-1.343-3-3-3 h-24.427C175.081,232.998,173.738,234.342,173.738,235.998z"/>
    <path style="fill:#48CFB7;" d="M242.573,274.326v60.273c0,1.657,1.343,3,3,3H270c1.657,0,3-1.343,3-3v-60.273c0-1.657-1.343-3-3-3 h-24.427C243.916,271.326,242.573,272.669,242.573,274.326z"/>
    <path style="fill:#48CFB7;" d="M311.409,206.111v128.488c0,1.657,1.343,3,3,3h24.427c1.657,0,3-1.343,3-3V206.111 c0-1.657-1.343-3-3-3h-24.427C312.752,203.111,311.409,204.454,311.409,206.111z"/>
  </g>
  <path style="fill: rgb(237, 85, 117);" d="M 263.692 298.031 L 321.006 397.889 C 326.962 408.267 340.154 411.822 350.469 405.83 L 350.469 405.83 C 360.786 399.839 364.32 386.569 358.364 376.193 L 301.051 276.335 L 263.692 298.031 Z"/>
  <path style="fill: rgb(204, 58, 96);" d="M 301.051 276.335 L 263.692 298.031 L 286.034 336.958 C 292.741 334.58 299.329 331.556 305.711 327.849 C 312.094 324.143 317.991 319.916 323.392 315.261 L 301.051 276.335 Z"/>
  <circle style="fill: rgb(242, 223, 51);" cx="255.185" cy="232.006" r="95.96" transform="matrix(0.968429, 0, 0, 0.974153, 0.223852, 0.159552)"/>
  <circle style="fill: rgb(92, 156, 238);" cx="255.185" cy="232.006" r="67.53" transform="matrix(0.968429, 0, 0, 0.974153, 0.223852, 0.159552)"/>
  <path style="fill: rgb(242, 223, 51);" d="M 48.409 129.003 C 35.059 129.003 24.198 139.928 24.198 153.357 C 24.198 166.786 35.059 177.712 48.409 177.712 C 61.758 177.712 72.619 166.786 72.619 153.357 C 72.619 139.928 61.758 129.003 48.409 129.003 Z"/>
  <path style="fill: rgb(92, 156, 238);" d="M -18.254 167.076 C -31.604 167.076 -42.465 178.002 -42.465 191.431 C -42.465 204.859 -31.604 215.785 -18.254 215.785 C -4.904 215.785 5.957 204.859 5.957 191.431 C 5.957 178.002 -4.904 167.076 -18.254 167.076 Z"/>
  <path style="fill: rgb(237, 85, 117);" d="M 115.071 167.076 C 101.722 167.076 90.861 178.002 90.861 191.431 C 90.861 204.859 101.722 215.785 115.071 215.785 C 128.422 215.785 139.283 204.859 139.283 191.431 C 139.283 178.002 128.421 167.076 115.071 167.076 Z"/>
  <path style="fill: rgb(159, 212, 121);" d="M 181.734 73.393 C 168.384 73.393 157.523 84.32 157.523 97.748 C 157.523 111.177 168.384 122.102 181.734 122.102 C 195.084 122.102 205.945 111.177 205.945 97.748 C 205.945 84.32 195.084 73.393 181.734 73.393 Z"/>
  <g transform="matrix(1, 0, 0, 1, -621.821572, 62.83339)"/>
  <g transform="matrix(1, 0, 0, 1, -621.821572, 62.83339)"/>
  <g transform="matrix(1, 0, 0, 1, -621.821572, 62.83339)"/>
  <g transform="matrix(1, 0, 0, 1, -621.821572, 62.83339)"/>
  <g transform="matrix(1, 0, 0, 1, -621.821572, 62.83339)"/>
  <g transform="matrix(1, 0, 0, 1, -621.821572, 62.83339)"/>
  <g transform="matrix(1, 0, 0, 1, -621.821572, 62.83339)"/>
  <g transform="matrix(1, 0, 0, 1, -621.821572, 62.83339)"/>
  <g transform="matrix(1, 0, 0, 1, -621.821572, 62.83339)"/>
  <g transform="matrix(1, 0, 0, 1, -621.821572, 62.83339)"/>
  <g transform="matrix(1, 0, 0, 1, -621.821572, 62.83339)"/>
  <g transform="matrix(1, 0, 0, 1, -621.821572, 62.83339)"/>
  <g transform="matrix(1, 0, 0, 1, -621.821572, 62.83339)"/>
  <g transform="matrix(1, 0, 0, 1, -621.821572, 62.83339)"/>
  <g transform="matrix(1, 0, 0, 1, -621.821572, 62.83339)"/>
</svg>