<?xml version="1.0" encoding="utf-8"?>
<svg viewBox="-300 0 800 500" xmlns="http://www.w3.org/2000/svg">
  <rect x="-300" y="0.00" width="800" height="500" style="paint-order: stroke; fill: rgb(255, 255, 172);"/>
  <path d="M -11.944 139.766 L -44.513 139.766 L -44.513 71.483 L -93.368 71.483 L -93.368 44.17 L -11.944 44.17 Z M -11.944 139.766" fill="#3e5959" style=""/>
  <path d="M 248.614 139.766 L 216.045 139.766 L 216.045 44.17 L 297.469 44.17 L 297.469 71.483 L 248.614 71.483 Z M 248.614 139.766" fill="#293939" style=""/>
  <path d="M 85.765 85.14 L 118.336 85.14 L 118.336 139.766 L 85.765 139.766 Z M 85.765 85.14" fill="#3e5959" style=""/>
  <path d="M 102.05 85.14 L 118.336 85.14 L 118.336 139.766 L 102.05 139.766 Z M 102.05 85.14" fill="#293939" style=""/>
  <path d="M 85.765 359.185 L 118.336 359.185 L 118.336 413.812 L 85.765 413.812 Z M 85.765 359.185" fill="#3e5959" style=""/>
  <path d="M 102.05 359.185 L 118.336 359.185 L 118.336 413.812 L 102.05 413.812 Z M 102.05 359.185" fill="#293939" style=""/>
  <path d="M -11.944 455.692 L -93.368 455.692 L -93.368 427.468 L -44.513 427.468 L -44.513 359.185 L -11.944 359.185 Z M -11.944 455.692" fill="#3e5959" style=""/>
  <path d="M 297.469 455.692 L 216.045 455.692 L 216.045 359.185 L 248.614 359.185 L 248.614 427.468 L 297.469 427.468 Z M 297.469 455.692" fill="#293939" style=""/>
  <path d="M 281.185 180.737 L 281.185 372.841 L -77.084 372.841 L -77.084 180.737 L -44.513 153.423 L 248.614 153.423 Z M 281.185 180.737" fill="#deecf1" style=""/>
  <path d="M 281.185 180.737 L 281.185 372.841 L 102.05 372.841 L 102.05 153.423 L 248.614 153.423 Z M 281.185 180.737" fill="#c5d3dd" style=""/>
  <path d="M 183.474 126.11 L 281.185 126.11 L 281.185 180.737 L 183.474 180.737 L 150.905 153.423 Z M 183.474 126.11" fill="#00c0f1" style=""/>
  <path d="M -77.084 126.11 L 183.474 126.11 L 183.474 180.737 L -77.084 180.737 Z M -77.084 126.11" fill="#537983" style=""/>
  <path d="M 102.05 126.11 L 183.474 126.11 L 183.474 180.737 L 102.05 180.737 Z M 102.05 126.11" fill="#3e5959" style=""/>
  <path d="M -77.084 98.797 L -175.879 98.797 L -175.879 16.856 L -77.084 16.856 Z M -77.084 98.797" fill="#25d9f8" style=""/>
  <path d="M 53.196 16.856 L 53.196 98.797 L 150.905 98.797 L 150.905 16.856 Z M 53.196 16.856" fill="#25d9f8" style=""/>
  <path d="M 379.98 98.797 L 281.185 98.797 L 281.185 16.856 L 379.98 16.856 Z M 379.98 98.797" fill="#00c0f1" style=""/>
  <path d="M 379.98 483.005 L 281.185 483.005 L 281.185 400.155 L 379.98 400.155 Z M 379.98 483.005" fill="#00c0f1" style=""/>
  <path d="M 53.196 400.155 L 53.196 483.005 L 150.905 483.005 L 150.905 400.155 Z M 53.196 400.155" fill="#25d9f8" style=""/>
  <path d="M -77.084 483.005 L -175.879 483.005 L -175.879 400.155 L -77.084 400.155 Z M -77.084 483.005" fill="#25d9f8" style=""/>
  <path d="M -11.944 236.274 L 150.905 236.274 L 150.905 263.588 L -11.944 263.588 Z M -11.944 236.274" style="fill: rgb(255, 255, 255);"/>
  <path d="M 183.474 236.274 L 216.045 236.274 L 216.045 263.588 L 183.474 263.588 Z M 183.474 236.274" style="fill: rgb(222, 236, 241);"/>
  <path d="M -11.944 290.901 L 150.905 290.901 L 150.905 318.214 L -11.944 318.214 Z M -11.944 290.901" style="fill: rgb(255, 255, 255);"/>
  <path d="M 183.474 290.901 L 216.045 290.901 L 216.045 318.214 L 183.474 318.214 Z M 183.474 290.901" style="fill: rgb(222, 236, 241);"/>
  <path d="M 102.05 16.856 L 150.905 16.856 L 150.905 98.797 L 102.05 98.797 Z M 102.05 16.856" fill="#00c0f1" style=""/>
  <path d="M 102.05 400.155 L 150.905 400.155 L 150.905 483.005 L 102.05 483.005 Z M 102.05 400.155" fill="#00c0f1" style=""/>
  <g fill="#9facba" transform="matrix(1.085661, 0, 0, 0.910448, -175.879105, 16.856422)" style="">
    <path d="m256 241h45v30h-45zm0 0" style="fill: rgb(222, 236, 241);"/>
    <path d="m256 301h45v30h-45zm0 0" style="fill: rgb(222, 236, 241);"/>
  </g>
</svg>