<svg xmlns="http://www.w3.org/2000/svg" width="1200" height="630" viewBox="0 0 1200 630" role="img" aria-labelledby="t"><title id="t">Cómo mejorar la velocidad de WordPress paso a paso</title><rect width="1200" height="630" fill="#f7f9fb"/><circle cx="122" cy="135" r="150" fill="#f1c40f" opacity=".07"/><circle cx="985" cy="425" r="190" fill="#f1c40f" opacity=".055"/><path d="M60 520C260 460 340 570 530 505S850 420 1140 485" fill="none" stroke="#f1c40f" stroke-width="3" opacity=".16"/><rect x="325" y="110" width="550" height="410" rx="34" fill="#fff" stroke="#e7ebf0" stroke-width="3"/><rect x="325" y="110" width="550" height="54" rx="34" fill="#f1c40f" opacity=".12"/><circle cx="365" cy="137" r="8" fill="#f1c40f" opacity=".55"/><circle cx="392" cy="137" r="8" fill="#f1c40f" opacity=".35"/><circle cx="419" cy="137" r="8" fill="#f1c40f" opacity=".2"/><rect x="480" y="215" width="240" height="190" rx="22" fill="#fff" stroke="#f1c40f" stroke-width="10"/><path d="M520 360l45-62 42 28 58-82" fill="none" stroke="#f1c40f" stroke-width="16" stroke-linecap="round" stroke-linejoin="round"/><circle cx="520" cy="360" r="10" fill="#f1c40f"/><circle cx="565" cy="298" r="10" fill="#f1c40f"/><circle cx="607" cy="326" r="10" fill="#f1c40f"/><circle cx="665" cy="244" r="10" fill="#f1c40f"/></svg>