<?xml version="1.0" encoding="utf-8"?>
<svg viewBox="-301.086 0 800 500" xmlns="http://www.w3.org/2000/svg">
  <defs>
    <pattern id="pattern-0" x="0" y="0" width="25" height="25" patternUnits="userSpaceOnUse" viewBox="0 0 100 100">
      <rect x="0" y="0" width="50" height="100" style="fill: black;"/>
    </pattern>
  </defs>
  <rect x="-301.081" y="0.01" width="800" height="500" style="paint-order: stroke; fill: rgb(255, 122, 122);"/>
  <g transform="matrix(0.4426666292358738, 0, 0, 0.4426666292358738, 128.49979409519307, 197.35219958722624)"/>
  <g transform="matrix(0.4426666292358736, 0, 0, 0.4426666292358736, 52.380461041031154, 58.196543847586355)"/>
  <g transform="matrix(0.4426666292358738, 0, 0, 0.4426666292358738, 171.31691893815918, 219.95012658768056)"/>
  <g transform="matrix(0.44266662923587374, 0, 0, 0.44266662923587374, 182.02120014890076, -20.301518364518216)"/>
  <g transform="matrix(0.4426666292358738, 0, 0, 0.4426666292358738, 46.433638146174715, 95.06684579569608)"/>
  <g transform="matrix(0.44266662923587363, 0, 0, 0.44266662923587363, 117.79551288445157, 279.4183555362447)"/>
  <g transform="matrix(0.21408562421483066, 0, 0, 0.21408562421483066, 871.908407416883, 97.5013264182779)"/>
  <g transform="matrix(0.4426666292358737, 0, 0, 0.4426666292358737, 117.79551288445155, 112.90731448026528)"/>
  <g transform="matrix(0.6422568726444919, 0, 0, 0.6422568726444919, 85.73842071686624, 86.79704520753634)"/>
  <g transform="matrix(0.6422568726444919, 0, 0, 0.6422568726444919, -143.80894302459103, 321.1018672648787)"/>
  <g transform="matrix(0.33909455302282754, 0, 0, 0.33909455302282754, 279.405392842632, 111.5387898264971)"/>
  <g transform="matrix(1, 0, 0, 1, 95.255139, -36.838341)"/>
  <g transform="matrix(0.5371964555705776, 0, 0, 0.5371964555705776, -22.51261549502567, 86.5332904526514)"/>
  <g transform="matrix(0.5371964555705776, 0, 0, 0.5371964555705776, -34.60142462178973, 52.28166459348658)"/>
  <g transform="matrix(0.5439964107043824, 0, 0, 0.5439964107043824, -10.116863949027419, 76.77409558469084)"/>
  <g transform="matrix(0.4946022921629949, 0, 0, 0.4946022921629949, -68.27851723469556, 91.12955642272316)"/>
  <g transform="matrix(1, 0, 0, 1, -160.861526, 1.57663)"/>
  <g transform="matrix(1, 0, 0, 1, -160.861526, 1.57663)"/>
  <g transform="matrix(1, 0, 0, 1, -160.861526, 1.57663)"/>
  <g transform="matrix(1, 0, 0, 1, -160.861526, 1.57663)"/>
  <g transform="matrix(1, 0, 0, 1, -160.861526, 1.57663)"/>
  <g transform="matrix(1, 0, 0, 1, -160.861526, 1.57663)"/>
  <g transform="matrix(1, 0, 0, 1, -160.861526, 1.57663)"/>
  <g transform="matrix(1, 0, 0, 1, -160.861526, 1.57663)"/>
  <g transform="matrix(1, 0, 0, 1, -160.861526, 1.57663)"/>
  <g transform="matrix(1, 0, 0, 1, -160.861526, 1.57663)"/>
  <g transform="matrix(1, 0, 0, 1, -160.861526, 1.57663)"/>
  <g transform="matrix(1, 0, 0, 1, -160.861526, 1.57663)"/>
  <g transform="matrix(1, 0, 0, 1, -160.861526, 1.57663)"/>
  <g transform="matrix(1, 0, 0, 1, -160.861526, 1.57663)"/>
  <g transform="matrix(1, 0, 0, 1, -160.861526, 1.57663)"/>
  <g transform="matrix(1, 0, 0, 1, -621.821572, 62.83339)"/>
  <g transform="matrix(1, 0, 0, 1, -621.821572, 62.83339)"/>
  <g transform="matrix(1, 0, 0, 1, -621.821572, 62.83339)"/>
  <g transform="matrix(1, 0, 0, 1, -621.821572, 62.83339)"/>
  <g transform="matrix(1, 0, 0, 1, -621.821572, 62.83339)"/>
  <g transform="matrix(1, 0, 0, 1, -621.821572, 62.83339)"/>
  <g transform="matrix(1, 0, 0, 1, -621.821572, 62.83339)"/>
  <g transform="matrix(1, 0, 0, 1, -621.821572, 62.83339)"/>
  <g transform="matrix(1, 0, 0, 1, -621.821572, 62.83339)"/>
  <g transform="matrix(1, 0, 0, 1, -621.821572, 62.83339)"/>
  <g transform="matrix(1, 0, 0, 1, -621.821572, 62.83339)"/>
  <g transform="matrix(1, 0, 0, 1, -621.821572, 62.83339)"/>
  <g transform="matrix(1, 0, 0, 1, -621.821572, 62.83339)"/>
  <g transform="matrix(1, 0, 0, 1, -621.821572, 62.83339)"/>
  <g transform="matrix(1, 0, 0, 1, -621.821572, 62.83339)"/>
  <g transform="matrix(0.880422, 0, 0, 0.90168, -137.94458, 19.516808)" style=""/>
  <g transform="matrix(0.880422, 0, 0, 0.90168, -137.94458, 19.516808)" style=""/>
  <g transform="matrix(0.880422, 0, 0, 0.90168, -137.94458, 19.516808)" style=""/>
  <g transform="matrix(0.880422, 0, 0, 0.90168, -137.94458, 19.516808)" style=""/>
  <g transform="matrix(0.880422, 0, 0, 0.90168, -137.94458, 19.516808)" style=""/>
  <g transform="matrix(0.880422, 0, 0, 0.90168, -137.94458, 19.516808)" style=""/>
  <g transform="matrix(0.880422, 0, 0, 0.90168, -137.94458, 19.516808)" style=""/>
  <g transform="matrix(0.880422, 0, 0, 0.90168, -137.94458, 19.516808)" style=""/>
  <g transform="matrix(0.880422, 0, 0, 0.90168, -137.94458, 19.516808)" style=""/>
  <g transform="matrix(0.880422, 0, 0, 0.90168, -137.94458, 19.516808)" style=""/>
  <g transform="matrix(0.880422, 0, 0, 0.90168, -137.94458, 19.516808)" style=""/>
  <g transform="matrix(0.880422, 0, 0, 0.90168, -137.94458, 19.516808)" style=""/>
  <g transform="matrix(0.880422, 0, 0, 0.90168, -137.94458, 19.516808)" style=""/>
  <g transform="matrix(0.880422, 0, 0, 0.90168, -137.94458, 19.516808)" style=""/>
  <g transform="matrix(0.880422, 0, 0, 0.90168, -137.94458, 19.516808)" style=""/>
  <g transform="matrix(1, 0, 0, 1, -464.192605, 10.556013)"/>
  <g transform="matrix(1, 0, 0, 1, -464.192605, 10.556013)"/>
  <g transform="matrix(1, 0, 0, 1, -464.192605, 10.556013)"/>
  <g transform="matrix(1, 0, 0, 1, -464.192605, 10.556013)"/>
  <g transform="matrix(1, 0, 0, 1, -464.192605, 10.556013)"/>
  <g transform="matrix(1, 0, 0, 1, -464.192605, 10.556013)"/>
  <g transform="matrix(1, 0, 0, 1, -464.192605, 10.556013)"/>
  <g transform="matrix(1, 0, 0, 1, -464.192605, 10.556013)"/>
  <g transform="matrix(1, 0, 0, 1, -464.192605, 10.556013)"/>
  <g transform="matrix(1, 0, 0, 1, -464.192605, 10.556013)"/>
  <g transform="matrix(1, 0, 0, 1, -464.192605, 10.556013)"/>
  <g transform="matrix(1, 0, 0, 1, -464.192605, 10.556013)"/>
  <g transform="matrix(1, 0, 0, 1, -464.192605, 10.556013)"/>
  <g transform="matrix(1, 0, 0, 1, -464.192605, 10.556013)"/>
  <g transform="matrix(1, 0, 0, 1, -464.192605, 10.556013)"/>
  <g transform="matrix(1, 0, 0, 1, -501.849037, 100.986649)"/>
  <g transform="matrix(1, 0, 0, 1, -501.849037, 100.986649)"/>
  <g transform="matrix(1, 0, 0, 1, -501.849037, 100.986649)"/>
  <g transform="matrix(1, 0, 0, 1, -501.849037, 100.986649)"/>
  <g transform="matrix(1, 0, 0, 1, -501.849037, 100.986649)"/>
  <g transform="matrix(1, 0, 0, 1, -501.849037, 100.986649)"/>
  <g transform="matrix(1, 0, 0, 1, -501.849037, 100.986649)"/>
  <g transform="matrix(1, 0, 0, 1, -501.849037, 100.986649)"/>
  <g transform="matrix(1, 0, 0, 1, -501.849037, 100.986649)"/>
  <g transform="matrix(1, 0, 0, 1, -501.849037, 100.986649)"/>
  <g transform="matrix(1, 0, 0, 1, -501.849037, 100.986649)"/>
  <g transform="matrix(1, 0, 0, 1, -501.849037, 100.986649)"/>
  <g transform="matrix(1, 0, 0, 1, -501.849037, 100.986649)"/>
  <g transform="matrix(1, 0, 0, 1, -501.849037, 100.986649)"/>
  <g transform="matrix(1, 0, 0, 1, -501.849037, 100.986649)"/>
  <path d="M 23.51 399.067 L 173.094 399.067 L 173.094 451.97 L 23.51 451.97 Z M 23.51 399.067" fill="#5a5a5a" style=""/>
  <path d="M 338.217 406.476 L -141.613 406.476 C -156.775 406.476 -169.065 395.975 -169.065 383.019 L -169.065 49.311 C -169.065 36.356 -156.775 25.854 -141.613 25.854 L 338.217 25.854 C 353.379 25.854 365.669 36.356 365.669 49.311 L 365.669 383.019 C 365.669 395.975 353.379 406.476 338.217 406.476 Z M 338.217 406.476" style="fill: rgb(51, 50, 47);"/>
  <path d="M 365.671 49.314 L 365.671 383.019 C 365.671 395.975 353.382 406.476 338.221 406.476 L 304.688 406.476 C 319.85 406.476 332.14 395.975 332.14 383.019 L 332.14 49.314 C 332.14 36.359 319.85 25.858 304.688 25.858 L 338.221 25.858 C 353.382 25.858 365.671 36.359 365.671 49.314 Z M 365.671 49.314" style="fill: rgb(82, 78, 69);"/>
  <path d="M 365.669 349.964 L -169.065 349.964 L -169.065 383.019 C -169.065 395.975 -156.775 406.476 -141.613 406.476 L 338.217 406.476 C 353.379 406.476 365.669 395.975 365.669 383.019 Z M 365.669 349.964" style="fill: rgb(202, 202, 202);"/>
  <path d="M 365.671 349.961 L 365.671 383.019 C 365.671 395.975 353.382 406.476 338.221 406.476 L 304.688 406.476 C 319.85 406.476 332.14 395.975 332.14 383.019 L 332.14 349.961 Z M 365.671 349.961" style="fill: rgb(215, 215, 215);"/>
  <path d="M 366.28 105.875 L -168.468 105.875 L -168.468 49.311 C -168.468 36.356 -156.178 25.854 -141.021 25.854 L 338.83 25.854 C 353.991 25.854 366.28 36.356 366.28 49.311 Z M 366.28 105.875" style="fill: rgb(202, 202, 202);"/>
  <path d="M 366.284 49.308 L 366.284 105.879 L 332.14 105.879 L 332.14 49.308 C 332.14 36.359 319.85 25.858 304.683 25.858 L 338.833 25.858 C 353.995 25.858 366.284 36.359 366.284 49.308 Z M 366.284 49.308" style="fill: rgb(215, 215, 215);"/>
  <path d="M 221.566 482.798 L -24.963 482.798 C -27.933 482.798 -30.343 480.739 -30.343 478.201 L -30.343 463.302 C -30.343 453.199 -20.756 445.008 -8.932 445.008 L 205.535 445.008 C 217.36 445.008 226.947 453.199 226.947 463.302 L 226.947 478.201 C 226.947 480.739 224.535 482.798 221.566 482.798 Z M 221.566 482.798" fill="#838383" style=""/>
  <path d="M 226.947 463.298 L 226.947 478.205 C 226.947 480.743 224.535 482.801 221.563 482.801 L 202.57 482.801 L 202.57 463.298 C 202.57 453.202 192.984 445.008 181.167 445.008 L 205.543 445.008 C 217.364 445.008 226.947 453.199 226.947 463.298 Z M 226.947 463.298" fill="#5a5a5a" style=""/>
  <g fill="#838383" transform="matrix(1.045604, 0, 0, 0.893472, -169.064713, 25.853451)" style="">
    <path d="m58.476562 186.492188c-1.917968 0-3.839843-.730469-5.304687-2.195313l-24.199219-24.203125c-2.929687-2.925781-2.929687-7.675781 0-10.605469l24.199219-24.199219c2.929687-2.929687 7.679687-2.929687 10.609375 0 2.929688 2.929688 2.929688 7.675782 0 10.605469l-18.898438 18.898438 18.898438 18.898437c2.929688 2.929688 2.929688 7.675782 0 10.605469-1.464844 1.464844-3.386719 2.195313-5.304688 2.195313zm0 0" style="fill: rgb(141, 193, 81);"/>
    <path d="m116.335938 186.492188c-1.917969 0-3.839844-.730469-5.304688-2.195313-2.929688-2.929687-2.929688-7.679687 0-10.605469l18.898438-18.898437-18.898438-18.898438c-2.929688-2.929687-2.929688-7.679687 0-10.605469 2.929688-2.929687 7.679688-2.929687 10.609375 0l24.199219 24.199219c2.929687 2.929688 2.929687 7.679688 0 10.605469l-24.199219 24.203125c-1.464844 1.464844-3.386719 2.195313-5.304687 2.195313zm0 0" style="fill: rgb(141, 193, 81);"/>
    <path d="m78.722656 186.496094c-.914062 0-1.839844-.167969-2.742187-.523438-3.855469-1.511718-5.753907-5.867187-4.238281-9.722656l19.015624-48.402344c1.515626-3.851562 5.871094-5.753906 9.722657-4.238281 3.855469 1.515625 5.753906 5.871094 4.238281 9.726563l-19.015625 48.398437c-1.160156 2.957031-3.988281 4.761719-6.980469 4.761719zm0 0" style="fill: rgb(141, 193, 81);"/>
    <path d="m90.644531 231.78125h-52c-4.140625 0-7.5-3.359375-7.5-7.5 0-4.144531 3.359375-7.5 7.5-7.5h52c4.144531 0 7.5 3.355469 7.5 7.5 0 4.140625-3.355469 7.5-7.5 7.5zm0 0" style="fill: rgb(120, 160, 199);"/>
    <path d="m210.417969 231.78125h-91.425781c-4.140626 0-7.5-3.359375-7.5-7.5 0-4.144531 3.359374-7.5 7.5-7.5h91.425781c4.144531 0 7.5 3.355469 7.5 7.5 0 4.140625-3.355469 7.5-7.5 7.5zm0 0" style="fill: rgb(255, 254, 254);"/>
    <path d="m60.796875 264.335938h-22.152344c-4.140625 0-7.5-3.355469-7.5-7.5 0-4.140626 3.359375-7.5 7.5-7.5h22.152344c4.144531 0 7.5 3.359374 7.5 7.5 0 4.144531-3.359375 7.5-7.5 7.5zm0 0" style="fill: rgb(120, 160, 199);"/>
    <path d="m195.667969 264.335938h-13.492188c-4.140625 0-7.5-3.355469-7.5-7.5 0-4.140626 3.359375-7.5 7.5-7.5h13.492188c4.140625 0 7.5 3.359374 7.5 7.5 0 4.144531-3.359375 7.5-7.5 7.5zm0 0" style="fill: rgb(214, 77, 95);"/>
    <path d="m154.140625 264.335938h-66.257813c-4.144531 0-7.5-3.355469-7.5-7.5 0-4.140626 3.355469-7.5 7.5-7.5h66.257813c4.144531 0 7.5 3.359374 7.5 7.5 0 4.144531-3.359375 7.5-7.5 7.5zm0 0" style="fill: rgb(255, 254, 254);"/>
    <path d="m245.414062 264.335938h-25.269531c-4.140625 0-7.5-3.355469-7.5-7.5 0-4.140626 3.359375-7.5 7.5-7.5h25.269531c4.140626 0 7.5 3.359374 7.5 7.5 0 4.144531-3.359374 7.5-7.5 7.5zm0 0" style="fill: rgb(235, 229, 120);"/>
    <path d="m197.039062 160.761719h-26.652343c-4.144531 0-7.5-3.355469-7.5-7.5 0-4.140625 3.355469-7.5 7.5-7.5h26.652343c4.144532 0 7.5 3.359375 7.5 7.5 0 4.144531-3.355468 7.5-7.5 7.5zm0 0" style="fill: rgb(120, 160, 199);"/>
    <path d="m389.503906 160.761719h-162.617187c-4.140625 0-7.5-3.355469-7.5-7.5 0-4.140625 3.359375-7.5 7.5-7.5h162.617187c4.140625 0 7.5 3.359375 7.5 7.5 0 4.144531-3.359375 7.5-7.5 7.5zm0 0" style="fill: rgb(255, 254, 254);"/>
    <path d="m364.800781 194.726562h-65.867187c-4.144532 0-7.5-3.355468-7.5-7.5 0-4.140624 3.355468-7.5 7.5-7.5h65.867187c4.144531 0 7.5 3.359376 7.5 7.5 0 4.144532-3.355469 7.5-7.5 7.5zm0 0" style="fill: rgb(255, 254, 254);"/>
    <path d="m274.230469 194.726562h-22.644531c-4.140626 0-7.5-3.355468-7.5-7.5 0-4.140624 3.359374-7.5 7.5-7.5h22.644531c4.144531 0 7.5 3.359376 7.5 7.5 0 4.144532-3.355469 7.5-7.5 7.5zm0 0" style="fill: rgb(214, 77, 95);"/>
    <path d="m225.859375 194.726562h-55.476563c-4.140624 0-7.5-3.355468-7.5-7.5 0-4.140624 3.359376-7.5 7.5-7.5h55.476563c4.140625 0 7.5 3.359376 7.5 7.5 0 4.144532-3.359375 7.5-7.5 7.5zm0 0" style="fill: rgb(235, 229, 120);"/>
    <path d="m154.238281 296.621094h-52c-4.144531 0-7.5-3.359375-7.5-7.5 0-4.144532 3.355469-7.5 7.5-7.5h52c4.144531 0 7.5 3.355468 7.5 7.5 0 4.140625-3.355469 7.5-7.5 7.5zm0 0" style="fill: rgb(255, 254, 254);"/>
    <path d="m78.597656 296.621094h-39.953125c-4.140625 0-7.5-3.359375-7.5-7.5 0-4.144532 3.359375-7.5 7.5-7.5h39.953125c4.140625 0 7.5 3.355468 7.5 7.5 0 4.140625-3.359375 7.5-7.5 7.5zm0 0" style="fill: rgb(120, 160, 199);"/>
    <path d="m248.5 296.621094h-67.925781c-4.144531 0-7.5-3.359375-7.5-7.5 0-4.144532 3.355469-7.5 7.5-7.5h67.925781c4.144531 0 7.5 3.355468 7.5 7.5 0 4.140625-3.355469 7.5-7.5 7.5zm0 0" style="fill: rgb(214, 77, 95);"/>
  </g>
  <path d="M 141.128 261.186 L 315.904 261.186 L 315.904 311.761 L 141.128 311.761 Z M 141.128 261.186" fill="#64dcfc" style=""/>
  <path d="M 141.128 339.347 L 315.904 339.347 L 315.904 386.247 L 141.128 386.247 Z M 141.128 339.347" fill="#64dcfc" style=""/>
  <path d="M 295.236 261.186 L 315.904 261.186 L 315.904 311.761 L 295.236 311.761 Z M 295.236 261.186" fill="#00d1fc" style=""/>
  <path d="M 295.236 339.347 L 315.904 339.347 L 315.904 386.247 L 295.236 386.247 Z M 295.236 339.347" fill="#00d1fc" style=""/>
  <path d="M 330.375 272.173 L 126.658 272.173 C 122.348 272.173 118.857 269.188 118.857 265.506 L 118.857 231.988 C 118.857 228.306 122.348 225.322 126.658 225.322 L 330.375 225.322 C 334.684 225.322 338.176 228.306 338.176 231.988 L 338.176 265.506 C 338.176 269.188 334.684 272.173 330.375 272.173 Z M 330.375 272.173" fill="#0396fd" style=""/>
  <path d="M 330.375 347.332 L 126.658 347.332 C 122.348 347.332 118.857 344.349 118.857 340.666 L 118.857 307.148 C 118.857 303.465 122.348 300.481 126.658 300.481 L 330.375 300.481 C 334.684 300.481 338.176 303.465 338.176 307.148 L 338.176 340.666 C 338.176 344.349 334.684 347.332 330.375 347.332 Z M 330.375 347.332" fill="#0396fd" style=""/>
  <path d="M 330.375 422.492 L 126.658 422.492 C 122.348 422.492 118.857 419.509 118.857 415.827 L 118.857 382.307 C 118.857 378.625 122.348 375.641 126.658 375.641 L 330.375 375.641 C 334.684 375.641 338.176 378.625 338.176 382.307 L 338.176 415.827 C 338.176 419.509 334.684 422.492 330.375 422.492 Z M 330.375 422.492" fill="#0396fd" style=""/>
  <path d="M 338.176 231.988 L 338.176 265.506 C 338.176 269.185 334.689 272.173 330.375 272.173 L 312.273 272.173 C 316.59 272.173 320.074 269.185 320.074 265.506 L 320.074 231.988 C 320.074 228.31 316.59 225.322 312.273 225.322 L 330.375 225.322 C 334.689 225.322 338.176 228.31 338.176 231.988 Z M 338.176 231.988" fill="#0077f0" style=""/>
  <path d="M 338.176 307.144 L 338.176 340.663 C 338.176 344.351 334.689 347.332 330.375 347.332 L 312.273 347.332 C 316.59 347.332 320.074 344.351 320.074 340.663 L 320.074 307.144 C 320.074 303.465 316.59 300.477 312.273 300.477 L 330.375 300.477 C 334.689 300.477 338.176 303.465 338.176 307.144 Z M 338.176 307.144" fill="#0077f0" style=""/>
  <path d="M 338.176 382.311 L 338.176 415.83 C 338.176 419.509 334.689 422.495 330.375 422.495 L 312.273 422.495 C 316.59 422.495 320.074 419.509 320.074 415.83 L 320.074 382.311 C 320.074 378.625 316.59 375.644 312.273 375.644 L 330.375 375.644 C 334.689 375.644 338.176 378.625 338.176 382.311 Z M 338.176 382.311" fill="#0077f0" style=""/>
  <path d="M 186.821 255.448 L 147.982 255.448 C 143.652 255.448 140.14 252.449 140.14 248.748 C 140.14 245.048 143.652 242.047 147.982 242.047 L 186.825 242.047 C 191.154 242.047 194.667 245.048 194.667 248.748 C 194.667 252.449 191.154 255.448 186.821 255.448 Z M 186.821 255.448" fill="#e7e7e7" style=""/>
  <path d="M 309.05 255.448 L 254.218 255.448 C 249.888 255.448 246.375 252.449 246.375 248.748 C 246.375 245.048 249.888 242.047 254.218 242.047 L 309.046 242.047 C 313.38 242.047 316.889 245.048 316.889 248.748 C 316.889 252.449 313.38 255.448 309.05 255.448 Z M 309.05 255.448" fill="#e7e7e7" style=""/>
  <path d="M 226.803 255.448 L 214.235 255.448 C 209.906 255.448 206.393 252.449 206.393 248.748 C 206.393 245.048 209.906 242.047 214.235 242.047 L 226.803 242.047 C 231.136 242.047 234.645 245.048 234.645 248.748 C 234.645 252.449 231.133 255.448 226.803 255.448 Z M 226.803 255.448" fill="#e7e7e7" style=""/>
  <path d="M 186.821 330.608 L 147.982 330.608 C 143.652 330.608 140.14 327.609 140.14 323.907 C 140.14 320.207 143.652 317.206 147.982 317.206 L 186.825 317.206 C 191.154 317.206 194.667 320.207 194.667 323.907 C 194.667 327.609 191.154 330.608 186.821 330.608 Z M 186.821 330.608" fill="#e7e7e7" style=""/>
  <path d="M 309.05 330.608 L 254.218 330.608 C 249.888 330.608 246.375 327.609 246.375 323.907 C 246.375 320.207 249.888 317.206 254.218 317.206 L 309.046 317.206 C 313.38 317.206 316.889 320.207 316.889 323.907 C 316.889 327.609 313.38 330.608 309.05 330.608 Z M 309.05 330.608" fill="#e7e7e7" style=""/>
  <path d="M 226.803 330.608 L 214.235 330.608 C 209.906 330.608 206.393 327.609 206.393 323.907 C 206.393 320.207 209.906 317.206 214.235 317.206 L 226.803 317.206 C 231.136 317.206 234.645 320.207 234.645 323.907 C 234.645 327.609 231.133 330.608 226.803 330.608 Z M 226.803 330.608" fill="#e7e7e7" style=""/>
  <path d="M 186.821 405.768 L 147.982 405.768 C 143.652 405.768 140.14 402.766 140.14 399.067 C 140.14 395.367 143.652 392.365 147.982 392.365 L 186.825 392.365 C 191.154 392.365 194.667 395.367 194.667 399.067 C 194.667 402.766 191.154 405.768 186.821 405.768 Z M 186.821 405.768" fill="#e7e7e7" style=""/>
  <path d="M 309.05 405.768 L 254.218 405.768 C 249.888 405.768 246.375 402.766 246.375 399.067 C 246.375 395.367 249.888 392.365 254.218 392.365 L 309.046 392.365 C 313.38 392.365 316.889 395.367 316.889 399.067 C 316.889 402.766 313.38 405.768 309.05 405.768 Z M 309.05 405.768" fill="#e7e7e7" style=""/>
  <path d="M 226.803 405.768 L 214.235 405.768 C 209.906 405.768 206.393 402.766 206.393 399.067 C 206.393 395.367 209.906 392.365 214.235 392.365 L 226.803 392.365 C 231.136 392.365 234.645 395.367 234.645 399.067 C 234.645 402.766 231.133 405.768 226.803 405.768 Z M 226.803 405.768" fill="#e7e7e7" style=""/>
  <path d="M -101.994 65.669 C -101.994 73.04 -108.988 79.012 -117.61 79.012 C -126.236 79.012 -133.228 73.04 -133.228 65.669 C -133.228 58.301 -126.236 52.327 -117.61 52.327 C -108.988 52.327 -101.994 58.301 -101.994 65.669 Z M -101.994 65.669" fill="#ff5770" style=""/>
  <path d="M -41.692 65.669 C -41.692 73.04 -48.681 79.012 -57.308 79.012 C -65.93 79.012 -72.921 73.04 -72.921 65.669 C -72.921 58.301 -65.93 52.327 -57.308 52.327 C -48.681 52.327 -41.692 58.301 -41.692 65.669 Z M -41.692 65.669" fill="#ffd86e" style=""/>
  <path d="M 18.614 65.669 C 18.614 73.04 11.62 79.012 2.999 79.012 C -5.628 79.012 -12.617 73.04 -12.617 65.669 C -12.617 58.301 -5.628 52.327 2.999 52.327 C 11.62 52.327 18.614 58.301 18.614 65.669 Z M 18.614 65.669" fill="#80e0dc" style=""/>
  <path d="M -102.003 65.673 C -102.003 73.04 -108.988 79.009 -117.606 79.009 C -121.783 79.009 -125.582 77.609 -128.379 75.319 C -119.933 75.162 -113.129 69.261 -113.129 61.994 C -113.129 58.189 -114.991 54.766 -117.973 52.34 C -117.855 52.33 -117.724 52.33 -117.606 52.33 C -108.988 52.33 -102.003 58.297 -102.003 65.673 Z M -102.003 65.673" fill="#ff435f" style=""/>
  <path d="M -41.697 65.673 C -41.697 73.04 -48.681 79.009 -57.311 79.009 C -61.486 79.009 -65.272 77.609 -68.083 75.319 C -59.623 75.162 -52.823 69.261 -52.823 61.994 C -52.823 58.189 -54.686 54.766 -57.663 52.34 C -57.549 52.33 -57.429 52.33 -57.308 52.33 C -48.677 52.33 -41.697 58.297 -41.697 65.673 Z M -41.697 65.673" fill="#ffb509" style=""/>
  <path d="M 18.614 65.673 C 18.614 73.04 11.617 79.009 2.999 79.009 C -1.18 79.009 -4.966 77.609 -7.777 75.319 C 0.683 75.162 7.474 69.261 7.474 61.994 C 7.474 58.189 5.612 54.766 2.631 52.34 C 2.75 52.33 2.88 52.33 2.999 52.33 C 11.617 52.33 18.614 58.297 18.614 65.673 Z M 18.614 65.673" fill="#00a8b0" style=""/>
</svg>