<?xml version="1.0" encoding="utf-8"?>
<svg xmlns="http://www.w3.org/2000/svg" viewBox="0 0 800 500" xmlns:bx="https://boxy-svg.com" width="800px" height="500px"><defs><linearGradient id="gradient-1" gradientUnits="userSpaceOnUse" x1="98.902" y1="0.013" x2="98.902" y2="500.013" gradientTransform="matrix(0.46747, -0.884009, 0.378227, 0.200009, 907.746033, 25.508018)"><stop offset="0" style="stop-color: rgba(165, 206, 255, 1)"/><stop offset="1" style="stop-color: rgba(63, 150, 255, 1)"/></linearGradient><path id="path-2" d="M57.903386,1.84920993 C56.0541761,0.809029345 53.8582393,0.809029345 52.0090293,1.84920993 L3.351693,29.9340858 C1.50248307,30.9742664 0.462302483,32.9390519 0.462302483,35.0194131 L0.462302483,91.3047404 C0.462302483,93.3851016 1.61805869,95.3498871 3.351693,96.3900677 L52.0090293,124.474944 C53.8582393,125.515124 56.0541761,125.515124 57.903386,124.474944 L106.560722,96.3900677 C108.409932,95.3498871 109.450113,93.3851016 109.450113,91.3047404 L109.450113,35.0194131 C109.450113,32.9390519 108.294357,30.9742664 106.560722,29.9340858 L57.903386,1.84920993 L57.903386,1.84920993 Z"/><bx:export><bx:file format="png" path="Sin título.png" excluded="true"/><bx:file format="webp" path="express-js-para-que-sirve.webp" excluded="true"/><bx:file format="svg" path="express-js.svg"/></bx:export></defs><rect x="0" y="0" width="800" height="500" style="fill: url(&quot;#gradient-1&quot;); stroke-width: 1;"/><g transform="matrix(0.442667, 0, 0, 0.442667, 232.901474, 68.050766)"/><g transform="matrix(0.442667, 0, 0, 0.442667, 156.782135, -71.104889)"/><g transform="matrix(0.442667, 0, 0, 0.442667, 275.718597, 90.648697)"/><g transform="matrix(0.442667, 0, 0, 0.442667, 286.422852, -149.602951)"/><g transform="matrix(0.442667, 0, 0, 0.442667, 150.835312, -34.234589)"/><g transform="matrix(0.442667, 0, 0, 0.442667, 222.197174, 150.116928)"/><g transform="matrix(0.214087, 0, 0, 0.214086, 976.310059, -31.80011)"/><g transform="matrix(0.442667, 0, 0, 0.442667, 222.197174, -16.394119)"/><g transform="matrix(0.642257, 0, 0, 0.642257, 190.140091, -42.504395)"/><g transform="matrix(0.642257, 0, 0, 0.642257, -39.407272, 191.80043)"/><g transform="matrix(0.339094, 0, 0, 0.339095, 383.807068, -17.76265)"/><g transform="matrix(1, 0, 0, 1, 199.656815, -166.139771)"/><g transform="matrix(0.537197, 0, 0, 0.537197, 81.889053, -42.76815)"/><g transform="matrix(0.537197, 0, 0, 0.537197, 69.800247, -77.019768)"/><g transform="matrix(0.543997, 0, 0, 0.543997, 94.284805, -52.527344)"/><g transform="matrix(0.494602, 0, 0, 0.494602, 36.123154, -38.171883)"/><g transform="matrix(1, 0, 0, 1, -56.459854, -127.724808)"/><g transform="matrix(1, 0, 0, 1, -56.459854, -127.724808)"/><g transform="matrix(1, 0, 0, 1, -56.459854, -127.724808)"/><g transform="matrix(1, 0, 0, 1, -56.459854, -127.724808)"/><g transform="matrix(1, 0, 0, 1, -56.459854, -127.724808)"/><g transform="matrix(1, 0, 0, 1, -56.459854, -127.724808)"/><g transform="matrix(1, 0, 0, 1, -56.459854, -127.724808)"/><g transform="matrix(1, 0, 0, 1, -56.459854, -127.724808)"/><g transform="matrix(1, 0, 0, 1, -56.459854, -127.724808)"/><g transform="matrix(1, 0, 0, 1, -56.459854, -127.724808)"/><g transform="matrix(1, 0, 0, 1, -56.459854, -127.724808)"/><g transform="matrix(1, 0, 0, 1, -56.459854, -127.724808)"/><g transform="matrix(1, 0, 0, 1, -56.459854, -127.724808)"/><g transform="matrix(1, 0, 0, 1, -56.459854, -127.724808)"/><g transform="matrix(1, 0, 0, 1, -56.459854, -127.724808)"/><g transform="matrix(1, 0, 0, 1, -517.419922, -66.468048)"/><g transform="matrix(1, 0, 0, 1, -517.419922, -66.468048)"/><g transform="matrix(1, 0, 0, 1, -517.419922, -66.468048)"/><g transform="matrix(1, 0, 0, 1, -517.419922, -66.468048)"/><g transform="matrix(1, 0, 0, 1, -517.419922, -66.468048)"/><g transform="matrix(1, 0, 0, 1, -517.419922, -66.468048)"/><g transform="matrix(1, 0, 0, 1, -517.419922, -66.468048)"/><g transform="matrix(1, 0, 0, 1, -517.419922, -66.468048)"/><g transform="matrix(1, 0, 0, 1, -517.419922, -66.468048)"/><g transform="matrix(1, 0, 0, 1, -517.419922, -66.468048)"/><g transform="matrix(1, 0, 0, 1, -517.419922, -66.468048)"/><g transform="matrix(1, 0, 0, 1, -517.419922, -66.468048)"/><g transform="matrix(1, 0, 0, 1, -517.419922, -66.468048)"/><g transform="matrix(1, 0, 0, 1, -517.419922, -66.468048)"/><g transform="matrix(1, 0, 0, 1, -517.419922, -66.468048)"/><g transform="matrix(0.442667, 0, 0, 0.442667, 70.79039, 132.630463)"/><g transform="matrix(0.442667, 0, 0, 0.442667, -5.328948, -6.525199)"/><g transform="matrix(0.442667, 0, 0, 0.442667, 113.607513, 155.228394)"/><g transform="matrix(0.442667, 0, 0, 0.442667, 124.311783, -85.023262)"/><g transform="matrix(0.442667, 0, 0, 0.442667, -11.275772, 30.345104)"/><g transform="matrix(0.442667, 0, 0, 0.442667, 60.086098, 214.696625)"/><g transform="matrix(0.214087, 0, 0, 0.214086, 814.198975, 32.779583)"/><g transform="matrix(0.442667, 0, 0, 0.442667, 60.086098, 48.185574)"/><g transform="matrix(0.642257, 0, 0, 0.642257, 28.029007, 22.075298)"/><g transform="matrix(0.642257, 0, 0, 0.642257, -201.518356, 256.380127)"/><g transform="matrix(0.339094, 0, 0, 0.339095, 221.695984, 46.817043)"/><g transform="matrix(1, 0, 0, 1, 37.545731, -101.560081)"/><g transform="matrix(0.537197, 0, 0, 0.537197, -80.222023, 21.811543)"/><g transform="matrix(0.537197, 0, 0, 0.537197, -92.310837, -12.440078)"/><g transform="matrix(0.543997, 0, 0, 0.543997, -67.826279, 12.05235)"/><g transform="matrix(0.494602, 0, 0, 0.494602, -125.98793, 26.40781)"/><g transform="matrix(1, 0, 0, 1, -218.570938, -63.145115)"/><g transform="matrix(1, 0, 0, 1, -218.570938, -63.145115)"/><g transform="matrix(1, 0, 0, 1, -218.570938, -63.145115)"/><g transform="matrix(1, 0, 0, 1, -218.570938, -63.145115)"/><g transform="matrix(1, 0, 0, 1, -218.570938, -63.145115)"/><g transform="matrix(1, 0, 0, 1, -218.570938, -63.145115)"/><g transform="matrix(1, 0, 0, 1, -218.570938, -63.145115)"/><g transform="matrix(1, 0, 0, 1, -218.570938, -63.145115)"/><g transform="matrix(1, 0, 0, 1, -218.570938, -63.145115)"/><g transform="matrix(1, 0, 0, 1, -218.570938, -63.145115)"/><g transform="matrix(1, 0, 0, 1, -218.570938, -63.145115)"/><g transform="matrix(1, 0, 0, 1, -218.570938, -63.145115)"/><g transform="matrix(1, 0, 0, 1, -218.570938, -63.145115)"/><g transform="matrix(1, 0, 0, 1, -218.570938, -63.145115)"/><g transform="matrix(1, 0, 0, 1, -218.570938, -63.145115)"/><g transform="matrix(1, 0, 0, 1, -679.531006, -1.888355)"/><g transform="matrix(1, 0, 0, 1, -679.531006, -1.888355)"/><g transform="matrix(1, 0, 0, 1, -679.531006, -1.888355)"/><g transform="matrix(1, 0, 0, 1, -679.531006, -1.888355)"/><g transform="matrix(1, 0, 0, 1, -679.531006, -1.888355)"/><g transform="matrix(1, 0, 0, 1, -679.531006, -1.888355)"/><g transform="matrix(1, 0, 0, 1, -679.531006, -1.888355)"/><g transform="matrix(1, 0, 0, 1, -679.531006, -1.888355)"/><g transform="matrix(1, 0, 0, 1, -679.531006, -1.888355)"/><g transform="matrix(1, 0, 0, 1, -679.531006, -1.888355)"/><g transform="matrix(1, 0, 0, 1, -679.531006, -1.888355)"/><g transform="matrix(1, 0, 0, 1, -679.531006, -1.888355)"/><g transform="matrix(1, 0, 0, 1, -679.531006, -1.888355)"/><g transform="matrix(1, 0, 0, 1, -679.531006, -1.888355)"/><g transform="matrix(1, 0, 0, 1, -679.531006, -1.888355)"/><g transform="matrix(0.880422, 0, 0, 0.90168, -195.653992, -45.204937)" style=""/><g transform="matrix(0.880422, 0, 0, 0.90168, -195.653992, -45.204937)" style=""/><g transform="matrix(0.880422, 0, 0, 0.90168, -195.653992, -45.204937)" style=""/><g transform="matrix(0.880422, 0, 0, 0.90168, -195.653992, -45.204937)" style=""/><g transform="matrix(0.880422, 0, 0, 0.90168, -195.653992, -45.204937)" style=""/><g transform="matrix(0.880422, 0, 0, 0.90168, -195.653992, -45.204937)" style=""/><g transform="matrix(0.880422, 0, 0, 0.90168, -195.653992, -45.204937)" style=""/><g transform="matrix(0.880422, 0, 0, 0.90168, -195.653992, -45.204937)" style=""/><g transform="matrix(0.880422, 0, 0, 0.90168, -195.653992, -45.204937)" style=""/><g transform="matrix(0.880422, 0, 0, 0.90168, -195.653992, -45.204937)" style=""/><g transform="matrix(0.880422, 0, 0, 0.90168, -195.653992, -45.204937)" style=""/><g transform="matrix(0.880422, 0, 0, 0.90168, -195.653992, -45.204937)" style=""/><g transform="matrix(0.880422, 0, 0, 0.90168, -195.653992, -45.204937)" style=""/><g transform="matrix(0.880422, 0, 0, 0.90168, -195.653992, -45.204937)" style=""/><g transform="matrix(0.880422, 0, 0, 0.90168, -195.653992, -45.204937)" style=""/><g transform="matrix(1, 0, 0, 1, -521.901978, -54.16573)"/><g transform="matrix(1, 0, 0, 1, -521.901978, -54.16573)"/><g transform="matrix(1, 0, 0, 1, -521.901978, -54.16573)"/><g transform="matrix(1, 0, 0, 1, -521.901978, -54.16573)"/><g transform="matrix(1, 0, 0, 1, -521.901978, -54.16573)"/><g transform="matrix(1, 0, 0, 1, -521.901978, -54.16573)"/><g transform="matrix(1, 0, 0, 1, -521.901978, -54.16573)"/><g transform="matrix(1, 0, 0, 1, -521.901978, -54.16573)"/><g transform="matrix(1, 0, 0, 1, -521.901978, -54.16573)"/><g transform="matrix(1, 0, 0, 1, -521.901978, -54.16573)"/><g transform="matrix(1, 0, 0, 1, -521.901978, -54.16573)"/><g transform="matrix(1, 0, 0, 1, -521.901978, -54.16573)"/><g transform="matrix(1, 0, 0, 1, -521.901978, -54.16573)"/><g transform="matrix(1, 0, 0, 1, -521.901978, -54.16573)"/><g transform="matrix(1, 0, 0, 1, -521.901978, -54.16573)"/><g transform="matrix(1, 0, 0, 1, -559.558411, 36.264904)"/><g transform="matrix(1, 0, 0, 1, -559.558411, 36.264904)"/><g transform="matrix(1, 0, 0, 1, -559.558411, 36.264904)"/><g transform="matrix(1, 0, 0, 1, -559.558411, 36.264904)"/><g transform="matrix(1, 0, 0, 1, -559.558411, 36.264904)"/><g transform="matrix(1, 0, 0, 1, -559.558411, 36.264904)"/><g transform="matrix(1, 0, 0, 1, -559.558411, 36.264904)"/><g transform="matrix(1, 0, 0, 1, -559.558411, 36.264904)"/><g transform="matrix(1, 0, 0, 1, -559.558411, 36.264904)"/><g transform="matrix(1, 0, 0, 1, -559.558411, 36.264904)"/><g transform="matrix(1, 0, 0, 1, -559.558411, 36.264904)"/><g transform="matrix(1, 0, 0, 1, -559.558411, 36.264904)"/><g transform="matrix(1, 0, 0, 1, -559.558411, 36.264904)"/><g transform="matrix(1, 0, 0, 1, -559.558411, 36.264904)"/><g transform="matrix(1, 0, 0, 1, -559.558411, 36.264904)"/><path d="M 219.597 392.995 L 369.181 392.995 L 369.181 445.898 L 219.597 445.898 L 219.597 392.995 Z M 219.597 392.995" fill="#5a5a5a" style="stroke-width: 1;"/><path d="M 534.304 400.404 L 54.476 400.404 C 39.316 400.404 27.026 389.903 27.026 376.947 L 27.026 43.239 C 27.026 30.284 39.316 19.782 54.476 19.782 L 534.304 19.782 C 549.466 19.782 561.756 30.284 561.756 43.239 L 561.756 376.947 C 561.756 389.903 549.466 400.404 534.304 400.404 Z M 534.304 400.404" style="fill: rgb(51, 50, 47); stroke-width: 1;"/><path d="M 561.758 43.242 L 561.758 376.947 C 561.758 389.903 549.469 400.404 534.308 400.404 L 500.775 400.404 C 515.937 400.404 528.227 389.903 528.227 376.947 L 528.227 43.242 C 528.227 30.287 515.937 19.786 500.775 19.786 L 534.308 19.786 C 549.469 19.786 561.758 30.287 561.758 43.242 Z M 561.758 43.242" style="fill: rgb(82, 78, 69); stroke-width: 1;"/><path d="M 561.756 343.892 L 27.026 343.892 L 27.026 376.947 C 27.026 389.903 39.316 400.404 54.476 400.404 L 534.304 400.404 C 549.466 400.404 561.756 389.903 561.756 376.947 L 561.756 343.892 Z M 561.756 343.892" style="fill: rgb(202, 202, 202); stroke-width: 1;"/><path d="M 561.758 343.889 L 561.758 376.947 C 561.758 389.903 549.469 400.404 534.308 400.404 L 500.775 400.404 C 515.937 400.404 528.227 389.903 528.227 376.947 L 528.227 343.889 L 561.758 343.889 Z M 561.758 343.889" style="fill: rgb(215, 215, 215); stroke-width: 1;"/><path d="M 562.367 99.803 L 27.616 99.803 L 27.616 43.239 C 27.616 30.284 39.906 19.782 55.066 19.782 L 534.917 19.782 C 550.078 19.782 562.367 30.284 562.367 43.239 L 562.367 99.803 Z M 562.367 99.803" style="fill: rgb(202, 202, 202); stroke-width: 1;"/><path d="M 562.371 43.236 L 562.371 99.807 L 528.227 99.807 L 528.227 43.236 C 528.227 30.287 515.937 19.786 500.77 19.786 L 534.92 19.786 C 550.082 19.786 562.371 30.287 562.371 43.236 Z M 562.371 43.236" style="fill: rgb(215, 215, 215); stroke-width: 1;"/><path d="M 417.653 476.726 L 171.124 476.726 C 168.154 476.726 165.744 474.667 165.744 472.129 L 165.744 457.23 C 165.744 447.127 175.331 438.936 187.155 438.936 L 401.622 438.936 C 413.447 438.936 423.034 447.127 423.034 457.23 L 423.034 472.129 C 423.034 474.667 420.622 476.726 417.653 476.726 Z M 417.653 476.726" fill="#838383" style="stroke-width: 1;"/><path d="M 423.034 457.226 L 423.034 472.133 C 423.034 474.671 420.622 476.729 417.65 476.729 L 398.657 476.729 L 398.657 457.226 C 398.657 447.13 389.071 438.936 377.254 438.936 L 401.63 438.936 C 413.451 438.936 423.034 447.127 423.034 457.226 Z M 423.034 457.226" fill="#5a5a5a" style="stroke-width: 1;"/><g fill="#838383" transform="matrix(1.045604, 0, 0, 0.893472, 27.02206, 19.782085)" style=""><path d="m90.644531 231.78125h-52c-4.140625 0-7.5-3.359375-7.5-7.5 0-4.144531 3.359375-7.5 7.5-7.5h52c4.144531 0 7.5 3.355469 7.5 7.5 0 4.140625-3.355469 7.5-7.5 7.5zm0 0" style="fill: rgb(120, 160, 199);"/><path d="m210.417969 231.78125h-91.425781c-4.140626 0-7.5-3.359375-7.5-7.5 0-4.144531 3.359374-7.5 7.5-7.5h91.425781c4.144531 0 7.5 3.355469 7.5 7.5 0 4.140625-3.355469 7.5-7.5 7.5zm0 0" style="fill: rgb(255, 254, 254);"/><path d="m60.796875 264.335938h-22.152344c-4.140625 0-7.5-3.355469-7.5-7.5 0-4.140626 3.359375-7.5 7.5-7.5h22.152344c4.144531 0 7.5 3.359374 7.5 7.5 0 4.144531-3.359375 7.5-7.5 7.5zm0 0" style="fill: rgb(120, 160, 199);"/><path d="m195.667969 264.335938h-13.492188c-4.140625 0-7.5-3.355469-7.5-7.5 0-4.140626 3.359375-7.5 7.5-7.5h13.492188c4.140625 0 7.5 3.359374 7.5 7.5 0 4.144531-3.359375 7.5-7.5 7.5zm0 0" style="fill: rgb(214, 77, 95);"/><path d="m154.140625 264.335938h-66.257813c-4.144531 0-7.5-3.355469-7.5-7.5 0-4.140626 3.355469-7.5 7.5-7.5h66.257813c4.144531 0 7.5 3.359374 7.5 7.5 0 4.144531-3.359375 7.5-7.5 7.5zm0 0" style="fill: rgb(255, 254, 254);"/><path d="m245.414062 264.335938h-25.269531c-4.140625 0-7.5-3.355469-7.5-7.5 0-4.140626 3.359375-7.5 7.5-7.5h25.269531c4.140626 0 7.5 3.359374 7.5 7.5 0 4.144531-3.359374 7.5-7.5 7.5zm0 0" style="fill: rgb(235, 229, 120);"/><path d="m197.039062 160.761719h-26.652343c-4.144531 0-7.5-3.355469-7.5-7.5 0-4.140625 3.355469-7.5 7.5-7.5h26.652343c4.144532 0 7.5 3.359375 7.5 7.5 0 4.144531-3.355468 7.5-7.5 7.5zm0 0" style="fill: rgb(120, 160, 199);"/><path d="m389.503906 160.761719h-162.617187c-4.140625 0-7.5-3.355469-7.5-7.5 0-4.140625 3.359375-7.5 7.5-7.5h162.617187c4.140625 0 7.5 3.359375 7.5 7.5 0 4.144531-3.359375 7.5-7.5 7.5zm0 0" style="fill: rgb(255, 254, 254);"/><path d="m364.800781 194.726562h-65.867187c-4.144532 0-7.5-3.355468-7.5-7.5 0-4.140624 3.355468-7.5 7.5-7.5h65.867187c4.144531 0 7.5 3.359376 7.5 7.5 0 4.144532-3.355469 7.5-7.5 7.5zm0 0" style="fill: rgb(255, 254, 254);"/><path d="m274.230469 194.726562h-22.644531c-4.140626 0-7.5-3.355468-7.5-7.5 0-4.140624 3.359374-7.5 7.5-7.5h22.644531c4.144531 0 7.5 3.359376 7.5 7.5 0 4.144532-3.355469 7.5-7.5 7.5zm0 0" style="fill: rgb(214, 77, 95);"/><path d="m225.859375 194.726562h-55.476563c-4.140624 0-7.5-3.355468-7.5-7.5 0-4.140624 3.359376-7.5 7.5-7.5h55.476563c4.140625 0 7.5 3.359376 7.5 7.5 0 4.144532-3.359375 7.5-7.5 7.5zm0 0" style="fill: rgb(235, 229, 120);"/><path d="m154.238281 296.621094h-52c-4.144531 0-7.5-3.359375-7.5-7.5 0-4.144532 3.355469-7.5 7.5-7.5h52c4.144531 0 7.5 3.355468 7.5 7.5 0 4.140625-3.355469 7.5-7.5 7.5zm0 0" style="fill: rgb(255, 254, 254);"/><path d="m78.597656 296.621094h-39.953125c-4.140625 0-7.5-3.359375-7.5-7.5 0-4.144532 3.359375-7.5 7.5-7.5h39.953125c4.140625 0 7.5 3.355468 7.5 7.5 0 4.140625-3.359375 7.5-7.5 7.5zm0 0" style="fill: rgb(120, 160, 199);"/><path d="m248.5 296.621094h-67.925781c-4.144531 0-7.5-3.359375-7.5-7.5 0-4.144532 3.355469-7.5 7.5-7.5h67.925781c4.144531 0 7.5 3.355468 7.5 7.5 0 4.140625-3.355469 7.5-7.5 7.5zm0 0" style="fill: rgb(214, 77, 95);"/></g><path d="M 337.215 255.114 L 511.991 255.114 L 511.991 305.689 L 337.215 305.689 L 337.215 255.114 Z M 337.215 255.114" fill="#64dcfc" style="stroke-width: 1;"/><path d="M 337.215 333.275 L 511.991 333.275 L 511.991 380.175 L 337.215 380.175 L 337.215 333.275 Z M 337.215 333.275" fill="#64dcfc" style="stroke-width: 1;"/><path d="M 491.323 255.114 L 511.991 255.114 L 511.991 305.689 L 491.323 305.689 L 491.323 255.114 Z M 491.323 255.114" fill="#00d1fc" style="stroke-width: 1;"/><path d="M 491.323 333.275 L 511.991 333.275 L 511.991 380.175 L 491.323 380.175 L 491.323 333.275 Z M 491.323 333.275" fill="#00d1fc" style="stroke-width: 1;"/><path d="M 526.462 266.101 L 322.745 266.101 C 318.435 266.101 314.944 263.116 314.944 259.434 L 314.944 225.916 C 314.944 222.234 318.435 219.25 322.745 219.25 L 526.462 219.25 C 530.771 219.25 534.263 222.234 534.263 225.916 L 534.263 259.434 C 534.263 263.116 530.771 266.101 526.462 266.101 Z M 526.462 266.101" fill="#0396fd" style="stroke-width: 1;"/><path d="M 526.462 341.26 L 322.745 341.26 C 318.435 341.26 314.944 338.277 314.944 334.594 L 314.944 301.076 C 314.944 297.393 318.435 294.409 322.745 294.409 L 526.462 294.409 C 530.771 294.409 534.263 297.393 534.263 301.076 L 534.263 334.594 C 534.263 338.277 530.771 341.26 526.462 341.26 Z M 526.462 341.26" fill="#0396fd" style="stroke-width: 1;"/><path d="M 526.462 416.42 L 322.745 416.42 C 318.435 416.42 314.944 413.437 314.944 409.755 L 314.944 376.235 C 314.944 372.553 318.435 369.569 322.745 369.569 L 526.462 369.569 C 530.771 369.569 534.263 372.553 534.263 376.235 L 534.263 409.755 C 534.263 413.437 530.771 416.42 526.462 416.42 Z M 526.462 416.42" fill="#0396fd" style="stroke-width: 1;"/><path d="M 534.263 225.916 L 534.263 259.434 C 534.263 263.113 530.776 266.101 526.462 266.101 L 508.36 266.101 C 512.677 266.101 516.161 263.113 516.161 259.434 L 516.161 225.916 C 516.161 222.238 512.677 219.25 508.36 219.25 L 526.462 219.25 C 530.776 219.25 534.263 222.238 534.263 225.916 Z M 534.263 225.916" fill="#0077f0" style="stroke-width: 1;"/><path d="M 534.263 301.072 L 534.263 334.591 C 534.263 338.279 530.776 341.26 526.462 341.26 L 508.36 341.26 C 512.677 341.26 516.161 338.279 516.161 334.591 L 516.161 301.072 C 516.161 297.393 512.677 294.405 508.36 294.405 L 526.462 294.405 C 530.776 294.405 534.263 297.393 534.263 301.072 Z M 534.263 301.072" fill="#0077f0" style="stroke-width: 1;"/><path d="M 534.263 376.239 L 534.263 409.758 C 534.263 413.437 530.776 416.423 526.462 416.423 L 508.36 416.423 C 512.677 416.423 516.161 413.437 516.161 409.758 L 516.161 376.239 C 516.161 372.553 512.677 369.572 508.36 369.572 L 526.462 369.572 C 530.776 369.572 534.263 372.553 534.263 376.239 Z M 534.263 376.239" fill="#0077f0" style="stroke-width: 1;"/><path d="M 382.908 249.376 L 344.069 249.376 C 339.739 249.376 336.227 246.377 336.227 242.676 C 336.227 238.976 339.739 235.975 344.069 235.975 L 382.912 235.975 C 387.241 235.975 390.754 238.976 390.754 242.676 C 390.754 246.377 387.241 249.376 382.908 249.376 Z M 382.908 249.376" fill="#e7e7e7" style="stroke-width: 1;"/><path d="M 505.137 249.376 L 450.305 249.376 C 445.975 249.376 442.462 246.377 442.462 242.676 C 442.462 238.976 445.975 235.975 450.305 235.975 L 505.133 235.975 C 509.467 235.975 512.976 238.976 512.976 242.676 C 512.976 246.377 509.467 249.376 505.137 249.376 Z M 505.137 249.376" fill="#e7e7e7" style="stroke-width: 1;"/><path d="M 422.89 249.376 L 410.322 249.376 C 405.993 249.376 402.48 246.377 402.48 242.676 C 402.48 238.976 405.993 235.975 410.322 235.975 L 422.89 235.975 C 427.223 235.975 430.732 238.976 430.732 242.676 C 430.732 246.377 427.22 249.376 422.89 249.376 Z M 422.89 249.376" fill="#e7e7e7" style="stroke-width: 1;"/><path d="M 382.908 324.536 L 344.069 324.536 C 339.739 324.536 336.227 321.537 336.227 317.835 C 336.227 314.135 339.739 311.134 344.069 311.134 L 382.912 311.134 C 387.241 311.134 390.754 314.135 390.754 317.835 C 390.754 321.537 387.241 324.536 382.908 324.536 Z M 382.908 324.536" fill="#e7e7e7" style="stroke-width: 1;"/><path d="M 505.137 324.536 L 450.305 324.536 C 445.975 324.536 442.462 321.537 442.462 317.835 C 442.462 314.135 445.975 311.134 450.305 311.134 L 505.133 311.134 C 509.467 311.134 512.976 314.135 512.976 317.835 C 512.976 321.537 509.467 324.536 505.137 324.536 Z M 505.137 324.536" fill="#e7e7e7" style="stroke-width: 1;"/><path d="M 422.89 324.536 L 410.322 324.536 C 405.993 324.536 402.48 321.537 402.48 317.835 C 402.48 314.135 405.993 311.134 410.322 311.134 L 422.89 311.134 C 427.223 311.134 430.732 314.135 430.732 317.835 C 430.732 321.537 427.22 324.536 422.89 324.536 Z M 422.89 324.536" fill="#e7e7e7" style="stroke-width: 1;"/><path d="M 382.908 399.696 L 344.069 399.696 C 339.739 399.696 336.227 396.694 336.227 392.995 C 336.227 389.295 339.739 386.293 344.069 386.293 L 382.912 386.293 C 387.241 386.293 390.754 389.295 390.754 392.995 C 390.754 396.694 387.241 399.696 382.908 399.696 Z M 382.908 399.696" fill="#e7e7e7" style="stroke-width: 1;"/><path d="M 505.137 399.696 L 450.305 399.696 C 445.975 399.696 442.462 396.694 442.462 392.995 C 442.462 389.295 445.975 386.293 450.305 386.293 L 505.133 386.293 C 509.467 386.293 512.976 389.295 512.976 392.995 C 512.976 396.694 509.467 399.696 505.137 399.696 Z M 505.137 399.696" fill="#e7e7e7" style="stroke-width: 1;"/><path d="M 422.89 399.696 L 410.322 399.696 C 405.993 399.696 402.48 396.694 402.48 392.995 C 402.48 389.295 405.993 386.293 410.322 386.293 L 422.89 386.293 C 427.223 386.293 430.732 389.295 430.732 392.995 C 430.732 396.694 427.22 399.696 422.89 399.696 Z M 422.89 399.696" fill="#e7e7e7" style="stroke-width: 1;"/><path d="M 94.096 59.597 C 94.096 66.968 87.096 72.94 78.476 72.94 C 69.856 72.94 62.856 66.968 62.856 59.597 C 62.856 52.229 69.856 46.255 78.476 46.255 C 87.096 46.255 94.096 52.229 94.096 59.597 Z M 94.096 59.597" fill="#ff5770" style="stroke-width: 1;"/><path d="M 154.396 59.597 C 154.396 66.968 147.406 72.94 138.776 72.94 C 130.156 72.94 123.166 66.968 123.166 59.597 C 123.166 52.229 130.156 46.255 138.776 46.255 C 147.406 46.255 154.396 52.229 154.396 59.597 Z M 154.396 59.597" fill="#ffd86e" style="stroke-width: 1;"/><path d="M 214.701 59.597 C 214.701 66.968 207.707 72.94 199.086 72.94 C 190.459 72.94 183.47 66.968 183.47 59.597 C 183.47 52.229 190.459 46.255 199.086 46.255 C 207.707 46.255 214.701 52.229 214.701 59.597 Z M 214.701 59.597" fill="#80e0dc" style="stroke-width: 1;"/><path d="M 94.086 59.601 C 94.086 66.968 87.096 72.937 78.486 72.937 C 74.306 72.937 70.506 71.537 67.706 69.247 C 76.156 69.09 82.956 63.189 82.956 55.922 C 82.956 52.117 81.096 48.694 78.116 46.268 C 78.236 46.258 78.366 46.258 78.486 46.258 C 87.096 46.258 94.086 52.225 94.086 59.601 Z M 94.086 59.601" fill="#ff435f" style="stroke-width: 1;"/><path d="M 154.386 59.601 C 154.386 66.968 147.406 72.937 138.776 72.937 C 134.606 72.937 130.816 71.537 128.006 69.247 C 136.466 69.09 143.266 63.189 143.266 55.922 C 143.266 52.117 141.406 48.694 138.426 46.268 C 138.536 46.258 138.656 46.258 138.776 46.258 C 147.406 46.258 154.386 52.225 154.386 59.601 Z M 154.386 59.601" fill="#ffb509" style="stroke-width: 1;"/><path d="M 214.701 59.601 C 214.701 66.968 207.704 72.937 199.086 72.937 C 194.907 72.937 191.121 71.537 188.31 69.247 C 196.77 69.09 203.561 63.189 203.561 55.922 C 203.561 52.117 201.699 48.694 198.718 46.268 C 198.837 46.258 198.967 46.258 199.086 46.258 C 207.704 46.258 214.701 52.225 214.701 59.601 Z M 214.701 59.601" fill="#00a8b0" style="stroke-width: 1;"/><path d="M 854.124 306.901 L 885.123 306.901 L 885.123 338.901 L 854.124 338.901 L 854.124 306.901 Z" fill="none" fill-rule="evenodd" style="stroke-width: 0.984;"/><g><path d="M 62.55 157.081 C 62.657 162.731 63.306 167.981 64.517 172.821 C 65.718 177.641 67.578 181.861 70.097 185.451 C 72.615 189.041 75.861 191.861 79.842 193.921 C 83.833 195.991 88.706 197.021 94.47 197.021 C 102.966 197.021 110.018 194.721 115.627 190.101 C 121.236 185.481 124.723 178.541 126.079 169.301 L 129.228 169.301 C 128.075 179.101 124.355 186.671 118.068 192.051 C 111.771 197.441 104.012 200.131 94.79 200.131 C 88.493 200.231 83.116 199.201 78.67 197.021 C 74.204 194.851 70.562 191.771 67.733 187.821 C 64.904 183.851 62.812 179.171 61.446 173.791 C 60.08 168.421 59.402 162.631 59.402 156.421 C 59.402 149.481 60.4 143.271 62.395 137.851 C 64.381 132.421 67.007 127.821 70.261 124.071 C 73.497 120.321 77.275 117.481 81.576 115.511 C 85.877 113.551 90.275 112.571 94.79 112.571 C 101.077 112.571 106.501 113.821 111.064 116.321 C 115.617 118.821 119.347 122.141 122.224 126.261 C 125.111 130.391 127.203 135.131 128.521 140.451 C 129.828 145.771 130.38 151.321 130.167 157.071 L 62.55 157.071 L 62.55 157.081 Z M 127.029 153.821 C 127.029 148.721 126.341 143.851 124.985 139.231 C 123.619 134.601 121.604 130.551 118.93 127.081 C 116.256 123.601 112.924 120.861 108.943 118.851 C 104.951 116.831 100.34 115.831 95.1 115.831 C 90.692 115.831 86.584 116.701 82.748 118.451 C 78.922 120.191 75.57 122.701 72.693 126.021 C 69.806 129.331 67.472 133.331 65.689 138.011 C 63.907 142.671 62.86 147.951 62.55 153.821 L 127.029 153.821 Z" style="fill: rgb(3, 150, 253); stroke-width: 0.984;" fill="none" fill-rule="evenodd"/><g fill="none" transform="matrix(0.515345, 0, 0, 0.516843, 28.998659, 45.652039)" style="" fill-rule="evenodd"><path d="M253.110609,313.094357 C251.376975,313.094357 249.758916,312.632054 248.256433,311.823025 L232.884876,302.692551 C230.573363,301.421219 231.72912,300.958916 232.422573,300.727765 C235.543115,299.687585 236.120993,299.456433 239.357111,297.607223 C239.703837,297.376072 240.16614,297.491648 240.512867,297.722799 L252.30158,304.772912 C252.763883,305.004063 253.341761,305.004063 253.688488,304.772912 L299.80316,278.074944 C300.265463,277.843792 300.496614,277.38149 300.496614,276.803612 L300.496614,223.523251 C300.496614,222.945372 300.265463,222.48307 299.80316,222.251919 L253.688488,195.669526 C253.226185,195.438375 252.648307,195.438375 252.30158,195.669526 L206.186907,222.251919 C205.724605,222.48307 205.493454,223.060948 205.493454,223.523251 L205.493454,276.803612 C205.493454,277.265914 205.724605,277.843792 206.186907,278.074944 L218.78465,285.356208 C225.603612,288.823476 229.87991,284.77833 229.87991,280.733183 L229.87991,228.146275 C229.87991,227.452822 230.457788,226.759368 231.266817,226.759368 L237.161174,226.759368 C237.854628,226.759368 238.548081,227.337246 238.548081,228.146275 L238.548081,280.733183 C238.548081,289.863657 233.57833,295.180135 224.910158,295.180135 C222.251919,295.180135 220.171558,295.180135 214.277201,292.290745 L202.141761,285.356208 C199.136795,283.622573 197.287585,280.386456 197.287585,276.919187 L197.287585,223.638826 C197.287585,220.171558 199.136795,216.93544 202.141761,215.201806 L248.256433,188.503837 C251.145824,186.885779 255.075395,186.885779 257.964786,188.503837 L304.079458,215.201806 C307.084424,216.93544 308.933634,220.171558 308.933634,223.638826 L308.933634,276.919187 C308.933634,280.386456 307.084424,283.622573 304.079458,285.356208 L257.964786,312.054176 C256.462302,312.74763 254.728668,313.094357 253.110609,313.094357 Z M267.326411,276.456885 C247.100677,276.456885 242.939955,267.210835 242.939955,259.351693 C242.939955,258.658239 243.517833,257.964786 244.326862,257.964786 L250.336795,257.964786 C251.030248,257.964786 251.608126,258.427088 251.608126,259.120542 C252.532731,265.24605 255.190971,268.251016 267.441986,268.251016 C277.150339,268.251016 281.311061,266.055079 281.311061,260.854176 C281.311061,257.84921 280.155305,255.653273 265.014898,254.15079 C252.417156,252.879458 244.558014,250.105643 244.558014,240.050564 C244.558014,230.688939 252.417156,225.141309 265.592777,225.141309 C280.386456,225.141309 287.66772,230.226637 288.592325,241.321896 C288.592325,241.668623 288.476749,242.01535 288.245598,242.362077 C288.014447,242.593228 287.66772,242.824379 287.320993,242.824379 L281.311061,242.824379 C280.733183,242.824379 280.155305,242.362077 280.039729,241.784199 C278.652822,235.42754 275.069977,233.347178 265.592777,233.347178 C254.959819,233.347178 253.688488,237.045598 253.688488,239.819413 C253.688488,243.171106 255.190971,244.211287 269.522348,246.060497 C283.738149,247.909707 290.441535,250.567946 290.441535,260.507449 C290.325959,270.678104 282.004515,276.456885 267.326411,276.456885 Z" fill="#539E43"/></g></g></svg>