<svg xmlns="http://www.w3.org/2000/svg" width="1200" height="630" viewBox="0 0 1200 630" role="img" aria-labelledby="t"><title id="t">Microsoft 365 para pymes: organización y colaboración</title><rect width="1200" height="630" fill="#f7f9fb"/><circle cx="144" cy="141" r="150" fill="#47a3da" opacity=".07"/><circle cx="980" cy="501" r="190" fill="#47a3da" opacity=".055"/><path d="M60 520C260 460 340 570 530 505S850 420 1140 485" fill="none" stroke="#47a3da" stroke-width="3" opacity=".16"/><rect x="325" y="110" width="550" height="410" rx="34" fill="#fff" stroke="#e7ebf0" stroke-width="3"/><rect x="325" y="110" width="550" height="54" rx="34" fill="#47a3da" opacity=".12"/><circle cx="365" cy="137" r="8" fill="#47a3da" opacity=".55"/><circle cx="392" cy="137" r="8" fill="#47a3da" opacity=".35"/><circle cx="419" cy="137" r="8" fill="#47a3da" opacity=".2"/><g fill="#47a3da" opacity=".9"><circle cx="560" cy="260" r="34"/><circle cx="650" cy="270" r="28"/><path d="M500 390c8-63 39-94 66-94s58 31 66 94z"/><path d="M612 390c6-50 31-75 54-75s48 25 54 75z" opacity=".65"/></g></svg>