<?xml version="1.0" encoding="utf-8"?>
<svg viewBox="0 0 800 500" xmlns="http://www.w3.org/2000/svg">
  <rect x="0" y="0" width="800" height="500" style="paint-order: stroke; fill: rgb(201, 196, 233);"/>
  <g transform="matrix(0.214058, 0, 0, 0.212934, 18.300495, 0.991266)" style=""/>
  <g transform="matrix(0.214058, 0, 0, 0.212934, 18.300495, 0.991266)" style=""/>
  <g transform="matrix(0.214058, 0, 0, 0.212934, 18.300495, 0.991266)" style=""/>
  <g transform="matrix(0.214058, 0, 0, 0.212934, 18.300495, 0.991266)" style=""/>
  <g transform="matrix(0.214058, 0, 0, 0.212934, 18.300495, 0.991266)" style=""/>
  <g transform="matrix(0.214058, 0, 0, 0.212934, 18.300495, 0.991266)" style=""/>
  <g transform="matrix(0.214058, 0, 0, 0.212934, 18.300495, 0.991266)" style=""/>
  <g transform="matrix(0.214058, 0, 0, 0.212934, 18.300495, 0.991266)" style=""/>
  <g transform="matrix(0.214058, 0, 0, 0.212934, 18.300495, 0.991266)" style=""/>
  <g transform="matrix(0.214058, 0, 0, 0.212934, 18.300495, 0.991266)" style=""/>
  <g transform="matrix(0.214058, 0, 0, 0.212934, 18.300495, 0.991266)" style=""/>
  <g transform="matrix(0.214058, 0, 0, 0.212934, 18.300495, 0.991266)" style=""/>
  <g transform="matrix(0.214058, 0, 0, 0.212934, 18.300495, 0.991266)" style=""/>
  <g transform="matrix(0.214058, 0, 0, 0.212934, 18.300495, 0.991266)" style=""/>
  <g transform="matrix(0.214058, 0, 0, 0.212934, 18.300495, 0.991266)" style=""/>
  <g transform="matrix(0.442667, 0, 0, 0.442667, 46.915539, 8.138019)"/>
  <g transform="matrix(0.442667, 0, 0, 0.442667, 89.732666, 30.735949)"/>
  <g transform="matrix(0.442667, 0, 0, 0.442667, 36.211246, 90.204178)"/>
  <path style="fill: rgb(102, 102, 102);" d="M 257.638 190.569 L 534.227 190.569 C 543.317 190.569 550.749 196.421 550.749 203.58 L 550.749 337.737 L 241.123 337.737 L 241.123 203.58 C 241.123 196.421 248.556 190.569 257.638 190.569 Z"/>
  <path style="fill: rgb(113, 245, 239);" d="M 252.337 328.904 L 539.526 328.904 L 539.526 203.58 C 539.526 201.3 537.122 199.408 534.227 199.408 L 257.638 199.408 C 254.743 199.408 252.337 201.3 252.337 203.58 L 252.337 328.898 L 252.337 328.898 Z"/>
  <g transform="matrix(1.665854, 0, 0, 1.311676, -30.528778, -42.019028)" style="">
    <path style="fill:#FFFFFF;" d="M348.933,289.52v10.846c0,5.455-4.918,9.918-10.933,9.918H173.999 c-6.014,0-10.933-4.461-10.933-9.918V289.52H348.933z"/>
    <path style="fill:#FFFFFF;" d="M209.5,195.288h93.004h13.844c1.676,0,3.051,1.374,3.051,3.051v18.152v66.294H192.605l0,0V216.49 v-18.152c0-1.676,1.372-3.051,3.051-3.051h13.847L209.5,195.288L209.5,195.288z"/>
  </g>
  <path style="fill: rgb(130, 130, 130);" d="M 295.406 214.137 L 496.461 214.137 C 499.253 214.137 501.542 215.934 501.542 218.133 L 501.542 226.136 L 290.323 226.136 L 290.323 218.133 C 290.323 215.934 292.602 214.137 295.406 214.137 Z"/>
  <path style="fill: rgb(255, 255, 255);" d="M 384.356 218.275 L 486.39 218.275 C 487.138 218.275 487.744 218.763 487.744 219.347 L 487.744 221.344 C 487.744 221.942 487.129 222.423 486.39 222.423 L 384.356 222.423 C 383.609 222.423 382.994 221.935 382.994 221.344 L 382.994 219.347 C 382.994 218.763 383.609 218.275 384.356 218.275 Z"/>
  <path style="fill: rgb(33, 208, 195);" d="M 300.465 217.566 C 302.074 217.566 303.389 218.596 303.389 219.871 C 303.389 221.141 302.074 222.176 300.465 222.176 C 298.844 222.176 297.537 221.141 297.537 219.871 C 297.537 218.596 298.844 217.566 300.465 217.566 Z"/>
  <path style="fill: rgb(250, 210, 77);" d="M 312.004 217.566 C 313.624 217.566 314.93 218.596 314.93 219.871 C 314.93 221.141 313.631 222.176 312.004 222.176 C 310.395 222.176 309.077 221.141 309.077 219.871 C 309.086 218.596 310.395 217.566 312.004 217.566 Z"/>
  <path style="fill: rgb(255, 91, 98);" d="M 323.562 217.566 C 325.17 217.566 326.486 218.596 326.486 219.871 C 326.486 221.141 325.17 222.176 323.562 222.176 C 321.942 222.176 320.628 221.141 320.628 219.871 C 320.628 218.596 321.942 217.566 323.562 217.566 Z"/>
  <path style="fill: rgb(236, 240, 241);" d="M 301.755 230.535 L 490.11 230.535 L 490.11 279.463 L 301.755 279.463 L 301.755 230.535 Z"/>
  <path style="fill: rgb(255, 91, 98);" d="M 329.7 286.602 C 336.613 286.602 342.216 291.019 342.216 296.465 C 342.216 301.91 336.613 306.321 329.7 306.321 C 322.784 306.321 317.18 301.91 317.18 296.465 C 317.18 291.019 322.79 286.602 329.7 286.602 Z"/>
  <path style="fill: rgb(33, 208, 195);" d="M 395.93 286.602 C 402.846 286.602 408.451 291.019 408.451 296.465 C 408.451 301.91 402.846 306.321 395.93 306.321 C 389.018 306.321 383.415 301.91 383.415 296.465 C 383.415 291.019 389.018 286.602 395.93 286.602 Z"/>
  <path style="fill: rgb(250, 210, 77);" d="M 462.162 286.602 C 469.074 286.602 474.684 291.019 474.684 296.465 C 474.684 301.91 469.074 306.321 462.162 306.321 C 455.245 306.321 449.641 301.91 449.641 296.465 C 449.641 291.019 455.245 286.602 462.162 286.602 Z"/>
  <g transform="matrix(1.665854, 0, 0, 1.311676, -30.528778, -42.019028)" style="">
    <path style="fill:#DCE3DB;" d="M205.458,268.076h21.569v1.17h-21.569L205.458,268.076L205.458,268.076z M205.458,275.429h14.487 v1.17h-14.487V275.429z M205.458,271.751h21.569v1.17h-21.569L205.458,271.751L205.458,271.751z"/>
    <path style="fill:#DCE3DB;" d="M245.214,268.076h21.569v1.17h-21.569V268.076z M245.214,275.429h14.487v1.17h-14.487 L245.214,275.429L245.214,275.429z M245.214,271.751h21.569v1.17h-21.569V271.751z"/>
    <path style="fill:#DCE3DB;" d="M284.976,268.076h21.566v1.17h-21.566V268.076z M284.976,275.429h14.487v1.17h-14.487V275.429z M284.976,271.751h21.566v1.17h-21.566V271.751z"/>
  </g>
  <path style="fill: rgb(236, 240, 241);" d="M 300.814 282.586 L 490.11 282.586 L 490.11 283.197 L 300.814 283.197 L 300.814 282.586 Z"/>
  <circle style="fill: rgb(182, 182, 184);" cx="256" cy="299.465" r="3.415" transform="matrix(1.665854, 0, 0, 1.311676, -30.528778, -42.019028)"/>
  <path style="fill: rgb(194, 194, 196);" d="M 431.642 385.434 L 457.912 392.062 L 333.959 392.062 L 355.149 385.434 L 355.149 364.971 L 431.642 364.971 L 431.642 385.434 L 431.642 385.434 Z"/>
  <path style="fill: rgb(176, 176, 176);" d="M 431.642 385.434 L 355.149 364.971 L 431.642 364.971 L 431.642 385.434 Z"/>
  <path style="fill: rgb(236, 240, 241);" d="M 355.149 385.434 L 431.642 385.434 L 457.907 392.062 L 457.907 394.919 L 395.93 394.919 L 333.951 394.919 L 333.951 392.062 L 355.149 385.434 Z"/>
  <g transform="matrix(1.665854, 0, 0, 1.311676, -30.528778, -42.019028)" style="">
    <path style="fill: rgb(255, 255, 255);" d="M88.345,369.948h2.028l11.867-6.473l1.933-7.551c-2.827-2.853-5.747-7.685-8.41-13.626 c-0.218,0.034-0.433,0.05-0.664,0.05c-3.135,0-6.243-3.412-6.943-7.625c-0.546-3.298,0.548-6.104,2.55-7.169 c-2.655-13.535-4.417-34.319,18.896-39.455c13.984-3.082,18.98,7.714,19.589,8.898c8.464-4.748,13.842,2.373,15.221,6.14 c2.5,6.815,1.687,19.484,0.409,25.084c1.403,1.34,2.088,3.751,1.634,6.502c-0.69,4.144-3.709,7.512-6.789,7.622 c-2.492,5.474-5.834,10.167-9.228,13.576l1.93,7.554h0.166l11.541,6.473h2.193c10.175,0,19.112,5.349,23.929,13.243 c-26.416,35.039-79.039,36.599-107.48,3.25c4.165-9.655,14.096-16.494,25.619-16.494h0.008V369.948z"/>
    <path style="fill: rgb(255, 255, 255);" d="M367.414,369.948h2.028l11.867-6.473l1.933-7.551c-2.827-2.853-5.747-7.685-8.41-13.626 c-0.218,0.034-0.433,0.05-0.664,0.05c-3.135,0-6.243-3.412-6.943-7.625c-0.546-3.298,0.548-6.104,2.55-7.169 c-2.655-13.535-4.417-34.319,18.896-39.455c13.984-3.082,18.98,7.714,19.589,8.898c8.464-4.748,13.842,2.373,15.221,6.14 c2.5,6.815,1.687,19.484,0.409,25.084c1.403,1.34,2.088,3.751,1.634,6.502c-0.69,4.144-3.709,7.512-6.789,7.622 c-2.492,5.474-5.834,10.167-9.228,13.576l1.93,7.554h0.166l11.541,6.473h2.193c10.175,0,19.112,5.349,23.929,13.243 c-12.574,16.677-32.548,27.463-55.041,27.463c-21,0-39.801-9.399-52.437-24.213c4.165-9.655,14.096-16.494,25.619-16.494 L367.414,369.948L367.414,369.948z"/>
    <path style="fill: rgb(255, 255, 255);" d="M227.879,118.227h2.028l11.867-6.473l1.933-7.551c-2.827-2.853-5.747-7.685-8.41-13.626 c-0.218,0.034-0.433,0.05-0.664,0.05c-3.135,0-6.243-3.412-6.943-7.625c-0.546-3.298,0.548-6.104,2.55-7.169 c-2.655-13.535-4.417-34.319,18.896-39.455c13.984-3.082,18.98,7.714,19.589,8.898c8.464-4.748,13.842,2.373,15.221,6.14 c2.5,6.815,1.687,19.484,0.409,25.084c1.403,1.34,2.088,3.751,1.634,6.502c-0.69,4.144-3.709,7.512-6.789,7.622 c-2.492,5.474-5.834,10.167-9.228,13.576l1.93,7.554h0.166l11.541,6.473h2.193c10.175,0,19.112,5.349,23.929,13.243 c-12.574,16.677-32.548,27.462-55.041,27.462c-21,0-39.801-9.399-52.437-24.213c4.165-9.655,14.096-16.494,25.619-16.494 L227.879,118.227L227.879,118.227z"/>
  </g>
  <g transform="matrix(1.665854, 0, 0, 1.311676, -30.528778, -42.019028)" style="">
    <path style="fill: rgb(33, 208, 195);" d="M258.146,137.141v33.945h-2.358v-33.945H258.146z"/>
    <circle style="fill: rgb(33, 208, 195);" cx="256.968" cy="137.142" r="5.505"/>
    <path style="fill: rgb(33, 208, 195);" d="M112.508,319.823v-84.209v-1.178h1.178h40.766v2.358h-39.589v83.029h-2.358h0.003V319.823z M397.136,319.823v-83.029h-42.706v-2.358h43.885h1.178v1.178v84.208h-2.357V319.823z"/>
    <circle style="fill: rgb(33, 208, 195);" cx="113.688" cy="319.825" r="5.505"/>
    <circle style="fill: rgb(33, 208, 195);" cx="398.312" cy="319.825" r="5.505"/>
  </g>
  <g transform="matrix(0.642257, 0, 0, 0.642257, 722.231812, 172.371948)"/>
</svg>