<?xml version="1.0" encoding="utf-8"?>
<svg xmlns="http://www.w3.org/2000/svg" viewBox="0 0 800 500" xmlns:bx="https://boxy-svg.com" width="800px" height="500px"><defs><linearGradient id="gradient-3" gradientUnits="userSpaceOnUse" x1="98.911" y1="0.01" x2="98.911" y2="500.01" gradientTransform="matrix(0.80773, -0.589552, 0.319159, 0.437272, 393.78017, 190.804626)"><stop offset="0" style="stop-color: #bada55"/><stop offset="1" style="stop-color: #758d29"/></linearGradient><linearGradient x1="68.1884411%" y1="17.4868311%" x2="27.8226935%" y2="89.7551419%" id="linearGradient-1"><stop stop-color="#41873F" offset="0"/><stop stop-color="#418B3D" offset="0.3288"/><stop stop-color="#419637" offset="0.6352"/><stop stop-color="#3FA92D" offset="0.9319"/><stop stop-color="#3FAE2A" offset="1"/></linearGradient><path id="path-2" d="M57.903386,1.84920993 C56.0541761,0.809029345 53.8582393,0.809029345 52.0090293,1.84920993 L3.351693,29.9340858 C1.50248307,30.9742664 0.462302483,32.9390519 0.462302483,35.0194131 L0.462302483,91.3047404 C0.462302483,93.3851016 1.61805869,95.3498871 3.351693,96.3900677 L52.0090293,124.474944 C53.8582393,125.515124 56.0541761,125.515124 57.903386,124.474944 L106.560722,96.3900677 C108.409932,95.3498871 109.450113,93.3851016 109.450113,91.3047404 L109.450113,35.0194131 C109.450113,32.9390519 108.294357,30.9742664 106.560722,29.9340858 L57.903386,1.84920993 L57.903386,1.84920993 Z"/><linearGradient x1="43.2765472%" y1="55.168777%" x2="159.245277%" y2="-18.3061379%" id="linearGradient-4"><stop stop-color="#41873F" offset="0.1376"/><stop stop-color="#54A044" offset="0.4032"/><stop stop-color="#66B848" offset="0.7136"/><stop stop-color="#6CC04A" offset="0.9081"/></linearGradient><linearGradient x1="-4413.77%" y1="13.43%" x2="5327.93%" y2="13.43%" id="linearGradient-5"><stop stop-color="#6CC04A" offset="0.0919"/><stop stop-color="#66B848" offset="0.2864"/><stop stop-color="#54A044" offset="0.5968"/><stop stop-color="#41873F" offset="0.8624"/></linearGradient><linearGradient x1="-4.38880435%" y1="49.9972065%" x2="101.499239%" y2="49.9972065%" id="linearGradient-6"><stop stop-color="#6CC04A" offset="0.0919"/><stop stop-color="#66B848" offset="0.2864"/><stop stop-color="#54A044" offset="0.5968"/><stop stop-color="#41873F" offset="0.8624"/></linearGradient><linearGradient x1="-9713.77%" y1="36.21%" x2="27.93%" y2="36.21%" id="linearGradient-7"><stop stop-color="#6CC04A" offset="0.0919"/><stop stop-color="#66B848" offset="0.2864"/><stop stop-color="#54A044" offset="0.5968"/><stop stop-color="#41873F" offset="0.8624"/></linearGradient><linearGradient x1="-103.860714%" y1="50.2754209%" x2="100.796849%" y2="50.2754209%" id="linearGradient-8"><stop stop-color="#6CC04A" offset="0.0919"/><stop stop-color="#66B848" offset="0.2864"/><stop stop-color="#54A044" offset="0.5968"/><stop stop-color="#41873F" offset="0.8624"/></linearGradient><linearGradient x1="130.613025%" y1="-211.06936%" x2="4.39327731%" y2="201.605387%" id="linearGradient-9"><stop stop-color="#41873F" offset="0"/><stop stop-color="#418B3D" offset="0.3288"/><stop stop-color="#419637" offset="0.6352"/><stop stop-color="#3FA92D" offset="0.9319"/><stop stop-color="#3FAE2A" offset="1"/></linearGradient><bx:export><bx:file format="webp" path="node-js-que-es.webp" excluded="true"/><bx:file format="svg" path="node-js-que-es.svg"/></bx:export></defs><rect x="0" y="0" width="800" height="500" style="paint-order: stroke; fill: url(&quot;#gradient-3&quot;); stroke-width: 1;"/><path d="M 328.402 399.266 L 464.109 399.266 L 464.109 454.162 L 328.402 454.162 L 328.402 399.266 Z M 328.402 399.266" fill="#5a5a5a" style="stroke-width: 1;"/><path d="M 613.915 406.955 L 178.594 406.955 C 164.839 406.955 153.693 396.058 153.693 382.614 L 153.693 36.339 C 153.693 22.896 164.839 11.999 178.594 11.999 L 613.915 11.999 C 627.669 11.999 638.819 22.896 638.819 36.339 L 638.819 382.614 C 638.819 396.058 627.669 406.955 613.915 406.955 Z M 613.915 406.955" style="stroke-width: 1; fill: rgb(57, 57, 57);"/><path d="M 638.823 36.343 L 638.823 382.614 C 638.823 396.058 627.673 406.955 613.918 406.955 L 583.496 406.955 C 597.251 406.955 608.401 396.058 608.401 382.614 L 608.401 36.343 C 608.401 22.9 597.251 12.002 583.496 12.002 L 613.918 12.002 C 627.673 12.002 638.823 22.9 638.823 36.343 Z M 638.823 36.343" style="stroke-width: 1; fill: rgb(3, 3, 3);"/><path d="M 638.819 348.315 L 153.693 348.315 L 153.693 382.614 C 153.693 396.058 164.839 406.955 178.594 406.955 L 613.915 406.955 C 627.669 406.955 638.819 396.058 638.819 382.614 L 638.819 348.315 Z M 638.819 348.315" fill="#838383" style="stroke-width: 1;"/><path d="M 638.823 348.311 L 638.823 382.614 C 638.823 396.058 627.673 406.955 613.918 406.955 L 583.496 406.955 C 597.251 406.955 608.401 396.058 608.401 382.614 L 608.401 348.311 L 638.823 348.311 Z M 638.823 348.311" fill="#5a5a5a" style="stroke-width: 1;"/><path d="M 639.375 95.033 L 154.234 95.033 L 154.234 36.339 C 154.234 22.896 165.38 11.999 179.135 11.999 L 614.471 11.999 C 628.225 11.999 639.375 22.896 639.375 36.339 L 639.375 95.033 Z M 639.375 95.033" fill="#acacac" style="stroke-width: 1;"/><path d="M 639.379 36.336 L 639.379 95.037 L 608.401 95.037 L 608.401 36.336 C 608.401 22.9 597.251 12.002 583.493 12.002 L 614.474 12.002 C 628.229 12.002 639.379 22.9 639.379 36.336 Z M 639.379 36.336" fill="#9c9c9c" style="stroke-width: 1;"/><path d="M 508.086 486.151 L 284.425 486.151 C 281.731 486.151 279.544 484.014 279.544 481.381 L 279.544 465.921 C 279.544 455.437 288.241 446.937 298.969 446.937 L 493.542 446.937 C 504.269 446.937 512.965 455.437 512.965 465.921 L 512.965 481.381 C 512.965 484.014 510.78 486.151 508.086 486.151 Z M 508.086 486.151" fill="#838383" style="stroke-width: 1;"/><path d="M 512.965 465.918 L 512.965 481.385 C 512.965 484.018 510.78 486.155 508.082 486.155 L 490.851 486.155 L 490.851 465.918 C 490.851 455.441 482.154 446.937 471.434 446.937 L 493.549 446.937 C 504.272 446.937 512.965 455.437 512.965 465.918 Z M 512.965 465.918" fill="#5a5a5a" style="stroke-width: 1;"/><g fill="#838383" transform="matrix(0.948611, 0, 0, 0.927119, 144.153275, -9.186441)" style=""><path d="m58.476562 186.492188c-1.917968 0-3.839843-.730469-5.304687-2.195313l-24.199219-24.203125c-2.929687-2.925781-2.929687-7.675781 0-10.605469l24.199219-24.199219c2.929687-2.929687 7.679687-2.929687 10.609375 0 2.929688 2.929688 2.929688 7.675782 0 10.605469l-18.898438 18.898438 18.898438 18.898437c2.929688 2.929688 2.929688 7.675782 0 10.605469-1.464844 1.464844-3.386719 2.195313-5.304688 2.195313zm0 0"/><path d="m116.335938 186.492188c-1.917969 0-3.839844-.730469-5.304688-2.195313-2.929688-2.929687-2.929688-7.679687 0-10.605469l18.898438-18.898437-18.898438-18.898438c-2.929688-2.929687-2.929688-7.679687 0-10.605469 2.929688-2.929687 7.679688-2.929687 10.609375 0l24.199219 24.199219c2.929687 2.929688 2.929687 7.679688 0 10.605469l-24.199219 24.203125c-1.464844 1.464844-3.386719 2.195313-5.304687 2.195313zm0 0"/><path d="m78.722656 186.496094c-.914062 0-1.839844-.167969-2.742187-.523438-3.855469-1.511718-5.753907-5.867187-4.238281-9.722656l19.015624-48.402344c1.515626-3.851562 5.871094-5.753906 9.722657-4.238281 3.855469 1.515625 5.753906 5.871094 4.238281 9.726563l-19.015625 48.398437c-1.160156 2.957031-3.988281 4.761719-6.980469 4.761719zm0 0"/><path d="m90.644531 231.78125h-52c-4.140625 0-7.5-3.359375-7.5-7.5 0-4.144531 3.359375-7.5 7.5-7.5h52c4.144531 0 7.5 3.355469 7.5 7.5 0 4.140625-3.355469 7.5-7.5 7.5zm0 0"/><path d="M 130.9 327.752 L 39.474 327.752 C 35.333 327.752 31.974 324.392 31.974 320.252 C 31.974 316.107 35.333 312.752 39.474 312.752 L 130.9 312.752 C 135.044 312.752 138.4 316.107 138.4 320.252 C 138.4 324.392 135.044 327.752 130.9 327.752 Z M 130.9 327.752"/><path d="m60.796875 264.335938h-22.152344c-4.140625 0-7.5-3.355469-7.5-7.5 0-4.140626 3.359375-7.5 7.5-7.5h22.152344c4.144531 0 7.5 3.359374 7.5 7.5 0 4.144531-3.359375 7.5-7.5 7.5zm0 0"/><path d="M 191.098 230.518 L 177.606 230.518 C 173.465 230.518 170.106 227.162 170.106 223.018 C 170.106 218.877 173.465 215.518 177.606 215.518 L 191.098 215.518 C 195.239 215.518 198.598 218.877 198.598 223.018 C 198.598 227.162 195.239 230.518 191.098 230.518 Z M 191.098 230.518"/><path d="M 107.526 359.392 L 41.269 359.392 C 37.124 359.392 33.769 356.037 33.769 351.892 C 33.769 347.752 37.124 344.392 41.269 344.392 L 107.526 344.392 C 111.671 344.392 115.026 347.752 115.026 351.892 C 115.026 356.037 111.667 359.392 107.526 359.392 Z M 107.526 359.392"/><path d="M 446.495 160.14 L 421.225 160.14 C 417.085 160.14 413.725 156.784 413.725 152.64 C 413.725 148.499 417.085 145.14 421.225 145.14 L 446.495 145.14 C 450.635 145.14 453.995 148.499 453.995 152.64 C 453.995 156.784 450.635 160.14 446.495 160.14 Z M 446.495 160.14"/><path d="m197.039062 160.761719h-26.652343c-4.144531 0-7.5-3.355469-7.5-7.5 0-4.140625 3.355469-7.5 7.5-7.5h26.652343c4.144532 0 7.5 3.359375 7.5 7.5 0 4.144531-3.355468 7.5-7.5 7.5zm0 0"/><path d="m389.503906 160.761719h-162.617187c-4.140625 0-7.5-3.355469-7.5-7.5 0-4.140625 3.359375-7.5 7.5-7.5h162.617187c4.140625 0 7.5 3.359375 7.5 7.5 0 4.144531-3.359375 7.5-7.5 7.5zm0 0"/><path d="M 454.373 194.727 L 388.506 194.727 C 384.361 194.727 381.006 191.371 381.006 187.227 C 381.006 183.086 384.361 179.727 388.506 179.727 L 454.373 179.727 C 458.518 179.727 461.873 183.086 461.873 187.227 C 461.873 191.371 458.518 194.727 454.373 194.727 Z M 454.373 194.727"/><path d="m274.230469 194.726562h-22.644531c-4.140626 0-7.5-3.355468-7.5-7.5 0-4.140624 3.359374-7.5 7.5-7.5h22.644531c4.144531 0 7.5 3.359376 7.5 7.5 0 4.144532-3.355469 7.5-7.5 7.5zm0 0"/><path d="m225.859375 194.726562h-55.476563c-4.140624 0-7.5-3.355468-7.5-7.5 0-4.140624 3.359376-7.5 7.5-7.5h55.476563c4.140625 0 7.5 3.359376 7.5 7.5 0 4.144532-3.359375 7.5-7.5 7.5zm0 0"/><path d="M 211.82 326.783 L 159.82 326.783 C 155.676 326.783 152.32 323.424 152.32 319.283 C 152.32 315.139 155.676 311.783 159.82 311.783 L 211.82 311.783 C 215.965 311.783 219.32 315.139 219.32 319.283 C 219.32 323.424 215.965 326.783 211.82 326.783 Z M 211.82 326.783"/><path d="m78.597656 296.621094h-39.953125c-4.140625 0-7.5-3.359375-7.5-7.5 0-4.144532 3.359375-7.5 7.5-7.5h39.953125c4.140625 0 7.5 3.355468 7.5 7.5 0 4.140625-3.359375 7.5-7.5 7.5zm0 0"/><path d="M 205.542 358.773 L 137.616 358.773 C 133.472 358.773 130.116 355.414 130.116 351.273 C 130.116 347.129 133.472 343.773 137.616 343.773 L 205.542 343.773 C 209.686 343.773 213.042 347.129 213.042 351.273 C 213.042 355.414 209.686 358.773 205.542 358.773 Z M 205.542 358.773"/><path d="M 383.192 360.099 L 315.266 360.099 C 311.122 360.099 307.766 356.74 307.766 352.599 C 307.766 348.455 311.122 345.099 315.266 345.099 L 383.192 345.099 C 387.336 345.099 390.692 348.455 390.692 352.599 C 390.692 356.74 387.336 360.099 383.192 360.099 Z M 383.192 360.099" style="stroke-width: 1;"/><path d="M 367.916 329.937 L 315.916 329.937 C 311.775 329.937 308.416 326.578 308.416 322.437 C 308.416 318.292 311.775 314.937 315.916 314.937 L 367.916 314.937 C 372.06 314.937 375.416 318.292 375.416 322.437 C 375.416 326.578 372.06 329.937 367.916 329.937 Z M 367.916 329.937" style="stroke-width: 1;"/><path d="M 272.806 229.397 L 250.162 229.397 C 246.021 229.397 242.662 226.041 242.662 221.897 C 242.662 217.756 246.021 214.397 250.162 214.397 L 272.806 214.397 C 276.951 214.397 280.306 217.756 280.306 221.897 C 280.306 226.041 276.951 229.397 272.806 229.397 Z M 272.806 229.397" style="stroke-width: 1;"/><path d="M 429.277 329.937 L 402.625 329.937 C 398.48 329.937 395.125 326.582 395.125 322.437 C 395.125 318.297 398.48 314.937 402.625 314.937 L 429.277 314.937 C 433.421 314.937 436.777 318.297 436.777 322.437 C 436.777 326.582 433.421 329.937 429.277 329.937 Z M 429.277 329.937" style="stroke-width: 1;"/></g><path d="M 214.539 53.313 C 214.539 60.962 208.195 67.159 200.372 67.159 C 192.546 67.159 186.202 60.962 186.202 53.313 C 186.202 45.668 192.546 39.468 200.372 39.468 C 208.195 39.468 214.539 45.668 214.539 53.313 Z M 214.539 53.313" fill="#ff5770" style="stroke-width: 1;"/><path d="M 269.247 53.313 C 269.247 60.962 262.907 67.159 255.081 67.159 C 247.258 67.159 240.914 60.962 240.914 53.313 C 240.914 45.668 247.258 39.468 255.081 39.468 C 262.907 39.468 269.247 45.668 269.247 53.313 Z M 269.247 53.313" fill="#ffd86e" style="stroke-width: 1;"/><path d="M 323.958 53.313 C 323.958 60.962 317.615 67.159 309.793 67.159 C 301.967 67.159 295.626 60.962 295.626 53.313 C 295.626 45.668 301.967 39.468 309.793 39.468 C 317.615 39.468 323.958 45.668 323.958 53.313 Z M 323.958 53.313" fill="#80e0dc" style="stroke-width: 1;"/><path d="M 214.531 53.317 C 214.531 60.962 208.195 67.155 200.376 67.155 C 196.585 67.155 193.139 65.703 190.601 63.327 C 198.264 63.164 204.437 57.04 204.437 49.5 C 204.437 45.552 202.748 41.999 200.042 39.482 C 200.15 39.472 200.269 39.472 200.376 39.472 C 208.195 39.472 214.531 45.664 214.531 53.317 Z M 214.531 53.317" fill="#ff435f" style="stroke-width: 1;"/><path d="M 269.243 53.317 C 269.243 60.962 262.907 67.155 255.077 67.155 C 251.29 67.155 247.855 65.703 245.305 63.327 C 252.979 63.164 259.149 57.04 259.149 49.5 C 259.149 45.552 257.46 41.999 254.758 39.482 C 254.862 39.472 254.97 39.472 255.081 39.472 C 262.91 39.472 269.243 45.664 269.243 53.317 Z M 269.243 53.317" fill="#ffb509" style="stroke-width: 1;"/><path d="M 323.958 53.317 C 323.958 60.962 317.611 67.155 309.793 67.155 C 306.002 67.155 302.567 65.703 300.017 63.327 C 307.692 63.164 313.854 57.04 313.854 49.5 C 313.854 45.552 312.164 41.999 309.459 39.482 C 309.567 39.472 309.685 39.472 309.793 39.472 C 317.611 39.472 323.958 45.664 323.958 53.317 Z M 323.958 53.317" fill="#00a8b0" style="stroke-width: 1;"/><g fill="none" transform="matrix(0.594205, 0, 0, 0.599633, 240.585602, 155.629242)" style=""><path d="M253.110609,313.094357 C251.376975,313.094357 249.758916,312.632054 248.256433,311.823025 L232.884876,302.692551 C230.573363,301.421219 231.72912,300.958916 232.422573,300.727765 C235.543115,299.687585 236.120993,299.456433 239.357111,297.607223 C239.703837,297.376072 240.16614,297.491648 240.512867,297.722799 L252.30158,304.772912 C252.763883,305.004063 253.341761,305.004063 253.688488,304.772912 L299.80316,278.074944 C300.265463,277.843792 300.496614,277.38149 300.496614,276.803612 L300.496614,223.523251 C300.496614,222.945372 300.265463,222.48307 299.80316,222.251919 L253.688488,195.669526 C253.226185,195.438375 252.648307,195.438375 252.30158,195.669526 L206.186907,222.251919 C205.724605,222.48307 205.493454,223.060948 205.493454,223.523251 L205.493454,276.803612 C205.493454,277.265914 205.724605,277.843792 206.186907,278.074944 L218.78465,285.356208 C225.603612,288.823476 229.87991,284.77833 229.87991,280.733183 L229.87991,228.146275 C229.87991,227.452822 230.457788,226.759368 231.266817,226.759368 L237.161174,226.759368 C237.854628,226.759368 238.548081,227.337246 238.548081,228.146275 L238.548081,280.733183 C238.548081,289.863657 233.57833,295.180135 224.910158,295.180135 C222.251919,295.180135 220.171558,295.180135 214.277201,292.290745 L202.141761,285.356208 C199.136795,283.622573 197.287585,280.386456 197.287585,276.919187 L197.287585,223.638826 C197.287585,220.171558 199.136795,216.93544 202.141761,215.201806 L248.256433,188.503837 C251.145824,186.885779 255.075395,186.885779 257.964786,188.503837 L304.079458,215.201806 C307.084424,216.93544 308.933634,220.171558 308.933634,223.638826 L308.933634,276.919187 C308.933634,280.386456 307.084424,283.622573 304.079458,285.356208 L257.964786,312.054176 C256.462302,312.74763 254.728668,313.094357 253.110609,313.094357 Z M267.326411,276.456885 C247.100677,276.456885 242.939955,267.210835 242.939955,259.351693 C242.939955,258.658239 243.517833,257.964786 244.326862,257.964786 L250.336795,257.964786 C251.030248,257.964786 251.608126,258.427088 251.608126,259.120542 C252.532731,265.24605 255.190971,268.251016 267.441986,268.251016 C277.150339,268.251016 281.311061,266.055079 281.311061,260.854176 C281.311061,257.84921 280.155305,255.653273 265.014898,254.15079 C252.417156,252.879458 244.558014,250.105643 244.558014,240.050564 C244.558014,230.688939 252.417156,225.141309 265.592777,225.141309 C280.386456,225.141309 287.66772,230.226637 288.592325,241.321896 C288.592325,241.668623 288.476749,242.01535 288.245598,242.362077 C288.014447,242.593228 287.66772,242.824379 287.320993,242.824379 L281.311061,242.824379 C280.733183,242.824379 280.155305,242.362077 280.039729,241.784199 C278.652822,235.42754 275.069977,233.347178 265.592777,233.347178 C254.959819,233.347178 253.688488,237.045598 253.688488,239.819413 C253.688488,243.171106 255.190971,244.211287 269.522348,246.060497 C283.738149,247.909707 290.441535,250.567946 290.441535,260.507449 C290.325959,270.678104 282.004515,276.456885 267.326411,276.456885 Z" fill="#539E43"/><path d="M110.027991,104.711512 C110.027991,102.631151 108.872235,100.666366 107.023025,99.6261851 L58.0189616,71.4257336 C57.2099323,70.9634312 56.2853273,70.7322799 55.3607223,70.6167043 L54.8984199,70.6167043 C53.9738149,70.6167043 53.0492099,70.9634312 52.2401806,71.4257336 L3.23611738,99.6261851 C1.38690745,100.666366 0.231151242,102.631151 0.231151242,104.711512 L0.346726862,180.52912 C0.346726862,181.5693 0.924604966,182.609481 1.84920993,183.071783 C2.7738149,183.649661 3.92957111,183.649661 4.73860045,183.071783 L33.8636569,166.428894 C35.7128668,165.388713 36.868623,163.423928 36.868623,161.343567 L36.868623,125.861851 C36.868623,123.78149 38.0243792,121.816704 39.8735892,120.776524 L52.2401806,113.610835 C53.1647856,113.032957 54.2049661,112.801806 55.2451467,112.801806 C56.2853273,112.801806 57.3255079,113.032957 58.1345372,113.610835 L70.5011287,120.776524 C72.3503386,121.816704 73.5060948,123.78149 73.5060948,125.861851 L73.5060948,161.343567 C73.5060948,163.423928 74.661851,165.388713 76.5110609,166.428894 L105.636117,183.071783 C106.560722,183.649661 107.716479,183.649661 108.641084,183.071783 C109.565688,182.609481 110.143567,181.5693 110.143567,180.52912 L110.027991,104.711512 L110.027991,104.711512 Z" style="fill: rgb(165, 165, 165);"/><path d="M345.571106,0.346726862 C344.646501,-0.115575621 343.490745,-0.115575621 342.681716,0.346726862 C341.757111,0.924604966 341.179233,1.84920993 341.179233,2.88939052 L341.179233,78.013544 C341.179233,78.7069977 340.832506,79.4004515 340.139052,79.862754 C339.445598,80.2094808 338.752144,80.2094808 338.058691,79.862754 L325.807675,72.8126411 C323.958465,71.7724605 321.762528,71.7724605 319.913318,72.8126411 L270.909255,101.128668 C269.060045,102.168849 267.904289,104.133634 267.904289,106.213995 L267.904289,162.730474 C267.904289,164.810835 269.060045,166.775621 270.909255,167.815801 L319.913318,196.131828 C321.762528,197.172009 323.958465,197.172009 325.807675,196.131828 L374.811738,167.815801 C376.660948,166.775621 377.816704,164.810835 377.816704,162.730474 L377.816704,21.8437923 C377.816704,19.6478555 376.660948,17.68307 374.811738,16.6428894 L345.571106,0.346726862 L345.571106,0.346726862 Z M341.063657,144.122799 C341.063657,144.700677 340.832506,145.16298 340.370203,145.394131 L323.611738,155.102483 C323.149436,155.333634 322.571558,155.333634 322.109255,155.102483 L305.35079,145.394131 C304.888488,145.16298 304.657336,144.585102 304.657336,144.122799 L304.657336,124.706095 C304.657336,124.128217 304.888488,123.665914 305.35079,123.434763 L322.109255,113.726411 C322.571558,113.49526 323.149436,113.49526 323.611738,113.726411 L340.370203,123.434763 C340.832506,123.665914 341.063657,124.243792 341.063657,124.706095 L341.063657,144.122799 L341.063657,144.122799 Z" style="fill: rgb(165, 165, 165);"/><g transform="translate(401.047404, 70.501129)"><path d="M107.600903,53.7426637 C109.450113,52.7024831 110.490293,50.7376975 110.490293,48.6573363 L110.490293,34.9038375 C110.490293,32.8234763 109.334537,30.8586907 107.600903,29.8185102 L58.9435666,1.61805869 C57.0943567,0.577878104 54.8984199,0.577878104 53.0492099,1.61805869 L4.04514673,29.9340858 C2.19593679,30.9742664 1.04018059,32.9390519 1.04018059,35.0194131 L1.04018059,91.5358916 C1.04018059,93.6162528 2.19593679,95.5810384 4.04514673,96.621219 L52.7024831,124.359368 C54.551693,125.399549 56.7476298,125.399549 58.4812641,124.359368 L87.9530474,107.94763 C88.8776524,107.485327 89.4555305,106.445147 89.4555305,105.404966 C89.4555305,104.364786 88.8776524,103.324605 87.9530474,102.862302 L38.717833,74.5462754 C37.793228,73.9683973 37.2153499,73.0437923 37.2153499,72.0036117 L37.2153499,54.3205418 C37.2153499,53.2803612 37.793228,52.2401806 38.717833,51.7778781 L54.0893905,42.9941309 C55.0139955,42.4162528 56.1697517,42.4162528 57.0943567,42.9941309 L72.4659142,51.7778781 C73.3905192,52.3557562 73.9683973,53.2803612 73.9683973,54.3205418 L73.9683973,68.1896163 C73.9683973,69.2297968 74.5462754,70.2699774 75.4708804,70.7322799 C76.3954853,71.310158 77.5512415,71.310158 78.4758465,70.7322799 L107.600903,53.7426637 L107.600903,53.7426637 Z" style="fill: rgb(165, 165, 165);"/><path d="M55.2451467,51.0844244 C55.5918736,50.8532731 56.0541761,50.8532731 56.4009029,51.0844244 L65.7625282,56.5164786 C66.1092551,56.7476298 66.3404063,57.0943567 66.3404063,57.5566591 L66.3404063,68.4207675 C66.3404063,68.88307 66.1092551,69.2297968 65.7625282,69.4609481 L56.4009029,74.8930023 C56.0541761,75.1241535 55.5918736,75.1241535 55.2451467,74.8930023 L45.8835214,69.4609481 C45.5367946,69.2297968 45.3056433,68.88307 45.3056433,68.4207675 L45.3056433,57.5566591 C45.3056433,57.0943567 45.5367946,56.7476298 45.8835214,56.5164786 L55.2451467,51.0844244 L55.2451467,51.0844244 Z" fill="#539E43"/></g><g transform="translate(134.067720, 70.501129)"><mask id="mask-3" fill="white"><path d="M57.903386,1.84920993 C56.0541761,0.809029345 53.8582393,0.809029345 52.0090293,1.84920993 L3.351693,29.9340858 C1.50248307,30.9742664 0.462302483,32.9390519 0.462302483,35.0194131 L0.462302483,91.3047404 C0.462302483,93.3851016 1.61805869,95.3498871 3.351693,96.3900677 L52.0090293,124.474944 C53.8582393,125.515124 56.0541761,125.515124 57.903386,124.474944 L106.560722,96.3900677 C108.409932,95.3498871 109.450113,93.3851016 109.450113,91.3047404 L109.450113,35.0194131 C109.450113,32.9390519 108.294357,30.9742664 106.560722,29.9340858 L57.903386,1.84920993 L57.903386,1.84920993 Z"/></mask><path d="M57.903386,1.84920993 C56.0541761,0.809029345 53.8582393,0.809029345 52.0090293,1.84920993 L3.351693,29.9340858 C1.50248307,30.9742664 0.462302483,32.9390519 0.462302483,35.0194131 L0.462302483,91.3047404 C0.462302483,93.3851016 1.61805869,95.3498871 3.351693,96.3900677 L52.0090293,124.474944 C53.8582393,125.515124 56.0541761,125.515124 57.903386,124.474944 L106.560722,96.3900677 C108.409932,95.3498871 109.450113,93.3851016 109.450113,91.3047404 L109.450113,35.0194131 C109.450113,32.9390519 108.294357,30.9742664 106.560722,29.9340858 L57.903386,1.84920993 L57.903386,1.84920993 Z" fill="url(#linearGradient-1)"/><g mask="url(#mask-3)"><path d="M51.8934537,1.84920993 L3.12054176,29.9340858 C1.27133183,30.9742664 0,32.9390519 0,35.0194131 L0,91.3047404 C0,92.6916479 0.577878104,93.9629797 1.50248307,95.0031603 L56.2853273,1.15575621 C54.8984199,0.924604966 53.2803612,1.04018059 51.8934537,1.84920993 L51.8934537,1.84920993 Z"/><path d="M56.6320542,125.052822 C57.0943567,124.937246 57.5566591,124.706095 58.0189616,124.474944 L106.791874,96.3900677 C108.641084,95.3498871 109.79684,93.3851016 109.79684,91.3047404 L109.79684,35.0194131 C109.79684,33.51693 109.103386,32.014447 108.063205,30.9742664 L56.6320542,125.052822 L56.6320542,125.052822 Z"/><path d="M106.676298,29.9340858 L57.7878104,1.84920993 C57.3255079,1.61805869 56.7476298,1.38690745 56.2853273,1.27133183 L1.50248307,95.1187359 C1.96478555,95.696614 2.54266366,96.1589165 3.12054176,96.5056433 L52.0090293,124.590519 C53.3959368,125.399549 55.0139955,125.6307 56.5164786,125.168397 L107.94763,31.089842 C107.600903,30.6275395 107.1386,30.2808126 106.676298,29.9340858 L106.676298,29.9340858 Z" fill="url(#linearGradient-4)"/></g><g mask="url(#mask-3)"><g transform="translate(0.000000, -9.246050)"><path d="M109.79684,100.55079 L109.79684,44.2654628 C109.79684,42.1851016 108.525508,40.220316 106.676298,39.1801354 L57.7878104,11.0952596 C57.2099323,10.7485327 56.6320542,10.5173815 55.9386005,10.4018059 L109.450113,101.822122 C109.681264,101.475395 109.79684,101.013093 109.79684,100.55079 L109.79684,100.55079 Z" fill="none"/><path d="M3.12054176,39.1801354 C1.27133183,40.220316 0,42.1851016 0,44.2654628 L0,100.55079 C0,102.631151 1.38690745,104.595937 3.12054176,105.636117 L52.0090293,133.720993 C53.1647856,134.414447 54.4361174,134.645598 55.8230248,134.414447 L3.46726862,39.0645598 L3.12054176,39.1801354 L3.12054176,39.1801354 Z" fill="none"/><path fill="url(#linearGradient-5)" fill-rule="evenodd" d="M50.3909707,0.809029345 L49.6975169,1.15575621 L50.6221219,1.15575621 L50.3909707,0.809029345 Z"/><path d="M106.791874,105.636117 C108.178781,104.827088 109.218962,103.440181 109.681264,101.937698 L56.0541761,10.4018059 C54.6672686,10.1706546 53.1647856,10.2862302 51.8934537,11.0952596 L3.351693,39.0645598 L55.7074492,134.530023 C56.4009029,134.414447 57.2099323,134.183296 57.903386,133.836569 L106.791874,105.636117 L106.791874,105.636117 Z" fill="url(#linearGradient-6)" fill-rule="evenodd"/><path fill="url(#linearGradient-7)" fill-rule="evenodd" d="M111.299323,104.711512 L110.952596,104.133634 L110.952596,104.942664 L111.299323,104.711512 Z"/><path d="M106.791874,105.636117 L58.0189616,133.720993 C57.3255079,134.06772 56.6320542,134.298871 55.8230248,134.414447 L56.7476298,136.148081 L110.83702,104.827088 L110.83702,104.133634 L109.450113,101.822122 C109.218962,103.440181 108.178781,104.827088 106.791874,105.636117 L106.791874,105.636117 Z" fill="url(#linearGradient-8)" fill-rule="evenodd"/><path d="M106.791874,105.636117 L58.0189616,133.720993 C57.3255079,134.06772 56.6320542,134.298871 55.8230248,134.414447 L56.7476298,136.148081 L110.83702,104.827088 L110.83702,104.133634 L109.450113,101.822122 C109.218962,103.440181 108.178781,104.827088 106.791874,105.636117 L106.791874,105.636117 Z" fill="url(#linearGradient-9)" fill-rule="evenodd"/></g></g></g></g></svg>