<?xml version="1.0" encoding="utf-8"?>
<svg xmlns="http://www.w3.org/2000/svg" viewBox="0 0 800 500" xmlns:bx="https://boxy-svg.com" width="800px" height="500px"><defs><path id="path-2" d="M57.903386,1.84920993 C56.0541761,0.809029345 53.8582393,0.809029345 52.0090293,1.84920993 L3.351693,29.9340858 C1.50248307,30.9742664 0.462302483,32.9390519 0.462302483,35.0194131 L0.462302483,91.3047404 C0.462302483,93.3851016 1.61805869,95.3498871 3.351693,96.3900677 L52.0090293,124.474944 C53.8582393,125.515124 56.0541761,125.515124 57.903386,124.474944 L106.560722,96.3900677 C108.409932,95.3498871 109.450113,93.3851016 109.450113,91.3047404 L109.450113,35.0194131 C109.450113,32.9390519 108.294357,30.9742664 106.560722,29.9340858 L57.903386,1.84920993 L57.903386,1.84920993 Z"/><bx:export><bx:file format="webp" path="primeros-pasos-python.webp"/><bx:file format="svg" path="primeros-pasos-python.svg"/></bx:export><linearGradient id="a" x1="-133.268" y1="-202.91" x2="-133.198" y2="-202.84" gradientTransform="matrix(189.380005, 0, 0, 189.809998, 25605.991119, 38792.993286)" gradientUnits="userSpaceOnUse"><stop offset="0" stop-color="#387eb8"/><stop offset="1" stop-color="#366994"/></linearGradient><linearGradient id="b" x1="-133.575" y1="-203.203" x2="-133.495" y2="-203.133" gradientTransform="matrix(189.380005, 0, 0, 189.809998, 25671.991119, 38857.243286)" gradientUnits="userSpaceOnUse"><stop offset="0" stop-color="#ffe052"/><stop offset="1" stop-color="#ffc331"/></linearGradient><linearGradient id="gradient-1" gradientUnits="userSpaceOnUse" x1="98.902" y1="0.013" x2="98.902" y2="500.013" gradientTransform="matrix(0.46747, -0.884009, 0.378227, 0.200009, 875.424377, -6.51643)"><stop offset="0" style="stop-color: rgba(165, 206, 255, 1)"/><stop offset="1" style="stop-color: rgba(63, 150, 255, 1)"/></linearGradient></defs><title>file_type_python</title><rect x="0" y="0" width="800" height="500" style="fill: url(&quot;#gradient-1&quot;); stroke-width: 1;"/><g id="Layer_1" transform="matrix(1, 0, 0, 1, 299.270233, 60.254723)"><path style="fill: rgb(107, 107, 107); stroke-width: 1;" d="M -276.23 292.379 L -276.23 -31.621 C -276.12 -37.325 -271.53 -41.917 -265.83 -42.021 L 225.372 -42.021 C 231.076 -41.917 235.668 -37.325 235.772 -31.621 L 235.772 292.379 L -276.23 292.379 Z"/><path d="M 235.772 292.379 L 235.772 333.979 C 235.668 339.683 231.076 344.275 225.372 344.379 L -265.83 344.379 C -271.53 344.275 -276.12 339.683 -276.23 333.979 L -276.23 292.379 L 235.772 292.379 Z" style="stroke-width: 1;"/><rect x="-129.83" y="417.979" style="fill: rgb(51, 51, 51); stroke-width: 1;" width="219.2" height="10.4"/><polygon style="fill: rgb(107, 107, 107); stroke-width: 1;" points="52.572 417.979 -93.028 417.979 -82.628 344.379 42.172 344.379"/><rect x="-255.43" y="-21.221" width="470.4" height="292.8" style="stroke-width: 1;"/><polygon style="fill: rgb(51, 51, 51); stroke-width: 1;" points="42.172 344.379 -82.628 344.379 -88.436 385.459 44.044 357.603"/><rect x="3.188" y="24.499" style="fill: rgb(153, 153, 153); stroke-width: 1;" width="78.056" height="11.144"/><g transform="matrix(1, 0, 0, 1, -276.22818, -62.820751)"><rect x="295.024" y="118.544" style="fill:#E21B1B;" width="62.448" height="11.144"/><rect x="216.96" y="87.32" style="fill:#E21B1B;" width="31.232" height="11.144"/></g><rect x="-43.668" y="55.723" style="fill: rgb(153, 153, 153); stroke-width: 1;" width="31.224" height="11.144"/><rect x="50.02" y="86.947" style="fill: rgb(255, 255, 255); stroke-width: 1;" width="31.224" height="11.144"/><g transform="matrix(1, 0, 0, 1, -276.22818, -62.820751)"><rect x="248.16" y="149.768" style="fill:#E21B1B;" width="31.224" height="11.144"/><rect x="326.248" y="215.224" style="fill:#E21B1B;" width="31.224" height="11.144"/><rect x="248.16" y="215.224" style="fill:#E21B1B;" width="31.224" height="11.144"/><rect x="390.384" y="243.432" style="fill:#E21B1B;" width="31.224" height="11.144"/></g><g transform="matrix(1, 0, 0, 1, -276.22818, -62.820751)"><rect x="216.96" y="243.432" style="fill:#FFFFFF;" width="46.832" height="11.144"/><rect x="404.32" y="87.32" style="fill:#FFFFFF;" width="31.224" height="11.144"/></g><g transform="matrix(1, 0, 0, 1, -276.22818, -62.820751)"><rect x="107.688" y="180.984" style="fill:#999999;" width="62.448" height="11.144"/><rect x="201.36" y="180.984" style="fill:#999999;" width="62.448" height="11.144"/></g><g transform="matrix(1, 0, 0, 1, -276.22818, -62.820751)"><rect x="279.416" y="180.984" style="fill:#E21B1B;" width="62.448" height="11.144"/><rect x="107.688" y="243.432" style="fill:#E21B1B;" width="62.448" height="11.144"/></g><g transform="matrix(1, 0, 0, 1, -276.22818, -62.820751)"><rect x="373.08" y="180.984" style="fill:#FFFFFF;" width="62.448" height="11.144"/><rect x="125.376" y="215.224" style="fill:#FFFFFF;" width="58.704" height="11.144"/></g><rect x="-168.54" y="211.819" style="fill: rgb(153, 153, 153); stroke-width: 1;" width="156.112" height="11.144"/><rect x="34.396" y="211.819" style="fill: rgb(219, 219, 219); stroke-width: 1;" width="62.448" height="11.144"/><rect x="-168.54" y="86.947" style="fill: rgb(255, 255, 255); stroke-width: 1;" width="93.664" height="11.144"/><rect x="-184.16" y="24.499" style="fill: rgb(226, 27, 27); stroke-width: 1;" width="93.664" height="11.144"/><rect x="-199.76" y="55.723" style="fill: rgb(153, 153, 153); stroke-width: 1;" width="93.656" height="11.144"/></g><g style="" transform="matrix(12.806782, 0, 0, 11.661975, -4246.800781, -3068.725098)"><path d="M 378.816 275.921 C 371.716 275.921 372.165 278.991 372.165 278.991 L 372.165 282.181 L 378.917 282.181 L 378.917 283.181 L 369.476 283.181 C 369.476 283.181 364.931 282.621 364.931 289.826 C 364.931 297.031 368.944 296.738 368.944 296.738 L 371.261 296.738 L 371.261 293.377 C 371.261 293.377 371.131 289.364 375.161 289.364 L 381.923 289.364 C 381.923 289.364 385.695 289.424 385.695 285.712 L 385.695 279.621 C 385.695 279.621 386.267 275.909 378.853 275.909 L 378.816 275.921 Z M 375.084 278.058 C 376.018 278.035 376.627 279.031 376.181 279.852 C 375.734 280.673 374.566 280.703 374.078 279.905 C 373.967 279.723 373.906 279.516 373.901 279.302 L 373.901 279.282 C 373.901 278.612 374.444 278.068 375.115 278.068 L 375.084 278.058 Z" style="fill: url(&quot;#a&quot;); stroke-width: 1;"/><path d="M 379.016 303.731 C 386.116 303.731 385.667 300.651 385.667 300.651 L 385.667 297.471 L 378.916 297.471 L 378.916 296.471 L 388.386 296.471 C 388.386 296.471 392.931 296.979 392.931 289.816 C 392.931 282.653 388.918 282.904 388.918 282.904 L 386.571 282.904 L 386.571 286.221 C 386.571 286.221 386.701 290.234 382.671 290.234 L 375.906 290.234 C 375.906 290.234 372.131 290.177 372.131 293.889 L 372.131 300.021 C 372.131 300.021 371.559 303.733 378.973 303.733 L 379.013 303.733 L 379.016 303.731 Z M 382.748 301.584 C 381.813 301.608 381.204 300.611 381.651 299.791 C 382.097 298.97 383.265 298.94 383.753 299.737 C 383.864 299.919 383.925 300.127 383.931 300.34 L 383.931 300.37 C 383.931 301.041 383.387 301.584 382.717 301.584 L 382.747 301.584 L 382.748 301.584 Z" style="fill: url(&quot;#b&quot;); stroke-width: 1;"/></g><g transform="matrix(0.442667, 0, 0, 0.442667, 922.693481, 24.041597)"/><g transform="matrix(0.442667, 0, 0, 0.442667, 846.574158, -115.114059)"/><g transform="matrix(0.442667, 0, 0, 0.442667, 965.51062, 46.63953)"/><g transform="matrix(0.442667, 0, 0, 0.442667, 976.214905, -193.612122)"/><g transform="matrix(0.442667, 0, 0, 0.442667, 840.627319, -78.243759)"/><g transform="matrix(0.442667, 0, 0, 0.442667, 911.989197, 106.107758)"/><g transform="matrix(0.214087, 0, 0, 0.214086, 1666.102051, -75.80928)"/><g transform="matrix(0.442667, 0, 0, 0.442667, 911.989197, -60.403286)"/><g transform="matrix(0.642257, 0, 0, 0.642257, 879.932129, -86.513565)"/><g transform="matrix(0.642257, 0, 0, 0.642257, 650.384766, 147.79126)"/><g transform="matrix(0.339094, 0, 0, 0.339095, 1073.599121, -61.771816)"/><g transform="matrix(1, 0, 0, 1, 889.448853, -210.148941)"/><g transform="matrix(0.537197, 0, 0, 0.537197, 771.681091, -86.777321)"/><g transform="matrix(0.537197, 0, 0, 0.537197, 759.592285, -121.028938)"/><g transform="matrix(0.543997, 0, 0, 0.543997, 784.076843, -96.536514)"/><g transform="matrix(0.494602, 0, 0, 0.494602, 725.915161, -82.181053)"/><g transform="matrix(1, 0, 0, 1, 633.332153, -171.733978)"/><g transform="matrix(1, 0, 0, 1, 633.332153, -171.733978)"/><g transform="matrix(1, 0, 0, 1, 633.332153, -171.733978)"/><g transform="matrix(1, 0, 0, 1, 633.332153, -171.733978)"/><g transform="matrix(1, 0, 0, 1, 633.332153, -171.733978)"/><g transform="matrix(1, 0, 0, 1, 633.332153, -171.733978)"/><g transform="matrix(1, 0, 0, 1, 633.332153, -171.733978)"/><g transform="matrix(1, 0, 0, 1, 633.332153, -171.733978)"/><g transform="matrix(1, 0, 0, 1, 633.332153, -171.733978)"/><g transform="matrix(1, 0, 0, 1, 633.332153, -171.733978)"/><g transform="matrix(1, 0, 0, 1, 633.332153, -171.733978)"/><g transform="matrix(1, 0, 0, 1, 633.332153, -171.733978)"/><g transform="matrix(1, 0, 0, 1, 633.332153, -171.733978)"/><g transform="matrix(1, 0, 0, 1, 633.332153, -171.733978)"/><g transform="matrix(1, 0, 0, 1, 633.332153, -171.733978)"/><g transform="matrix(1, 0, 0, 1, 172.372116, -110.477219)"/><g transform="matrix(1, 0, 0, 1, 172.372116, -110.477219)"/><g transform="matrix(1, 0, 0, 1, 172.372116, -110.477219)"/><g transform="matrix(1, 0, 0, 1, 172.372116, -110.477219)"/><g transform="matrix(1, 0, 0, 1, 172.372116, -110.477219)"/><g transform="matrix(1, 0, 0, 1, 172.372116, -110.477219)"/><g transform="matrix(1, 0, 0, 1, 172.372116, -110.477219)"/><g transform="matrix(1, 0, 0, 1, 172.372116, -110.477219)"/><g transform="matrix(1, 0, 0, 1, 172.372116, -110.477219)"/><g transform="matrix(1, 0, 0, 1, 172.372116, -110.477219)"/><g transform="matrix(1, 0, 0, 1, 172.372116, -110.477219)"/><g transform="matrix(1, 0, 0, 1, 172.372116, -110.477219)"/><g transform="matrix(1, 0, 0, 1, 172.372116, -110.477219)"/><g transform="matrix(1, 0, 0, 1, 172.372116, -110.477219)"/><g transform="matrix(1, 0, 0, 1, 172.372116, -110.477219)"/></svg>