<?xml version="1.0" encoding="utf-8"?>
<svg viewBox="-301.086 0 800 500" xmlns="http://www.w3.org/2000/svg">
  <defs>
    <pattern id="pattern-0" x="0" y="0" width="25" height="25" patternUnits="userSpaceOnUse" viewBox="0 0 100 100">
      <rect x="0" y="0" width="50" height="100" style="fill: black;"/>
    </pattern>
  </defs>
  <rect x="-301.05" y="0.026" width="800" height="500" style="paint-order: stroke; fill: rgb(255, 219, 155);"/>
  <g transform="matrix(0.4426666292358738, 0, 0, 0.4426666292358738, 128.49979409519307, 197.35219958722624)"/>
  <g transform="matrix(0.4426666292358736, 0, 0, 0.4426666292358736, 52.380461041031154, 58.196543847586355)"/>
  <g transform="matrix(0.4426666292358738, 0, 0, 0.4426666292358738, 171.31691893815918, 219.95012658768056)"/>
  <g transform="matrix(0.44266662923587374, 0, 0, 0.44266662923587374, 182.02120014890076, -20.301518364518216)"/>
  <g transform="matrix(0.4426666292358738, 0, 0, 0.4426666292358738, 46.433638146174715, 95.06684579569608)"/>
  <g transform="matrix(0.44266662923587363, 0, 0, 0.44266662923587363, 117.79551288445157, 279.4183555362447)"/>
  <g transform="matrix(0.21408562421483066, 0, 0, 0.21408562421483066, 871.908407416883, 97.5013264182779)"/>
  <g transform="matrix(0.4426666292358737, 0, 0, 0.4426666292358737, 117.79551288445155, 112.90731448026528)"/>
  <g transform="matrix(0.6422568726444919, 0, 0, 0.6422568726444919, 85.73842071686624, 86.79704520753634)"/>
  <g transform="matrix(0.6422568726444919, 0, 0, 0.6422568726444919, -143.80894302459103, 321.1018672648787)"/>
  <g transform="matrix(0.33909455302282754, 0, 0, 0.33909455302282754, 279.405392842632, 111.5387898264971)"/>
  <g transform="matrix(1, 0, 0, 1, 95.255139, -36.838341)"/>
  <g transform="matrix(0.5371964555705776, 0, 0, 0.5371964555705776, -22.51261549502567, 86.5332904526514)"/>
  <g transform="matrix(0.5371964555705776, 0, 0, 0.5371964555705776, -34.60142462178973, 52.28166459348658)"/>
  <g transform="matrix(0.5439964107043824, 0, 0, 0.5439964107043824, -10.116863949027419, 76.77409558469084)"/>
  <g transform="matrix(0.4946022921629949, 0, 0, 0.4946022921629949, -68.27851723469556, 91.12955642272316)"/>
  <g transform="matrix(1, 0, 0, 1, -160.861526, 1.57663)"/>
  <g transform="matrix(1, 0, 0, 1, -160.861526, 1.57663)"/>
  <g transform="matrix(1, 0, 0, 1, -160.861526, 1.57663)"/>
  <g transform="matrix(1, 0, 0, 1, -160.861526, 1.57663)"/>
  <g transform="matrix(1, 0, 0, 1, -160.861526, 1.57663)"/>
  <g transform="matrix(1, 0, 0, 1, -160.861526, 1.57663)"/>
  <g transform="matrix(1, 0, 0, 1, -160.861526, 1.57663)"/>
  <g transform="matrix(1, 0, 0, 1, -160.861526, 1.57663)"/>
  <g transform="matrix(1, 0, 0, 1, -160.861526, 1.57663)"/>
  <g transform="matrix(1, 0, 0, 1, -160.861526, 1.57663)"/>
  <g transform="matrix(1, 0, 0, 1, -160.861526, 1.57663)"/>
  <g transform="matrix(1, 0, 0, 1, -160.861526, 1.57663)"/>
  <g transform="matrix(1, 0, 0, 1, -160.861526, 1.57663)"/>
  <g transform="matrix(1, 0, 0, 1, -160.861526, 1.57663)"/>
  <g transform="matrix(1, 0, 0, 1, -160.861526, 1.57663)"/>
  <g transform="matrix(1, 0, 0, 1, -621.821572, 62.83339)"/>
  <g transform="matrix(1, 0, 0, 1, -621.821572, 62.83339)"/>
  <g transform="matrix(1, 0, 0, 1, -621.821572, 62.83339)"/>
  <g transform="matrix(1, 0, 0, 1, -621.821572, 62.83339)"/>
  <g transform="matrix(1, 0, 0, 1, -621.821572, 62.83339)"/>
  <g transform="matrix(1, 0, 0, 1, -621.821572, 62.83339)"/>
  <g transform="matrix(1, 0, 0, 1, -621.821572, 62.83339)"/>
  <g transform="matrix(1, 0, 0, 1, -621.821572, 62.83339)"/>
  <g transform="matrix(1, 0, 0, 1, -621.821572, 62.83339)"/>
  <g transform="matrix(1, 0, 0, 1, -621.821572, 62.83339)"/>
  <g transform="matrix(1, 0, 0, 1, -621.821572, 62.83339)"/>
  <g transform="matrix(1, 0, 0, 1, -621.821572, 62.83339)"/>
  <g transform="matrix(1, 0, 0, 1, -621.821572, 62.83339)"/>
  <g transform="matrix(1, 0, 0, 1, -621.821572, 62.83339)"/>
  <g transform="matrix(1, 0, 0, 1, -621.821572, 62.83339)"/>
  <g transform="matrix(0.880422, 0, 0, 0.90168, -137.94458, 19.516808)" style=""/>
  <g transform="matrix(0.880422, 0, 0, 0.90168, -137.94458, 19.516808)" style=""/>
  <g transform="matrix(0.880422, 0, 0, 0.90168, -137.94458, 19.516808)" style=""/>
  <g transform="matrix(0.880422, 0, 0, 0.90168, -137.94458, 19.516808)" style=""/>
  <g transform="matrix(0.880422, 0, 0, 0.90168, -137.94458, 19.516808)" style=""/>
  <g transform="matrix(0.880422, 0, 0, 0.90168, -137.94458, 19.516808)" style=""/>
  <g transform="matrix(0.880422, 0, 0, 0.90168, -137.94458, 19.516808)" style=""/>
  <g transform="matrix(0.880422, 0, 0, 0.90168, -137.94458, 19.516808)" style=""/>
  <g transform="matrix(0.880422, 0, 0, 0.90168, -137.94458, 19.516808)" style=""/>
  <g transform="matrix(0.880422, 0, 0, 0.90168, -137.94458, 19.516808)" style=""/>
  <g transform="matrix(0.880422, 0, 0, 0.90168, -137.94458, 19.516808)" style=""/>
  <g transform="matrix(0.880422, 0, 0, 0.90168, -137.94458, 19.516808)" style=""/>
  <g transform="matrix(0.880422, 0, 0, 0.90168, -137.94458, 19.516808)" style=""/>
  <g transform="matrix(0.880422, 0, 0, 0.90168, -137.94458, 19.516808)" style=""/>
  <g transform="matrix(0.880422, 0, 0, 0.90168, -137.94458, 19.516808)" style=""/>
  <path style="fill: rgb(255, 149, 24);" d="M -52.262 433.225 C -55.277 433.225 -57.743 430.848 -57.743 427.941 L -57.743 63.71 L -91.538 63.71 C -94.551 63.71 -97.018 66.088 -97.018 68.995 L -97.018 468.98 C -97.018 471.887 -94.551 474.264 -91.538 474.264 L 257.519 474.264 C 260.534 474.264 263 471.887 263 468.98 L 263 433.225 L -52.262 433.225 L -52.262 433.225 Z"/>
  <path style="fill: rgb(239, 131, 24);" d="M -77.29 468.98 L -77.29 68.995 C -77.29 66.088 -74.824 63.71 -71.809 63.71 L -91.538 63.71 C -94.551 63.71 -97.018 66.088 -97.018 68.995 L -97.018 468.98 C -97.018 471.887 -94.551 474.264 -91.538 474.264 L -71.809 474.264 C -74.824 474.264 -77.29 471.887 -77.29 468.98 Z"/>
  <path style="fill: rgb(217, 234, 252);" d="M 299.165 430.936 C 299.165 433.843 296.7 436.221 293.685 436.221 L -55.37 436.221 C -58.383 436.221 -60.85 433.843 -60.85 430.936 L -60.85 30.951 C -60.85 28.045 -58.383 25.667 -55.37 25.667 L 293.685 25.667 C 296.7 25.667 299.165 28.045 299.165 30.951 L 299.165 430.936 Z"/>
  <path style="fill: rgb(195, 221, 244);" d="M -39.101 430.936 L -39.101 30.951 C -39.101 28.045 -36.634 25.667 -33.621 25.667 L -55.371 25.667 C -58.384 25.667 -60.851 28.045 -60.851 30.951 L -60.851 430.936 C -60.851 433.843 -58.384 436.221 -55.371 436.221 L -33.621 436.221 C -36.634 436.221 -39.101 433.843 -39.101 430.936 Z"/>
  <g transform="matrix(1.095997, 0, 0, 1.056821, -198.817612, 25.666903)" style="">
    <path style="fill:#DB722C;" d="M415.09,50.794h-69.561c-4.143,0-7.5-3.357-7.5-7.5c0-4.142,3.357-7.5,7.5-7.5h69.561 c4.143,0,7.5,3.358,7.5,7.5C422.59,47.437,419.232,50.794,415.09,50.794z"/>
    <path style="fill:#DB722C;" d="M415.09,76.293h-69.561c-4.143,0-7.5-3.358-7.5-7.5c0-4.143,3.357-7.5,7.5-7.5h69.561 c4.143,0,7.5,3.357,7.5,7.5C422.59,72.935,419.232,76.293,415.09,76.293z"/>
    <path style="fill:#DB722C;" d="M415.09,101.791h-69.561c-4.143,0-7.5-3.358-7.5-7.5s3.357-7.5,7.5-7.5h69.561 c4.143,0,7.5,3.358,7.5,7.5C422.59,98.434,419.232,101.791,415.09,101.791z"/>
    <path style="fill:#DB722C;" d="M415.09,127.29h-69.561c-4.143,0-7.5-3.358-7.5-7.5c0-4.143,3.357-7.5,7.5-7.5h69.561 c4.143,0,7.5,3.357,7.5,7.5C422.59,123.932,419.232,127.29,415.09,127.29z"/>
  </g>
  <g transform="matrix(1.095997, 0, 0, 1.056821, -198.817612, 25.666903)" style="">
    <path style="fill:#52BBEF;" d="M285.397,305.281H168.238c-4.143,0-7.5-3.358-7.5-7.5s3.357-7.5,7.5-7.5h117.158 c4.143,0,7.5,3.358,7.5,7.5C292.897,301.923,289.539,305.281,285.397,305.281z"/>
    <path style="fill:#52BBEF;" d="M285.397,330.779H168.238c-4.143,0-7.5-3.357-7.5-7.5c0-4.142,3.357-7.5,7.5-7.5h117.158 c4.143,0,7.5,3.358,7.5,7.5C292.897,327.422,289.539,330.779,285.397,330.779z"/>
    <path style="fill:#52BBEF;" d="M285.397,356.278H168.238c-4.143,0-7.5-3.357-7.5-7.5c0-4.142,3.357-7.5,7.5-7.5h117.158 c4.143,0,7.5,3.358,7.5,7.5C292.897,352.92,289.539,356.278,285.397,356.278z"/>
  </g>
  <g transform="matrix(1.095997, 0, 0, 1.056821, -198.817612, 25.666903)" style="">
    <path style="fill:#FE3745;" d="M415.09,171.788H308.358c-4.143,0-7.5-3.358-7.5-7.5s3.357-7.5,7.5-7.5H415.09 c4.143,0,7.5,3.358,7.5,7.5S419.232,171.788,415.09,171.788z"/>
    <path style="fill:#FE3745;" d="M415.09,197.287H308.358c-4.143,0-7.5-3.358-7.5-7.5s3.357-7.5,7.5-7.5H415.09 c4.143,0,7.5,3.358,7.5,7.5S419.232,197.287,415.09,197.287z"/>
    <path style="fill:#FE3745;" d="M415.09,222.785H308.358c-4.143,0-7.5-3.359-7.5-7.5c0-4.143,3.357-7.5,7.5-7.5H415.09 c4.143,0,7.5,3.357,7.5,7.5C422.59,219.426,419.232,222.785,415.09,222.785z"/>
    <path style="fill:#FE3745;" d="M415.09,248.283H308.358c-4.143,0-7.5-3.358-7.5-7.5s3.357-7.5,7.5-7.5H415.09 c4.143,0,7.5,3.358,7.5,7.5S419.232,248.283,415.09,248.283z"/>
    <path style="fill:#FE3745;" d="M154.77,215.755h29.242c0-16.15,13.091-29.243,29.241-29.243v-29.24 C180.956,157.272,154.77,183.455,154.77,215.755z"/>
  </g>
  <path style="fill: rgb(145, 224, 232);" d="M 51.162 176.203 L 51.162 207.105 C 68.862 207.105 83.21 220.94 83.21 238.008 L 115.261 238.008 C 115.261 203.873 86.562 176.203 51.162 176.203 Z"/>
  <g transform="matrix(1.095997, 0, 0, 1.056821, -198.817612, 25.666903)" style="">
    <path style="fill:#FFAF10;" d="M242.494,215.755c0,16.148-13.09,29.241-29.24,29.241s-29.241-13.093-29.241-29.241H154.77 c0,32.298,26.186,58.483,58.483,58.483c32.299,0,58.484-26.185,58.484-58.483H242.494z"/>
    <path style="fill:#FFAF10;" d="M188.359,115.124V45.29c0-1.65-1.35-3-3-3h-18.182c-1.65,0-3,1.35-3,3v69.834H188.359z"/>
  </g>
  <path style="fill: rgb(254, 55, 69);" d="M 50.496 147.333 L 50.496 93.61 C 50.496 91.867 49.016 90.439 47.208 90.439 L 27.282 90.439 C 25.473 90.439 23.994 91.867 23.994 93.61 L 23.994 147.333 L 50.496 147.333 Z"/>
  <path style="fill: rgb(55, 196, 122);" d="M 93.367 147.333 L 93.367 117.917 C 93.367 116.173 91.888 114.747 90.079 114.747 L 70.153 114.747 C 68.344 114.747 66.865 116.173 66.865 117.917 L 66.865 147.333 L 93.367 147.333 Z"/>
  <path style="fill: rgb(145, 224, 232);" d="M 136.239 147.333 L 136.239 73.53 C 136.239 71.787 134.76 70.359 132.951 70.359 L 113.024 70.359 C 111.215 70.359 109.735 71.787 109.735 73.53 L 109.735 147.333 L 136.239 147.333 Z"/>
  <path style="fill: rgb(254, 55, 69);" d="M 217.214 363.541 C 217.214 361.793 218.69 360.37 220.502 360.37 L 235.365 360.37 L 235.365 324.904 C 235.365 321.997 232.9 319.619 229.885 319.619 L 180.433 319.619 C 177.419 319.619 174.952 321.997 174.952 324.904 L 174.952 372.589 C 174.952 375.495 177.419 377.873 180.433 377.873 L 217.214 377.873 L 217.214 363.541 Z"/>
  <path style="fill: rgb(55, 196, 122);" d="M 256.12 392.602 C 256.12 395.508 253.654 397.885 250.641 397.885 L 220.502 397.885 C 217.488 397.885 215.023 395.508 215.023 392.602 L 215.023 363.541 C 215.023 360.635 217.488 358.257 220.502 358.257 L 250.641 358.257 C 253.654 358.257 256.12 360.635 256.12 363.541 L 256.12 392.602 Z"/>
  <path style="fill: rgb(82, 187, 239);" d="M 141.906 160.189 L -24.545 160.189 C -29.086 160.189 -32.765 156.641 -32.765 152.264 C -32.765 147.885 -29.086 144.338 -24.545 144.338 L 141.906 144.338 C 146.445 144.338 150.125 147.885 150.125 152.264 C 150.125 156.641 146.445 160.189 141.906 160.189 Z"/>
  <g transform="matrix(1, 0, 0, 1, -464.192605, 10.556013)"/>
  <g transform="matrix(1, 0, 0, 1, -464.192605, 10.556013)"/>
  <g transform="matrix(1, 0, 0, 1, -464.192605, 10.556013)"/>
  <g transform="matrix(1, 0, 0, 1, -464.192605, 10.556013)"/>
  <g transform="matrix(1, 0, 0, 1, -464.192605, 10.556013)"/>
  <g transform="matrix(1, 0, 0, 1, -464.192605, 10.556013)"/>
  <g transform="matrix(1, 0, 0, 1, -464.192605, 10.556013)"/>
  <g transform="matrix(1, 0, 0, 1, -464.192605, 10.556013)"/>
  <g transform="matrix(1, 0, 0, 1, -464.192605, 10.556013)"/>
  <g transform="matrix(1, 0, 0, 1, -464.192605, 10.556013)"/>
  <g transform="matrix(1, 0, 0, 1, -464.192605, 10.556013)"/>
  <g transform="matrix(1, 0, 0, 1, -464.192605, 10.556013)"/>
  <g transform="matrix(1, 0, 0, 1, -464.192605, 10.556013)"/>
  <g transform="matrix(1, 0, 0, 1, -464.192605, 10.556013)"/>
  <g transform="matrix(1, 0, 0, 1, -464.192605, 10.556013)"/>
</svg>