<?xml version="1.0" encoding="utf-8"?>
<svg viewBox="-301.086 0 800 500" xmlns="http://www.w3.org/2000/svg">
  <defs>
    <pattern id="pattern-0" x="0" y="0" width="25" height="25" patternUnits="userSpaceOnUse" viewBox="0 0 100 100">
      <rect x="0" y="0" width="50" height="100" style="fill: black;"/>
    </pattern>
    <linearGradient id="gradient-3" gradientUnits="userSpaceOnUse" x1="98.911" y1="0.01" x2="98.911" y2="500.01" gradientTransform="matrix(0.80773, -0.589552, 0.319159, 0.437272, 90.40531, 185.352652)">
      <stop offset="0" style="stop-color: #bada55"/>
      <stop offset="1" style="stop-color: #758d29"/>
    </linearGradient>
  </defs>
  <rect x="-301.089" y="0.01" width="800" height="500" style="paint-order: stroke; fill: url(#gradient-3);"/>
  <g transform="matrix(0.4426666292358738, 0, 0, 0.4426666292358738, 128.49979409519307, 197.35219958722624)"/>
  <g transform="matrix(0.4426666292358736, 0, 0, 0.4426666292358736, 52.380461041031154, 58.196543847586355)"/>
  <g transform="matrix(0.4426666292358738, 0, 0, 0.4426666292358738, 171.31691893815918, 219.95012658768056)"/>
  <g transform="matrix(0.44266662923587374, 0, 0, 0.44266662923587374, 182.02120014890076, -20.301518364518216)"/>
  <g transform="matrix(0.4426666292358738, 0, 0, 0.4426666292358738, 46.433638146174715, 95.06684579569608)"/>
  <g transform="matrix(0.44266662923587363, 0, 0, 0.44266662923587363, 117.79551288445157, 279.4183555362447)"/>
  <g transform="matrix(0.21408562421483066, 0, 0, 0.21408562421483066, 871.908407416883, 97.5013264182779)"/>
  <g transform="matrix(0.4426666292358737, 0, 0, 0.4426666292358737, 117.79551288445155, 112.90731448026528)"/>
  <g transform="matrix(0.6422568726444919, 0, 0, 0.6422568726444919, 85.73842071686624, 86.79704520753634)"/>
  <g transform="matrix(0.6422568726444919, 0, 0, 0.6422568726444919, -143.80894302459103, 321.1018672648787)"/>
  <g transform="matrix(0.33909455302282754, 0, 0, 0.33909455302282754, 279.405392842632, 111.5387898264971)"/>
  <g transform="matrix(1, 0, 0, 1, 95.255139, -36.838341)"/>
  <g transform="matrix(0.5371964555705776, 0, 0, 0.5371964555705776, -22.51261549502567, 86.5332904526514)"/>
  <g transform="matrix(0.5371964555705776, 0, 0, 0.5371964555705776, -34.60142462178973, 52.28166459348658)"/>
  <g transform="matrix(0.5439964107043824, 0, 0, 0.5439964107043824, -10.116863949027419, 76.77409558469084)"/>
  <g transform="matrix(0.4946022921629949, 0, 0, 0.4946022921629949, -68.27851723469556, 91.12955642272316)"/>
  <g transform="matrix(1, 0, 0, 1, -160.861526, 1.57663)"/>
  <g transform="matrix(1, 0, 0, 1, -160.861526, 1.57663)"/>
  <g transform="matrix(1, 0, 0, 1, -160.861526, 1.57663)"/>
  <g transform="matrix(1, 0, 0, 1, -160.861526, 1.57663)"/>
  <g transform="matrix(1, 0, 0, 1, -160.861526, 1.57663)"/>
  <g transform="matrix(1, 0, 0, 1, -160.861526, 1.57663)"/>
  <g transform="matrix(1, 0, 0, 1, -160.861526, 1.57663)"/>
  <g transform="matrix(1, 0, 0, 1, -160.861526, 1.57663)"/>
  <g transform="matrix(1, 0, 0, 1, -160.861526, 1.57663)"/>
  <g transform="matrix(1, 0, 0, 1, -160.861526, 1.57663)"/>
  <g transform="matrix(1, 0, 0, 1, -160.861526, 1.57663)"/>
  <g transform="matrix(1, 0, 0, 1, -160.861526, 1.57663)"/>
  <g transform="matrix(1, 0, 0, 1, -160.861526, 1.57663)"/>
  <g transform="matrix(1, 0, 0, 1, -160.861526, 1.57663)"/>
  <g transform="matrix(1, 0, 0, 1, -160.861526, 1.57663)"/>
  <g transform="matrix(1, 0, 0, 1, -621.821572, 62.83339)"/>
  <g transform="matrix(1, 0, 0, 1, -621.821572, 62.83339)"/>
  <g transform="matrix(1, 0, 0, 1, -621.821572, 62.83339)"/>
  <g transform="matrix(1, 0, 0, 1, -621.821572, 62.83339)"/>
  <g transform="matrix(1, 0, 0, 1, -621.821572, 62.83339)"/>
  <g transform="matrix(1, 0, 0, 1, -621.821572, 62.83339)"/>
  <g transform="matrix(1, 0, 0, 1, -621.821572, 62.83339)"/>
  <g transform="matrix(1, 0, 0, 1, -621.821572, 62.83339)"/>
  <g transform="matrix(1, 0, 0, 1, -621.821572, 62.83339)"/>
  <g transform="matrix(1, 0, 0, 1, -621.821572, 62.83339)"/>
  <g transform="matrix(1, 0, 0, 1, -621.821572, 62.83339)"/>
  <g transform="matrix(1, 0, 0, 1, -621.821572, 62.83339)"/>
  <g transform="matrix(1, 0, 0, 1, -621.821572, 62.83339)"/>
  <g transform="matrix(1, 0, 0, 1, -621.821572, 62.83339)"/>
  <g transform="matrix(1, 0, 0, 1, -621.821572, 62.83339)"/>
  <path style="fill: rgb(132, 167, 183);" d="M -62.166 417.564 C -59.004 421.395 -57.653 426.432 -58.457 431.384 L -64.524 468.74 C -65.104 472.313 -68.12 474.845 -71.537 474.845 C -71.926 474.845 -72.319 474.811 -72.715 474.744 C -76.593 474.081 -79.212 470.317 -78.566 466.338 L -72.499 428.981 C -72.341 428.011 -72.764 427.329 -73.028 427.007 C -73.294 426.685 -73.882 426.146 -74.839 426.146 L -109.374 426.146 C -110.331 426.146 -110.919 426.685 -111.185 427.007 C -111.45 427.329 -111.871 428.013 -111.715 428.981 L -105.648 466.338 C -105.002 470.318 -107.622 474.081 -111.499 474.744 C -115.374 475.406 -119.043 472.719 -119.689 468.74 L -125.756 431.383 C -126.56 426.431 -125.208 421.394 -122.045 417.563 C -118.883 413.732 -114.265 411.536 -109.374 411.536 L -97.613 411.536 L -97.613 336.541 C -97.613 332.507 -94.426 329.237 -90.496 329.237 L 13.894 329.237 C 17.825 329.237 21.012 332.507 21.012 336.541 C 21.012 340.575 17.825 343.846 13.894 343.846 L -83.377 343.846 L -83.377 411.536 L -74.838 411.536 C -69.947 411.536 -65.329 413.732 -62.166 417.564 Z M 153.874 452.929 L 21.013 452.929 C 17.082 452.929 13.895 456.2 13.895 460.234 C 13.895 464.268 17.082 467.538 21.013 467.538 L 153.873 467.538 C 157.804 467.538 160.99 464.268 160.99 460.234 C 160.991 456.2 157.804 452.929 153.874 452.929 Z"/>
  <path style="fill: rgb(84, 125, 135);" d="M 195.427 290.863 L 170.551 392.985 C 166.325 410.328 151.143 422.494 133.723 422.494 L 41.16 422.494 C 23.741 422.494 8.558 410.328 4.333 392.985 L -20.543 290.863 C -23.539 278.569 -14.478 266.659 -2.13 266.659 L 177.012 266.659 C 189.363 266.659 198.422 278.57 195.427 290.863 Z"/>
  <path style="fill: rgb(107, 149, 160);" d="M 285.804 340.882 C 284.539 343.166 282.176 344.576 279.616 344.576 L 143.764 344.576 C 134.591 367.85 112.462 383.534 87.443 383.534 L 87.443 383.534 C 59.557 383.534 35.248 364.056 28.485 336.291 L 23.315 315.067 C 17.325 290.478 35.446 266.659 60.142 266.659 L 163.365 266.659 L 147.943 329.967 L 267.098 329.967 L 201.249 216.434 C 195.681 219.724 189.229 221.615 182.344 221.615 L -7.456 221.615 C -28.42 221.615 -45.416 204.173 -45.416 182.657 L -45.416 163.178 C -45.416 87.871 14.067 26.823 87.444 26.823 L 87.444 26.823 C 160.821 26.823 220.304 87.871 220.304 163.178 L 220.304 182.657 C 220.304 191.743 217.264 200.097 212.183 206.724 L 285.733 333.538 C 287.041 335.793 287.068 338.598 285.804 340.882 Z"/>
  <path style="fill: rgb(84, 125, 135);" d="M 305.714 315.357 C 305.714 331.494 292.968 344.576 277.244 344.576 C 261.519 344.576 248.773 331.495 248.773 315.357 C 248.773 299.221 261.519 286.138 277.244 286.138 C 292.968 286.138 305.714 299.221 305.714 315.357 Z M -102.357 286.138 C -118.082 286.138 -130.828 299.22 -130.828 315.357 C -130.828 331.495 -118.082 344.576 -102.357 344.576 C -86.633 344.576 -73.887 331.495 -73.887 315.357 C -73.887 299.221 -86.633 286.138 -102.357 286.138 Z"/>
  <path style="fill: rgb(107, 149, 160);" d="M -92.867 315.357 C -92.867 320.737 -97.116 325.097 -102.357 325.097 C -107.599 325.097 -111.848 320.738 -111.848 315.357 C -111.848 309.977 -107.599 305.617 -102.357 305.617 C -97.116 305.617 -92.867 309.979 -92.867 315.357 Z M 277.244 305.618 C 272.003 305.618 267.754 309.978 267.754 315.358 C 267.754 320.738 272.003 325.098 277.244 325.098 C 282.485 325.098 286.734 320.738 286.734 315.358 C 286.734 309.979 282.485 305.618 277.244 305.618 Z"/>
  <path style="fill: rgb(252, 128, 89);" d="M 37.621 363.082 L 37.621 364.056 C 37.621 368.09 34.434 371.361 30.504 371.361 C 26.572 371.361 23.386 368.09 23.386 364.056 L 23.386 363.082 C 23.386 359.048 26.573 355.778 30.504 355.778 C 34.434 355.778 37.621 359.048 37.621 363.082 Z"/>
  <path style="fill: rgb(255, 216, 128);" d="M 66.09 363.082 L 66.09 364.056 C 66.09 368.09 62.903 371.361 58.973 371.361 C 55.042 371.361 51.856 368.09 51.856 364.056 L 51.856 363.082 C 51.856 359.048 55.043 355.778 58.973 355.778 C 62.904 355.778 66.09 359.048 66.09 363.082 Z"/>
  <path style="fill: rgb(181, 229, 188);" d="M 142.011 363.082 L 142.011 364.056 C 142.011 368.09 138.824 371.361 134.893 371.361 C 130.962 371.361 127.776 368.09 127.776 364.056 L 127.776 363.082 C 127.776 359.048 130.963 355.778 134.893 355.778 C 138.824 355.778 142.011 359.048 142.011 363.082 Z"/>
  <path style="fill: rgb(207, 223, 226);" d="M 49.483 334.836 L 30.503 334.836 C 25.262 334.836 21.013 330.485 21.013 325.117 L 21.013 305.597 C 21.013 300.23 25.262 295.878 30.503 295.878 L 49.483 295.878 C 54.724 295.878 58.973 300.23 58.973 305.597 L 58.973 325.117 C 58.973 330.486 54.724 334.836 49.483 334.836 Z"/>
  <path style="fill: rgb(84, 125, 135);" d="M 2.032 129.087 C 2.032 102.193 23.277 80.389 49.483 80.389 C 75.689 80.389 96.933 102.192 96.933 129.087 C 96.933 155.983 75.689 177.785 49.483 177.785 C 23.277 177.785 2.032 155.983 2.032 129.087 Z"/>
  <path style="fill: rgb(207, 223, 226);" d="M 21.013 129.087 C 21.013 112.951 33.758 99.868 49.483 99.868 C 65.207 99.868 77.953 112.95 77.953 129.087 C 77.953 145.225 65.207 158.306 49.483 158.306 C 33.758 158.306 21.013 145.225 21.013 129.087 Z"/>
  <path style="fill: rgb(255, 255, 255);" d="M 49.483 129.087 C 49.483 121.018 55.856 114.477 63.717 114.477 C 71.579 114.477 77.952 121.018 77.952 129.087 C 77.952 137.156 71.579 143.697 63.717 143.697 C 55.856 143.697 49.483 137.156 49.483 129.087 Z"/>
  <path style="fill: rgb(132, 167, 183);" d="M 238.568 56.774 C 277.481 96.712 277.481 161.463 238.568 201.4 C 199.654 241.337 136.562 241.337 97.648 201.4 C 58.734 161.463 58.734 96.712 97.648 56.774 C 136.562 16.837 199.654 16.837 238.568 56.774 Z"/>
  <path style="fill: rgb(195, 228, 237);" d="M 234.539 129.087 C 234.539 166.741 204.797 197.264 168.108 197.264 C 131.419 197.264 101.678 166.741 101.678 129.087 C 101.678 91.434 131.419 60.91 168.108 60.91 C 204.797 60.91 234.539 91.435 234.539 129.087 Z"/>
  <path style="fill: rgb(220, 243, 249);" d="M 207.891 74.484 C 218.249 82.446 226.258 93.443 230.685 106.186 L 145.793 193.311 C 133.377 188.767 122.661 180.548 114.904 169.917 L 207.891 74.484 Z M 105.531 151.989 C 106.643 155.188 107.978 158.278 109.523 161.237 L 199.434 68.961 C 196.55 67.375 193.54 66.006 190.423 64.865 L 105.531 151.989 Z"/>
  <path style="fill: rgb(255, 255, 255);" d="M 168.404 78.107 C 178.886 78.107 187.384 86.828 187.384 97.586 C 187.384 108.344 178.887 117.065 168.404 117.065 C 157.922 117.065 149.424 108.344 149.424 97.586 C 149.424 86.828 157.923 78.107 168.404 78.107 Z"/>
  <path style="fill: rgb(76, 76, 76);" d="M 160.991 471.193 C 160.991 475.227 157.806 478.497 153.874 478.497 L 21.013 478.497 C 17.081 478.497 13.895 475.227 13.895 471.193 C 13.895 467.159 17.081 463.888 21.013 463.888 L 153.873 463.888 C 157.805 463.887 160.991 467.158 160.991 471.193 Z M 312.831 315.358 C 312.831 335.497 296.867 351.882 277.244 351.882 C 263.615 351.882 251.751 343.978 245.775 332.403 L 187.248 332.403 C 187.146 332.404 187.042 332.404 186.94 332.403 L 106.423 332.403 C 102.491 332.403 99.306 329.133 99.306 325.098 C 99.306 321.063 102.491 317.794 106.423 317.794 L 181.532 317.794 L 188.523 289.092 C 189.415 285.43 188.628 281.623 186.366 278.648 C 184.101 275.672 180.693 273.966 177.016 273.966 L -2.128 273.966 C -5.807 273.966 -9.215 275.672 -11.479 278.648 C -13.742 281.623 -14.528 285.431 -13.636 289.092 L 11.241 391.212 C 14.679 405.33 26.984 415.189 41.162 415.189 L 133.725 415.189 C 147.903 415.189 160.208 405.33 163.646 391.212 L 175.439 342.804 C 176.393 338.891 180.255 336.517 184.071 337.489 C 187.885 338.467 190.203 342.434 189.25 346.348 L 177.457 394.756 C 172.431 415.388 154.449 429.798 133.725 429.798 L 41.161 429.798 C 20.438 429.798 2.455 415.387 -2.571 394.754 L -17.107 335.079 L -70.889 335.079 C -75.796 344.583 -84.675 351.614 -95.24 353.825 L -95.24 417.866 L -85.091 417.866 C -80.2 417.866 -75.58 420.063 -72.419 423.893 C -69.256 427.724 -67.904 432.76 -68.708 437.711 L -74.776 475.069 C -75.356 478.642 -78.37 481.173 -81.788 481.173 C -82.176 481.173 -82.57 481.141 -82.967 481.072 C -86.844 480.41 -89.464 476.646 -88.817 472.666 L -82.75 435.309 C -82.593 434.342 -83.015 433.657 -83.28 433.335 C -83.545 433.013 -84.134 432.474 -85.091 432.474 L -119.624 432.474 C -120.581 432.474 -121.169 433.013 -121.435 433.335 C -121.7 433.657 -122.122 434.341 -121.964 435.31 L -115.897 472.666 C -115.251 476.646 -117.871 480.41 -121.748 481.072 C -125.639 481.739 -129.292 479.048 -129.938 475.069 L -136.006 437.712 C -136.81 432.759 -135.458 427.723 -132.295 423.892 C -129.135 420.062 -124.515 417.865 -119.623 417.865 L -109.474 417.865 L -109.474 353.825 C -125.699 350.432 -137.945 335.674 -137.945 318.037 C -137.945 297.898 -121.981 281.514 -102.357 281.514 C -82.734 281.514 -66.77 297.897 -66.77 318.037 C -66.77 318.857 -66.795 319.666 -66.847 320.472 L -20.665 320.472 L -27.447 292.636 C -29.409 284.578 -27.679 276.203 -22.699 269.656 C -17.718 263.11 -10.221 259.356 -2.128 259.356 L 177.015 259.356 C 185.107 259.356 192.605 263.111 197.585 269.656 C 202.565 276.204 204.295 284.579 202.333 292.636 L 196.204 317.793 L 241.734 317.793 C 241.683 316.987 241.657 316.176 241.657 315.358 C 241.657 303.442 247.246 292.84 255.874 286.171 L 220.236 224.723 C 190.622 241.71 154.738 243.111 124.092 228.919 L -7.457 228.919 C -32.312 228.919 -52.534 208.166 -52.534 182.655 L -52.534 163.176 C -52.534 83.962 10.259 19.517 87.443 19.517 C 102.197 19.517 116.712 21.863 130.631 26.494 C 168.616 11.946 213.109 20.316 243.602 51.609 C 285.228 94.331 285.228 163.843 243.602 206.566 C 239.979 210.284 236.161 213.677 232.177 216.747 L 268.789 279.876 C 271.499 279.194 274.331 278.835 277.244 278.835 C 296.867 278.835 312.831 295.219 312.831 315.358 Z M 100.994 214.31 C 98.102 211.907 95.304 209.324 92.615 206.566 C 79.331 192.931 69.977 176.337 65.142 158.231 C 60.306 160.666 54.957 161.959 49.483 161.959 C 29.859 161.959 13.895 145.575 13.895 125.435 C 13.895 105.296 29.859 88.912 49.483 88.912 C 55.669 88.912 61.714 90.586 67.019 93.669 C 72.214 78.006 80.881 63.652 92.616 51.609 C 98.337 45.737 104.553 40.671 111.126 36.414 C 103.358 34.892 95.441 34.126 87.443 34.126 C 18.108 34.126 -38.3 92.018 -38.3 163.176 L -38.3 182.655 C -38.3 200.11 -24.464 214.309 -7.457 214.309 L 100.994 214.309 L 100.994 214.31 Z M 61.346 129.087 C 61.346 122.149 61.97 115.308 63.192 108.634 C 59.361 105.319 54.582 103.521 49.484 103.521 C 37.711 103.521 28.131 113.352 28.131 125.435 C 28.131 137.517 37.71 147.348 49.484 147.348 C 54.082 147.348 58.533 145.828 62.198 143.034 C 61.632 138.447 61.346 133.789 61.346 129.087 Z M 233.534 196.235 C 251.011 178.3 260.636 154.452 260.636 129.087 C 260.636 103.722 251.011 79.875 233.534 61.939 C 216.059 44.002 192.823 34.125 168.108 34.125 C 156.23 34.125 144.694 36.407 133.975 40.768 C 133.622 40.95 133.255 41.101 132.877 41.222 C 121.717 45.935 111.472 52.917 102.682 61.938 C 85.206 79.874 75.58 103.721 75.58 129.086 C 75.58 154.452 85.205 178.298 102.682 196.234 C 138.757 233.26 197.46 233.26 233.534 196.235 Z M -81.005 318.037 C -81.005 305.955 -90.584 296.123 -102.357 296.123 C -114.131 296.123 -123.71 305.954 -123.71 318.037 C -123.71 330.12 -114.131 339.951 -102.357 339.951 C -90.584 339.951 -81.005 330.12 -81.005 318.037 Z M 298.597 315.358 C 298.597 303.276 289.018 293.445 277.244 293.445 C 274.179 293.445 271.262 294.111 268.625 295.309 C 268.559 295.342 268.491 295.372 268.424 295.401 C 261.039 298.853 255.891 306.499 255.891 315.357 C 255.891 317.868 256.305 320.279 257.064 322.527 C 257.095 322.614 257.124 322.701 257.153 322.787 C 260.126 331.224 268.009 337.272 277.243 337.272 C 289.017 337.273 298.597 327.442 298.597 315.358 Z M 241.656 129.087 C 241.656 149.25 234.005 168.205 220.115 182.461 C 206.224 196.719 187.754 204.57 168.108 204.57 C 148.463 204.57 129.994 196.718 116.102 182.461 C 102.211 168.205 94.56 149.25 94.56 129.087 C 94.56 108.925 102.211 89.97 116.102 75.713 C 129.992 61.457 148.463 53.605 168.108 53.605 C 187.754 53.605 206.223 61.457 220.115 75.713 C 234.007 89.97 241.656 108.926 241.656 129.087 Z M 227.421 129.087 C 227.421 112.828 221.251 97.541 210.047 86.045 C 198.846 74.546 183.951 68.214 168.108 68.214 C 152.266 68.214 137.37 74.546 126.169 86.044 C 114.965 97.54 108.796 112.827 108.796 129.087 C 108.796 145.347 114.965 160.633 126.169 172.13 C 137.371 183.629 152.266 189.96 168.108 189.96 C 183.951 189.96 198.846 183.628 210.047 172.13 C 221.251 160.634 227.421 145.347 227.421 129.087 Z M 49.483 288.575 C 58.64 288.575 66.09 296.221 66.09 305.619 L 66.09 325.098 C 66.09 334.496 58.639 342.143 49.483 342.143 L 30.503 342.143 C 21.345 342.143 13.895 334.496 13.895 325.098 L 13.895 305.619 C 13.895 296.221 21.346 288.575 30.503 288.575 L 49.483 288.575 Z M 49.483 303.183 L 30.503 303.183 C 29.194 303.183 28.13 304.274 28.13 305.617 L 28.13 325.096 C 28.13 326.44 29.193 327.531 30.503 327.531 L 49.483 327.531 C 50.791 327.531 51.856 326.44 51.856 325.096 L 51.856 305.617 C 51.856 304.276 50.792 303.183 49.483 303.183 Z"/>
  <g transform="matrix(0.880422, 0, 0, 0.90168, -137.94458, 19.516808)" style=""/>
  <g transform="matrix(0.880422, 0, 0, 0.90168, -137.94458, 19.516808)" style=""/>
  <g transform="matrix(0.880422, 0, 0, 0.90168, -137.94458, 19.516808)" style=""/>
  <g transform="matrix(0.880422, 0, 0, 0.90168, -137.94458, 19.516808)" style=""/>
  <g transform="matrix(0.880422, 0, 0, 0.90168, -137.94458, 19.516808)" style=""/>
  <g transform="matrix(0.880422, 0, 0, 0.90168, -137.94458, 19.516808)" style=""/>
  <g transform="matrix(0.880422, 0, 0, 0.90168, -137.94458, 19.516808)" style=""/>
  <g transform="matrix(0.880422, 0, 0, 0.90168, -137.94458, 19.516808)" style=""/>
  <g transform="matrix(0.880422, 0, 0, 0.90168, -137.94458, 19.516808)" style=""/>
  <g transform="matrix(0.880422, 0, 0, 0.90168, -137.94458, 19.516808)" style=""/>
  <g transform="matrix(0.880422, 0, 0, 0.90168, -137.94458, 19.516808)" style=""/>
  <g transform="matrix(0.880422, 0, 0, 0.90168, -137.94458, 19.516808)" style=""/>
  <g transform="matrix(0.880422, 0, 0, 0.90168, -137.94458, 19.516808)" style=""/>
  <g transform="matrix(0.880422, 0, 0, 0.90168, -137.94458, 19.516808)" style=""/>
  <g transform="matrix(0.880422, 0, 0, 0.90168, -137.94458, 19.516808)" style=""/>
</svg>