<?xml version="1.0" encoding="utf-8"?>
<svg viewBox="-301.086 0 800.092 500" xmlns="http://www.w3.org/2000/svg">
  <defs>
    <pattern id="pattern-0" x="0" y="0" width="25" height="25" patternUnits="userSpaceOnUse" viewBox="0 0 100 100">
      <rect x="0" y="0" width="50" height="100" style="fill: black;"/>
    </pattern>
    <radialGradient id="gradient-5" gradientUnits="userSpaceOnUse" cx="98.691" cy="249.543" r="399.938">
      <stop offset="0" style="stop-color: rgba(201, 196, 233, 1)"/>
      <stop offset="1" style="stop-color: rgba(133, 122, 205, 1)"/>
    </radialGradient>
  </defs>
  <rect x="-301.247" y="-1.803" width="799.876" height="502.693" style="paint-order: fill; fill: url(#gradient-5);"/>
  <g transform="matrix(0.4426666292358738, 0, 0, 0.4426666292358738, 128.49979409519307, 197.35219958722624)"/>
  <g transform="matrix(0.4426666292358736, 0, 0, 0.4426666292358736, 52.380461041031154, 58.196543847586355)"/>
  <g transform="matrix(0.4426666292358738, 0, 0, 0.4426666292358738, 171.31691893815918, 219.95012658768056)"/>
  <g transform="matrix(0.44266662923587374, 0, 0, 0.44266662923587374, 182.02120014890076, -20.301518364518216)"/>
  <g transform="matrix(0.4426666292358738, 0, 0, 0.4426666292358738, 46.433638146174715, 95.06684579569608)"/>
  <g transform="matrix(0.44266662923587363, 0, 0, 0.44266662923587363, 117.79551288445157, 279.4183555362447)"/>
  <g transform="matrix(0.21408562421483066, 0, 0, 0.21408562421483066, 871.908407416883, 97.5013264182779)"/>
  <g transform="matrix(0.4426666292358737, 0, 0, 0.4426666292358737, 117.79551288445155, 112.90731448026528)"/>
  <g transform="matrix(0.6422568726444919, 0, 0, 0.6422568726444919, 85.73842071686624, 86.79704520753634)"/>
  <g transform="matrix(0.6422568726444919, 0, 0, 0.6422568726444919, -143.80894302459103, 321.1018672648787)"/>
  <g transform="matrix(0.33909455302282754, 0, 0, 0.33909455302282754, 279.405392842632, 111.5387898264971)"/>
  <g transform="matrix(1, 0, 0, 1, 95.255139, -36.838341)"/>
  <g transform="matrix(0.5371964555705776, 0, 0, 0.5371964555705776, -22.51261549502567, 86.5332904526514)"/>
  <g transform="matrix(0.5371964555705776, 0, 0, 0.5371964555705776, -34.60142462178973, 52.28166459348658)"/>
  <g transform="matrix(0.5439964107043824, 0, 0, 0.5439964107043824, -10.116863949027419, 76.77409558469084)"/>
  <g transform="matrix(0.4946022921629949, 0, 0, 0.4946022921629949, -68.27851723469556, 91.12955642272316)"/>
  <g transform="matrix(1, 0, 0, 1, -160.861526, 1.57663)"/>
  <g transform="matrix(1, 0, 0, 1, -160.861526, 1.57663)"/>
  <g transform="matrix(1, 0, 0, 1, -160.861526, 1.57663)"/>
  <g transform="matrix(1, 0, 0, 1, -160.861526, 1.57663)"/>
  <g transform="matrix(1, 0, 0, 1, -160.861526, 1.57663)"/>
  <g transform="matrix(1, 0, 0, 1, -160.861526, 1.57663)"/>
  <g transform="matrix(1, 0, 0, 1, -160.861526, 1.57663)"/>
  <g transform="matrix(1, 0, 0, 1, -160.861526, 1.57663)"/>
  <g transform="matrix(1, 0, 0, 1, -160.861526, 1.57663)"/>
  <g transform="matrix(1, 0, 0, 1, -160.861526, 1.57663)"/>
  <g transform="matrix(1, 0, 0, 1, -160.861526, 1.57663)"/>
  <g transform="matrix(1, 0, 0, 1, -160.861526, 1.57663)"/>
  <g transform="matrix(1, 0, 0, 1, -160.861526, 1.57663)"/>
  <g transform="matrix(1, 0, 0, 1, -160.861526, 1.57663)"/>
  <g transform="matrix(1, 0, 0, 1, -160.861526, 1.57663)"/>
  <circle style="fill: rgb(255, 255, 255);" cx="29.201" cy="137.598" r="119.716" transform="matrix(1.306942, 0, 0, 1.289991, 72.238762, -2.860758)"/>
  <circle style="fill: rgb(171, 255, 219);" cx="29.201" cy="137.598" r="85.511" transform="matrix(1.306942, 0, 0, 1.289991, 72.238762, -2.860758)"/>
  <path style="fill: rgb(255, 255, 255);" d="M 172.245 226.116 C 168.4 230.353 161.385 227.641 161.398 221.955 C 161.398 221.902 161.398 221.85 161.398 221.798 C 161.398 167.955 117.175 124.305 62.625 124.305 C 62.571 124.305 62.519 124.305 62.465 124.305 C 56.704 124.318 53.96 117.393 58.251 113.6 C 73.112 100.458 92.902 92.658 114.584 93.325 C 156.921 94.628 191.462 128.717 192.786 170.505 C 193.463 191.91 185.557 211.445 172.245 226.116 Z"/>
  <path style="fill: rgb(255, 200, 80);" d="M 369.369 477.043 L 255.693 364.841 C 246.965 356.226 246.965 342.257 255.693 333.641 L 271.492 318.046 C 280.22 309.432 294.373 309.432 303.102 318.046 L 416.779 430.248 C 425.506 438.863 425.506 452.832 416.779 461.448 L 400.979 477.043 C 392.251 485.659 378.1 485.659 369.369 477.043 Z"/>
  <path style="fill: rgb(255, 180, 90);" d="M 388.451 458.209 L 274.774 346.007 C 266.607 337.946 266.185 325.255 273.299 316.59 C 272.695 317.074 272.054 317.49 271.492 318.046 L 255.693 333.641 C 246.965 342.258 246.965 356.225 255.693 364.841 L 369.369 477.043 C 378.1 485.66 392.25 485.66 400.979 477.043 L 416.779 461.448 C 417.341 460.893 417.765 460.263 418.254 459.667 C 409.477 466.688 396.618 466.27 388.451 458.209 Z"/>
  <path style="fill: rgb(71, 77, 84);" d="M 424.189 422.935 L 310.513 310.733 C 297.714 298.099 276.886 298.099 264.085 310.733 L 263.593 311.218 L 235.562 283.551 C 261.549 254.491 277.344 216.355 277.344 174.639 C 277.344 83.781 202.456 9.865 110.404 9.865 C 18.352 9.865 -56.536 83.781 -56.536 174.639 C -56.536 265.497 18.352 339.414 110.404 339.414 C 152.667 339.414 191.305 323.824 220.747 298.175 L 248.778 325.843 L 248.286 326.328 C 235.488 338.962 235.488 359.52 248.286 372.154 L 361.963 484.356 C 368.163 490.476 376.407 493.846 385.177 493.846 C 393.945 493.846 402.191 490.476 408.391 484.356 L 424.19 468.761 C 430.39 462.641 433.806 454.504 433.806 445.848 C 433.804 437.192 430.389 429.055 424.189 422.935 Z M -35.581 174.639 C -35.581 95.186 29.907 30.549 110.403 30.549 C 190.899 30.549 256.387 95.188 256.387 174.639 C 256.387 254.091 190.899 318.73 110.403 318.73 C 29.907 318.73 -35.581 254.092 -35.581 174.639 Z M 409.371 454.135 L 393.571 469.73 C 391.329 471.944 388.347 473.164 385.176 473.164 C 382.004 473.164 379.022 471.945 376.778 469.73 L 263.102 357.528 C 258.473 352.959 258.473 345.522 263.102 340.953 L 278.902 325.358 C 281.216 323.073 284.256 321.931 287.299 321.931 C 290.339 321.931 293.381 323.073 295.694 325.357 L 409.371 437.559 C 411.614 439.772 412.85 442.716 412.85 445.847 C 412.85 448.978 411.615 451.922 409.371 454.135 Z"/>
  <g transform="matrix(1.306942, 0, 0, 1.289991, -235.350037, -78.382057)" style="">
    <path style="fill:#FFC850;" d="M127.733,119.716H8.017c-4.427,0-8.017,3.589-8.017,8.017c0,4.427,3.589,8.017,8.017,8.017h119.716 c4.427,0,8.017-3.589,8.017-8.017C135.749,123.305,132.16,119.716,127.733,119.716z"/>
    <path style="fill:#FFC850;" d="M8.017,169.954h17.102c4.427,0,8.017-3.589,8.017-8.017s-3.589-8.017-8.017-8.017H8.017 c-4.427,0-8.017,3.589-8.017,8.017S3.589,169.954,8.017,169.954z"/>
    <path style="fill:#FFC850;" d="M119.182,153.921H59.324c-4.427,0-8.017,3.589-8.017,8.017s3.589,8.017,8.017,8.017h59.858 c4.427,0,8.017-3.589,8.017-8.017S123.609,153.921,119.182,153.921z"/>
    <path style="fill:#FFC850;" d="M8.017,204.159H110.63c4.427,0,8.017-3.589,8.017-8.017s-3.589-8.017-8.017-8.017H8.017 c-4.427,0-8.017,3.589-8.017,8.017S3.589,204.159,8.017,204.159z"/>
    <path style="fill:#FFC850;" d="M8.017,238.363h51.307c4.427,0,8.017-3.589,8.017-8.017s-3.589-8.017-8.017-8.017H8.017 c-4.427,0-8.017,3.589-8.017,8.017S3.589,238.363,8.017,238.363z"/>
    <path style="fill:#FFC850;" d="M119.182,222.33H93.528c-4.427,0-8.017,3.589-8.017,8.017s3.589,8.017,8.017,8.017h25.653 c4.427,0,8.017-3.589,8.017-8.017S123.609,222.33,119.182,222.33z"/>
    <path style="fill:#FFC850;" d="M127.733,256.534H59.324c-4.427,0-8.017,3.589-8.017,8.017c0,4.427,3.589,8.017,8.017,8.017h68.409 c4.427,0,8.017-3.589,8.017-8.017C135.749,260.124,132.16,256.534,127.733,256.534z"/>
    <path style="fill:#FFC850;" d="M25.119,256.534H8.017c-4.427,0-8.017,3.589-8.017,8.017c0,4.427,3.589,8.017,8.017,8.017h17.102 c4.427,0,8.017-3.589,8.017-8.017C33.136,260.124,29.546,256.534,25.119,256.534z"/>
  </g>
  <path style="fill: rgb(72, 195, 151);" d="M 169.162 131.604 C 163.601 130.037 157.8 133.214 156.208 138.707 L 138.003 201.6 L 120.343 149.308 C 118.917 145.084 114.913 142.237 110.404 142.237 C 105.895 142.237 101.891 145.086 100.465 149.308 L 82.805 201.6 L 64.6 138.707 C 63.01 133.215 57.208 130.033 51.647 131.604 C 46.084 133.173 42.861 138.896 44.451 144.389 L 66.802 221.605 C 68.087 226.046 72.198 229.105 76.876 229.105 L 88.051 229.105 C 92.56 229.105 96.565 226.257 97.991 222.035 L 110.403 185.282 L 122.815 222.035 C 124.241 226.258 128.245 229.105 132.754 229.105 L 143.93 229.105 C 148.609 229.105 152.719 226.044 154.004 221.605 L 176.355 144.389 C 177.946 138.896 174.724 133.171 169.162 131.604 Z"/>
  <g transform="matrix(1, 0, 0, 1, -235.350037, -58.544064)"/>
  <g transform="matrix(1, 0, 0, 1, -235.350037, -58.544064)"/>
  <g transform="matrix(1, 0, 0, 1, -235.350037, -58.544064)"/>
  <g transform="matrix(1, 0, 0, 1, -235.350037, -58.544064)"/>
  <g transform="matrix(1, 0, 0, 1, -235.350037, -58.544064)"/>
  <g transform="matrix(1, 0, 0, 1, -235.350037, -58.544064)"/>
  <g transform="matrix(1, 0, 0, 1, -235.350037, -58.544064)"/>
  <g transform="matrix(1, 0, 0, 1, -235.350037, -58.544064)"/>
  <g transform="matrix(1, 0, 0, 1, -235.350037, -58.544064)"/>
  <g transform="matrix(1, 0, 0, 1, -235.350037, -58.544064)"/>
  <g transform="matrix(1, 0, 0, 1, -235.350037, -58.544064)"/>
  <g transform="matrix(1, 0, 0, 1, -235.350037, -58.544064)"/>
  <g transform="matrix(1, 0, 0, 1, -235.350037, -58.544064)"/>
  <g transform="matrix(1, 0, 0, 1, -235.350037, -58.544064)"/>
  <g transform="matrix(1, 0, 0, 1, -235.350037, -58.544064)"/>
</svg>