<svg xmlns="http://www.w3.org/2000/svg" width="1200" height="630" viewBox="0 0 1200 630" role="img" aria-labelledby="t"><title id="t">SEO para negocios locales: guía práctica</title><rect width="1200" height="630" fill="#f7f9fb"/><circle cx="113" cy="105" r="150" fill="#d25565" opacity=".07"/><circle cx="1013" cy="430" r="190" fill="#d25565" opacity=".055"/><path d="M60 520C260 460 340 570 530 505S850 420 1140 485" fill="none" stroke="#d25565" stroke-width="3" opacity=".16"/><rect x="325" y="110" width="550" height="410" rx="34" fill="#fff" stroke="#e7ebf0" stroke-width="3"/><rect x="325" y="110" width="550" height="54" rx="34" fill="#d25565" opacity=".12"/><circle cx="365" cy="137" r="8" fill="#d25565" opacity=".55"/><circle cx="392" cy="137" r="8" fill="#d25565" opacity=".35"/><circle cx="419" cy="137" r="8" fill="#d25565" opacity=".2"/><path d="M600 194c-52 0-94 41-94 92 0 72 94 151 94 151s94-79 94-151c0-51-42-92-94-92z" fill="none" stroke="#d25565" stroke-width="16"/><circle cx="600" cy="286" r="34" fill="none" stroke="#d25565" stroke-width="16"/></svg>